<svg width="42" height="42" viewBox="0 0 42 42" fill="none" xmlns="http://www.w3.org/2000/svg">
<circle cx="21" cy="21" r="21" fill="#FFC362"/>
<path d="M21.9284 18.0719H26.9284L21.9284 13.0719V18.0719ZM24.8344 30.8289L23.2371 29.2376L25.3371 27.1376L23.2371 25.0376L24.8344 23.4404L26.9344 25.5404L29.0344 23.4404L30.6256 25.0376L28.5506 27.1376L30.6256 29.2376L29.0344 30.8289L26.9344 28.7539L24.8344 30.8289ZM15.0719 31.2034C14.4422 31.2034 13.9056 30.9816 13.4621 30.5381C13.0186 30.0946 12.7969 29.558 12.7969 28.9284V13.0719C12.7969 12.4422 13.0186 11.9056 13.4621 11.4621C13.9056 11.0186 14.4422 10.7969 15.0719 10.7969H23.0839L29.2034 16.9164V21.4576C28.8509 21.3091 28.4819 21.1958 28.0964 21.1176C27.7109 21.0393 27.3152 21.0001 26.9094 21.0001C25.2069 21.0001 23.7625 21.5932 22.5761 22.7794C21.39 23.9657 20.7969 25.4101 20.7969 27.1126C20.7969 27.8746 20.9302 28.6055 21.1969 29.3051C21.4635 30.0046 21.8509 30.6374 22.3589 31.2034H15.0719Z" fill="white"/>
</svg>
