<svg width="42" height="42" viewBox="0 0 42 42" fill="none" xmlns="http://www.w3.org/2000/svg">
<circle cx="21" cy="21" r="21" fill="#2970CC"/>
<path d="M21.375 11.25H21.75V12.4961C22.2386 12.4174 22.7392 12.375 23.25 12.375C23.7608 12.375 24.2614 12.4174 24.75 12.4961V11.25H25.125C25.5394 11.25 25.875 10.9144 25.875 10.5C25.875 10.0856 25.5394 9.75 25.125 9.75H21.375C20.9606 9.75 20.625 10.0856 20.625 10.5C20.625 10.9144 20.9606 11.25 21.375 11.25Z" fill="white"/>
<path d="M30.9087 16.3459L31.5136 15.7425C31.5061 14.5016 30.4985 13.5 29.2576 13.5H29.2505L28.6572 14.0932C29.5299 14.7109 30.2919 15.4729 30.9087 16.3459Z" fill="white"/>
<path d="M17.8511 14.088L17.2631 13.5H17.256C16.0151 13.5 15.0075 14.502 15 15.7425L15.597 16.338C16.215 15.4661 16.9778 14.7045 17.8511 14.088Z" fill="white"/>
<path d="M18.0979 27.1804C17.7705 27.0727 17.5125 26.8309 17.3903 26.5162C17.3745 26.4754 17.358 26.4356 17.3408 26.3959C17.2073 26.0887 17.2193 25.7374 17.3734 25.4318C17.4521 25.2761 17.4221 25.0883 17.2987 24.9649L17.0347 24.7009C16.911 24.5775 16.7235 24.5471 16.5679 24.6262C16.2622 24.7804 15.9105 24.7924 15.6034 24.6589C15.564 24.642 15.5239 24.6255 15.4838 24.6097C15.1691 24.4875 14.9272 24.2295 14.8196 23.9025C14.7653 23.7364 14.6111 23.625 14.4367 23.625H14.0633C13.8889 23.625 13.7351 23.7364 13.6804 23.9021C13.5728 24.2295 13.3305 24.4875 13.0159 24.6097C12.9757 24.6255 12.9356 24.6416 12.8959 24.6589C12.5895 24.7924 12.2374 24.7807 11.9317 24.6262C11.7754 24.5471 11.5882 24.5775 11.4649 24.7009L11.2012 24.9653C11.0779 25.0886 11.0479 25.2765 11.1266 25.4321C11.2811 25.7378 11.2928 26.0891 11.1593 26.3966C11.1424 26.4356 11.1259 26.4757 11.1101 26.5159C10.9875 26.8309 10.7295 27.0731 10.4025 27.1804C10.2364 27.2347 10.125 27.3889 10.125 27.5632V27.9368C10.125 28.1111 10.2364 28.2649 10.4021 28.3196C10.7295 28.4273 10.9875 28.6691 11.1097 28.9838C11.1255 29.0246 11.142 29.0644 11.1593 29.1041C11.2928 29.4113 11.2808 29.7626 11.1266 30.0682C11.0479 30.2239 11.0779 30.4114 11.2012 30.5347L11.4656 30.7991C11.589 30.9229 11.7761 30.9525 11.9321 30.8738C12.0967 30.7905 12.2749 30.7489 12.4519 30.7489C12.6037 30.7489 12.7549 30.7796 12.8966 30.8415C12.9356 30.8584 12.9757 30.8749 13.0159 30.8906C13.3309 31.0132 13.5731 31.2709 13.6804 31.5979C13.7351 31.764 13.8889 31.8754 14.0633 31.8754H14.4367C14.6111 31.8754 14.7649 31.764 14.8196 31.5983C14.9272 31.2709 15.1691 31.0129 15.4838 30.8906C15.5246 30.8749 15.5644 30.8584 15.6041 30.8411C15.9113 30.7084 16.2626 30.7196 16.5682 30.8738C16.7239 30.9525 16.9114 30.9225 17.0347 30.7991L17.2991 30.5347C17.4225 30.4114 17.4525 30.2239 17.3737 30.0682C17.2193 29.7626 17.2076 29.4113 17.3411 29.1038C17.358 29.0648 17.3745 29.0246 17.3903 28.9845C17.5129 28.6695 17.7705 28.4273 18.0975 28.32C18.2636 28.2653 18.375 28.1115 18.375 27.9371V27.5636C18.375 27.3889 18.2636 27.2347 18.0979 27.1804ZM14.25 30C13.0073 30 12 28.9928 12 27.75C12 26.5073 13.0073 25.5 14.25 25.5C15.4928 25.5 16.5 26.5073 16.5 27.75C16.5 28.9928 15.4928 30 14.25 30Z" fill="white"/>
<path d="M16.1416 22.1254C16.1735 22.7142 16.2807 23.2988 16.4619 23.8729C16.8515 23.7717 17.2711 23.8774 17.5647 24.1714L17.6247 24.2314V23.6254H19.4997V19.5004H20.9997V23.6254H22.4997V18.0004H23.9997V23.6254H25.4997V20.2504H26.9997V23.6254H28.8747V24.3754H17.7691L17.8291 24.4354C18.1824 24.7883 18.2682 25.3253 18.0429 25.7708C17.9892 25.8765 17.9844 25.9958 18.0286 26.0982C18.05 26.1469 18.0699 26.196 18.089 26.2455C18.101 26.2763 18.1246 26.2999 18.1441 26.3258L19.007 25.4629L19.5372 25.9932L18.7842 26.7462C18.9924 26.9528 19.1176 27.2359 19.1229 27.543C20.2362 28.3392 21.5221 28.7899 22.8744 28.8604V27.3754H23.6244V28.8563C25.3059 28.7682 26.8317 28.0973 28.0074 27.0387L26.9615 25.9928L27.4917 25.4625L28.5376 26.5084C29.5966 25.3328 30.2671 23.8069 30.3552 22.1254H28.8747V21.3754H30.3556C30.2675 19.6939 29.5966 18.168 28.538 16.9924L27.4921 18.0383L26.9619 17.508L28.0077 16.4622C26.8321 15.4032 25.3062 14.7327 23.6247 14.6445V16.1254H22.8747V14.6445C21.1932 14.7327 19.6674 15.4035 18.4917 16.4622L19.5376 17.508L19.0074 18.0383L17.9615 16.9924C16.9025 18.168 16.232 19.6939 16.1439 21.3754H17.6247V22.1254H16.1416Z" fill="white"/>
<path d="M23.25 13.125C18.4942 13.125 14.625 16.9942 14.625 21.75C14.625 22.1329 14.6588 22.5225 14.712 22.9117C15.0919 23.0051 15.4058 23.2837 15.5321 23.6677C15.5573 23.745 15.6083 23.8035 15.6679 23.8507C15.4744 23.1608 15.375 22.4569 15.375 21.75C15.375 17.4075 18.9075 13.875 23.25 13.875C27.5925 13.875 31.125 17.4075 31.125 21.75C31.125 26.0925 27.5925 29.625 23.25 29.625C21.7414 29.625 20.2946 29.199 19.0294 28.389C18.9274 28.6282 18.7485 28.8289 18.5141 28.9534C19.9211 29.8822 21.546 30.375 23.25 30.375C28.0057 30.375 31.875 26.5057 31.875 21.75C31.875 16.9942 28.0057 13.125 23.25 13.125Z" fill="white"/>
<path d="M14.25 28.5C14.6642 28.5 15 28.1642 15 27.75C15 27.3358 14.6642 27 14.25 27C13.8358 27 13.5 27.3358 13.5 27.75C13.5 28.1642 13.8358 28.5 14.25 28.5Z" fill="white"/>
</svg>
