<svg width="42" height="42" viewBox="0 0 42 42" fill="none" xmlns="http://www.w3.org/2000/svg">
<circle cx="21" cy="21" r="21" fill="#30D287"/>
<path d="M16.5 11.5C16.5 10.9477 16.0523 10.5 15.5 10.5C14.9477 10.5 14.5 10.9477 14.5 11.5V12.5C14.5 13.0523 14.9477 13.5 15.5 13.5C16.0523 13.5 16.5 13.0523 16.5 12.5V11.5Z" fill="white"/>
<path d="M27.5 11.5C27.5 10.9477 27.0523 10.5 26.5 10.5C25.9477 10.5 25.5 10.9477 25.5 11.5V12.5C25.5 13.0523 25.9477 13.5 26.5 13.5C27.0523 13.5 27.5 13.0523 27.5 12.5V11.5Z" fill="white"/>
<path d="M11 18V29.5C11 30.6045 11.8955 31.5 13 31.5H29C30.1045 31.5 31 30.6045 31 29.5V18H11ZM17 28C17 28.5525 16.5525 29 16 29H15C14.4475 29 14 28.5525 14 28V27C14 26.4475 14.4475 26 15 26H16C16.5525 26 17 26.4475 17 27V28ZM17 22.5C17 23.0525 16.5525 23.5 16 23.5H15C14.4475 23.5 14 23.0525 14 22.5V21.5C14 20.9475 14.4475 20.5 15 20.5H16C16.5525 20.5 17 20.9475 17 21.5V22.5ZM22.5 28C22.5 28.5525 22.0525 29 21.5 29H20.5C19.9475 29 19.5 28.5525 19.5 28V27C19.5 26.4475 19.9475 26 20.5 26H21.5C22.0525 26 22.5 26.4475 22.5 27V28ZM22.5 22.5C22.5 23.0525 22.0525 23.5 21.5 23.5H20.5C19.9475 23.5 19.5 23.0525 19.5 22.5V21.5C19.5 20.9475 19.9475 20.5 20.5 20.5H21.5C22.0525 20.5 22.5 20.9475 22.5 21.5V22.5ZM28 28C28 28.5525 27.5525 29 27 29H26C25.4475 29 25 28.5525 25 28V27C25 26.4475 25.4475 26 26 26H27C27.5525 26 28 26.4475 28 27V28ZM28 22.5C28 23.0525 27.5525 23.5 27 23.5H26C25.4475 23.5 25 23.0525 25 22.5V21.5C25 20.9475 25.4475 20.5 26 20.5H27C27.5525 20.5 28 20.9475 28 21.5V22.5Z" fill="white"/>
<path d="M31 17V14C31 12.8955 30.1045 12 29 12H28.5V12.5C28.5 13.603 27.603 14.5 26.5 14.5C25.397 14.5 24.5 13.603 24.5 12.5V12H17.5V12.5C17.5 13.603 16.603 14.5 15.5 14.5C14.397 14.5 13.5 13.603 13.5 12.5V12H13C11.8955 12 11 12.8955 11 14V17H31Z" fill="white"/>
</svg>
