<svg width="42" height="42" viewBox="0 0 42 42" fill="none" xmlns="http://www.w3.org/2000/svg">
<circle cx="21" cy="21" r="21" fill="#FFC362"/>
<path d="M24.375 10.9462C24.6184 10.9016 24.8685 10.875 25.125 10.875C25.3815 10.875 25.6316 10.9016 25.875 10.9462V10.125H27V9.375H23.25V10.125H24.375V10.9462Z" fill="white"/>
<path d="M28.7651 11.1396L28.2349 10.6094L27.3281 11.5161C27.5422 11.6519 27.7421 11.8064 27.927 11.9781L28.7651 11.1396Z" fill="white"/>
<path d="M22.9224 11.5161L22.0156 10.6094L21.4854 11.1396L22.3239 11.9781C22.5087 11.8064 22.7086 11.6519 22.9224 11.5161Z" fill="white"/>
<path d="M21.75 14.9994C21.75 16.8601 23.2643 18.3744 25.125 18.3744C26.859 18.3744 28.2904 17.0592 28.4779 15.3744H24.75V11.6465C23.0651 11.834 21.75 13.2654 21.75 14.9994Z" fill="white"/>
<path d="M25.5 11.6465V14.6244H28.4779C28.3043 13.0629 27.0615 11.8201 25.5 11.6465Z" fill="white"/>
<path d="M14.625 25.875H20.625V19.125H14.625V25.875ZM18.75 25.125C18.1298 25.125 17.625 24.6203 17.625 24C17.625 23.3797 18.1298 22.875 18.75 22.875C19.3703 22.875 19.875 23.3797 19.875 24C19.875 24.6203 19.3703 25.125 18.75 25.125ZM19.7651 20.8901L16.0151 24.6401L15.4849 24.1099L19.2349 20.3599L19.7651 20.8901ZM16.5 19.875C17.1202 19.875 17.625 20.3798 17.625 21C17.625 21.6202 17.1202 22.125 16.5 22.125C15.8798 22.125 15.375 21.6202 15.375 21C15.375 20.3798 15.8798 19.875 16.5 19.875Z" fill="white"/>
<path d="M13.125 27.375H28.875V17.625H28.3046C27.5475 18.5404 26.4034 19.125 25.125 19.125C23.8466 19.125 22.7029 18.5404 21.9454 17.625H13.125V27.375ZM22.5 23.625H23.25V22.125H24V23.625H24.75V21.375H25.5V23.625H26.25V20.625H27V23.625H27.75V24.375H22.5V23.625ZM22.5 25.125H27.75V25.875H22.5V25.125ZM13.875 18.375H21.375V26.625H13.875V18.375Z" fill="white"/>
<path d="M16.5 21.375C16.7071 21.375 16.875 21.2071 16.875 21C16.875 20.7929 16.7071 20.625 16.5 20.625C16.2929 20.625 16.125 20.7929 16.125 21C16.125 21.2071 16.2929 21.375 16.5 21.375Z" fill="white"/>
<path d="M30.375 17.25C30.375 16.6298 29.8703 16.125 29.25 16.125H29.0903C29.016 16.3868 28.9166 16.6373 28.7948 16.875H28.875C29.2886 16.875 29.625 17.2114 29.625 17.625V27.375C29.625 27.7886 29.2886 28.125 28.875 28.125H13.125C12.7114 28.125 12.375 27.7886 12.375 27.375V17.625C12.375 17.2114 12.7114 16.875 13.125 16.875H21.4552C21.3334 16.6373 21.234 16.3868 21.1597 16.125H12.75C12.1298 16.125 11.625 16.6298 11.625 17.25V28.875H30.375V17.25Z" fill="white"/>
<path d="M18.75 24.375C18.9571 24.375 19.125 24.2071 19.125 24C19.125 23.7929 18.9571 23.625 18.75 23.625C18.5429 23.625 18.375 23.7929 18.375 24C18.375 24.2071 18.5429 24.375 18.75 24.375Z" fill="white"/>
<path d="M30.375 29.625H25.0166C24.6675 30.5194 23.8099 31.125 22.8285 31.125H19.1707C18.1897 31.125 17.3318 30.5194 16.9826 29.625H11.625C10.7977 29.625 10.125 30.2977 10.125 31.125V31.5C10.125 31.7066 10.2934 31.875 10.5 31.875H31.5C31.7066 31.875 31.875 31.7066 31.875 31.5V31.125C31.875 30.2977 31.2022 29.625 30.375 29.625ZM29.25 31.125C29.043 31.125 28.875 30.957 28.875 30.75C28.875 30.543 29.043 30.375 29.25 30.375C29.457 30.375 29.625 30.543 29.625 30.75C29.625 30.957 29.457 31.125 29.25 31.125ZM30.75 31.125C30.543 31.125 30.375 30.957 30.375 30.75C30.375 30.543 30.543 30.375 30.75 30.375C30.957 30.375 31.125 30.543 31.125 30.75C31.125 30.957 30.957 31.125 30.75 31.125Z" fill="white"/>
<path d="M19.1708 30.375H22.8286C23.3922 30.375 23.8973 30.0818 24.185 29.625H17.8145C18.1021 30.0818 18.6072 30.375 19.1708 30.375Z" fill="white"/>
</svg>
