<svg width="28" height="28" viewBox="0 0 28 28" fill="none" xmlns="http://www.w3.org/2000/svg">
<path d="M10.9134 24.5002C11.7361 25.2263 12.8167 25.6668 14.0002 25.6668C15.1837 25.6668 16.2644 25.2263 17.087 24.5002M21.0002 9.3335C21.0002 7.47698 20.2627 5.6965 18.95 4.38375C17.6372 3.07099 15.8567 2.3335 14.0002 2.3335C12.1437 2.3335 10.3632 3.07099 9.05048 4.38375C7.73772 5.6965 7.00023 7.47698 7.00023 9.3335C7.00023 12.9387 6.09077 15.4071 5.07483 17.0398C4.21787 18.417 3.78939 19.1056 3.8051 19.2977C3.8225 19.5104 3.86756 19.5915 4.03896 19.7187C4.19376 19.8335 4.89158 19.8335 6.28722 19.8335H21.7132C23.1089 19.8335 23.8067 19.8335 23.9615 19.7187C24.1329 19.5915 24.178 19.5104 24.1953 19.2977C24.2111 19.1056 23.7826 18.417 22.9256 17.0398C21.9097 15.4071 21.0002 12.9387 21.0002 9.3335Z" stroke="#001924" stroke-width="1.5" stroke-linecap="round" stroke-linejoin="round"/>
</svg>
