<svg width="20" height="20" viewBox="0 0 20 20" fill="none" xmlns="http://www.w3.org/2000/svg">
<g clip-path="url(#clip0_22001_3995)">
<path d="M12.8988 15.6866L13.7273 16.5152L10.2426 19.9999H20V19.414C20 15.7133 17.8489 11.889 13.7319 10.174C11.3996 9.24901 8.80203 9.16826 6.25891 10.178C2.26895 11.8393 0 15.5923 0 19.414V19.9999H8.58551L12.8988 15.6866ZM3.92203 17.2653L2.81652 16.8751C3.89 13.8378 6.77621 11.7968 10 11.7968C13.2238 11.7968 16.11 13.8378 17.1834 16.8751L16.0779 17.2653C15.1704 14.6956 12.7283 12.9687 10 12.9687C7.27172 12.9687 4.82957 14.6956 3.92203 17.2653Z" fill="white"/>
<path d="M1.21094 12.599C2.27082 11.215 3.33602 10.382 4.72656 9.63344V7.10938H1.21094V12.599Z" fill="white"/>
<path d="M5.89844 9.06637C7.36203 8.49906 8.35797 8.37031 9.41406 8.31715V4.76562H5.89844V9.06637Z" fill="white"/>
<path d="M14.1016 9.0641V2.42188H10.5859V8.31672C11.5739 8.36633 12.5961 8.47711 14.1016 9.0641Z" fill="white"/>
<path d="M15.2734 9.63473C16.6847 10.3946 17.7295 11.215 18.7891 12.6007V0H15.2734V9.63473Z" fill="white"/>
</g>
<defs>
<clipPath id="clip0_22001_3995">
<rect width="20" height="20" fill="white"/>
</clipPath>
</defs>
</svg>
