<svg width="42" height="42" viewBox="0 0 42 42" fill="none" xmlns="http://www.w3.org/2000/svg">
<circle cx="21" cy="21" r="21" fill="#FFC362"/>
<g clip-path="url(#clip0_12006_6526)">
<path d="M26.625 21C23.5234 21 21 23.5234 21 26.625C21 29.7266 23.5234 32.25 26.625 32.25C29.7266 32.25 32.25 29.7266 32.25 26.625C32.25 23.5234 29.7266 21 26.625 21ZM26.5963 26.2504C26.6058 26.2496 26.6153 26.2493 26.625 26.2493C27.659 26.2493 28.5004 27.0906 28.5004 28.1246C28.5004 29.0302 27.8549 29.7878 27 29.9621V30.8613H26.25V29.9621C25.3951 29.7878 24.7496 29.0302 24.7496 28.1246H25.4996C25.4996 28.7452 26.0045 29.25 26.625 29.25C27.2455 29.25 27.7504 28.7452 27.7504 28.1246C27.7504 27.5138 27.2611 27.015 26.6537 26.9996C26.6442 27.0004 26.6347 27.0007 26.625 27.0007C25.591 27.0007 24.7496 26.1594 24.7496 25.1254C24.7496 24.2198 25.3951 23.4622 26.25 23.2879V22.3887H27V23.2879C27.8549 23.4622 28.5004 24.2198 28.5004 25.1254H27.7504C27.7504 24.5048 27.2455 24 26.625 24C26.0045 24 25.4996 24.5048 25.4996 25.1254C25.4996 25.7362 25.9889 26.235 26.5963 26.2504Z" fill="white"/>
<path d="M14.625 22.4355H13.125C12.9179 22.4355 12.75 22.6034 12.75 22.8105V24.3105C12.75 24.5177 12.9179 24.6855 13.125 24.6855H14.625C14.8321 24.6855 15 24.5177 15 24.3105V22.8105C15 22.6034 14.8321 22.4355 14.625 22.4355Z" fill="white"/>
<path d="M19.125 17.8691H17.625C17.4179 17.8691 17.25 18.037 17.25 18.2441V19.7441C17.25 19.9512 17.4179 20.1191 17.625 20.1191H19.125C19.3321 20.1191 19.5 19.9512 19.5 19.7441V18.2441C19.5 18.037 19.3321 17.8691 19.125 17.8691Z" fill="white"/>
<path d="M14.625 27H13.125C12.9179 27 12.75 27.1679 12.75 27.375V28.875C12.75 29.0821 12.9179 29.25 13.125 29.25H14.625C14.8321 29.25 15 29.0821 15 28.875V27.375C15 27.1679 14.8321 27 14.625 27Z" fill="white"/>
<path d="M14.625 17.8691H13.125C12.9179 17.8691 12.75 18.037 12.75 18.2441V19.7441C12.75 19.9512 12.9179 20.1191 13.125 20.1191H14.625C14.8321 20.1191 15 19.9512 15 19.7441V18.2441C15 18.037 14.8321 17.8691 14.625 17.8691Z" fill="white"/>
<path d="M19.125 27H17.625C17.4179 27 17.25 27.1679 17.25 27.375V28.875C17.25 29.0821 17.4179 29.25 17.625 29.25H19.125C19.3321 29.25 19.5 29.0821 19.5 28.875V27.375C19.5 27.1679 19.3321 27 19.125 27Z" fill="white"/>
<path d="M19.125 22.4355H17.625C17.4179 22.4355 17.25 22.6034 17.25 22.8105V24.3105C17.25 24.5177 17.4179 24.6855 17.625 24.6855H19.125C19.3321 24.6855 19.5 24.5177 19.5 24.3105V22.8105C19.5 22.6034 19.3321 22.4355 19.125 22.4355Z" fill="white"/>
<path d="M23.625 17.8691H22.125C21.9179 17.8691 21.75 18.037 21.75 18.2441V19.7441C21.75 19.9512 21.9179 20.1191 22.125 20.1191H23.625C23.8321 20.1191 24 19.9512 24 19.7441V18.2441C24 18.037 23.8321 17.8691 23.625 17.8691Z" fill="white"/>
<path d="M23.679 12.75H13.071C12.8937 12.75 12.75 12.8937 12.75 13.071V15.0949C12.75 15.2722 12.8937 15.4159 13.071 15.4159H23.679C23.8563 15.4159 24 15.2722 24 15.0949V13.071C24 12.8937 23.8563 12.75 23.679 12.75Z" fill="white"/>
<path d="M20.25 26.625C20.25 23.1097 23.1097 20.25 26.625 20.25C26.7516 20.25 26.8752 20.2617 27 20.269V11.5977C27 10.5789 26.1711 9.75 25.1523 9.75H11.5977C10.5789 9.75 9.75 10.5789 9.75 11.5977V30.4023C9.75 31.4211 10.5789 32.25 11.5977 32.25H23.6314C21.6216 31.1761 20.25 29.0585 20.25 26.625ZM20.25 24.31C20.25 24.9304 19.7454 25.435 19.125 25.435H17.625C17.0046 25.435 16.5 24.9304 16.5 24.31V22.81C16.5 22.1896 17.0046 21.685 17.625 21.685H19.125C19.7454 21.685 20.25 22.1896 20.25 22.81V24.31ZM20.25 19.745C20.25 20.3654 19.7454 20.87 19.125 20.87H17.625C17.0046 20.87 16.5 20.3654 16.5 19.745V18.245C16.5 17.6246 17.0046 17.12 17.625 17.12H19.125C19.7454 17.12 20.25 17.6246 20.25 18.245V19.745ZM24.75 19.745C24.75 20.3654 24.2454 20.87 23.625 20.87H22.125C21.5046 20.87 21 20.3654 21 19.745V18.245C21 17.6246 21.5046 17.12 22.125 17.12H23.625C24.2454 17.12 24.75 17.6246 24.75 18.245V19.745ZM12 13.071C12 12.4805 12.4805 12 13.071 12H23.679C24.2695 12 24.75 12.4805 24.75 13.071V15.0948C24.75 15.6854 24.2695 16.1658 23.679 16.1658H13.071C12.4805 16.1658 12 15.6854 12 15.0948V13.071ZM15.75 28.875C15.75 29.4954 15.2454 30 14.625 30H13.125C12.5046 30 12 29.4954 12 28.875V27.375C12 26.7546 12.5046 26.25 13.125 26.25H14.625C15.2454 26.25 15.75 26.7546 15.75 27.375V28.875ZM15.75 24.31C15.75 24.9304 15.2454 25.435 14.625 25.435H13.125C12.5046 25.435 12 24.9304 12 24.31V22.81C12 22.1896 12.5046 21.685 13.125 21.685H14.625C15.2454 21.685 15.75 22.1896 15.75 22.81V24.31ZM15.75 19.745C15.75 20.3654 15.2454 20.87 14.625 20.87H13.125C12.5046 20.87 12 20.3654 12 19.745V18.245C12 17.6246 12.5046 17.12 13.125 17.12H14.625C15.2454 17.12 15.75 17.6246 15.75 18.245V19.745ZM20.25 28.875C20.25 29.4954 19.7454 30 19.125 30H17.625C17.0046 30 16.5 29.4954 16.5 28.875V27.375C16.5 26.7546 17.0046 26.25 17.625 26.25H19.125C19.7454 26.25 20.25 26.7546 20.25 27.375V28.875Z" fill="white"/>
</g>
<defs>
<clipPath id="clip0_12006_6526">
<rect width="24" height="24" fill="white" transform="translate(9 9)"/>
</clipPath>
</defs>
</svg>
