<svg width="20" height="20" viewBox="0 0 20 20" fill="none" xmlns="http://www.w3.org/2000/svg">
<g clip-path="url(#clip0_22001_4050)">
<path fill-rule="evenodd" clip-rule="evenodd" d="M2.01828 13.9946C2.04953 14.2063 1.90317 14.4028 1.69242 14.4338C1.47973 14.4649 1.28457 14.3183 1.25336 14.1066C1.22215 13.8952 1.36848 13.6983 1.57922 13.6673C1.79192 13.6367 1.98902 13.783 2.01828 13.9946ZM12.5621 5.73133C13.6399 6.92734 14.4443 7.96594 14.9749 8.89773C15.9813 10.6647 15.7322 12.4459 14.7455 13.7498L13.8658 14.2622C13.6291 14.4 13.3879 14.4874 13.1386 14.5302C13.2426 14.392 13.3231 14.2266 13.3748 14.0348C13.5705 13.3095 13.1364 12.5921 12.4395 12.3506L12.3943 12.335L12.3474 12.3264C12.1863 12.2969 12.0262 12.2636 11.867 12.227C12.0092 12.0368 12.0927 11.8024 12.0859 11.5202C12.0848 11.4716 12.082 11.4289 12.0776 11.3924C12.0212 10.9277 11.7697 10.6251 11.4363 10.4238C11.1435 10.247 10.7923 10.1589 10.4703 10.1061C10.238 10.068 9.99344 10.0034 9.8143 9.88648C9.67551 9.79586 9.57594 9.66469 9.56664 9.47285C9.55656 9.26527 9.64719 9.09785 9.78996 8.98176C9.9018 8.89082 10.0445 8.82765 10.1992 8.79652C10.2614 8.78398 10.3255 8.77676 10.3901 8.77508C10.397 8.77547 10.4039 8.7757 10.4108 8.7757C10.4192 8.7757 10.4275 8.77539 10.4357 8.7748C10.5212 8.77605 10.6073 8.78703 10.6915 8.80836C10.9501 8.87391 11.1856 9.04437 11.3096 9.33973C11.3839 9.51684 11.5878 9.60023 11.7649 9.5259C11.942 9.4516 12.0254 9.24773 11.9511 9.07059C11.7327 8.55055 11.317 8.25008 10.86 8.13422C10.8265 8.12574 10.7927 8.11828 10.7588 8.11184V7.84223C10.7588 7.65008 10.603 7.4943 10.4108 7.4943C10.2187 7.4943 10.0629 7.65008 10.0629 7.84223V8.11703C9.7993 8.17019 9.55176 8.28144 9.35235 8.44355C9.0459 8.69269 8.8516 9.05441 8.87352 9.50547C8.89551 9.95863 9.12164 10.2626 9.43649 10.4682C9.71094 10.6473 10.048 10.74 10.3588 10.7911C10.6085 10.832 10.875 10.8968 11.0775 11.0191C11.2395 11.1169 11.3612 11.2598 11.3872 11.4739C11.3906 11.5025 11.3925 11.5232 11.3928 11.5365C11.3968 11.7068 11.3154 11.8365 11.1931 11.9293C11.1516 11.9608 11.1055 11.9888 11.0561 12.0134C10.1575 11.7491 9.32254 11.4064 8.43508 11.1185C7.50859 10.8179 6.6452 11.1581 5.84477 11.6218L5.29961 11.9377C5.12613 10.9866 5.28242 9.93976 5.87586 8.89777C6.40656 7.96601 7.2109 6.92738 8.28867 5.73141C8.42391 5.77547 8.56813 5.79937 8.71774 5.79937H12.1331C12.2827 5.79934 12.4268 5.77539 12.5621 5.73133ZM8.7177 5.17434H12.133C12.5541 5.17434 12.8986 4.8298 12.8986 4.40883C12.8986 3.98773 12.5542 3.64328 12.133 3.64328H8.7177C8.2966 3.64328 7.95215 3.98773 7.95215 4.40879C7.95211 4.82984 8.2966 5.17434 8.7177 5.17434ZM8.68985 3.01859L8.06106 2.3898C7.75512 2.08387 7.75512 1.5832 8.06106 1.27727C8.32129 1.01703 8.7332 0.973047 9.04289 1.1718C9.15789 1.24562 9.29 1.25738 9.41625 1.20516C9.54246 1.15285 9.6275 1.05117 9.65668 0.917617C9.73379 0.564453 10.05 0.29793 10.4254 0.297852C10.7941 0.297852 11.1156 0.557734 11.1942 0.917617C11.2234 1.05117 11.3084 1.15285 11.4347 1.20516C11.5609 1.25746 11.693 1.24562 11.8079 1.1718C12.1121 0.976562 12.5243 1.01176 12.7898 1.27719V1.27727C13.0957 1.5832 13.0957 2.08387 12.7898 2.3898L12.161 3.01859C12.1517 3.0184 12.1424 3.01824 12.1331 3.01824H8.71774C8.7084 3.01824 8.6991 3.01844 8.68985 3.01859ZM3.26598 13.838L5.35082 17.517L6.13527 17.0643C6.21137 17.0202 6.30117 17.0085 6.38703 17.0313L11.3137 18.1164C11.9654 18.2907 12.5782 18.2046 13.1382 17.8603L19.1209 14.1422C19.4468 13.9424 19.5463 13.3557 19.3219 12.9801C18.996 12.4361 18.1335 12.5003 17.0134 13.1522L14.1804 14.8022C13.591 15.1465 12.9548 15.2579 12.2387 15.1432C12.1079 15.1221 11.9791 15.0996 11.8523 15.0752C11.825 15.0733 9.44227 14.4539 9.1691 14.3803C8.99152 14.3331 8.88613 14.1516 8.93492 13.9754C8.98176 13.7986 9.16324 13.694 9.33887 13.7412C9.61793 13.816 11.3079 14.295 11.9421 14.4184C12.266 14.4391 12.6426 14.3489 12.7714 13.872C12.8768 13.4809 12.6465 13.0838 12.2348 12.9412C11.0776 12.7293 9.95942 12.3255 9.06176 12.0004C8.74758 11.887 8.47633 11.7891 8.24215 11.713C7.50449 11.4738 6.80395 11.7877 6.15801 12.1626L3.26598 13.838ZM5.27524 18.7328L2.08656 13.0984C2.05535 13.0434 2.00461 13.0039 1.94215 12.9866C1.9207 12.9809 1.89926 12.978 1.87774 12.978C1.8368 12.978 1.79774 12.9884 1.76262 13.0083L0.677618 13.622C0.562501 13.687 0.523439 13.8327 0.587814 13.9469L3.77649 19.5812C3.8409 19.6958 3.98727 19.736 4.10043 19.6714L5.18543 19.0575C5.24008 19.0265 5.2791 18.9752 5.29664 18.9137C5.31426 18.852 5.30645 18.7879 5.27524 18.7328Z" fill="white"/>
</g>
<defs>
<clipPath id="clip0_22001_4050">
<rect width="20" height="20" fill="white"/>
</clipPath>
</defs>
</svg>
