<svg width="42" height="42" viewBox="0 0 42 42" fill="none" xmlns="http://www.w3.org/2000/svg">
<circle cx="21" cy="21" r="21" fill="#45C7FF"/>
<path d="M20.9975 12.2529C16.161 12.2529 12.2529 16.161 12.2529 20.9975C12.2529 25.8339 16.161 29.7475 20.9975 29.7475C25.8339 29.7475 29.7475 25.8339 29.7475 20.9975C29.7475 16.161 25.8339 12.2529 20.9975 12.2529ZM21.1163 16.1968C23.118 16.209 24.9856 17.4829 25.6519 19.4847C26.4881 21.9967 25.1254 24.724 22.6141 25.559C21.3257 25.9874 19.976 25.8414 18.8602 25.2543C18.6 25.1202 18.4997 24.7992 18.6374 24.5409C18.7734 24.2828 19.0939 24.1851 19.3508 24.3236C20.2243 24.7833 21.2672 24.8979 22.2793 24.5614C24.252 23.9055 25.3115 21.7896 24.6543 19.8154C23.9972 17.8412 21.8811 16.7776 19.9083 17.4335C19.2219 17.6617 18.647 18.0674 18.2165 18.5828L18.3901 18.5035C18.6538 18.3819 18.9662 18.4977 19.087 18.7618C19.205 19.0241 19.0898 19.3325 18.8288 19.4533L17.2176 20.2021C16.9104 20.3437 16.5514 20.1619 16.4838 19.8304L16.1121 18.0949C16.0506 17.8097 16.2336 17.5292 16.5193 17.4704C16.8018 17.4113 17.0789 17.5914 17.1397 17.8735L17.2053 18.1824C17.7746 17.3946 18.5871 16.7721 19.5776 16.4428C20.0554 16.2834 20.5412 16.2004 21.1163 16.1968Z" fill="white"/>
</svg>
