<svg width="17" height="17" viewBox="0 0 17 17" fill="none" xmlns="http://www.w3.org/2000/svg">
<g clip-path="url(#clip0_20047_8885)">
<path d="M8.13379 16.5C6.55154 16.5 5.00482 16.0308 3.68923 15.1518C2.37364 14.2727 1.34826 13.0233 0.742756 11.5615C0.137255 10.0997 -0.0211714 8.49113 0.28751 6.93928C0.596192 5.38743 1.35812 3.96197 2.47694 2.84315C3.59576 1.72433 5.02122 0.962403 6.57307 0.653721C8.12492 0.34504 9.73345 0.503466 11.1953 1.10897C12.6571 1.71447 13.9065 2.73985 14.7855 4.05544C15.6646 5.37104 16.1338 6.91775 16.1338 8.5C16.1315 10.621 15.2879 12.6545 13.7881 14.1543C12.2883 15.6541 10.2548 16.4977 8.13379 16.5ZM8.13379 1.83334C6.81525 1.83334 5.52632 2.22433 4.42999 2.95687C3.33366 3.68942 2.47918 4.73061 1.9746 5.94878C1.47001 7.16695 1.33799 8.5074 1.59522 9.80061C1.85246 11.0938 2.4874 12.2817 3.41975 13.214C4.3521 14.1464 5.53998 14.7813 6.83319 15.0386C8.1264 15.2958 9.46684 15.1638 10.685 14.6592C11.9032 14.1546 12.9444 13.3001 13.6769 12.2038C14.4095 11.1075 14.8005 9.81855 14.8005 8.5C14.7985 6.73249 14.0955 5.03792 12.8457 3.7881C11.5959 2.53828 9.90131 1.83528 8.13379 1.83334Z" fill="#8E99A1"/>
<path d="M9.46696 13.1665H8.13363V8.49984H6.80029V7.1665H8.13363C8.48725 7.1665 8.82639 7.30698 9.07643 7.55703C9.32648 7.80708 9.46696 8.14622 9.46696 8.49984V13.1665Z" fill="#8E99A1"/>
<path d="M8.13379 5.8335C8.68607 5.8335 9.13379 5.38578 9.13379 4.8335C9.13379 4.28121 8.68607 3.8335 8.13379 3.8335C7.5815 3.8335 7.13379 4.28121 7.13379 4.8335C7.13379 5.38578 7.5815 5.8335 8.13379 5.8335Z" fill="#8E99A1"/>
</g>
<defs>
<clipPath id="clip0_20047_8885">
<rect width="16" height="16" fill="white" transform="translate(0.133789 0.5)"/>
</clipPath>
</defs>
</svg>
