<svg width="42" height="42" viewBox="0 0 42 42" fill="none" xmlns="http://www.w3.org/2000/svg">
<circle cx="21" cy="21" r="21" fill="#FF5050"/>
<path d="M21 11C19.0222 11 17.0888 11.5865 15.4443 12.6853C13.7998 13.7841 12.5181 15.3459 11.7612 17.1732C11.0043 19.0004 10.8063 21.0111 11.1922 22.9509C11.578 24.8907 12.5304 26.6725 13.9289 28.0711C15.3275 29.4696 17.1093 30.422 19.0491 30.8079C20.9889 31.1937 22.9996 30.9957 24.8268 30.2388C26.6541 29.4819 28.2159 28.2002 29.3147 26.5557C30.4135 24.9112 31 22.9778 31 21C31 19.6868 30.7413 18.3864 30.2388 17.1732C29.7363 15.9599 28.9997 14.8575 28.0711 13.9289C27.1425 13.0003 26.0401 12.2638 24.8268 11.7612C23.6136 11.2587 22.3132 11 21 11ZM23.2 24.869C22.8008 25.2667 22.2831 25.524 21.725 25.602V26C21.725 26.1989 21.646 26.3897 21.5053 26.5303C21.3647 26.671 21.1739 26.75 20.975 26.75C20.7761 26.75 20.5853 26.671 20.4447 26.5303C20.304 26.3897 20.225 26.1989 20.225 26V25.6C19.6606 25.5086 19.1416 25.235 18.7472 24.821C18.3528 24.4069 18.1048 23.8752 18.041 23.307C18.0268 23.2076 18.0328 23.1064 18.0585 23.0094C18.0841 22.9123 18.129 22.8214 18.1905 22.7421C18.2519 22.6627 18.3287 22.5965 18.4162 22.5473C18.5037 22.4982 18.6002 22.4671 18.7 22.4559C18.7997 22.4447 18.9007 22.4537 18.9969 22.4822C19.0932 22.5108 19.1827 22.5584 19.2602 22.6222C19.3377 22.686 19.4016 22.7647 19.4481 22.8536C19.4946 22.9426 19.5228 23.04 19.531 23.14C19.5617 23.4147 19.6924 23.6684 19.8983 23.8528C20.1041 24.0373 20.3706 24.1395 20.647 24.14H21.347C21.6207 24.1395 21.8848 24.039 22.0897 23.8574C22.2945 23.6759 22.426 23.4257 22.4594 23.1541C22.4928 22.8824 22.4258 22.6079 22.2711 22.3821C22.1163 22.1563 21.8844 21.9948 21.619 21.928L20.011 21.528C19.4425 21.3841 18.938 21.0552 18.577 20.593C18.2967 20.2344 18.1149 19.8088 18.0495 19.3583C17.9842 18.9079 18.0375 18.4482 18.2042 18.0247C18.371 17.6012 18.6454 17.2285 19.0004 16.9436C19.3553 16.6586 19.7785 16.4713 20.228 16.4V16C20.228 15.8011 20.307 15.6103 20.4477 15.4697C20.5883 15.329 20.7791 15.25 20.978 15.25C21.1769 15.25 21.3677 15.329 21.5083 15.4697C21.649 15.6103 21.728 15.8011 21.728 16V16.4C22.3016 16.4826 22.8316 16.7532 23.2348 17.1695C23.6381 17.5857 23.8917 18.124 23.956 18.7C23.9702 18.7994 23.9642 18.9006 23.9386 18.9976C23.9129 19.0947 23.868 19.1856 23.8065 19.2649C23.7451 19.3443 23.6683 19.4105 23.5808 19.4597C23.4933 19.5088 23.3968 19.5399 23.297 19.5511C23.1973 19.5623 23.0963 19.5533 23.0001 19.5248C22.9038 19.4962 22.8143 19.4486 22.7368 19.3848C22.6593 19.321 22.5954 19.2423 22.5489 19.1534C22.5024 19.0644 22.4742 18.967 22.466 18.867C22.4353 18.5923 22.3046 18.3386 22.0987 18.1542C21.8929 17.9697 21.6264 17.8675 21.35 17.867H20.65C20.3525 17.8673 20.0673 17.9856 19.8569 18.1959C19.6466 18.4063 19.5283 18.6915 19.528 18.989C19.5262 19.2371 19.6083 19.4785 19.761 19.674C19.915 19.8748 20.1325 20.0176 20.378 20.079L21.986 20.479C22.4367 20.5912 22.8495 20.8211 23.1821 21.1452C23.5148 21.4694 23.7553 21.8761 23.8791 22.3237C24.0029 22.7713 24.0056 23.2438 23.8868 23.6928C23.768 24.1418 23.532 24.5512 23.203 24.879L23.2 24.869Z" fill="white"/>
</svg>
