<svg width="42" height="42" viewBox="0 0 42 42" fill="none" xmlns="http://www.w3.org/2000/svg">
<circle cx="21" cy="21" r="21" fill="#68C8F8"/>
<path d="M32.25 16.4925C32.25 15.3863 31.35 14.4862 30.2438 14.4862H22.6312C21.9525 14.4862 21.3525 14.8275 20.9887 15.345C20.8612 15.1688 20.7075 15.015 20.5275 14.8875C21.0375 14.5237 21.375 13.9313 21.375 13.2563C21.375 12.15 20.475 11.25 19.3687 11.25H11.7562C10.65 11.25 9.75 12.15 9.75 13.2563C9.75 13.9313 10.0875 14.5237 10.5975 14.8875C10.0875 15.2512 9.75 15.8437 9.75 16.5187C9.75 17.1937 10.0875 17.7862 10.5975 18.15C10.5075 18.2137 10.4212 18.285 10.3425 18.3637C9.96 18.7387 9.75 19.245 9.75 19.7812C9.75 20.4563 10.0875 21.0487 10.5975 21.4125C10.5075 21.4762 10.4212 21.5475 10.3425 21.6262C9.96 22.0012 9.75 22.5075 9.75 23.0438C9.75 23.7188 10.0875 24.3112 10.5975 24.675C10.5075 24.7387 10.4212 24.81 10.3425 24.8888C9.96 25.2638 9.75 25.77 9.75 26.3063C9.75 27.4125 10.65 28.3125 11.7562 28.3125H16.4813C17.4525 29.7787 19.1137 30.75 21 30.75C22.8863 30.75 24.5475 29.7787 25.5187 28.3125H30.2438C30.78 28.3125 31.2862 28.1025 31.6575 27.7238C32.04 27.3488 32.25 26.8425 32.25 26.3063C32.25 25.6313 31.9125 25.0387 31.4025 24.675C31.4925 24.6112 31.5787 24.54 31.6575 24.4613C32.04 24.0863 32.25 23.58 32.25 23.0438C32.25 22.3688 31.9125 21.7762 31.4025 21.4125C31.4925 21.3487 31.5787 21.2775 31.6575 21.1987C32.04 20.8237 32.25 20.3175 32.25 19.7812C32.25 19.0988 31.9088 18.4988 31.3875 18.135C31.9088 17.775 32.25 17.1712 32.25 16.4925ZM21.0112 17.6663C21.1425 17.8463 21.3038 18.0075 21.4875 18.1388C21.3937 18.2063 21.3 18.2775 21.2175 18.3637C21.135 18.4425 21.0675 18.5325 21 18.6225C20.8725 18.4387 20.7113 18.2812 20.5275 18.15C20.715 18.015 20.88 17.8538 21.0112 17.6663ZM20.5725 24.96H21.4275C22.02 24.9638 22.5037 25.4438 22.5037 26.0363V26.895C22.5037 27.4875 22.02 27.9675 21.4275 27.9675H21.375V28.5938C21.375 28.8 21.2063 28.9688 21 28.9688C20.7937 28.9688 20.625 28.8 20.625 28.5938V27.9675H19.8713C19.665 27.9675 19.4963 27.8025 19.4963 27.5925C19.4963 27.3863 19.665 27.2175 19.8713 27.2175H21.4275C21.6075 27.2175 21.7537 27.075 21.7537 26.895V26.0363C21.7537 25.8562 21.6075 25.71 21.4275 25.71H20.5725C19.98 25.71 19.4963 25.23 19.4963 24.6375V23.7787C19.4963 23.1862 19.98 22.7062 20.5725 22.7062H20.625V22.08C20.625 21.87 20.7937 21.705 21 21.705C21.2063 21.705 21.375 21.87 21.375 22.08V22.7062H22.1287C22.335 22.7062 22.5037 22.8713 22.5037 23.0812C22.5037 23.2875 22.335 23.4562 22.1287 23.4562H20.5725C20.3925 23.4562 20.2463 23.6025 20.2463 23.7787V24.6375C20.2463 24.8175 20.3925 24.96 20.5725 24.96ZM10.5 13.2563C10.5 12.5625 11.0625 12 11.7562 12H19.3687C20.0625 12 20.625 12.5625 20.625 13.2563C20.625 13.95 20.0625 14.5125 19.3687 14.5125H11.7562C11.0625 14.5125 10.5 13.95 10.5 13.2563ZM10.5 19.7812C10.5 19.4438 10.6312 19.1325 10.8712 18.8925C11.1075 18.6562 11.4187 18.525 11.7562 18.525H19.3687C19.7175 18.525 20.0288 18.6675 20.2575 18.8925C20.4825 19.1212 20.625 19.4325 20.625 19.7812C20.625 19.8375 20.6175 19.89 20.6137 19.9425C19.53 20.0175 18.5363 20.415 17.7225 21.0375H11.7562C11.0625 21.0375 10.5 20.475 10.5 19.7812ZM11.7562 27.5625C11.0625 27.5625 10.5 27 10.5 26.3063C10.5 25.9688 10.6312 25.6575 10.8712 25.4175C11.1075 25.1812 11.4225 25.05 11.7562 25.05H15.6C15.5963 25.1437 15.585 25.2413 15.585 25.335C15.585 26.13 15.7613 26.8837 16.0725 27.5625H11.7562ZM31.5 23.0438C31.5 23.3813 31.3687 23.6925 31.1287 23.9325C30.8925 24.1687 30.5813 24.3 30.2438 24.3H26.31C26.1262 23.3512 25.6913 22.4887 25.08 21.7875H30.2438C30.9375 21.7875 31.5 22.35 31.5 23.0438ZM30.2438 17.7487H22.6312C21.9375 17.7487 21.375 17.1825 21.375 16.4925C21.375 15.7987 21.9375 15.2362 22.6312 15.2362H30.2438C30.9375 15.2362 31.5 15.7987 31.5 16.4925C31.5 17.1825 30.9375 17.7487 30.2438 17.7487Z" fill="white"/>
</svg>
