<svg width="42" height="42" viewBox="0 0 42 42" fill="none" xmlns="http://www.w3.org/2000/svg">
<circle cx="21" cy="21" r="21" fill="#45C7FF"/>
<g clip-path="url(#clip0_20062_11374)">
<path d="M18.3001 28.8477H14.0768C13.4839 28.8477 13.0015 29.3301 13.0015 29.9234C13.0015 30.5163 13.4839 30.9988 14.0768 30.9988H20.1984C19.4129 30.4378 18.761 29.7015 18.3001 28.8477Z" fill="white"/>
<path d="M14.0768 27.6761H17.8134C17.6396 27.1004 17.5466 26.4906 17.5466 25.8594C17.5466 25.7473 17.5497 25.6359 17.5552 25.5254H14.0768C13.4839 25.5254 13.0015 26.0078 13.0015 26.6007C13.0015 27.1937 13.4839 27.6761 14.0768 27.6761Z" fill="white"/>
<path d="M14.0768 24.3532H17.7282C17.9208 23.5689 18.2606 22.8412 18.7165 22.2021H14.0768C13.4839 22.2021 13.0015 22.6846 13.0015 23.2775C13.0015 23.8708 13.4839 24.3532 14.0768 24.3532Z" fill="white"/>
<path d="M14.0768 21.0305H19.7976C20.7394 20.2372 21.9155 19.7142 23.2053 19.581C23.0529 19.1721 22.6585 18.8799 22.1971 18.8799H14.0768C13.4839 18.8799 13.0015 19.3623 13.0015 19.9552C13.0015 20.5481 13.4839 21.0305 14.0768 21.0305Z" fill="white"/>
<path d="M20.2498 22.2024C19.6511 22.7933 19.1964 23.5296 18.9432 24.3534C17.8894 27.7821 20.6102 31.2154 24.175 30.9894C26.8624 30.8254 28.9982 28.5872 28.9982 25.8592C28.9983 21.3681 23.5346 18.9587 20.2498 22.2024ZM25.7132 27.2466C25.6074 27.8767 25.148 28.5153 24.4293 28.752V28.9083C24.4293 29.2534 24.1311 29.5209 23.8016 29.4926C23.4977 29.4711 23.2575 29.218 23.2575 28.9083V28.8204C22.8722 28.7694 22.5736 28.6284 22.2431 28.4118C22.1802 28.3708 22.1279 28.3197 22.0869 28.2618C21.7251 27.7556 22.3008 27.1124 22.8427 27.406H22.8431C23.1533 27.5702 23.1473 27.6814 23.8243 27.6759C23.9845 27.6748 24.1204 27.6299 24.2297 27.5584V27.558C24.6096 27.3101 24.7751 26.6287 24.1582 26.4104C23.661 26.2352 22.8018 25.9133 22.4607 25.5096H22.4603C21.77 24.7156 22.1707 23.286 23.2575 22.9687C23.2575 22.8183 23.2228 22.4979 23.5446 22.3063C23.875 22.1101 24.4293 22.2397 24.4293 22.9406C24.5643 22.9762 24.7469 23.0491 24.9295 23.1334C25.2918 23.3008 25.3865 23.7722 25.1159 24.0654C24.9421 24.2539 24.666 24.3077 24.4341 24.1986C24.2556 24.1146 24.0071 23.965 23.6024 24.0882C23.2733 24.1878 23.2273 24.6525 23.359 24.755C23.6443 24.9799 24.2036 25.1834 24.5488 25.3053C25.3902 25.603 25.8586 26.3831 25.7132 27.2466Z" fill="white"/>
<path d="M15.7561 14.9871H16.483C16.7467 14.9871 16.9604 15.2007 16.9604 15.4644V17.2307C16.9604 17.4944 17.1741 17.708 17.4373 17.708H18.8368C19.1001 17.708 19.3138 17.4943 19.3138 17.2307V15.4644C19.3138 15.2007 19.5275 14.9871 19.7911 14.9871H20.518C20.8993 14.9871 21.1266 14.5617 20.9145 14.2445L18.5337 11.2118C18.3447 10.9294 17.9295 10.9294 17.7404 11.2118L15.3597 14.2445C15.1476 14.5617 15.3749 14.9871 15.7561 14.9871Z" fill="white"/>
</g>
<defs>
<clipPath id="clip0_20062_11374">
<rect width="20" height="20" fill="white" transform="translate(11 11)"/>
</clipPath>
</defs>
</svg>
