<svg width="42" height="42" viewBox="0 0 42 42" fill="none" xmlns="http://www.w3.org/2000/svg">
<circle cx="21" cy="21" r="21" fill="#2970CC"/>
<path d="M28.5 12H13.5C12.9038 12.0018 12.3325 12.2394 11.911 12.661C11.4894 13.0825 11.2518 13.6538 11.25 14.25V29.25C11.2518 29.8462 11.4894 30.4175 11.911 30.839C12.3325 31.2606 12.9038 31.4982 13.5 31.5H28.5C29.0962 31.4982 29.6675 31.2606 30.089 30.839C30.5106 30.4175 30.7482 29.8462 30.75 29.25V14.25C30.7482 13.6538 30.5106 13.0825 30.089 12.661C29.6675 12.2394 29.0962 12.0018 28.5 12ZM29.25 29.25C29.25 29.4489 29.171 29.6397 29.0303 29.7803C28.8897 29.921 28.6989 30 28.5 30H13.5C13.3011 30 13.1103 29.921 12.9697 29.7803C12.829 29.6397 12.75 29.4489 12.75 29.25V14.25C12.75 14.0511 12.829 13.8603 12.9697 13.7197C13.1103 13.579 13.3011 13.5 13.5 13.5H28.5C28.6989 13.5 28.8897 13.579 29.0303 13.7197C29.171 13.8603 29.25 14.0511 29.25 14.25V29.25Z" fill="white"/>
<path d="M16.5 15C16.3011 15 16.1103 14.921 15.9697 14.7803C15.829 14.6397 15.75 14.4489 15.75 14.25V11.25C15.75 11.0511 15.829 10.8603 15.9697 10.7197C16.1103 10.579 16.3011 10.5 16.5 10.5C16.6989 10.5 16.8897 10.579 17.0303 10.7197C17.171 10.8603 17.25 11.0511 17.25 11.25V14.25C17.25 14.4489 17.171 14.6397 17.0303 14.7803C16.8897 14.921 16.6989 15 16.5 15Z" fill="white"/>
<path d="M21 15C20.8011 15 20.6103 14.921 20.4697 14.7803C20.329 14.6397 20.25 14.4489 20.25 14.25V11.25C20.25 11.0511 20.329 10.8603 20.4697 10.7197C20.6103 10.579 20.8011 10.5 21 10.5C21.1989 10.5 21.3897 10.579 21.5303 10.7197C21.671 10.8603 21.75 11.0511 21.75 11.25V14.25C21.75 14.4489 21.671 14.6397 21.5303 14.7803C21.3897 14.921 21.1989 15 21 15Z" fill="white"/>
<path d="M25.5 15C25.3011 15 25.1103 14.921 24.9697 14.7803C24.829 14.6397 24.75 14.4489 24.75 14.25V11.25C24.75 11.0511 24.829 10.8603 24.9697 10.7197C25.1103 10.579 25.3011 10.5 25.5 10.5C25.6989 10.5 25.8897 10.579 26.0303 10.7197C26.171 10.8603 26.25 11.0511 26.25 11.25V14.25C26.25 14.4489 26.171 14.6397 26.0303 14.7803C25.8897 14.921 25.6989 15 25.5 15Z" fill="white"/>
<path d="M12 17.4551V29.7273C12.0006 29.9442 12.087 30.1519 12.2403 30.3053C12.3936 30.4586 12.6014 30.545 12.8183 30.5456H29.1818C29.3986 30.545 29.6064 30.4586 29.7597 30.3053C29.913 30.1519 29.9994 29.9442 30 29.7273V17.4551H12ZM21 23.2503C21.5301 23.2493 22.0435 23.436 22.4492 23.7772C22.8549 24.1184 23.1267 24.5922 23.2165 25.1147C23.3064 25.6371 23.2084 26.1745 22.94 26.6317C22.6716 27.0888 22.25 27.4362 21.75 27.6123V28.0001C21.75 28.199 21.671 28.3898 21.5303 28.5304C21.3897 28.6711 21.1989 28.7501 21 28.7501C20.8011 28.7501 20.6103 28.6711 20.4697 28.5304C20.329 28.3898 20.25 28.199 20.25 28.0001V27.6123C19.8128 27.4578 19.4341 27.1719 19.1656 26.7939C18.8971 26.4158 18.7519 25.964 18.75 25.5003C18.75 25.3014 18.829 25.1107 18.9697 24.97C19.1103 24.8293 19.3011 24.7503 19.5 24.7503C19.6989 24.7503 19.8897 24.8293 20.0303 24.97C20.171 25.1107 20.25 25.3014 20.25 25.5003C20.25 25.6487 20.294 25.7937 20.3764 25.917C20.4588 26.0403 20.5759 26.1365 20.713 26.1932C20.85 26.25 21.0008 26.2649 21.1463 26.2359C21.2918 26.207 21.4254 26.1355 21.5303 26.0307C21.6352 25.9258 21.7066 25.7921 21.7356 25.6466C21.7645 25.5012 21.7497 25.3504 21.6929 25.2133C21.6361 25.0763 21.54 24.9591 21.4167 24.8767C21.2933 24.7943 21.1483 24.7503 21 24.7503C20.4699 24.7513 19.9565 24.5647 19.5508 24.2235C19.1451 23.8822 18.8733 23.4084 18.7835 22.886C18.6936 22.3635 18.7916 21.8261 19.06 21.369C19.3284 20.9118 19.75 20.5644 20.25 20.3883V20.0006C20.25 19.8017 20.329 19.6109 20.4697 19.4702C20.6103 19.3296 20.8011 19.2506 21 19.2506C21.1989 19.2506 21.3897 19.3296 21.5303 19.4702C21.671 19.6109 21.75 19.8017 21.75 20.0006V20.3883C22.1872 20.5429 22.5659 20.8288 22.8344 21.2068C23.1029 21.5849 23.2481 22.0366 23.25 22.5003C23.25 22.6992 23.171 22.89 23.0303 23.0307C22.8897 23.1713 22.6989 23.2503 22.5 23.2503C22.3011 23.2503 22.1103 23.1713 21.9697 23.0307C21.829 22.89 21.75 22.6992 21.75 22.5003C21.75 22.352 21.706 22.207 21.6236 22.0837C21.5412 21.9603 21.4241 21.8642 21.287 21.8074C21.15 21.7507 20.9992 21.7358 20.8537 21.7647C20.7082 21.7937 20.5746 21.8651 20.4697 21.97C20.3648 22.0749 20.2934 22.2085 20.2644 22.354C20.2355 22.4995 20.2503 22.6503 20.3071 22.7873C20.3639 22.9244 20.46 23.0415 20.5833 23.1239C20.7067 23.2063 20.8517 23.2503 21 23.2503Z" fill="white"/>
<path d="M30.75 17.25C30.75 17.4489 30.671 17.6397 30.5303 17.7803C30.3897 17.921 30.1989 18 30 18H12C11.8011 18 11.6103 17.921 11.4697 17.7803C11.329 17.6397 11.25 17.4489 11.25 17.25C11.25 17.0511 11.329 16.8603 11.4697 16.7197C11.6103 16.579 11.8011 16.5 12 16.5H30C30.1989 16.5 30.3897 16.579 30.5303 16.7197C30.671 16.8603 30.75 17.0511 30.75 17.25Z" fill="white"/>
</svg>
