<svg width="582" height="400" viewBox="0 0 582 400" fill="none" xmlns="http://www.w3.org/2000/svg">
<g clip-path="url(#clip0_20128_13171)">
<rect width="582" height="400" fill="white"/>
<path d="M291 33C145.761 33 28 150.548 28 295.524C28 336.463 37.4058 375.127 54.1216 409.604C55.4354 412.314 58.2009 414 61.2124 414H520.788C523.799 414 526.565 412.314 527.878 409.604C544.594 375.119 554 336.365 554 295.524C554 150.445 436.239 33 291 33Z" fill="url(#paint0_linear_20128_13171)"/>
<g opacity="0.2">
<path d="M166.26 130.489C167.298 130.229 168.336 130.229 169.374 129.97C169.115 128.931 169.115 127.893 168.855 126.855C169.893 126.596 170.931 126.596 171.97 126.336C172.748 130.748 173.527 135.161 174.306 139.833C176.382 136.978 178.199 134.122 180.275 131.527C178.458 131.787 176.382 132.306 174.306 132.565C174.046 131.527 174.046 130.489 173.787 129.451H174.046C176.901 128.931 179.756 128.412 182.611 127.893C182.871 127.893 182.871 127.893 182.871 127.634C183.649 126.596 184.428 125.298 185.207 124.26V124C185.726 124.26 186.245 124.779 186.764 125.038C186.764 125.038 186.505 125.038 186.505 125.298C185.726 126.336 184.947 127.634 183.909 128.672C183.909 128.672 183.909 128.931 183.909 129.191C184.428 132.046 184.947 134.901 185.466 137.756V138.016C184.428 138.275 183.39 138.275 182.352 138.535C182.092 136.458 181.573 134.642 181.314 132.565C179.237 135.42 177.42 138.016 175.344 140.871C179.756 140.092 184.169 139.313 188.581 138.535C188.84 139.573 188.84 140.611 189.1 141.649C188.062 141.909 187.024 141.909 185.985 142.169C186.245 143.207 186.245 144.245 186.505 145.283C185.466 145.543 184.428 145.543 183.39 145.802C183.13 144.764 183.13 143.726 182.871 142.688C178.978 143.466 175.084 143.985 171.191 144.764C170.412 140.871 169.893 136.978 169.115 133.084C168.076 133.344 167.038 133.344 166 133.603C166.779 132.565 166.519 131.527 166.26 130.489Z" fill="#45C7FF"/>
</g>
<path d="M281.6 332.3C354.281 332.3 413.2 324.734 413.2 315.4C413.2 306.066 354.281 298.5 281.6 298.5C208.919 298.5 150 306.066 150 315.4C150 324.734 208.919 332.3 281.6 332.3Z" fill="#ECF9FF"/>
<path d="M125 309.8L138.5 168.2" stroke="#E9EDF0" stroke-width="2" stroke-miterlimit="10"/>
<path d="M178.9 309.8L165.4 168.2" stroke="#E9EDF0" stroke-width="2" stroke-miterlimit="10"/>
<path d="M137.4 179.5H166.5" stroke="#E9EDF0" stroke-width="2" stroke-miterlimit="10"/>
<path d="M135.8 196.5H168.1" stroke="#E9EDF0" stroke-width="2" stroke-miterlimit="10"/>
<path d="M134.2 213.5H169.7" stroke="#E9EDF0" stroke-width="2" stroke-miterlimit="10"/>
<path d="M132.5 230.5H171.3" stroke="#E9EDF0" stroke-width="2" stroke-miterlimit="10"/>
<path d="M130.9 247.5H172.9" stroke="#E9EDF0" stroke-width="2" stroke-miterlimit="10"/>
<path d="M129.3 264.4H174.5" stroke="#E9EDF0" stroke-width="2" stroke-miterlimit="10"/>
<path d="M127.7 281.4H176.2" stroke="#E9EDF0" stroke-width="2" stroke-miterlimit="10"/>
<path d="M126 298.4H177.3" stroke="#E9EDF0" stroke-width="2" stroke-miterlimit="10"/>
<path d="M167.1 169H136.7C135.7 169 134.9 168.2 134.9 167.2C134.9 166.2 135.7 165.4 136.7 165.4H167.1C168.1 165.4 168.9 166.2 168.9 167.2C168.9 168.3 168.1 169 167.1 169Z" fill="#45C7FF"/>
<path d="M270.2 308.1V309.6" stroke="#45C7FF" stroke-linecap="round" stroke-linejoin="round"/>
<path d="M270.2 312V316.7C270.2 325.3 263.2 332.3 254.6 332.3H228C222.9 332.3 218.7 328.1 218.7 323V312.4" stroke="#45C7FF" stroke-linecap="round" stroke-linejoin="round" stroke-dasharray="2.99 2.99"/>
<path d="M218.7 311.1V309.6" stroke="#45C7FF" stroke-linecap="round" stroke-linejoin="round"/>
<path d="M177.2 311.4V312.9" stroke="#45C7FF" stroke-linecap="round" stroke-linejoin="round"/>
<path d="M177.2 315.4V328.8C177.2 338.8 185.3 347 195.4 347H217.8H253C267.9 347 280 334.9 280 320V298.6" stroke="#45C7FF" stroke-linecap="round" stroke-linejoin="round" stroke-dasharray="2.99 2.99"/>
<path d="M279.9 297.3V295.8" stroke="#45C7FF" stroke-linecap="round" stroke-linejoin="round"/>
<path d="M191.3 311.4V312.9" stroke="#45C7FF" stroke-linecap="round" stroke-linejoin="round"/>
<path d="M191.3 315.3V328.8C191.3 338.8 199.4 347 209.5 347H230.2" stroke="#45C7FF" stroke-linecap="round" stroke-linejoin="round" stroke-dasharray="2.91 2.91"/>
<path d="M231.399 346.9H232.899" stroke="#45C7FF" stroke-linecap="round" stroke-linejoin="round"/>
<path d="M204.9 311.4V312.9" stroke="#45C7FF" stroke-linecap="round" stroke-linejoin="round"/>
<path d="M204.9 315.3V328.7C204.9 338.7 213 346.9 223.1 346.9H245.6" stroke="#45C7FF" stroke-linecap="round" stroke-linejoin="round" stroke-dasharray="2.99 2.99"/>
<path d="M246.801 346.9H248.301" stroke="#45C7FF" stroke-linecap="round" stroke-linejoin="round"/>
<path d="M302 308V345.9C302 356.4 310.5 364.9 321 364.9H327.7" stroke="#45C7FF" stroke-miterlimit="10" stroke-linecap="round" stroke-linejoin="round" stroke-dasharray="3 3"/>
<path d="M287.7 310V347.9C287.7 358.4 279.2 366.9 268.7 366.9H262" stroke="#45C7FF" stroke-miterlimit="10" stroke-linecap="round" stroke-linejoin="round" stroke-dasharray="3 3"/>
<path d="M311.2 301.1V316.8C311.2 323.1 316.3 328.2 322.6 328.2H391.3" stroke="#45C7FF" stroke-miterlimit="10" stroke-linecap="round" stroke-linejoin="round" stroke-dasharray="3 3"/>
<path d="M362.5 101C346.2 80.8 322 66.5 295.5 66.1C280.2 65.8 264.1 67.9 250.4 75.1C238.6 81.5 228 90.5 219.6 101C205 119.1 196.6 142.6 199.1 165.7C201.2 185 210.7 202.7 223.3 217.1C235.6 231.2 253.5 242.9 256.5 262.8C257.4 268.5 255.3 276.4 259.6 280.9C264.8 286.3 273.2 284.4 279.8 284.4C287.7 284.3 295.5 284.3 303.4 284.3C309 284.3 318.1 285.8 322.3 281C326.6 276.4 324.5 268.6 325.4 262.9C327.7 247.9 339.4 235.7 350.201 225.9C362.6 214.7 372.4 201.8 377.9 185.8C388.2 156.3 382 125.1 362.5 101Z" fill="#BAEAFF"/>
<path d="M286.1 301.7C286.1 299.1 286 296.7 286 294.1C285.8 287.9 285.5 281.7 285.3 275.5C285 267.6 284.7 259.7 284.2 251.8C283.8 244.2 283.4 236.6 282.8 229C282.2 221.1 281.5 213.2 279.7 205.5C278.5 200.4 276.9 195.2 274.5 190.4C272.9 187.2 270.7 184.2 267.8 182.1C265.8 180.7 263.3 179.8 260.9 180.1C258.3 180.4 255.9 181.8 254.3 183.9C252.3 186.6 252.2 190.3 253.5 193.3C255 197 257.9 200.1 261.4 202.2C265.1 204.4 269.2 205.2 273.5 205.1C277.8 205 282.3 204.2 286.3 202.4C293.9 198.9 298.7 190.7 300.6 182.8C301.6 178.9 301.9 174.7 301.5 170.7C301.2 167.7 299.3 165.3 296.7 163.7C294.1 162.2 290.7 161.8 288.1 163.6C285.6 165.4 284.4 168.4 284.1 171.3C283.8 174 284.2 176.8 284.6 179.5C285.2 182.7 286.1 185.9 287.3 188.9C289.6 194.5 293.4 200.7 299.7 202.3C301.6 202.8 303.7 202.8 305.6 202.6C308.2 202.4 310.8 201.8 313.2 200.8C317.5 199.1 321.4 196.5 324.6 193.2C327.5 190.2 330.1 186.7 331.5 182.8C332.9 179 332.6 174.4 328.8 172.1C326.9 170.9 324.7 170.6 322.5 170.9C320.1 171.3 317.9 172.6 316.1 174.2C314.2 175.8 312.7 177.8 311.3 179.9C309.8 182 308.5 184.3 307.3 186.6C302.7 196 301.1 206.3 300.6 216.7C300 228.2 299.6 239.6 299.2 251.1C298.8 262.1 298.6 273.2 298.3 284.2C298.2 289.9 298.2 295.6 298.1 301.3C298.1 302.3 299.6 302.3 299.6 301.3C299.8 295.6 300.2 290 300.4 284.3C300.6 278.9 300.7 273.5 300.9 268.2C301.2 257.7 301.5 247.2 301.9 236.7C302.1 231.1 302.4 225.6 302.6 220C302.8 214.8 303.1 209.7 304 204.6C305.6 195.1 309.1 185.6 315.5 178.2C318.2 175 322.1 172.1 326.5 173.6C328.2 174.2 329.4 175.5 329.8 177.2C330.2 178.8 329.9 180.5 329.3 182.1C328.1 185.7 325.6 188.9 322.9 191.7C319.9 194.8 316.3 197.3 312.2 198.9C309.9 199.8 307.6 200.3 305.2 200.5C303.4 200.6 301.6 200.7 299.9 200.2C297.4 199.5 295.3 197.8 293.6 195.7C289.8 191.1 287.7 184.8 286.7 178.9C286.3 176.5 286 173.9 286.3 171.4C286.3 171.3 286.3 171.2 286.3 171C286.3 170.8 286.3 171.2 286.3 170.9C286.3 170.7 286.4 170.5 286.4 170.2C286.5 169.7 286.7 169.2 286.9 168.8C287.5 167.4 288.4 166 289.8 165.3C290.8 164.8 292.1 164.7 293.1 164.9C294.3 165.2 295.5 165.7 296.4 166.5C297.5 167.3 298.2 168.2 298.8 169.4C298.9 169.6 299.1 170.4 299.2 170.8C299.3 171.7 299.4 172.6 299.4 173.6C299.6 181.3 297.2 189.6 292.1 195.5C289.6 198.4 286.5 200.5 282.9 201.7C279 203 274.7 203.5 270.6 203.1C266.7 202.8 263.2 201.4 260.2 198.8C257.7 196.7 255.5 193.7 255.1 190.4C254.8 187.6 256 185 258.4 183.5C259.3 182.9 259.8 182.7 261 182.5C261.1 182.5 261.1 182.5 261.2 182.5C261 182.5 261.4 182.5 261.2 182.5C261.3 182.5 261.4 182.5 261.6 182.5C261.9 182.5 262.1 182.5 262.4 182.5C262.6 182.5 262.9 182.5 263.1 182.6C262.9 182.6 263.2 182.6 263.3 182.6C263.4 182.6 263.6 182.7 263.7 182.7C264.9 183 265.7 183.4 266.8 184.1C267.9 184.8 269 185.9 269.9 186.9C272.5 190 274.3 193.9 275.6 197.7C277.3 202.4 278.5 207.3 279.3 212.3C279.9 216.1 280.3 219.9 280.6 223.7C281.2 230.5 281.7 237.2 282.2 244C282.7 251.7 283.1 259.4 283.6 267.2C284 274 284.4 280.9 284.7 287.7C284.9 291.9 285.1 296.2 285.4 300.3C285.4 300.9 285.5 301.5 285.5 302C285.1 302.3 286.1 302.4 286.1 301.7Z" fill="white"/>
<path d="M317.101 284.2H263.801V289.5H317.101V284.2Z" fill="#68C8F8"/>
<path d="M320.301 307.7C319.401 306.6 319.401 304.8 320.401 303.7L320.701 303.3C321.701 302.3 321.701 300.5 320.801 299.4L320.301 298.7C319.401 297.5 319.501 295.7 320.501 294.7C321.501 293.7 321.701 291.9 320.801 290.7L319.401 288.8C318.901 288.1 318.101 287.7 317.201 287.7H264.201C263.301 287.7 262.501 288.1 262.001 288.8L260.601 290.7C259.701 291.9 259.901 293.7 260.901 294.7C262.001 295.7 262.101 297.6 261.101 298.7L260.601 299.4C259.701 300.5 259.801 302.3 260.701 303.3L261.001 303.7C262.001 304.7 262.001 306.5 261.101 307.7L260.701 308.2C259.801 309.3 259.801 311.2 260.901 312.2L261.101 312.4C262.201 313.5 263.701 314.2 265.101 314.2H316.301C317.801 314.2 319.201 313.6 320.301 312.4L320.501 312.2C321.501 311.2 321.601 309.3 320.701 308.2L320.301 307.7Z" fill="#2970CC"/>
<path opacity="0.5" d="M292.9 294.9H317.6" stroke="white" stroke-miterlimit="10" stroke-linecap="round" stroke-linejoin="round"/>
<path opacity="0.5" d="M268.2 294.9H281.9" stroke="white" stroke-miterlimit="10" stroke-linecap="round" stroke-linejoin="round"/>
<path opacity="0.5" d="M264.601 301H300.401" stroke="white" stroke-miterlimit="10" stroke-linecap="round" stroke-linejoin="round"/>
<path opacity="0.5" d="M307.101 301H317.701" stroke="white" stroke-miterlimit="10" stroke-linecap="round" stroke-linejoin="round"/>
<path opacity="0.5" d="M268.2 307H287.3" stroke="white" stroke-miterlimit="10" stroke-linecap="round" stroke-linejoin="round"/>
<path opacity="0.5" d="M299.9 307H307.6" stroke="white" stroke-miterlimit="10" stroke-linecap="round" stroke-linejoin="round"/>
<path opacity="0.5" d="M285.301 294.9H288.101" stroke="white" stroke-miterlimit="10" stroke-linecap="round" stroke-linejoin="round"/>
<path d="M177 374.9C177 377.1 161.7 378.9 142.7 378.9C123.8 378.9 108.4 377.1 108.4 374.9C108.4 372.7 123.7 370.9 142.7 370.9C161.7 370.9 177 372.7 177 374.9Z" fill="#ECF9FF"/>
<path d="M105.9 360.6C102.5 353.9 101.6 345.9 104.6 338.9C106.3 334.8 108.8 330.8 112.3 328.1C115.4 325.7 119 324 122.8 323C129.3 321.3 136.5 321.9 142.3 325.2C147.1 328 150.7 332.6 153 337.6C155.3 342.5 156.2 348.6 161.1 351.7C162.5 352.6 164.8 353 165.5 354.7C166.3 356.7 164.8 358.7 164 360.4C163.1 362.5 162.1 364.5 161.2 366.6C160.5 368.1 159.9 370.6 158.1 371.2C156.4 371.8 154.6 370.3 153 369.9C148.8 368.7 144.2 370.4 140.3 372.1C135.9 374 131.3 375.1 126.5 374.7C117.4 373.9 110 368.6 105.9 360.6Z" fill="#E5E8FF"/>
<path d="M164.3 362.5C164.3 362.5 150.7 355.8 144.2 352.1C142.5 351.1 140.7 350.2 138.3 348C136.8 346.6 133.7 343.4 135.7 341.3C138 338.8 140.8 342.9 140.8 345.2C140.8 347.1 139.2 349.8 137.6 350.9C134.9 352.8 130.7 352.3 128.1 350.7C126.1 349.5 127.2 346.5 129.4 346.7C131.5 346.8 137.5 351.3 136.1 354.9C135.4 356.8 133.8 358.3 132 359.2C128.7 360.8 124.5 356.7 129.1 355.2C132.4 354.2 136.5 355.3 139.6 356.5C148 359.7 154.4 362.5 162.7 365.9" stroke="white" stroke-miterlimit="10"/>
<path d="M160.859 370.878L167.153 356.823L165.784 356.21L159.49 370.265L160.859 370.878Z" fill="white"/>
<path d="M165.301 373.8C165.101 373.4 164.601 373.2 164.201 373.4H164.101C163.701 373.5 163.201 373.3 163.101 373L163.001 372.8C162.801 372.4 162.301 372.2 161.901 372.4C161.501 372.6 161.001 372.4 160.801 372L160.501 371.4C160.401 371.2 160.401 370.9 160.501 370.7L166.701 356.7C166.801 356.5 167.001 356.3 167.301 356.2L168.001 356C168.401 355.9 168.901 356.2 169.001 356.5C169.101 356.9 169.601 357.1 170.001 357L170.201 356.9C170.601 356.8 171.101 357 171.201 357.4L171.301 357.5C171.501 357.9 171.901 358.1 172.301 358L172.501 357.9C172.901 357.8 173.401 358 173.501 358.4V358.5C173.701 358.9 173.701 359.4 173.501 359.8L167.501 373.3C167.301 373.7 167.001 374 166.601 374.2H166.501C166.101 374.3 165.601 374.1 165.401 373.8H165.301Z" fill="#2970CC"/>
<path d="M165.201 365.1L162.301 371.6" stroke="white" stroke-width="0.5" stroke-miterlimit="10" stroke-linecap="round" stroke-linejoin="round"/>
<path d="M168.1 358.6L166.5 362.2" stroke="white" stroke-width="0.5" stroke-miterlimit="10" stroke-linecap="round" stroke-linejoin="round"/>
<path d="M170.1 358.4L165.9 367.8" stroke="white" stroke-width="0.5" stroke-miterlimit="10" stroke-linecap="round" stroke-linejoin="round"/>
<path d="M165.101 369.6L163.801 372.4" stroke="white" stroke-width="0.5" stroke-miterlimit="10" stroke-linecap="round" stroke-linejoin="round"/>
<path d="M171.3 360.1L169 365.1" stroke="white" stroke-width="0.5" stroke-miterlimit="10" stroke-linecap="round" stroke-linejoin="round"/>
<path d="M167.501 368.4L166.601 370.4" stroke="white" stroke-width="0.5" stroke-miterlimit="10" stroke-linecap="round" stroke-linejoin="round"/>
<path d="M166.1 363.1L165.7 363.9" stroke="white" stroke-width="0.5" stroke-miterlimit="10" stroke-linecap="round" stroke-linejoin="round"/>
<path d="M430.601 366.9C430.601 368.6 418.601 370.1 403.701 370.1C388.801 370.1 376.801 368.7 376.801 366.9C376.801 365.2 388.801 363.7 403.701 363.7C418.501 363.8 430.601 365.2 430.601 366.9Z" fill="#ECF9FF"/>
<path d="M431.101 357.6C433.701 352.7 434.501 346.7 432.401 341.5C431.201 338.5 429.401 335.5 426.901 333.4C424.701 331.6 422.001 330.3 419.201 329.5C414.401 328.1 409.101 328.4 404.701 330.9C401.101 332.9 398.401 336.3 396.601 340C394.801 343.6 394.001 348.1 390.401 350.4C389.401 351 387.601 351.3 387.101 352.5C386.501 354 387.501 355.5 388.101 356.8C388.801 358.3 389.401 359.9 390.101 361.4C390.601 362.5 391.001 364.4 392.301 364.8C393.601 365.3 394.901 364.2 396.101 363.9C399.301 363.1 402.601 364.4 405.501 365.7C408.701 367.2 412.101 368.1 415.701 367.8C422.401 367.2 428.001 363.4 431.101 357.6Z" fill="#E5E8FF"/>
<path d="M387.801 358C387.801 358 398.001 353.2 402.901 350.6C404.201 349.9 405.601 349.2 407.401 347.7C410.401 345.2 410.101 343.2 408.901 342.5C407.301 341.6 405.601 343.3 405.601 345.6C405.601 347 406.701 349.1 407.901 349.9C409.901 351.4 413.001 351.1 415.001 349.9C416.001 349.3 416.301 346.8 414.101 346.9C412.501 347 408.101 350.2 409.001 352.9C409.501 354.3 410.601 355.4 412.001 356.1C413.001 356.6 414.901 357 416.001 356.6C418.301 355.9 415.801 353.6 414.601 353.3C411.901 352.5 409.001 353 406.401 354C400.201 356.3 395.301 358.2 389.101 360.6" stroke="white" stroke-miterlimit="10"/>
<path d="M391.251 363.905L386.806 353.407L385.793 353.836L390.238 364.334L391.251 363.905Z" fill="white"/>
<path d="M386.901 366.5C387.001 366.2 387.401 366.1 387.701 366.2H387.801C388.101 366.3 388.401 366.2 388.601 365.9L388.701 365.7C388.901 365.4 389.201 365.3 389.501 365.4C389.801 365.5 390.101 365.4 390.301 365.1L390.601 364.7C390.701 364.5 390.701 364.3 390.601 364.2L386.201 353.8C386.101 353.6 386.001 353.5 385.801 353.5L385.301 353.4C385.001 353.3 384.601 353.5 384.501 353.8C384.401 354.1 384.001 354.3 383.701 354.2H383.501C383.201 354.1 382.901 354.3 382.701 354.6V354.7C382.601 355 382.201 355.1 381.901 355H381.801C381.501 354.9 381.101 355.1 381.001 355.4V355.5C380.901 355.8 380.901 356.2 381.001 356.4L385.301 366.5C385.401 366.8 385.701 367 386.001 367.1H386.101C386.401 367.2 386.801 367.1 386.901 366.8V366.5Z" fill="#2970CC"/>
<path d="M387.101 360L389.201 364.9" stroke="white" stroke-width="0.5" stroke-miterlimit="10" stroke-linecap="round" stroke-linejoin="round"/>
<path d="M385.101 355.2L386.201 357.8" stroke="white" stroke-width="0.5" stroke-miterlimit="10" stroke-linecap="round" stroke-linejoin="round"/>
<path d="M383.601 355L386.601 362" stroke="white" stroke-width="0.5" stroke-miterlimit="10" stroke-linecap="round" stroke-linejoin="round"/>
<path d="M387.101 363.3L388.001 365.4" stroke="white" stroke-width="0.5" stroke-miterlimit="10" stroke-linecap="round" stroke-linejoin="round"/>
<path d="M382.701 356.2L384.301 359.9" stroke="white" stroke-width="0.5" stroke-miterlimit="10" stroke-linecap="round" stroke-linejoin="round"/>
<path d="M385.301 362.4L386.001 363.9" stroke="white" stroke-width="0.5" stroke-miterlimit="10" stroke-linecap="round" stroke-linejoin="round"/>
<path d="M386.501 358.5L386.701 359.1" stroke="white" stroke-width="0.5" stroke-miterlimit="10" stroke-linecap="round" stroke-linejoin="round"/>
<path d="M229.8 117.8C222.1 128.2 214.7 141.1 214.9 164.8" stroke="white" stroke-width="16" stroke-miterlimit="10" stroke-linecap="round" stroke-linejoin="round"/>
<path d="M251.001 96C251.001 96 249.101 97.1 247.101 99.6" stroke="white" stroke-width="16" stroke-miterlimit="10" stroke-linecap="round" stroke-linejoin="round"/>
<path d="M220.989 397.305C245.283 397.305 264.978 395.021 264.978 392.204C264.978 389.388 245.283 387.104 220.989 387.104C196.694 387.104 177 389.388 177 392.204C177 395.021 196.694 397.305 220.989 397.305Z" fill="#ECF9FF"/>
<g clip-path="url(#clip1_20128_13171)">
<path d="M203.238 378.882L201.605 390.217C201.605 390.217 199.292 387.759 198.611 387.759C197.523 387.759 196.026 385.71 196.026 385.71L195.89 379.292L203.238 378.882Z" fill="url(#paint1_linear_20128_13171)"/>
<path d="M199.428 376.97L198.476 389.125L195.754 389.398V377.243L199.428 376.97Z" fill="url(#paint2_linear_20128_13171)"/>
<path d="M195.073 388.442L193.712 391.719C193.44 392.266 193.576 392.949 194.257 393.358C195.346 393.905 200.109 394.314 201.197 393.768C201.878 393.358 202.558 393.495 202.422 392.812L202.014 389.808C202.014 389.671 200.653 387.486 198.339 387.486C196.57 387.349 195.073 388.305 195.073 388.442Z" fill="url(#paint3_linear_20128_13171)"/>
<path d="M200.382 388.988C198.885 387.622 196.707 388.715 196.707 388.715L196.571 388.442C196.571 388.442 198.885 387.213 200.518 388.852L200.382 388.988Z" fill="#45C7FF"/>
<path d="M200.245 390.217C198.748 388.852 196.571 389.944 196.571 389.944L196.435 389.671C196.435 389.671 198.748 388.442 200.381 390.081L200.245 390.217Z" fill="#45C7FF"/>
<path d="M236.988 308.822C235.715 303.004 234.039 298.66 232.721 295.829C231.545 293.302 228.894 291.98 226.11 292.131L208.001 293.116C207.837 293.116 207.69 293.212 207.629 293.365C207.056 294.795 204.175 302.128 202.83 308.139C200.66 317.538 196.764 362.628 195.568 376.877C195.365 379.297 199.35 381.677 201.761 381.964C203.968 382.227 203.82 380.585 204.418 378.444C207.314 368.084 215.518 338.342 219.841 318.655C220.249 317.016 221.202 317.153 221.338 318.791C221.684 325.63 225.756 366.016 226.98 378.077C227.173 379.978 228.844 381.362 230.749 381.218C232.794 381.063 234.654 379.194 234.796 377.148C235.203 371.248 236.099 359.001 237.532 344.33C238.893 330.263 239.029 319.338 236.988 308.822Z" fill="#45C7FF"/>
<path d="M227.325 379.565L228.142 389.398C228.142 389.398 229.911 390.354 232.224 389.534C234.266 388.852 235.218 386.393 235.218 386.393L235.354 379.019L227.325 379.565Z" fill="url(#paint4_linear_20128_13171)"/>
<path d="M231.272 379.701L231.68 391.037L228.142 389.398L227.598 380.384L231.272 379.701Z" fill="url(#paint5_linear_20128_13171)"/>
<path d="M235.083 386.12L239.302 388.032C240.39 388.442 241.071 389.534 241.071 390.627C241.071 390.9 241.071 391.173 240.935 391.173C240.935 391.173 228.278 391.72 228.278 391.583C228.142 390.49 228.006 389.944 228.142 388.988C228.142 388.852 230.592 389.671 231.681 389.261C232.225 388.852 235.083 386.12 235.083 386.12Z" fill="url(#paint6_linear_20128_13171)"/>
<path d="M235.971 386.376L233.801 388.64L233.997 388.829L236.167 386.565L235.971 386.376Z" fill="#45C7FF"/>
<path d="M235.081 389.398L234.945 389.125L237.123 386.94L237.259 387.076L235.081 389.398Z" fill="#45C7FF"/>
<path d="M236.172 382.433L226.509 382.296L226.237 379.155L236.444 377.926L236.172 382.433Z" fill="url(#paint7_linear_20128_13171)"/>
<path d="M248.012 259.657C247.331 262.935 246.107 266.076 246.107 266.076L244.746 277.821L237.941 276.728L240.527 264.847C240.935 260.067 241.071 258.701 241.344 258.018C241.344 258.018 241.616 257.199 241.752 257.335C242.432 257.335 242.024 260.067 242.16 259.794C242.432 259.657 244.746 255.423 245.29 255.56C245.835 255.696 244.338 258.428 244.61 258.428C244.882 258.564 245.971 255.696 246.515 255.696C247.059 255.696 245.835 258.564 246.107 258.564C246.379 258.564 247.195 255.833 247.604 255.97C248.012 256.106 246.923 258.838 247.059 258.974C247.195 259.111 248.012 256.379 248.556 256.379C249.101 256.379 248.148 258.838 248.012 259.657Z" fill="url(#paint8_linear_20128_13171)"/>
<path d="M243.793 288.336C244.579 284.947 245.067 282.442 245.368 280.611C245.83 277.802 244.235 275.331 241.597 274.257C239.999 273.607 238.546 273.056 238.486 273.177C237.511 274.993 234.997 275.337 233.971 273.549C231.745 269.671 228.48 265.273 225.395 265.928C224.85 266.044 224.317 266.248 223.801 266.459C216.409 269.476 232.342 287.758 235.9 290.931C239.574 293.936 242.84 292.297 243.793 288.336Z" fill="url(#paint9_linear_20128_13171)"/>
<path d="M226.374 278.913C226.782 278.367 226.918 277.684 227.191 277.138C227.463 276.592 228.143 276.045 228.688 276.182C229.096 276.318 229.368 276.728 229.64 277.138C230.865 279.46 231.137 282.191 230.729 284.649" fill="#FCF4CF"/>
<path d="M226.374 265.939C227.599 262.252 224.469 254.741 224.333 250.507C224.197 248.185 221.883 246 219.161 246C210.043 245.864 209.771 249.414 210.316 254.194C210.452 255.15 198.34 272.904 198.34 272.904C198.34 272.904 214.67 277.411 218.345 278.367C223.38 279.733 221.339 265.529 226.374 265.939Z" fill="#001837"/>
<path d="M215.895 252.692C215.895 252.829 215.895 254.194 215.759 254.194C215.351 253.921 214.398 253.511 213.718 254.604C213.037 255.696 214.398 256.652 214.942 257.062C215.079 257.199 215.215 257.335 215.215 257.472C215.351 258.018 215.215 259.111 215.351 261.023C215.487 262.798 214.534 267.305 214.534 267.305C214.534 267.305 228.687 278.64 222.836 266.212L221.339 259.657C221.339 259.657 225.421 259.93 224.877 254.604C224.605 250.097 222.291 249.414 221.475 249.141C220.93 249.005 218.072 247.639 215.895 252.692Z" fill="url(#paint10_linear_20128_13171)"/>
<path d="M221.611 259.657H219.978C219.978 259.657 221.066 261.569 221.611 259.657Z" fill="#FA7C4E"/>
<path d="M214.126 255.423C214.126 255.423 214.67 253.921 215.623 255.833L214.126 255.423Z" fill="#FA7C4E"/>
<path d="M223.244 249.278C223.244 249.278 218.617 255.56 215.759 255.15C215.759 255.15 214.398 244.771 223.244 249.278Z" fill="#001837"/>
<path d="M231.681 274.816C228.221 269.34 225.932 267.39 224.687 266.541C224.632 266.504 224.584 266.459 224.542 266.407C224.099 265.851 223.086 266.353 223.204 267.055C223.825 270.744 223.499 274.941 215.215 264.573C215.083 264.409 214.905 264.49 214.709 264.717C213.369 266.265 211.047 268.503 209.339 269.633C208.677 270.071 208.806 270.302 208.557 271.056C205.014 281.819 207.183 288.455 208.933 292.591C209.965 295.029 211.864 297.309 214.413 298.023C221.255 299.94 226.038 297.754 228.548 295.988C229.989 294.975 230.591 293.245 230.925 291.516C232.009 285.891 235.086 280.353 231.681 274.816Z" fill="url(#paint11_linear_20128_13171)"/>
<path d="M230.865 293.936H230.457C230.729 292.024 231.137 290.248 231.546 288.61C233.043 282.874 234.267 277.957 226.646 268.534L226.919 268.261C234.676 277.684 233.451 282.737 231.818 288.61C231.546 290.385 231.001 292.024 230.865 293.936Z" fill="#2272D8"/>
<path d="M194.664 317.835C195.345 314.694 197.114 311.553 197.114 311.553L199.972 298.033L208.273 298.852L202.149 313.329C202.285 315.104 201.469 320.567 200.924 320.021C200.788 319.884 200.516 317.289 200.516 317.562C200.38 317.699 199.019 322.206 198.475 322.069C197.931 321.933 198.611 319.201 198.339 319.065C198.067 318.928 197.658 321.796 197.114 321.796C196.57 321.796 196.978 318.791 196.706 318.928C196.434 318.928 196.434 321.659 196.025 321.659C195.617 321.659 195.889 318.655 195.753 318.518C195.617 318.382 195.481 321.113 194.937 321.25C194.528 321.386 194.528 318.791 194.664 317.835Z" fill="url(#paint12_linear_20128_13171)"/>
<path d="M212.9 269.353C210.315 267.441 208.409 268.671 205.824 274.133C201.634 282.814 199.39 289.474 198.193 293.979C197.157 297.879 199.818 301.472 203.801 302.118C205.014 302.315 206.09 302.475 206.724 302.538C207.126 302.578 207.44 302.375 207.663 302.038C211.386 296.414 213.34 287.778 214.397 282.874C215.214 279.459 216.302 271.948 212.9 269.353Z" fill="url(#paint13_linear_20128_13171)"/>
<path d="M207.457 302.813L207.185 302.54C210.995 296.94 213.036 288.2 214.261 283.01C214.669 281.235 216.439 272.358 212.9 269.627L213.172 269.353C216.847 272.221 215.35 280.552 214.805 283.147C213.445 288.337 211.403 297.214 207.457 302.813Z" fill="#2372D9"/>
<path d="M203.647 383.662L194.393 381.886V377.107L204.327 379.565L203.647 383.662Z" fill="url(#paint14_linear_20128_13171)"/>
</g>
<path fill-rule="evenodd" clip-rule="evenodd" d="M391.222 174.389C388.712 175.11 385.989 172.967 384.301 171.6C382.418 170.094 380.299 167.84 378.29 165.702L378.29 165.702C377.097 164.433 375.944 163.206 374.901 162.2C374.885 162.185 374.848 162.15 374.797 162.102L374.797 162.102C374.518 161.841 373.816 161.185 373.901 161.1L376.501 157.7C376.501 157.7 383.501 164 387.601 165.4C388.995 165.865 390.33 166.33 391.465 166.841L391.501 166.8C391.501 166.8 392.101 167.3 394.101 166.8H394.201C398.101 165.8 404.601 164.5 407.401 164C408.223 163.836 408.384 164.092 408.593 164.423C408.765 164.695 408.968 165.019 409.601 165.2C410.501 165.5 411.501 165.9 412.301 166.5C413.601 167.4 414.601 168.6 414.201 170C414.101 170.6 413.801 171.1 413.401 171.5C413.001 171.9 412.401 172.2 411.701 172.3L411.336 172.343L411.336 172.343C409.66 172.54 407.263 172.821 404.689 173.187C404.661 173.257 404.632 173.328 404.601 173.4C400.101 174 395.201 174.6 393.201 174.5C392.899 174.5 392.084 174.5 391.222 174.389Z" fill="url(#paint15_linear_20128_13171)"/>
<path d="M422.801 189.4C422.001 191.6 421.801 193.9 422.301 196.2C423.301 200.7 422.201 201 422.201 201C422.201 201 416.101 204.9 411.101 206.4C407.501 207.5 404.401 207.3 404.501 203.3V203.2C404.501 203 404.501 202.7 404.501 202.5C404.701 193.5 402.801 193 402.301 183C401.801 172.7 401.901 166.6 405.201 164.9C408.801 163.1 413.801 161.8 420.801 163.5C426.101 164.7 427.801 166.1 427.801 170.1C427.801 171.4 427.601 173 427.201 174.9C426.301 179.9 424.201 185.8 422.801 189.4Z" fill="url(#paint16_linear_20128_13171)"/>
<path d="M422.801 189.4C422.001 191.6 421.801 193.9 422.301 196.2C423.301 200.7 422.201 201 422.201 201C422.201 201 416.101 204.9 411.101 206.4L406.401 206L404.501 204.5V203.3C404.501 203.1 404.501 202.8 404.501 202.6C405.601 202.7 408.001 202.8 411.601 202.4C414.401 202.1 416.901 201.3 418.601 200.6C419.801 200.1 420.601 198.9 420.301 197.6C420.001 195.8 419.601 193.3 419.601 191.3C419.601 189.3 420.501 186 421.301 183.6C421.901 181.7 422.101 179.8 421.901 177.9C421.701 174.6 421.901 171.4 421.901 171.4L425.601 169.4L427.701 170.2C427.701 171.5 427.501 173.1 427.101 175C426.301 179.9 424.201 185.8 422.801 189.4Z" fill="url(#paint17_linear_20128_13171)"/>
<path d="M406.801 148.4C406.801 148.4 404.401 145.8 404.801 142.1C405.001 139.9 405.701 137.8 408.901 137C410.701 136.6 413.201 137.9 415.001 139.9C420.701 140.4 422.501 144.3 422.701 148.7L416.101 147.2L406.801 148.4Z" fill="url(#paint18_linear_20128_13171)"/>
<path d="M421.501 151.2C421.401 156.3 417.001 159.2 417.001 159.2L417.301 163.8L414.401 165.7L412.401 167L411.201 164.6L411.001 161.6C411.001 160.9 410.501 160.3 409.801 160.2C409.001 160 408.001 159.6 406.901 158.5C406.801 158.4 406.801 158.4 406.701 158.3C404.801 155.7 404.101 145.7 410.601 142.9C417.401 139.9 421.601 146.1 421.501 151.2Z" fill="url(#paint19_linear_20128_13171)"/>
<path d="M410.001 167.3C410.001 167.3 407.101 185.3 408.201 193.9L410.201 197.6L412.401 193.6C412.401 193.6 410.301 178.6 411.501 167.7L410.001 167.3Z" fill="white"/>
<path d="M409.601 165.8V166C409.701 166.4 409.801 166.9 410.001 167.3L411.501 167.6L412.801 166.6L411.301 164.9L411.101 165C410.501 165.1 410.001 165.4 409.601 165.8Z" fill="white"/>
<path d="M417.301 161.7C417.301 161.7 418.001 162.1 418.701 163.2C418.701 163.2 417.701 163.6 416.901 164.2C416.101 164.7 412.401 167.3 412.401 167.3L411.301 165.1C411.301 164.9 415.201 162.3 417.301 161.7Z" fill="url(#paint20_linear_20128_13171)"/>
<path d="M411.301 164.9C411.301 164.9 410.001 165.3 409.601 166.3C409.601 166.3 408.901 165 409.801 162.8C409.801 162.8 410.501 162.1 411.101 161.9L411.301 164.9Z" fill="url(#paint21_linear_20128_13171)"/>
<g opacity="0.5">
<path d="M390.201 289.2C390.201 291.3 403.201 293 419.201 293C435.201 293 448.201 291.3 448.201 289.2C448.201 287.1 435.201 285.3 419.201 285.3C403.201 285.3 390.201 287.1 390.201 289.2Z" fill="#ECF9FF"/>
</g>
<path d="M405.501 284.1C405.501 284.1 405.001 285.4 405.001 286.3C405.101 287.2 407.801 287.2 408.201 286.8C408.501 286.3 408.701 282.4 408.701 282.4" fill="url(#paint22_linear_20128_13171)"/>
<path d="M408.901 287.6C408.901 288.5 408.601 290 408.601 290H405.401L405.201 289.5C405.201 289.5 404.201 290 403.401 290H400.701C398.701 290 397.601 289.7 397.601 289.4C397.401 288 399.701 288 400.401 288C402.201 288 404.101 287.2 404.501 286.3C404.801 285.7 404.701 285.5 405.001 285.6C405.001 285.6 405.301 285.7 405.501 286.1C405.801 286.7 406.501 287.1 407.201 287C407.601 286.9 408.001 286.8 408.301 286.5C408.301 286.4 408.901 286.6 408.901 287.6Z" fill="url(#paint23_linear_20128_13171)"/>
<path d="M436.501 281.1C436.501 281.1 437.101 283.4 437.501 284.2C437.901 285 440.501 284 440.601 283.5C440.701 283 439.401 279.2 439.401 279.2" fill="url(#paint24_linear_20128_13171)"/>
<path d="M441.601 283.9C441.901 284.7 442.401 286.4 442.401 286.4L440.001 287.8L439.501 287.4C439.501 287.4 439.001 288.3 438.201 288.7C437.701 289 436.401 289.5 435.801 289.7C433.601 290.2 431.901 290 431.701 289.7C431.001 288.4 433.901 287.7 434.501 287.5C436.101 286.8 436.901 285.3 436.901 284.3C436.901 283.6 436.801 283.5 437.101 283.5C437.101 283.5 437.401 283.4 437.801 283.7C438.301 284.1 439.101 284.3 439.701 283.9C440.001 283.7 440.401 283.4 440.501 283C440.601 283.1 441.201 283.1 441.601 283.9Z" fill="url(#paint25_linear_20128_13171)"/>
<path fill-rule="evenodd" clip-rule="evenodd" d="M425.407 218.621C426.022 216.917 428.876 207.775 422.101 201C422.101 201 415.701 203.9 410.501 204.2C406.401 204.5 404.401 204.1 404.401 204.1C404.401 204.1 403.521 211.529 403.984 223.102C403.903 224.892 403.813 226.931 403.721 229.022C403.448 235.195 403.156 241.82 403 243.8V244.787C402.958 244.98 402.924 245.184 402.9 245.4V246.6C402.967 247.957 403.088 249.973 403.235 252.419L403.235 252.419C403.749 260.963 404.578 274.748 404.5 284V284.8C404.5 284.8 406 285.1 408.7 285.1H408.906L408.901 285.2H409.301C409.509 283.269 409.841 280.943 410.206 278.381C411.24 271.123 412.544 261.965 412.101 254.5C412.101 254.3 412.101 254 412.001 253.4C411.201 249.3 412.201 245.2 412.201 245.2C413.12 241.793 414.244 237.187 415.209 232.979C415.217 232.997 415.224 233.015 415.232 233.033L415.232 233.033C417.601 238.731 419.848 244.133 420.878 247.184C420.96 247.703 421.13 248.276 421.401 248.9C422.063 250.384 423.091 252.571 424.323 255.19C427.737 262.453 432.714 273.042 435.801 281.2L436.101 281.9C436.101 281.9 437.801 281.6 440.501 280.5C439.864 278.207 439.288 275.385 438.662 272.324C437.325 265.776 435.763 258.129 432.901 252.2C432.652 251.663 432.377 251.145 432.082 250.645L432.2 250.7C429.114 246.232 428.336 242.491 428.153 241.243L428.101 240.814L428.1 240.8L428.1 240.8L427.948 239.541L427.945 239.518L427.945 239.517C427.061 232.191 425.813 221.839 425.407 218.621Z" fill="url(#paint26_linear_20128_13171)"/>
<path d="M356.901 138C361.601 135.2 362.901 132.4 362.901 132.4C362.901 132.4 363.001 131.7 363.001 130.6C363.001 128.4 362.301 124.7 358.501 123.3C352.801 121.2 349.201 125.1 345.301 118.3C345.301 118.3 345.301 118.3 345.301 118.4C346.301 124.8 345.301 138.1 356.901 138Z" fill="white"/>
<path d="M356.901 138C361.601 135.2 362.901 132.4 362.901 132.4C362.901 132.4 363.001 131.7 363.001 130.6C350.001 142.9 345.601 120.1 345.301 118.4C346.301 124.8 345.301 138.1 356.901 138Z" fill="#FFE7C5"/>
<path d="M345.401 118.8C345.501 119 345.601 119.2 345.701 119.5C346.001 120.1 346.501 121 347.301 121.8C348.101 122.7 349.101 123.6 350.301 124.3C350.901 124.7 351.601 124.9 352.301 125.1C353.001 125.3 353.801 125.4 354.601 125.5C355.401 125.6 356.201 125.7 356.901 125.9C357.701 126.1 358.401 126.4 359.001 126.9C360.301 127.8 361.001 129.1 361.301 130.3C361.501 130.9 361.501 131.4 361.501 131.9C361.501 132.4 361.401 132.8 361.301 133.1C361.201 133.4 361.101 133.7 361.101 133.9C361.101 133.7 361.201 133.5 361.201 133.1C361.301 132.8 361.301 132.4 361.301 131.9C361.301 131.4 361.201 130.9 361.001 130.4C360.701 129.3 359.901 128.2 358.801 127.4C358.201 127 357.601 126.7 356.801 126.5C356.101 126.3 355.301 126.2 354.501 126.1C353.701 126 352.901 125.9 352.201 125.6C351.401 125.4 350.701 125.1 350.101 124.7C348.801 123.9 347.801 122.9 347.101 122C346.401 121.1 345.901 120.2 345.701 119.5C345.601 119.2 345.501 118.9 345.401 118.8Z" fill="#FFE7C5"/>
<path d="M345.301 118.5C345.301 118.5 345.601 119.9 346.501 121.9C347.001 122.9 347.601 124 348.401 125.1C349.201 126.2 350.301 127.2 351.501 128C352.101 128.4 352.701 128.7 353.401 129C354.101 129.3 354.701 129.6 355.301 130C356.501 130.7 357.501 131.6 358.201 132.5C358.901 133.4 359.001 134.4 359.101 135C359.101 135.3 359.101 135.6 359.101 135.7C359.101 135.5 359.001 135.3 359.001 135C358.901 134.4 358.601 133.5 357.901 132.7C357.301 131.8 356.201 131.1 355.101 130.4C354.501 130.1 353.901 129.8 353.201 129.5C352.501 129.2 351.901 128.9 351.201 128.5C349.901 127.7 348.901 126.6 348.101 125.5C347.301 124.4 346.701 123.2 346.301 122.2C345.401 120 345.301 118.5 345.301 118.5Z" fill="#FFE7C5"/>
<path d="M432.301 221.5C432.001 221.5 431.701 221.4 431.401 221.3C428.001 220 427.201 212.4 427.101 211.6L427.001 210.6L427.901 210.9C428.701 211.2 436.001 213.6 436.701 217C436.901 218.1 436.501 219.2 435.301 220.1C434.301 221.1 433.301 221.6 432.301 221.5ZM428.501 212.5C428.901 215 429.901 219.4 431.901 220.1C432.601 220.4 433.501 220.1 434.501 219.2C435.301 218.5 435.601 217.9 435.401 217.3C435.101 215.3 430.901 213.4 428.501 212.5Z" fill="#2970CC"/>
<path d="M364.735 134.576L358.597 140.012L425.029 215.022L431.168 209.586L364.735 134.576Z" fill="#FFC25B"/>
<path d="M362.842 132.475L356.703 137.912L358.626 140.082L364.764 134.646L362.842 132.475Z" fill="#FFA92C"/>
<path d="M364.735 134.576L358.597 140.012L425.029 215.022L431.168 209.586L364.735 134.576Z" fill="#A6E4FF"/>
<path opacity="0.2" d="M427.301 213L425.001 215L358.601 140L356.701 137.9L359.001 135.8L360.901 137.9L427.301 213Z" fill="white"/>
<path d="M430.013 208.423L423.874 213.86L424.935 215.058L431.073 209.621L430.013 208.423Z" fill="#2970CC"/>
<path d="M362.842 132.475L356.703 137.912L358.626 140.082L364.764 134.646L362.842 132.475Z" fill="#2970CC"/>
<path d="M419.2 203.9L417 202.1C417 202.1 416.2 203.2 415.8 203.3C415.7 203.3 415.5 203.2 415.3 203.2C414.7 203.2 414.3 203.4 413.6 203.7C413.1 203.9 412.4 204.1 412.4 204.3C412.4 204.5 412.7 204.8 413.1 204.8C413.1 204.8 413.2 204.8 413.3 204.8C413.3 204.9 413.3 204.9 413.3 205C413.4 205.5 415.6 208.4 417.7 205.2C418.2 204.6 419.2 203.9 419.2 203.9Z" fill="url(#paint27_linear_20128_13171)"/>
<path d="M405.9 145C405.9 145 410.3 144.1 413.6 145.9C415.3 146.8 417.4 146.9 419.1 146.1L420.4 145.5C420.4 145.5 419.2 144.1 419 143.9C418.8 143.8 417.7 142.6 417.1 142.3C416.5 142 413.7 141.1 413.4 141.1C413.1 141 412.1 141 411.2 141.1C410.3 141.3 409.9 141.5 409.5 141.7C409.1 141.9 407.8 142.7 407.8 142.7L405.9 145Z" fill="url(#paint28_linear_20128_13171)"/>
<path d="M374.501 160.2C374.501 160.2 371.401 157.5 371.201 155.6C371.001 153.5 372.501 152.5 373.501 153.6C375.001 155.4 374.801 158.4 374.801 158.4L375.401 159.1L374.501 160.2Z" fill="url(#paint29_linear_20128_13171)"/>
<path fill-rule="evenodd" clip-rule="evenodd" d="M422.025 178.473L422.025 178.473C422.782 181.107 423.671 184.2 425 187C425 187.1 425.1 187.2 425.1 187.2V187.2L425.001 187.3C424.301 188.2 423.601 189.3 423.001 190.6C421.401 194.6 416.101 202.7 416.101 202.7L417.901 204.3L418.401 204.7C418.401 204.7 418.417 204.686 418.449 204.658L418.501 204.7C418.501 204.7 422.201 201.5 425.101 198.8C427.801 196.3 430.501 193.5 432.101 190.1C432.128 190.046 432.155 190 432.179 189.957C432.247 189.839 432.301 189.746 432.301 189.6C432.301 189.55 432.326 189.5 432.351 189.45C432.376 189.4 432.401 189.35 432.401 189.3V189.1V188.9V188.4V188.2C432.401 187.477 432.315 186.798 432.255 186.332C432.225 186.088 432.201 185.903 432.201 185.8C432.001 183.597 430.464 178.232 429.137 173.599C428.476 171.29 427.867 169.163 427.501 167.7C427.301 167.1 427.001 166.5 426.501 166.1C426.101 165.7 425.501 165.5 424.901 165.5H424.701C424.701 165.501 424.702 165.501 424.702 165.502C424.668 165.501 424.634 165.5 424.6 165.5H424.4C422.9 165.5 421.9 166.7 421.3 168.1C420.9 169 420.6 170 420.4 171C420.5 172.4 420.7 174 421.1 175.4C421.4 176.3 421.701 177.344 422.025 178.473Z" fill="url(#paint30_linear_20128_13171)"/>
<path d="M417.001 159.2C417.001 159.2 416.601 157.6 416.501 155.4C416.501 155.4 418.601 153.9 418.601 152.3C418.601 150.1 416.201 152.3 416.201 152.3C416.201 152.3 415.701 150.7 415.601 149.3C415.401 146.9 419.501 145.1 419.501 145.1L421.601 146.6L422.601 148.6C422.701 148.7 422.801 157.2 417.001 159.2Z" fill="url(#paint31_linear_20128_13171)"/>
<path d="M141.901 132.6C140.801 141.3 144.301 150 147.901 147.6C153.501 143.8 161.901 131.4 162.701 131.4C163.201 131.4 163.601 131.7 165.001 131.7C165.701 131.7 166.801 131.5 167.401 131.3C167.501 131.3 167.701 131.2 167.701 131.1C167.701 131 167.601 130.9 167.601 130.9C167.301 130.7 167.001 130.7 166.601 130.6C166.301 130.6 165.901 130.6 165.901 130.3C165.901 130.1 165.901 130 166.101 129.9C166.201 129.8 166.401 129.8 166.601 129.7C167.501 129.5 168.601 129.3 169.501 129C169.001 128.8 168.201 128.7 167.601 128.5C167.201 128.4 166.801 128.3 166.301 128.3C165.701 128.3 164.301 128.3 163.701 128.4C162.501 128.6 162.001 128.9 160.901 129.5C160.201 129.8 159.601 130.3 159.001 130.8C157.501 132 151.701 138.8 150.401 139.7" fill="url(#paint32_linear_20128_13171)"/>
<path d="M175.9 161.7C175.9 161.7 174 166.1 173.2 171C172.6 175.2 174.9 182 174.7 186.9C174.6 187.9 174.5 190.2 174.1 190.8C173.6 191.6 172.6 192.6 172.5 193.7C172.4 194.4 172.8 195 173.6 195.4C174.4 195.8 174.9 195.3 175.2 195.4C176.8 195.5 177.1 196.7 180 197.1C180.9 197.2 182.2 196.9 182.9 196.3C183.2 196.1 183.2 195.7 183 195.5C182.8 195.3 180.7 194.6 179.8 194.1C178.9 193.6 177.9 192.2 177.8 191.6C177.6 191 178 188.3 178.2 187.1C179.4 179.2 180.9 168 181.7 163.4" fill="url(#paint33_linear_20128_13171)"/>
<path d="M183.2 196.4C183.4 196.1 183.401 195.5 183.301 195.4C183.001 195.2 182.1 194.7 181.5 194.4C181 194.2 180.1 194 180.4 194.1C180.7 194.2 180.2 194.9 179.6 194.8C177.8 194.8 176.5 193.7 175.5 193.5C174 193.2 173.7 191.6 173.6 191.4C173.3 191.6 172.401 192.9 172.301 193.3C172.201 193.7 172 194.4 172.1 194.8C172.2 195.1 172.401 195.6 172.301 196.2C172.301 196.2 172.601 196.4 173.301 196.5C173.801 196.6 174.4 196.5 174.4 196.5L174.5 195.6C174.5 195.6 174.9 195.6 175.4 195.7C175.9 195.8 176.501 196.1 176.801 196.4C177.001 196.6 177.2 196.9 177.5 197.1C178.3 197.4 178.901 197.5 179.801 197.6C181.801 197.6 182.9 197 183.2 196.4Z" fill="#001924"/>
<path d="M151.901 151.2L139.101 158.5C139.101 158.5 139.901 163.3 145.701 164.5C149.101 165.2 154.301 164.3 155.701 164.3C157.101 164.4 179.101 165.2 179.101 165.2C179.101 165.2 181.301 165.7 181.701 164C182.301 161.3 181.701 160.4 179.901 159.2C176.801 157.2 165.101 153.3 151.901 151.2Z" fill="url(#paint34_linear_20128_13171)"/>
<path d="M175.701 163.4C175.701 163.4 175.001 168.1 175.701 173.1C176.301 177.3 180.601 184.4 181.701 189.2C181.901 190.1 182.401 192.4 182.201 193.2C182.001 194.1 181.301 195.3 181.501 196.4C181.601 197 182.201 197.6 183.001 197.7C183.901 197.8 184.201 197.3 184.501 197.2C186.101 196.9 186.701 197.9 189.501 197.5C190.401 197.4 191.501 196.7 192.101 195.9C192.301 195.6 192.201 195.3 192.001 195.1C191.801 194.9 189.601 194.9 188.501 194.6C187.501 194.3 186.101 193.3 185.801 192.7C185.501 192.2 185.101 189.4 185.001 188.3C184.001 180.4 182.001 167 181.501 162.3" fill="url(#paint35_linear_20128_13171)"/>
<path d="M192.501 196C192.601 195.6 192.501 195.1 192.301 195.1C192.001 195 190.901 194.7 190.301 194.7C189.701 194.6 188.801 194.7 189.201 194.8C189.501 194.9 189.201 195.6 188.701 195.7C187.001 196.1 185.401 195.5 184.401 195.5C182.901 195.6 182.101 194.2 182.001 194C181.801 194.2 181.301 195.7 181.301 196.2C181.301 196.6 181.301 197.3 181.501 197.7C181.701 197.9 182.001 198.4 182.101 199C182.101 199 182.401 199.1 183.201 199C183.701 198.9 184.301 198.7 184.301 198.7L184.201 197.8C184.201 197.8 184.601 197.7 185.101 197.6C185.601 197.5 186.301 197.7 186.601 197.9C186.901 198 187.201 198.3 187.501 198.3C188.301 198.4 188.901 198.3 189.801 198.1C191.501 197.5 192.401 196.7 192.501 196Z" fill="#001924"/>
<path d="M152.101 152.1L139.301 159.4C139.301 159.4 139.801 164 145.601 165.3C149.001 166 154.501 165.2 155.901 165.3C157.301 165.4 179.301 166.2 179.301 166.2C179.301 166.2 181.501 166.7 181.601 164.9C181.701 162.5 181.901 161.4 180.101 160.2C177.101 158.1 165.401 154.2 152.101 152.1Z" fill="url(#paint36_linear_20128_13171)"/>
<path d="M141.801 148C141.801 148 137.801 155.8 138.801 159.1C139.801 162.4 141.801 165.6 147.301 165.6C152.801 165.6 166.501 165.6 166.501 165.6C166.501 165.6 167.001 162 168.201 159.8C169.401 157.6 171.401 155.8 171.401 155.8C171.401 155.8 157.501 151.5 156.501 150.6C155.501 149.7 154.601 147.6 154.601 147.6" fill="url(#paint37_linear_20128_13171)"/>
<path d="M144.201 122.8C142.601 125.6 141.601 129.5 141.301 133.8C141.401 133.9 145.101 134.6 146.801 134.6" fill="#25B6F4"/>
<path d="M154.801 119.9C155.501 120.1 155.301 121.9 156.001 122.1C156.501 122.3 157.601 122 158.101 122.3C160.701 123.8 160.001 126.7 160.301 130.3C161.401 133.1 161.701 135.6 160.801 137.1C159.701 139 158.601 139.6 157.201 141.1C156.201 142.3 155.901 144.7 155.701 147.3C155.701 147.8 156.001 148.5 155.901 149C155.701 149.8 154.401 150.1 153.001 150.1C149.701 150.2 144.701 149 143.301 149C141.901 149.1 140.601 148.4 140.801 147.6C140.901 147 141.501 146.8 141.701 145.7C142.201 143.3 142.601 137.2 143.001 135.2C144.001 129.9 144.701 126 146.901 121.2" fill="#45C7FF"/>
<path d="M162.301 132.5C161.501 131.1 160.401 129.8 159.301 128.6L156.501 129.9C157.801 132.4 158.101 135.4 158.701 138.2C159.301 138.3 160.301 138 160.301 138C160.601 137.6 160.501 137.8 160.801 137.1C161.401 136.1 162.101 134.4 162.301 132.5Z" fill="#25B6F4"/>
<path d="M164.2 112.8C164.5 111.6 164.7 110.3 164.7 109.2C164.6 107.1 164.4 104.1 160.9 102.9C157.4 101.7 153.6 102.4 152.5 104.9C151.4 107.4 151.6 111.2 151.5 113.2C151.3 115.2 149.9 117.6 149.9 117.6L157.4 120.8C157.4 120.8 158.6 118.1 159.1 117.8C159.6 117.5 159.8 118.7 161.4 118.6C162.1 118.5 162.9 117.3 163.4 115.7C163.4 115.7 163.4 115.6 163.5 115.5C163.9 115.5 164.3 115.5 164.4 115.4C164.9 115.2 164.9 115 164.8 114.7C164.3 114.1 164.2 113.3 164.2 112.8Z" fill="url(#paint38_linear_20128_13171)"/>
<path d="M176.301 153.8C176.401 154.4 177.801 155.8 178.701 155.9C179.001 155.9 179.301 155.9 179.601 155.7C180.001 155.8 181.301 155.7 180.701 155.1C181.601 155.6 182.501 155.5 183.501 155.2C183.801 155.1 183.801 154.7 183.001 154.6C181.901 154.5 181.101 153.9 180.301 153C180.401 152.9 180.601 153.1 181.001 153.1C181.501 153.1 181.701 152.8 181.701 152.6C181.701 152.4 181.101 152.4 181.001 152.3C180.501 152.1 180.001 151.8 179.401 151.6C178.801 151.3 178.501 151.2 177.801 151.3C177.701 151.3 176.701 151.5 177.001 151.9" fill="url(#paint39_linear_20128_13171)"/>
<path d="M158.9 133.9C158.9 133.9 162.8 144.5 163.5 145.3C166.2 148.7 176.7 154 176.7 154C176.7 154 178.3 153.4 178 151.7C174.8 150.3 168.8 143.7 167.5 142.9C166.7 142.4 162.9 129.5 162.9 129.5" fill="url(#paint40_linear_20128_13171)"/>
<path d="M160.501 122.2C157.701 121.1 155.001 121.1 152.801 118.9C150.601 120.6 155.501 130.4 156.701 130.7C157.901 131 159.501 136.4 159.801 137.1C163.701 137 165.201 134.9 165.201 134.9C163.501 129.9 163.201 123.2 160.501 122.2Z" fill="#25B6F4"/>
<path d="M158.201 122.5C158.001 121.8 157.401 121.2 157.301 120.4C157.201 119.7 157.301 118.8 157.701 118.2C157.901 117.8 158.301 117.6 158.701 117.3C160.301 116.1 160.801 115.1 160.301 113.2C160.101 112.6 160.001 112 160.001 111.4C160.101 110.8 160.201 110.2 160.801 110.2C161.201 110.2 161.501 110.3 161.601 110.6C161.701 110.8 161.501 112.6 162.101 111.6C162.701 110.6 163.201 110.6 163.101 108.3C163.101 108 163.001 107 163.201 106.8C164.201 107.6 164.501 108.9 164.701 109.8C165.501 109.5 165.701 108.3 165.701 107.9C165.701 107 165.601 106.3 165.301 105.7C163.901 102.8 162.501 102.3 161.301 101.7C160.101 101.2 158.901 100.7 157.601 100.7C156.301 100.7 154.701 101.1 154.401 102.1C152.601 101.6 151.601 103.2 151.201 103.7C150.601 104.5 150.101 105.4 149.801 106.3C149.301 107.7 149.201 109.2 148.901 110.6C148.601 111.8 148.101 113 147.201 113.8C146.301 114.6 145.101 114.7 144.201 115.4C143.001 116.3 142.301 117.8 142.401 119.3C142.501 120.8 143.201 122.4 142.301 123.8C142.001 124.2 141.601 124.6 141.301 125.1C140.601 126.1 140.701 127.6 141.401 128.6C142.001 129.7 143.301 130.9 144.401 131.2C145.601 131.5 146.501 131.7 147.701 131.7C149.901 131.6 151.701 131.7 153.901 129.8C155.201 128.7 154.401 128.1 155.601 126.9C156.301 126.2 157.301 125.9 157.801 125C158.301 124.2 158.401 123.3 158.201 122.5Z" fill="url(#paint41_linear_20128_13171)"/>
<path opacity="0.75" d="M224.4 62L205.3 81.8L205.5 75L224.4 62Z" fill="#ECF9FF"/>
<path d="M195.5 71.6L215.6 79.9L224.4 62L195.5 71.6Z" fill="#CAEEFF"/>
<path d="M224.4 62L202.7 74.6L205.3 81.8L207 76.4L224.4 62Z" fill="#45C7FF"/>
<path d="M344.867 79.2807L366.785 101.141" stroke="#45C7FF" stroke-miterlimit="10"/>
<path d="M367.748 88.682L356.421 90.4376L365.142 81.0364C366.162 81.9991 367.748 81.9991 368.71 81.0364C369.73 80.0169 369.73 78.4312 368.71 77.4118C367.691 76.3924 366.105 76.3924 365.086 77.4118C364.066 78.4312 364.066 80.0169 365.086 81.0364L355.911 90.0412C355.911 90.0412 357.27 82.2257 357.723 78.3179C360.555 77.0153 368.371 72.7112 370.579 71.0688C371.032 70.729 371.316 70.5591 371.316 70.5591C371.316 70.5591 369.617 69.0866 375.846 75.3163C375.676 75.5429 375.506 75.7694 375.28 75.9959C372.392 79.6771 367.748 88.682 367.748 88.682Z" fill="#ECF9FF"/>
<path d="M380.036 75.203L378.11 77.1286C377.77 77.4684 377.204 77.4684 376.807 77.1286L369.162 69.483C368.822 69.1432 368.822 68.5768 369.105 68.237C369.105 68.237 369.105 68.1804 369.162 68.1804L371.087 66.2549C371.427 65.915 371.994 65.915 372.39 66.2549L380.036 73.9004C380.375 74.2969 380.375 74.8632 380.036 75.203Z" fill="#45C7FF"/>
<path d="M380.036 75.203L378.11 77.1286C377.77 77.4684 377.204 77.4684 376.807 77.1286L369.162 69.483C368.822 69.1432 368.822 68.5769 369.105 68.2371C375.052 74.9199 377.091 72.5412 377.6 71.5218L379.979 73.9005C380.375 74.2969 380.375 74.8632 380.036 75.203Z" fill="#45C7FF"/>
<path d="M374.259 89.1916C368.879 94.5719 360.724 95.0816 356.08 90.3809C351.379 85.6803 351.946 77.525 357.269 72.2014" stroke="#45C7FF" stroke-miterlimit="10"/>
<path d="M345.604 80.0169C345.207 80.4134 344.528 80.4134 344.131 80.0169C343.735 79.6205 343.735 78.9409 344.131 78.5445C344.528 78.148 345.207 78.148 345.604 78.5445C346 78.9409 346 79.6205 345.604 80.0169Z" fill="#45C7FF"/>
<path d="M357.949 72.9943C357.553 73.3907 356.873 73.3907 356.477 72.9943C356.081 72.5979 356.081 71.9183 356.477 71.5218C356.873 71.1254 357.553 71.1254 357.949 71.5218C358.346 71.9183 358.346 72.5979 357.949 72.9943Z" fill="#45C7FF"/>
<path d="M374.826 89.9279C374.43 90.3243 373.75 90.3243 373.354 89.9279C372.958 89.5315 372.958 88.8518 373.354 88.4554C373.75 88.059 374.43 88.059 374.826 88.4554C375.223 88.8518 375.223 89.4748 374.826 89.9279Z" fill="#45C7FF"/>
<path d="M367.464 101.878C367.068 102.274 366.388 102.274 365.992 101.878C365.595 101.481 365.595 100.802 365.992 100.405C366.388 100.009 367.068 100.009 367.464 100.405C367.917 100.802 367.917 101.481 367.464 101.878Z" fill="#45C7FF"/>
<g opacity="0.3">
<path d="M290.8 8.5V49.2" stroke="#45C7FF" stroke-width="2.986" stroke-miterlimit="10" stroke-linecap="round" stroke-linejoin="round"/>
<path d="M341.3 20.2L319.9 54.8" stroke="#45C7FF" stroke-width="2.986" stroke-miterlimit="10" stroke-linecap="round" stroke-linejoin="round"/>
<path d="M240.2 20.2L261.6 54.8" stroke="#45C7FF" stroke-width="2.986" stroke-miterlimit="10" stroke-linecap="round" stroke-linejoin="round"/>
<path d="M202 33.4712L227.252 65.3685" stroke="#45C7FF" stroke-width="2.986" stroke-miterlimit="10" stroke-linecap="round" stroke-linejoin="round"/>
</g>
<g opacity="0.2">
<path d="M403.432 120.514L403.84 117.041L398.937 114.999L396.69 117.859L393.626 116.633L403.84 105.193L407.313 106.623L406.496 121.944L403.432 120.514ZM404.045 114.386C404.249 111.117 404.453 109.279 404.657 108.87C404.657 108.461 404.657 108.053 404.862 107.849C404.249 108.461 403.023 110.3 400.776 112.956L404.045 114.386Z" fill="#2970CC"/>
<path d="M416.711 111.117L411.809 123.374" stroke="#2970CC" stroke-width="0.5" stroke-miterlimit="10"/>
<path d="M408.744 122.149L414.668 124.6" stroke="#2970CC" stroke-width="0.5" stroke-miterlimit="10"/>
<path d="M413.851 109.891L419.775 112.343" stroke="#2970CC" stroke-width="0.5" stroke-miterlimit="10"/>
<path d="M413.238 103.967L400.98 98.86" stroke="#2970CC" stroke-width="0.5" stroke-miterlimit="10"/>
<path d="M402.206 96L399.755 101.924" stroke="#2970CC" stroke-width="0.5" stroke-miterlimit="10"/>
<path d="M414.464 101.107L412.013 107.031" stroke="#2970CC" stroke-width="0.5" stroke-miterlimit="10"/>
</g>
</g>
<defs>
<linearGradient id="paint0_linear_20128_13171" x1="291" y1="33" x2="291" y2="414" gradientUnits="userSpaceOnUse">
<stop stop-color="#3C8BF1" stop-opacity="0"/>
<stop offset="1" stop-color="white" stop-opacity="0.16"/>
</linearGradient>
<linearGradient id="paint1_linear_20128_13171" x1="199.564" y1="378.882" x2="199.564" y2="390.217" gradientUnits="userSpaceOnUse">
<stop stop-color="#FFD9D5"/>
<stop offset="1" stop-color="#FFAA9F"/>
</linearGradient>
<linearGradient id="paint2_linear_20128_13171" x1="197.591" y1="376.97" x2="197.591" y2="389.398" gradientUnits="userSpaceOnUse">
<stop stop-color="#FFD9D5"/>
<stop offset="1" stop-color="#FFAA9F"/>
</linearGradient>
<linearGradient id="paint3_linear_20128_13171" x1="198.004" y1="387.187" x2="198.004" y2="393.191" gradientUnits="userSpaceOnUse">
<stop stop-color="#1A2F79"/>
<stop offset="1" stop-color="#160545"/>
</linearGradient>
<linearGradient id="paint4_linear_20128_13171" x1="231.34" y1="379.019" x2="231.34" y2="389.866" gradientUnits="userSpaceOnUse">
<stop stop-color="#FFD9D5"/>
<stop offset="1" stop-color="#FFAA9F"/>
</linearGradient>
<linearGradient id="paint5_linear_20128_13171" x1="229.639" y1="379.701" x2="229.639" y2="391.037" gradientUnits="userSpaceOnUse">
<stop stop-color="#FFD9D5"/>
<stop offset="1" stop-color="#FFAA9F"/>
</linearGradient>
<linearGradient id="paint6_linear_20128_13171" x1="234.569" y1="385.881" x2="234.569" y2="390.906" gradientUnits="userSpaceOnUse">
<stop stop-color="#1A2F79"/>
<stop offset="1" stop-color="#160545"/>
</linearGradient>
<linearGradient id="paint7_linear_20128_13171" x1="231.341" y1="377.926" x2="231.341" y2="382.433" gradientUnits="userSpaceOnUse">
<stop stop-color="#3C8BF1"/>
<stop offset="1" stop-color="#2271D8"/>
</linearGradient>
<linearGradient id="paint8_linear_20128_13171" x1="243.332" y1="255.557" x2="243.332" y2="277.821" gradientUnits="userSpaceOnUse">
<stop stop-color="#FFD9D5"/>
<stop offset="1" stop-color="#FFAA9F"/>
</linearGradient>
<linearGradient id="paint9_linear_20128_13171" x1="233.856" y1="265.862" x2="233.856" y2="292.479" gradientUnits="userSpaceOnUse">
<stop stop-color="#3C8BF1"/>
<stop offset="1" stop-color="#2271D8"/>
</linearGradient>
<linearGradient id="paint10_linear_20128_13171" x1="219.229" y1="248.872" x2="219.229" y2="272.034" gradientUnits="userSpaceOnUse">
<stop stop-color="#FFD9D5"/>
<stop offset="1" stop-color="#FFAA9F"/>
</linearGradient>
<linearGradient id="paint11_linear_20128_13171" x1="219.947" y1="263.754" x2="219.947" y2="298.767" gradientUnits="userSpaceOnUse">
<stop stop-color="#3C8BF1"/>
<stop offset="1" stop-color="#2271D8"/>
</linearGradient>
<linearGradient id="paint12_linear_20128_13171" x1="201.428" y1="298.033" x2="201.428" y2="322.072" gradientUnits="userSpaceOnUse">
<stop stop-color="#FFD9D5"/>
<stop offset="1" stop-color="#FFAA9F"/>
</linearGradient>
<linearGradient id="paint13_linear_20128_13171" x1="206.038" y1="268.509" x2="206.038" y2="302.566" gradientUnits="userSpaceOnUse">
<stop stop-color="#3C8BF1"/>
<stop offset="1" stop-color="#2271D8"/>
</linearGradient>
<linearGradient id="paint14_linear_20128_13171" x1="199.36" y1="377.107" x2="199.36" y2="383.662" gradientUnits="userSpaceOnUse">
<stop stop-color="#3C8BF1"/>
<stop offset="1" stop-color="#2271D8"/>
</linearGradient>
<linearGradient id="paint15_linear_20128_13171" x1="394.092" y1="157.7" x2="394.092" y2="174.533" gradientUnits="userSpaceOnUse">
<stop stop-color="#368DFF"/>
<stop offset="1" stop-color="#7BB4FF"/>
</linearGradient>
<linearGradient id="paint16_linear_20128_13171" x1="414.939" y1="162.707" x2="414.939" y2="206.975" gradientUnits="userSpaceOnUse">
<stop stop-color="#368DFF"/>
<stop offset="1" stop-color="#7BB4FF"/>
</linearGradient>
<linearGradient id="paint17_linear_20128_13171" x1="416.101" y1="169.4" x2="416.101" y2="206.4" gradientUnits="userSpaceOnUse">
<stop stop-color="#368DFF"/>
<stop offset="1" stop-color="#7BB4FF"/>
</linearGradient>
<linearGradient id="paint18_linear_20128_13171" x1="413.715" y1="136.414" x2="413.715" y2="147.2" gradientUnits="userSpaceOnUse">
<stop stop-color="#1A2F79"/>
<stop offset="1" stop-color="#160545"/>
</linearGradient>
<linearGradient id="paint19_linear_20128_13171" x1="413.442" y1="142.114" x2="413.442" y2="167" gradientUnits="userSpaceOnUse">
<stop stop-color="#FFD9D5"/>
<stop offset="1" stop-color="#FFAA9F"/>
</linearGradient>
<linearGradient id="paint20_linear_20128_13171" x1="415.001" y1="161.7" x2="415.001" y2="167.3" gradientUnits="userSpaceOnUse">
<stop stop-color="#368DFF"/>
<stop offset="1" stop-color="#7BB4FF"/>
</linearGradient>
<linearGradient id="paint21_linear_20128_13171" x1="410.321" y1="161.9" x2="410.321" y2="166.3" gradientUnits="userSpaceOnUse">
<stop stop-color="#368DFF"/>
<stop offset="1" stop-color="#7BB4FF"/>
</linearGradient>
<linearGradient id="paint22_linear_20128_13171" x1="406.851" y1="282.4" x2="406.851" y2="287.056" gradientUnits="userSpaceOnUse">
<stop stop-color="#FFD9D5"/>
<stop offset="1" stop-color="#FFAA9F"/>
</linearGradient>
<linearGradient id="paint23_linear_20128_13171" x1="403.237" y1="285.382" x2="403.237" y2="289.436" gradientUnits="userSpaceOnUse">
<stop stop-color="#1A2F79"/>
<stop offset="1" stop-color="#160545"/>
</linearGradient>
<linearGradient id="paint24_linear_20128_13171" x1="438.554" y1="279.2" x2="438.554" y2="284.5" gradientUnits="userSpaceOnUse">
<stop stop-color="#FFD9D5"/>
<stop offset="1" stop-color="#FFAA9F"/>
</linearGradient>
<linearGradient id="paint25_linear_20128_13171" x1="436.989" y1="282.694" x2="436.989" y2="289.112" gradientUnits="userSpaceOnUse">
<stop stop-color="#1A2F79"/>
<stop offset="1" stop-color="#160545"/>
</linearGradient>
<linearGradient id="paint26_linear_20128_13171" x1="423.91" y1="204.424" x2="423.91" y2="272.444" gradientUnits="userSpaceOnUse">
<stop stop-color="#1A2F79"/>
<stop offset="1" stop-color="#160545"/>
</linearGradient>
<linearGradient id="paint27_linear_20128_13171" x1="415.8" y1="202.1" x2="415.8" y2="206.683" gradientUnits="userSpaceOnUse">
<stop stop-color="#FFD9D5"/>
<stop offset="1" stop-color="#FFAA9F"/>
</linearGradient>
<linearGradient id="paint28_linear_20128_13171" x1="413.14" y1="140.78" x2="413.14" y2="145.927" gradientUnits="userSpaceOnUse">
<stop stop-color="#1A2F79"/>
<stop offset="1" stop-color="#160545"/>
</linearGradient>
<linearGradient id="paint29_linear_20128_13171" x1="373.292" y1="153.148" x2="373.292" y2="160.2" gradientUnits="userSpaceOnUse">
<stop stop-color="#FFD9D5"/>
<stop offset="1" stop-color="#FFAA9F"/>
</linearGradient>
<linearGradient id="paint30_linear_20128_13171" x1="425.201" y1="165.5" x2="425.201" y2="204.7" gradientUnits="userSpaceOnUse">
<stop stop-color="#1E7CF8"/>
<stop offset="1" stop-color="#4E95F2"/>
</linearGradient>
<linearGradient id="paint31_linear_20128_13171" x1="419.105" y1="144.485" x2="419.105" y2="157.404" gradientUnits="userSpaceOnUse">
<stop stop-color="#1A2F79"/>
<stop offset="1" stop-color="#160545"/>
</linearGradient>
<linearGradient id="paint32_linear_20128_13171" x1="155.598" y1="128.3" x2="155.598" y2="148.005" gradientUnits="userSpaceOnUse">
<stop stop-color="#FFD9D5"/>
<stop offset="1" stop-color="#FFAA9F"/>
</linearGradient>
<linearGradient id="paint33_linear_20128_13171" x1="177.813" y1="161.7" x2="177.813" y2="197.119" gradientUnits="userSpaceOnUse">
<stop stop-color="#FFD9D5"/>
<stop offset="1" stop-color="#FFAA9F"/>
</linearGradient>
<linearGradient id="paint34_linear_20128_13171" x1="177.5" y1="161.5" x2="139.101" y2="158.234" gradientUnits="userSpaceOnUse">
<stop stop-color="#FFD9D5"/>
<stop offset="1" stop-color="#FFAA9F"/>
</linearGradient>
<linearGradient id="paint35_linear_20128_13171" x1="183.8" y1="162.3" x2="183.8" y2="197.713" gradientUnits="userSpaceOnUse">
<stop stop-color="#FFD9D5"/>
<stop offset="1" stop-color="#FFAA9F"/>
</linearGradient>
<linearGradient id="paint36_linear_20128_13171" x1="160.482" y1="152.1" x2="160.482" y2="166.264" gradientUnits="userSpaceOnUse">
<stop stop-color="#FFD9D5"/>
<stop offset="1" stop-color="#FFAA9F"/>
</linearGradient>
<linearGradient id="paint37_linear_20128_13171" x1="154.997" y1="146.815" x2="154.997" y2="163.307" gradientUnits="userSpaceOnUse">
<stop stop-color="#1A2F79"/>
<stop offset="1" stop-color="#160545"/>
</linearGradient>
<linearGradient id="paint38_linear_20128_13171" x1="157.377" y1="102.328" x2="157.377" y2="120.8" gradientUnits="userSpaceOnUse">
<stop stop-color="#FFD9D5"/>
<stop offset="1" stop-color="#FFAA9F"/>
</linearGradient>
<linearGradient id="paint39_linear_20128_13171" x1="179.993" y1="151.263" x2="179.993" y2="155.9" gradientUnits="userSpaceOnUse">
<stop stop-color="#FFD9D5"/>
<stop offset="1" stop-color="#FFAA9F"/>
</linearGradient>
<linearGradient id="paint40_linear_20128_13171" x1="168.469" y1="129.5" x2="168.469" y2="154" gradientUnits="userSpaceOnUse">
<stop stop-color="#FFD9D5"/>
<stop offset="1" stop-color="#FFAA9F"/>
</linearGradient>
<linearGradient id="paint41_linear_20128_13171" x1="153.244" y1="99.3473" x2="153.244" y2="127.751" gradientUnits="userSpaceOnUse">
<stop stop-color="#1A2F79"/>
<stop offset="1" stop-color="#160545"/>
</linearGradient>
<clipPath id="clip0_20128_13171">
<rect width="582" height="400" fill="white"/>
</clipPath>
<clipPath id="clip1_20128_13171">
<rect width="55.2517" height="147.905" fill="white" transform="translate(193.576 246)"/>
</clipPath>
</defs>
</svg>
