<svg width="72" height="72" viewBox="0 0 72 72" fill="none" xmlns="http://www.w3.org/2000/svg">
<path d="M57.8485 17.5966C57.1109 14.6437 55.4624 11.9657 53.1266 9.95979C50.4505 7.66173 47.0364 6.39627 43.513 6.39627C40.8697 6.39627 38.3377 7.07792 36.1029 8.38023C33.7362 6.21589 30.6331 5 27.3724 5C20.3786 5 14.6624 10.5753 14.4342 17.5144C12.0164 18.1902 9.82718 19.5659 8.15367 21.4848C6.09806 23.8421 4.96582 26.8608 4.96582 29.9849C4.96582 37.123 10.773 42.9302 17.9111 42.9302H54.0877C61.2258 42.9302 67.033 37.123 67.033 29.9849C67.033 24.2618 63.2372 19.2341 57.8485 17.5966Z" fill="#2970CC"/>
<path d="M24.483 46.5671V50.0281H18.0463C17.2526 47.2332 14.6791 45.1794 11.6332 45.1794C7.9568 45.1794 4.96582 48.1704 4.96582 51.8468C4.96582 55.5232 7.9568 58.5142 11.6332 58.5142C14.6793 58.5142 17.2529 56.46 18.0466 53.6648H26.3014C27.3051 53.6648 28.1198 52.8514 28.1198 51.8464V46.5671H24.483Z" fill="#45C7FF"/>
<path d="M37.8178 53.9194V46.5673H34.181V53.9194C31.3859 54.7131 29.332 57.2867 29.332 60.3327C29.332 64.0091 32.323 67.0001 35.9994 67.0001C39.6758 67.0001 42.6668 64.0091 42.6668 60.3327C42.6668 57.2867 40.6129 54.7131 37.8178 53.9194Z" fill="#45C7FF"/>
<path d="M60.3655 45.1794C57.3196 45.1794 54.7461 47.2332 53.9523 50.0281H47.5157V46.5671H43.8789V51.8464C43.8789 52.8514 44.6935 53.6648 45.6973 53.6648H53.9521C54.7457 56.46 57.3194 58.5142 60.3655 58.5142C64.0419 58.5142 67.0329 55.5232 67.0329 51.8468C67.0329 48.1704 64.0419 45.1794 60.3655 45.1794Z" fill="#45C7FF"/>
</svg>
