<svg width="72" height="72" viewBox="0 0 72 72" fill="none" xmlns="http://www.w3.org/2000/svg">
<path fill-rule="evenodd" clip-rule="evenodd" d="M66.967 55.1463V53.5985L65.448 53.1563L64.8404 53.0089C64.5366 51.977 64.1569 50.9451 63.5493 50.0606L63.8531 49.5447L64.5366 48.1443L63.3214 47.0387L62.1822 45.9332L60.8151 46.6702L60.2835 46.965C59.2961 46.3754 58.2328 46.0069 57.1696 45.7858L56.9417 45.1961L56.4101 43.722H55.7265V30.971C55.7265 30.5288 55.3468 30.0865 54.8151 30.0865H48.2075C47.7518 30.6762 47.2202 31.2658 46.6885 31.8555H53.9037V43.722H53.2202L52.7645 45.1961L52.6126 45.7858C51.5493 46.0069 50.486 46.4491 49.5746 47.0387L49.043 46.7439L47.5999 46.1543L46.4607 47.2599L45.3214 48.3654L46.0809 49.7658L46.3847 50.2818C45.7771 51.2399 45.3974 52.2718 45.1696 53.3037L44.562 53.5248L43.043 54.0407V55.5885V57.1363L44.562 57.5786L45.1696 57.726C45.3974 58.7579 45.8531 59.7897 46.4607 60.7479L46.1569 61.2638L45.4733 62.6642L46.6126 63.7698L47.7518 64.8754L49.1189 64.1383L49.6506 63.8435C50.6379 64.4332 51.6252 64.8017 52.7645 65.0228L52.9923 65.6124L53.524 67.0865H55.1189H56.7139L57.1696 65.6124L57.3214 65.0228C58.3847 64.8017 59.448 64.3595 60.3594 63.7698L61.043 63.8435L62.486 64.5069L63.6252 63.4013L64.7645 62.2957L64.005 60.8953L63.7012 60.3794C64.3088 59.4212 64.6885 58.3893 64.9164 57.3575L65.524 57.1363L67.043 56.6204L66.967 55.1463ZM55.1189 60.969C51.929 61.0427 49.3468 58.5367 49.2708 55.4411C49.2708 52.3455 51.7771 49.8395 54.967 49.7658H55.043C58.2328 49.7658 60.7392 52.1981 60.8151 55.2937C60.8151 58.3893 58.3088 60.8953 55.1189 60.969Z" fill="#45C7FF"/>
<path fill-rule="evenodd" clip-rule="evenodd" d="M29.043 55.2465V53.6925L27.5192 53.2485L26.9096 53.1006C26.6049 52.0646 26.2239 51.0285 25.6144 50.1405L25.843 49.6225L26.5287 48.2165L25.3858 47.1066L24.243 45.9965L22.8715 46.7365L22.3382 47.0325C21.3477 46.4405 20.3573 46.0705 19.2144 45.8485L18.9858 45.2565L18.4525 43.7765H17.7668V31.8625H24.9287C24.3953 31.3445 23.862 30.7525 23.4049 30.0865H16.8525C16.3192 30.0865 15.9382 30.4565 15.9382 30.9745V43.7765H15.2525L14.7954 45.2565L14.643 45.8485C13.5763 46.0705 12.5096 46.5145 11.5954 47.1066L11.062 46.8105L9.53821 46.2185L8.39535 47.3285L7.32868 48.4385L8.09059 49.8446L8.39535 50.3625C7.78583 51.3245 7.40487 52.3605 7.1763 53.3965L6.56678 53.5445L5.04297 54.0625V55.6165V57.1706L6.56678 57.6146L7.1763 57.7625C7.48106 58.7985 7.86202 59.8345 8.54773 60.7225L8.24297 61.2406L7.55725 62.6465L8.70011 63.7565L9.84297 64.8665L11.2144 64.1265L11.7477 63.8306C12.7382 64.4226 13.7287 64.7926 14.8715 65.0146L15.1001 65.6065L15.6334 67.0865H17.2334H18.8334L19.2906 65.6065L19.443 65.0146C20.5096 64.7926 21.5763 64.3485 22.4906 63.7565L23.0239 64.0525L24.4715 64.7186L25.6144 63.6086L26.7573 62.4986L25.9953 61.0925L25.6906 60.5746C26.3001 59.6126 26.6811 58.5766 26.9096 57.5406L27.5192 57.3186L29.043 56.8006V55.2465ZM17.0811 61.0925C13.8811 61.1665 11.2906 58.6505 11.2144 55.5425C11.2144 52.4345 13.7287 49.9186 16.9287 49.8446H17.0049C20.2049 49.8446 22.7192 52.2866 22.7953 55.3946C22.8715 58.5026 20.2811 61.0185 17.0811 61.0925Z" fill="#45C7FF"/>
<path fill-rule="evenodd" clip-rule="evenodd" d="M40.043 45.0865C39.6182 45.8825 38.7686 46.5193 37.7067 46.8377C35.512 47.5276 32.9633 46.7316 32.043 45.0865H40.043Z" fill="#2970CC"/>
<path fill-rule="evenodd" clip-rule="evenodd" d="M43.043 38.625V42.5481C43.043 42.8558 42.8219 43.0865 42.5272 43.0865H29.5588C29.264 43.0865 29.043 42.8558 29.043 42.5481V38.625C29.043 38.3173 29.264 38.0865 29.5588 38.0865H42.5272C42.8219 38.0865 43.043 38.3173 43.043 38.625Z" fill="#2970CC"/>
<path fill-rule="evenodd" clip-rule="evenodd" d="M44.043 20.8623L42.5183 20.4049L42.3658 19.9475C42.2896 19.5664 42.1371 19.1852 41.9847 18.804C41.8322 18.4229 41.6797 18.1179 41.451 17.7368L41.1461 17.2794L41.8322 15.8309L40.9936 14.9924L39.6214 15.7547L39.2403 15.526C38.9353 15.2973 38.5542 15.1448 38.173 14.9924C37.7918 14.8399 37.4107 14.7637 37.0295 14.6874L36.5721 14.6112L36.0385 13.0865H34.8188L34.3614 14.6112L33.904 14.7637C33.1416 14.9161 32.4555 15.2211 31.7694 15.6785L31.312 15.9834L29.8636 15.2973L29.025 16.1359L29.7874 17.5081L29.5587 17.8892C29.33 18.1942 29.1775 18.5753 29.025 18.9565C28.8726 19.3377 28.7963 19.7188 28.7201 20.1L28.5676 20.5574L27.043 21.091V22.3108L28.5676 22.7682L28.7201 23.2256C28.9488 23.9879 29.2537 24.7502 29.6349 25.3601L29.9398 25.8175L29.2537 27.2659L30.0923 28.1045L31.4645 27.3422L31.9219 27.6471C32.608 28.0283 33.2941 28.3332 34.1327 28.4857L34.5901 28.5619L35.1237 30.0865H36.3434L36.8008 28.5619L37.2582 28.4094C38.0205 28.1807 38.7829 27.8758 39.3927 27.4946L39.8501 27.1897L41.2986 27.8758L42.1371 27.0372L41.3748 25.665L41.6035 25.2076C41.9847 24.5215 42.2896 23.8354 42.4421 23.0731L42.5183 22.5395L44.043 22.0058V20.8623ZM35.6573 26.961C32.6842 27.0372 30.1685 24.5978 30.1685 21.6247C30.1685 18.6516 32.5318 16.1359 35.5049 16.1359C36.9533 16.1359 38.3255 16.6695 39.3927 17.6605C40.3838 18.6516 40.9936 20.0238 40.9936 21.4722C41.0699 24.5215 38.6304 26.961 35.6573 26.961Z" fill="#2970CC"/>
<path fill-rule="evenodd" clip-rule="evenodd" d="M39.043 21.55C39.043 22.5003 38.676 23.3776 38.0889 24.0355C36.7678 25.4245 34.4926 25.4245 33.0982 24.1086C31.7037 22.7927 31.7037 20.5266 33.0248 19.1376C34.3458 17.7486 36.621 17.7486 38.0155 19.0645C38.6026 19.7224 38.9696 20.5997 39.043 21.55Z" fill="#2970CC"/>
<path fill-rule="evenodd" clip-rule="evenodd" d="M41.2226 5.90234C40.6173 5.67985 39.9363 5.53152 39.2553 5.3832C38.196 5.23487 37.1366 5.08655 36.0016 5.08655C35.7746 5.08655 35.5476 5.08655 35.3963 5.08655C35.1693 5.08655 35.018 5.08655 34.791 5.08655C34.564 5.08655 34.4126 5.08655 34.1856 5.16071C33.8073 5.23487 33.3533 5.30904 32.975 5.3832C32.748 5.3832 32.5966 5.45736 32.3696 5.53152C32.2183 5.60569 32.067 5.60569 31.9156 5.67985C31.9156 5.67985 31.9156 5.67985 31.84 5.67985C31.6886 5.75401 31.4616 5.75401 31.3103 5.82817C31.159 5.90234 31.0076 5.90234 30.8563 5.9765C30.8563 5.9765 30.7806 5.9765 30.7806 6.05066C30.6293 6.12483 30.478 6.12483 30.251 6.19899C30.024 6.27315 29.8726 6.34731 29.6456 6.42148H29.57C29.343 6.49564 29.116 6.64396 28.889 6.71813C28.889 6.71813 28.8133 6.71813 28.8133 6.79229C28.5863 6.94061 28.3593 7.01478 28.1323 7.1631C28.1323 7.1631 28.1323 7.1631 28.0566 7.1631C27.6026 7.45975 27.073 7.7564 26.619 8.05306C19.5063 13.0961 17.9173 22.8114 23.0627 29.7827C23.5167 30.376 23.9706 30.9693 24.5003 31.5626H24.576C26.0136 33.0459 27.8296 34.2325 29.7213 34.9741V36.0865H35.018V31.266H34.1856L33.7316 29.5602C33.429 29.4861 33.1263 29.4119 32.8236 29.2636C32.521 29.1153 32.2183 29.0411 31.9913 28.8928L30.3266 29.7827L27.6026 27.187L28.435 25.5554C28.1323 25.0363 27.9053 24.443 27.6783 23.8497L25.8623 23.3306L25.7866 19.6224L27.527 19.0291C27.6026 18.7325 27.754 18.4358 27.8296 18.1392C27.981 17.8425 28.0566 17.5459 28.208 17.3234L27.3 15.6918L29.9483 13.022L31.613 13.8377C31.9156 13.6894 32.1426 13.5411 32.4453 13.3928C32.748 13.2444 33.0506 13.1703 33.3533 13.0961L33.883 11.3162L37.6663 11.2421L38.2716 12.9478C38.877 13.0961 39.4823 13.3186 40.012 13.6153L41.6766 12.7253L44.4006 15.321L43.5683 16.9526C43.871 17.4717 44.1736 18.065 44.325 18.6583L46.141 19.1775L46.2166 22.8856L44.4763 23.4789C44.325 24.0722 44.098 24.6655 43.7953 25.1846L44.7033 26.8162L42.055 29.5602L40.3903 28.7444C40.0876 28.8928 39.8606 29.0411 39.558 29.1894C39.2553 29.3377 38.9526 29.4119 38.65 29.4861L38.1203 31.266H36.9853V36.0865H42.282V34.9741C43.7196 34.3808 45.0816 33.565 46.2923 32.6009C46.6706 32.3043 47.049 31.9334 47.4273 31.5626C47.957 31.0435 48.4866 30.4502 48.9406 29.7827C49.0163 29.6344 49.1676 29.4861 49.2433 29.4119L49.319 29.3377C49.546 28.9669 49.8486 28.5961 50.0756 28.1511C50.227 27.9287 50.3026 27.7062 50.454 27.4837C50.6053 27.2612 50.681 27.0387 50.7566 26.8162C50.8323 26.5937 50.9836 26.3712 51.0593 26.0746C51.135 25.8521 51.2106 25.6296 51.2863 25.333C51.362 25.1105 51.4376 24.888 51.5133 24.5913C51.589 24.2947 51.6646 23.9239 51.7403 23.6272C51.9673 22.6631 52.043 21.699 52.043 20.6607C51.9673 13.8377 47.4273 8.05306 41.2226 5.90234Z" fill="#2970CC"/>
</svg>
