<svg width="72" height="72" viewBox="0 0 72 72" fill="none" xmlns="http://www.w3.org/2000/svg">
<path d="M28.125 48.024V51.75C28.125 52.5105 30.5021 54 36 54C41.4979 54 43.875 52.5105 43.875 51.75V48.024C41.4 49.12 38.7039 49.6253 36 49.5C33.2961 49.6253 30.6 49.12 28.125 48.024Z" fill="#45C7FF"/>
<path d="M28.125 54.774V58.5C28.125 59.2605 30.5021 60.75 36 60.75C41.4979 60.75 43.875 59.2605 43.875 58.5V54.774C41.4 55.87 38.7039 56.3753 36 56.25C33.2961 56.3753 30.6 55.87 28.125 54.774Z" fill="#45C7FF"/>
<path d="M41.7375 23.5012C41.6693 23.3383 41.6409 23.1616 41.6546 22.9855C41.6683 22.8094 41.7237 22.6392 41.8162 22.4887L42.5363 21.2737L40.6012 19.3388L39.3862 20.0587C39.2358 20.1513 39.0656 20.2067 38.8895 20.2204C38.7134 20.2341 38.5367 20.2057 38.3738 20.1375C38.2113 20.0702 38.0668 19.9661 37.9516 19.8333C37.8364 19.7005 37.7537 19.5428 37.71 19.3725L37.3725 18H34.6275L34.29 19.3725C34.2463 19.5428 34.1636 19.7005 34.0484 19.8333C33.9332 19.9661 33.7887 20.0702 33.6262 20.1375C33.4633 20.2057 33.2866 20.2341 33.1105 20.2204C32.9344 20.2067 32.7642 20.1513 32.6137 20.0587L31.3987 19.3388L29.4638 21.2737L30.1837 22.4887C30.2763 22.6392 30.3317 22.8094 30.3454 22.9855C30.3591 23.1616 30.3307 23.3383 30.2625 23.5012C30.1952 23.6637 30.0911 23.8082 29.9583 23.9234C29.8255 24.0386 29.6678 24.1213 29.4975 24.165L28.125 24.5025V27.2475L29.4975 27.585C29.6678 27.6287 29.8255 27.7114 29.9583 27.8266C30.0911 27.9418 30.1952 28.0863 30.2625 28.2488C30.3307 28.4117 30.3591 28.5884 30.3454 28.7645C30.3317 28.9406 30.2763 29.1108 30.1837 29.2613L29.4638 30.4762L31.3987 32.4112L32.6137 31.68C32.766 31.5918 32.9365 31.5398 33.1121 31.5281C33.2877 31.5164 33.4636 31.5453 33.6262 31.6125C33.7887 31.6798 33.9332 31.7839 34.0484 31.9167C34.1636 32.0495 34.2463 32.2072 34.29 32.3775L34.6275 33.75H37.3725L37.71 32.3775C37.7537 32.2072 37.8364 32.0495 37.9516 31.9167C38.0668 31.7839 38.2113 31.6798 38.3738 31.6125C38.5364 31.5453 38.7123 31.5164 38.8879 31.5281C39.0635 31.5398 39.234 31.5918 39.3862 31.68L40.6012 32.4112L42.5363 30.4762L41.8162 29.2613C41.7237 29.1108 41.6683 28.9406 41.6546 28.7645C41.6409 28.5884 41.6693 28.4117 41.7375 28.2488C41.8048 28.0863 41.9089 27.9418 42.0417 27.8266C42.1745 27.7114 42.3322 27.6287 42.5025 27.585L43.875 27.2475V24.5025L42.5025 24.165C42.3322 24.1213 42.1745 24.0386 42.0417 23.9234C41.9089 23.8082 41.8048 23.6637 41.7375 23.5012ZM36 30.375C35.11 30.375 34.24 30.1111 33.4999 29.6166C32.7599 29.1221 32.1831 28.4193 31.8425 27.5971C31.5019 26.7748 31.4128 25.87 31.5865 24.9971C31.7601 24.1242 32.1887 23.3224 32.818 22.693C33.4474 22.0637 34.2492 21.6351 35.1221 21.4615C35.995 21.2878 36.8998 21.3769 37.7221 21.7175C38.5443 22.0581 39.2471 22.6349 39.7416 23.3749C40.2361 24.115 40.5 24.985 40.5 25.875C40.5 27.0685 40.0259 28.2131 39.182 29.057C38.3381 29.9009 37.1935 30.375 36 30.375Z" fill="#2970CC"/>
<path d="M36 28.125C37.2426 28.125 38.25 27.1176 38.25 25.875C38.25 24.6324 37.2426 23.625 36 23.625C34.7574 23.625 33.75 24.6324 33.75 25.875C33.75 27.1176 34.7574 28.125 36 28.125Z" fill="#2970CC"/>
<path d="M36 47.25C40.3492 47.25 43.875 46.2426 43.875 45C43.875 43.7574 40.3492 42.75 36 42.75C31.6508 42.75 28.125 43.7574 28.125 45C28.125 46.2426 31.6508 47.25 36 47.25Z" fill="#45C7FF"/>
<path d="M5.625 61.5239V65.2499C5.625 66.0104 8.00212 67.4999 13.5 67.4999C18.9979 67.4999 21.375 66.0104 21.375 65.2499V61.5239C18.9 62.6199 16.2039 63.1252 13.5 62.9999C10.7961 63.1252 8.10004 62.6199 5.625 61.5239Z" fill="#45C7FF"/>
<path d="M5.625 48.024V51.75C5.625 52.5105 8.00212 54 13.5 54C18.9979 54 21.375 52.5105 21.375 51.75V48.024C18.9 49.12 16.2039 49.6253 13.5 49.5C10.7961 49.6253 8.10004 49.12 5.625 48.024Z" fill="#45C7FF"/>
<path d="M13.5 47.25C17.8492 47.25 21.375 46.2426 21.375 45C21.375 43.7574 17.8492 42.75 13.5 42.75C9.15076 42.75 5.625 43.7574 5.625 45C5.625 46.2426 9.15076 47.25 13.5 47.25Z" fill="#45C7FF"/>
<path d="M28.125 61.5239V65.2499C28.125 66.0104 30.5021 67.4999 36 67.4999C41.4979 67.4999 43.875 66.0104 43.875 65.2499V61.5239C41.4 62.6199 38.7039 63.1252 36 62.9999C33.2961 63.1252 30.6 62.6199 28.125 61.5239Z" fill="#45C7FF"/>
<path d="M5.625 54.774V58.5C5.625 59.2605 8.00212 60.75 13.5 60.75C18.9979 60.75 21.375 59.2605 21.375 58.5V54.774C18.9 55.87 16.2039 56.3753 13.5 56.25C10.7961 56.3753 8.10004 55.87 5.625 54.774Z" fill="#45C7FF"/>
<path d="M50.625 48.024V51.75C50.625 52.5105 53.0021 54 58.5 54C63.9979 54 66.375 52.5105 66.375 51.75V48.024C63.9 49.12 61.2039 49.6253 58.5 49.5C55.7961 49.6253 53.1 49.12 50.625 48.024Z" fill="#45C7FF"/>
<path d="M50.625 54.774V58.5C50.625 59.2605 53.0021 60.75 58.5 60.75C63.9979 60.75 66.375 59.2605 66.375 58.5V54.774C63.9 55.87 61.2039 56.3753 58.5 56.25C55.7961 56.3753 53.1 55.87 50.625 54.774Z" fill="#45C7FF"/>
<path d="M58.5 47.25C62.8492 47.25 66.375 46.2426 66.375 45C66.375 43.7574 62.8492 42.75 58.5 42.75C54.1508 42.75 50.625 43.7574 50.625 45C50.625 46.2426 54.1508 47.25 58.5 47.25Z" fill="#45C7FF"/>
<path d="M50.625 61.5239V65.2499C50.625 66.0104 53.0021 67.4999 58.5 67.4999C63.9979 67.4999 66.375 66.0104 66.375 65.2499V61.5239C63.9 62.6199 61.2039 63.1252 58.5 62.9999C55.7961 63.1252 53.1 62.6199 50.625 61.5239Z" fill="#45C7FF"/>
<path d="M54 24.75C55.1935 24.75 56.3381 24.2759 57.182 23.432C58.0259 22.5881 58.5 21.4435 58.5 20.25C58.5 19.0565 58.0259 17.9119 57.182 17.068C56.3381 16.2241 55.1935 15.75 54 15.75H51.3563C51.1763 15.7484 50.9993 15.7049 50.8391 15.6229C50.679 15.5408 50.5402 15.4226 50.4338 15.2775C50.3323 15.1295 50.2672 14.9596 50.2438 14.7818C50.2203 14.6039 50.2392 14.423 50.2987 14.2537C50.5095 13.6496 50.6197 13.0149 50.625 12.375C50.6248 11.266 50.2968 10.1818 49.6822 9.2587C49.0676 8.33559 48.1939 7.61474 47.1708 7.18675C46.1477 6.75877 45.021 6.64275 43.9322 6.85328C42.8433 7.0638 41.841 7.59148 41.0513 8.36999C40.9397 8.48053 40.8062 8.56648 40.6593 8.6223C40.5125 8.67813 40.3556 8.70259 40.1988 8.69411C40.042 8.68563 39.8886 8.6444 39.7487 8.57308C39.6087 8.50176 39.4853 8.40192 39.3862 8.27999C38.0724 6.6483 36.2848 5.46431 34.2698 4.89123C32.2548 4.31815 30.1117 4.38419 28.1358 5.08025C26.1599 5.77631 24.4486 7.06812 23.2377 8.77761C22.0269 10.4871 21.376 12.5301 21.375 14.625C21.375 14.9234 21.2565 15.2095 21.0455 15.4205C20.8345 15.6315 20.5484 15.75 20.25 15.75H18C16.8065 15.75 15.6619 16.2241 14.818 17.068C13.9741 17.9119 13.5 19.0565 13.5 20.25C13.5 21.4435 13.9741 22.5881 14.818 23.432C15.6619 24.2759 16.8065 24.75 18 24.75H25.875V23.625C25.8752 23.3737 25.9595 23.1298 26.1144 22.932C26.2694 22.7343 26.4861 22.594 26.73 22.5337L27.4838 22.3425L27.0787 21.6787C26.9501 21.4638 26.8968 21.2121 26.9274 20.9635C26.9579 20.7149 27.0706 20.4836 27.2475 20.3062L30.4312 17.1225C30.61 16.948 30.8411 16.8369 31.089 16.8064C31.337 16.776 31.5881 16.8277 31.8038 16.9537L32.4675 17.3587L32.6588 16.605C32.719 16.3611 32.8593 16.1444 33.057 15.9894C33.2548 15.8345 33.4988 15.7502 33.75 15.75H38.25C38.5012 15.7502 38.7452 15.8345 38.943 15.9894C39.1407 16.1444 39.281 16.3611 39.3413 16.605L39.5325 17.3587L40.1962 16.9537C40.4112 16.8251 40.6629 16.7718 40.9115 16.8023C41.1601 16.8329 41.3914 16.9456 41.5688 17.1225L44.7525 20.3062C44.9294 20.4836 45.0421 20.7149 45.0727 20.9635C45.1032 21.2121 45.0499 21.4638 44.9212 21.6787L44.5163 22.3425L45.27 22.5337C45.5139 22.594 45.7306 22.7343 45.8856 22.932C46.0405 23.1298 46.1248 23.3737 46.125 23.625V24.75H54Z" fill="#2970CC"/>
<path d="M12.375 34.875V39.375H14.625V34.875C14.625 33.9799 14.9806 33.1214 15.6135 32.4885C16.2464 31.8556 17.1049 31.5 18 31.5H24.75V29.25H18C16.5087 29.2518 15.079 29.845 14.0245 30.8995C12.97 31.954 12.3768 33.3837 12.375 34.875Z" fill="#2970CC"/>
<path d="M57.375 34.875V39.375H59.625V34.875C59.6232 33.3837 59.03 31.954 57.9755 30.8995C56.921 29.845 55.4913 29.2518 54 29.25H47.25V31.5H54C54.8951 31.5 55.7535 31.8556 56.3865 32.4885C57.0194 33.1214 57.375 33.9799 57.375 34.875Z" fill="#2970CC"/>
</svg>
