<svg width="730" height="467" viewBox="0 0 730 467" fill="none" xmlns="http://www.w3.org/2000/svg">
<g clip-path="url(#clip0_20171_10580)">
<path d="M480.531 0V218.027" stroke="url(#paint0_linear_20171_10580)" stroke-width="2" stroke-miterlimit="10"/>
<path d="M343.996 0V254.902" stroke="url(#paint1_linear_20171_10580)" stroke-width="2" stroke-miterlimit="10"/>
<path d="M252.705 0V225.535" stroke="url(#paint2_linear_20171_10580)" stroke-width="2" stroke-miterlimit="10"/>
<path d="M281.052 215.954L243.31 209.46L243.252 209.799L159.904 303.766L158.182 327.256L170.136 329.314L190.828 332.875L218.602 337.654L221.24 338.106L219.254 349.693L218.332 355.053L215.295 372.761L239.862 376.99L253.038 379.254L258.983 344.599L275.564 347.448L280.567 318.285L263.987 315.437L281.052 215.954ZM233.936 264.107L226.239 308.944L217.032 307.357L196.896 303.894L208.046 290.568L210.597 287.517L231.857 262.108L234.864 258.698L233.936 264.107Z" fill="#45C7FF"/>
<path opacity="0.2" d="M218.602 337.655L190.828 332.876C194.1 322.055 198.181 307.142 196.896 303.895L217.033 307.357C218.323 309.509 219.343 312.471 219.618 316.533C220.108 323.725 219.039 331.068 218.602 337.655Z" fill="#001924"/>
<path d="M198.096 304.103C198.096 304.103 201.123 299.895 207.943 301.209C214.762 302.524 215.286 310.928 212.314 320.207C209.341 329.487 208.642 361.878 210.041 372.383C211.44 382.888 210.566 387.79 207.244 388.14C203.922 388.491 202.348 375.535 204.271 366.429C206.195 357.325 206.02 348.921 202.872 350.321C199.724 351.722 202.347 355.224 200.774 358.375C199.201 361.527 194.48 359.601 194.655 353.649C194.829 347.696 204.336 309.008 198.096 304.103Z" fill="#45C7FF"/>
<path opacity="0.5" d="M315.819 155.657C319.585 155.657 322.638 152.6 322.638 148.829C322.638 145.057 319.585 142 315.819 142C312.053 142 309 145.057 309 148.829C309 152.6 312.053 155.657 315.819 155.657Z" fill="#FF7900"/>
<path opacity="0.5" d="M571.819 275.657C575.585 275.657 578.638 272.6 578.638 268.829C578.638 265.057 575.585 262 571.819 262C568.053 262 565 265.057 565 268.829C565 272.6 568.053 275.657 571.819 275.657Z" fill="#6C5BE8"/>
<path opacity="0.5" d="M177.819 231.657C181.585 231.657 184.638 228.6 184.638 224.829C184.638 221.057 181.585 218 177.819 218C174.053 218 171 221.057 171 224.829C171 228.6 174.053 231.657 177.819 231.657Z" fill="#219FFF"/>
<path opacity="0.5" d="M259.819 441.657C263.585 441.657 266.638 438.6 266.638 434.829C266.638 431.057 263.585 428 259.819 428C256.053 428 253 431.057 253 434.829C253 438.6 256.053 441.657 259.819 441.657Z" fill="#FF6643"/>
<path d="M515.63 186.268C517.083 186.268 518.26 185.089 518.26 183.634C518.26 182.179 517.083 181 515.63 181C514.178 181 513 182.179 513 183.634C513 185.089 514.178 186.268 515.63 186.268Z" fill="#FF7900"/>
<path d="M313.544 237.939C314.997 237.939 316.174 236.759 316.174 235.305C316.174 233.85 314.997 232.671 313.544 232.671C312.092 232.671 310.914 233.85 310.914 235.305C310.914 236.759 312.092 237.939 313.544 237.939Z" fill="#219FFF"/>
<path d="M457.63 393.268C459.083 393.268 460.26 392.089 460.26 390.634C460.26 389.179 459.083 388 457.63 388C456.178 388 455 389.179 455 390.634C455 392.089 456.178 393.268 457.63 393.268Z" fill="#219FFF"/>
<path d="M234.863 202.277C236.315 202.277 237.493 201.098 237.493 199.643C237.493 198.189 236.315 197.01 234.863 197.01C233.41 197.01 232.232 198.189 232.232 199.643C232.232 201.098 233.41 202.277 234.863 202.277Z" fill="#6C5BE8"/>
<path d="M590.683 55.3069C590.683 55.3069 580.172 44.802 560.25 49.0042C540.327 53.2064 526.325 84.7212 511.82 91.7249C497.315 98.7285 468.716 119.408 466.58 137.081C494.517 113.785 505.008 123.941 523.192 121.139C541.376 118.338 542.775 96.9773 569.002 97.6782C595.228 98.3781 623.204 131.011 649.431 112.769C675.658 94.5274 706.431 72.8166 681.603 54.9586C656.775 37.1006 606.419 64.4112 590.683 55.3069Z" fill="url(#paint3_linear_20171_10580)"/>
<path d="M165.111 126.308C165.111 126.308 162.376 140.925 177.076 155.029C191.776 169.135 225.663 162.941 239.618 170.986C253.573 179.032 286.755 191.019 302.536 182.819C267.569 172.854 270.028 158.452 257.464 144.994C244.899 131.537 226.494 142.426 212.281 120.342C198.069 98.2584 209.204 56.7227 179.37 45.3213C149.535 33.9199 114.277 20.715 113.551 51.3174C112.823 81.9219 163.746 108.161 165.111 126.308Z" fill="url(#paint4_linear_20171_10580)"/>
<path d="M672.863 210.099C672.863 210.099 630.2 256.971 621.108 311.924C612.016 366.878 568.284 363.376 553.432 389.289C538.58 415.201 503.186 417.303 486.962 427.808C470.739 438.312 433.78 420.104 427.431 427.808C421.082 435.511 460.583 447.417 511.821 448.118C563.059 448.817 572.85 408.899 618.31 403.296C663.771 397.693 709.23 378.084 725.316 303.849C741.403 229.613 714.127 189.885 672.863 210.099Z" fill="url(#paint5_linear_20171_10580)"/>
<path d="M57.1371 228.973C57.1371 228.973 99.8001 275.845 108.892 330.798C117.984 385.752 161.716 382.25 176.568 408.163C191.419 434.075 226.814 436.176 243.038 446.681C259.26 457.186 296.22 438.978 302.569 446.681C308.918 454.385 269.416 466.291 218.179 466.991C166.941 467.691 157.149 427.773 111.69 422.17C66.2301 416.567 20.7694 396.958 4.68327 322.723C-11.4028 248.487 15.874 208.758 57.1371 228.973Z" fill="url(#paint6_linear_20171_10580)"/>
<path d="M412.44 330.149L406.818 301.399C402.658 280.134 394.638 264.622 382.757 254.857C370.872 245.097 356.189 241.929 338.711 245.358C321.232 248.786 308.837 257.225 301.532 270.669C294.223 284.119 292.654 301.512 296.828 322.85L302.469 351.708C306.615 372.899 314.625 388.377 326.511 398.138C331.529 402.259 337.053 405.207 343.082 406.969C351.327 409.391 360.521 409.602 370.66 407.618C375.914 406.591 380.711 405.103 385.043 403.157C395.07 398.658 402.634 391.717 407.736 382.326C415.044 368.876 416.61 351.482 412.44 330.149ZM377.346 368.738C375.423 374.633 371.357 378.189 365.146 379.408C358.715 380.67 353.491 378.863 349.459 373.98C346.711 370.655 344.362 365.718 342.415 359.17C342.415 359.165 342.415 359.161 342.415 359.161C342.409 359.151 342.409 359.142 342.405 359.127C341.502 356.091 340.688 352.706 339.963 348.979L332.07 308.616C330.221 298.016 330.216 289.832 332.051 284.065C333.885 278.299 337.947 274.796 344.231 273.568C349.024 272.624 353.158 273.435 356.631 275.99H356.637C357.819 276.864 358.928 277.936 359.957 279.212C364.014 284.237 367.153 292.431 369.37 303.782L377.008 342.838C379.157 354.209 379.269 362.84 377.346 368.738Z" fill="#2970CC"/>
<path opacity="0.2" d="M380.167 374.132C381.785 376.628 383.939 393.594 385.043 403.157C380.711 405.103 375.914 406.591 370.66 407.618C360.52 409.602 351.328 409.392 343.081 406.969C343.419 406.208 343.729 405.413 343.993 404.596C349.139 388.853 342.707 360.447 342.414 359.169C344.361 365.717 346.711 370.654 349.458 373.979C353.491 378.862 358.715 380.67 365.145 379.407C371.355 378.189 375.423 374.632 377.346 368.737C379.268 362.838 379.156 354.208 377.007 342.836L369.37 303.78C367.153 292.428 364.013 284.235 359.957 279.21C358.926 277.933 357.817 276.862 356.636 275.988C369.042 278.424 379.118 316.886 383.317 335.438C387.51 353.997 387.863 362.579 380.167 374.132Z" fill="#001924"/>
<path d="M345.152 366.717C345.152 366.717 345.957 368.823 350.182 369.989C354.408 371.156 358.37 364.611 361.168 366.717C363.966 368.823 368.443 377.551 372.382 376.222C376.322 374.893 377.487 395.902 375.622 398.237C373.757 400.572 372.416 381.704 367.491 382.267C362.566 382.83 366.296 397.069 363.498 399.638C360.701 402.205 361.867 393.335 358.836 391.7C355.805 390.067 362.1 463.134 357.437 464.301C352.774 465.468 349.744 461.033 351.609 445.392C353.474 429.751 351.142 375.825 348.345 373.024C345.548 370.223 345.723 369.698 345.152 366.717Z" fill="#2970CC"/>
<path d="M553.432 325.38L543.621 296.561L527.237 302.151L493.777 203.832L456.471 216.559L456.584 216.894L444.552 268.902L427.432 342.892L437.419 364.971L472.645 352.951L485.468 348.575L499.742 343.702L511.397 377.954L548.703 365.227L537.048 330.975L553.432 325.38ZM485.599 316.361L477.137 319.249L460.929 324.781L471.991 269.786L473.031 261.5L497.5 312.5L485.599 316.361Z" fill="#FF5050"/>
<path opacity="0.2" d="M485.468 348.575L466.5 355L465 335V324.5L477.138 319.249L478.815 317.697L485.599 316.361C485.599 316.361 485.179 335.798 485.468 348.575Z" fill="#001924"/>
<path d="M485.919 316.602C485.919 316.602 482.714 312.57 477.119 313.037C471.523 313.504 468.401 315.605 468.215 321.442C468.027 327.278 469.417 356.692 468.139 368.364C466.862 380.035 474.809 381.203 475.264 372.566C475.72 363.928 472.343 336.849 474.847 332.414C477.351 327.979 475.828 337.316 478.455 340.351C481.082 343.385 483.879 338.017 481.082 330.78C478.284 323.543 485.919 316.602 485.919 316.602Z" fill="#FF5050"/>
</g>
<defs>
<linearGradient id="paint0_linear_20171_10580" x1="481.031" y1="0" x2="481.031" y2="218.027" gradientUnits="userSpaceOnUse">
<stop stop-color="#0047A3" stop-opacity="0"/>
<stop offset="1" stop-color="#2970CC" stop-opacity="0.3"/>
</linearGradient>
<linearGradient id="paint1_linear_20171_10580" x1="344.496" y1="0" x2="344.496" y2="254.902" gradientUnits="userSpaceOnUse">
<stop stop-color="#0047A3" stop-opacity="0"/>
<stop offset="1" stop-color="#2970CC" stop-opacity="0.3"/>
</linearGradient>
<linearGradient id="paint2_linear_20171_10580" x1="253.205" y1="0" x2="253.205" y2="225.535" gradientUnits="userSpaceOnUse">
<stop stop-color="#0047A3" stop-opacity="0"/>
<stop offset="1" stop-color="#2970CC" stop-opacity="0.3"/>
</linearGradient>
<linearGradient id="paint3_linear_20171_10580" x1="670.791" y1="49.7117" x2="643.832" y2="153.937" gradientUnits="userSpaceOnUse">
<stop stop-color="#45C7FF" stop-opacity="0.08"/>
<stop offset="1" stop-color="#45C7FF" stop-opacity="0.06"/>
</linearGradient>
<linearGradient id="paint4_linear_20171_10580" x1="134.11" y1="42.0655" x2="209.189" y2="184.965" gradientUnits="userSpaceOnUse">
<stop stop-color="#45C7FF" stop-opacity="0.08"/>
<stop offset="1" stop-color="#45C7FF" stop-opacity="0.02"/>
</linearGradient>
<linearGradient id="paint5_linear_20171_10580" x1="703" y1="209.5" x2="578.38" y2="448.127" gradientUnits="userSpaceOnUse">
<stop stop-color="#45C7FF" stop-opacity="0.08"/>
<stop offset="1" stop-color="#45C7FF" stop-opacity="0.04"/>
</linearGradient>
<linearGradient id="paint6_linear_20171_10580" x1="33" y1="239" x2="151.62" y2="467.001" gradientUnits="userSpaceOnUse">
<stop stop-color="#45C7FF" stop-opacity="0.08"/>
<stop offset="1" stop-color="#45C7FF" stop-opacity="0.02"/>
</linearGradient>
<clipPath id="clip0_20171_10580">
<rect width="730" height="467" fill="white"/>
</clipPath>
</defs>
</svg>
