<svg width="42" height="42" viewBox="0 0 42 42" fill="none" xmlns="http://www.w3.org/2000/svg">
<circle cx="21" cy="21" r="21" fill="#45C7FF"/>
<path fill-rule="evenodd" clip-rule="evenodd" d="M11 11.2834C11 11.2082 11.0299 11.1362 11.083 11.083C11.1362 11.0299 11.2082 11 11.2834 11C11.3586 11 11.4306 11.0299 11.4838 11.083C11.5369 11.1362 11.5668 11.2082 11.5668 11.2834V30.4332H30.7166C30.7918 30.4332 30.8638 30.4631 30.917 30.5162C30.9701 30.5694 31 30.6414 31 30.7166C31 30.7918 30.9701 30.8638 30.917 30.917C30.8638 30.9701 30.7918 31 30.7166 31H11.2834C11.2082 31 11.1362 30.9701 11.083 30.917C11.0299 30.8638 11 30.7918 11 30.7166V11.2834ZM29.7452 29.8664V13.513C29.7452 13.485 29.7356 13.4579 29.718 13.4363C29.7004 13.4146 29.6759 13.3996 29.6485 13.3939C29.6212 13.3882 29.5927 13.3921 29.5679 13.4049C29.5431 13.4178 29.5235 13.4388 29.5123 13.4644C29.0558 14.5129 28.499 15.5148 27.8498 16.4563C27.8356 16.4764 27.8281 16.5005 27.8284 16.5251V29.8664H29.7452ZM22.2587 29.8664V21.8933C22.2587 21.872 22.2531 21.851 22.2425 21.8325C22.2318 21.814 22.2165 21.7987 22.198 21.788C22.1795 21.7774 22.1586 21.7717 22.1373 21.7717C22.1159 21.7717 22.095 21.7774 22.0765 21.788C21.5376 22.099 20.9826 22.3815 20.414 22.6342C20.3924 22.6435 20.374 22.659 20.3611 22.6787C20.3483 22.6985 20.3416 22.7216 20.3419 22.7451V29.8664H22.2587ZM26.0019 29.8664V19.0154C26.0019 18.9914 25.9948 18.9679 25.9814 18.9479C25.968 18.9279 25.9491 18.9123 25.9268 18.9032C25.9046 18.894 25.8802 18.8916 25.8566 18.8963C25.8331 18.901 25.8114 18.9126 25.7945 18.9296C25.2713 19.4546 24.716 19.9465 24.1319 20.4026C24.1171 20.4137 24.1052 20.4282 24.0971 20.4448C24.089 20.4615 24.0849 20.4798 24.0851 20.4983V29.8664H26.0019ZM15.8064 24.0377C15.3698 24.0377 14.9431 24.1671 14.5801 24.4097C14.2171 24.6522 13.9342 24.9969 13.7672 25.4002C13.6001 25.8036 13.5564 26.2473 13.6416 26.6755C13.7267 27.1037 13.9369 27.4969 14.2456 27.8056C14.5543 28.1143 14.9476 28.3245 15.3758 28.4097C15.8039 28.4949 16.2477 28.4511 16.651 28.2841C17.0543 28.117 17.3991 27.8341 17.6416 27.4712C17.8841 27.1082 18.0136 26.6814 18.0136 26.2449C18.0136 25.955 17.9565 25.668 17.8456 25.4002C17.7347 25.1324 17.5721 24.8891 17.3671 24.6841C17.1622 24.4792 16.9188 24.3166 16.651 24.2057C16.3832 24.0948 16.0962 24.0377 15.8064 24.0377ZM15.8064 26.6498C15.7693 26.6498 15.7324 26.6447 15.6966 26.6347L14.9856 27.0452C14.9535 27.0639 14.918 27.0762 14.8811 27.0811C14.8443 27.0861 14.8068 27.0838 14.7708 27.0743C14.7348 27.0648 14.7011 27.0482 14.6715 27.0257C14.642 27.0031 14.6172 26.9749 14.5985 26.9427C14.5799 26.9105 14.5678 26.8749 14.5629 26.8381C14.558 26.8012 14.5605 26.7637 14.5701 26.7278C14.5797 26.6918 14.5964 26.6582 14.619 26.6287C14.6417 26.5992 14.67 26.5745 14.7022 26.5559L15.414 26.145C15.4323 26.0731 15.47 26.0077 15.523 25.9558V24.6534C15.523 24.5782 15.5528 24.5061 15.606 24.453C15.6591 24.3998 15.7312 24.37 15.8064 24.37C15.8815 24.37 15.9536 24.3998 16.0068 24.453C16.0599 24.5061 16.0898 24.5782 16.0898 24.6534V25.9558C16.1469 26.0122 16.1861 26.0843 16.2022 26.163C16.2183 26.2416 16.2107 26.3233 16.1804 26.3977C16.15 26.472 16.0982 26.5357 16.0317 26.5805C15.9651 26.6254 15.8867 26.6495 15.8064 26.6498ZM15.8064 22.701C15.1054 22.701 14.4203 22.9089 13.8375 23.2983C13.2547 23.6877 12.8005 24.2412 12.5322 24.8887C12.264 25.5363 12.1938 26.2488 12.3306 26.9363C12.4673 27.6237 12.8048 28.2552 13.3004 28.7508C13.7961 29.2464 14.4275 29.5839 15.115 29.7207C15.8024 29.8574 16.515 29.7873 17.1625 29.519C17.8101 29.2508 18.3636 28.7966 18.753 28.2138C19.1424 27.631 19.3502 26.9458 19.3502 26.2449C19.3502 25.305 18.9769 24.4036 18.3123 23.739C17.6477 23.0744 16.7463 22.701 15.8064 22.701ZM15.8064 29.0189C15.2577 29.0189 14.7214 28.8562 14.2652 28.5514C13.809 28.2466 13.4534 27.8133 13.2435 27.3064C13.0335 26.7995 12.9786 26.2418 13.0856 25.7037C13.1927 25.1655 13.4569 24.6713 13.8448 24.2833C14.2328 23.8953 14.7271 23.6311 15.2652 23.5241C15.8033 23.4171 16.3611 23.472 16.868 23.682C17.3749 23.892 17.8081 24.2475 18.1129 24.7037C18.4177 25.1599 18.5804 25.6962 18.5804 26.2449C18.5804 26.9806 18.2881 27.6862 17.7679 28.2064C17.2476 28.7266 16.5421 29.0189 15.8064 29.0189Z" fill="white"/>
</svg>
