<svg width="42" height="42" viewBox="0 0 42 42" fill="none" xmlns="http://www.w3.org/2000/svg">
<circle cx="21" cy="21" r="21" fill="#45C7FF"/>
<path fill-rule="evenodd" clip-rule="evenodd" d="M12.4132 27.2268H14.4651C14.5942 27.2268 14.6995 27.3321 14.6995 27.4612V30.9375H12.1789V27.4612C12.1789 27.3321 12.2842 27.2268 12.4132 27.2268ZM14.2759 11.2153C16.426 11.2153 18.169 12.9583 18.169 15.1083C18.169 17.2584 16.426 19.0014 14.2759 19.0014C12.1258 19.0014 10.3828 17.2584 10.3828 15.1083C10.3828 12.9583 12.1258 11.2153 14.2759 11.2153ZM15.7677 13.7807C15.556 13.2764 15.1528 12.985 14.7097 12.8727C14.6902 12.8678 14.6706 12.8632 14.6509 12.859V12.6448C14.6509 12.4377 14.483 12.2698 14.2759 12.2698C14.0688 12.2698 13.9009 12.4377 13.9009 12.6448V12.8645C13.2548 13.01 12.7495 13.5153 12.7833 14.2102C12.8224 15.0168 13.5166 15.3481 14.2194 15.4635C14.5885 15.5241 15.1405 15.6517 15.151 16.1179C15.1602 16.5061 14.6298 16.6403 14.318 16.6477C13.9237 16.6571 13.4937 16.4812 13.3902 16.0662C13.3409 15.8656 13.1382 15.743 12.9376 15.7923C12.737 15.8416 12.6143 16.0443 12.6637 16.2449C12.8148 16.8512 13.3048 17.2398 13.9009 17.3578V17.5719C13.9009 17.779 14.0688 17.9469 14.2759 17.9469C14.483 17.9469 14.6509 17.779 14.6509 17.5719V17.3651C15.3076 17.2519 15.9155 16.8325 15.898 16.1003C15.8767 15.2009 15.1147 14.8524 14.3395 14.7252C14.0304 14.6744 13.549 14.5611 13.5303 14.175C13.5142 13.8444 13.7924 13.6477 14.0864 13.5885C14.4928 13.5067 14.9094 13.6731 15.0764 14.0707C15.1564 14.2616 15.3762 14.3515 15.5671 14.2714C15.758 14.1913 15.8478 13.9716 15.7677 13.7807ZM11.7113 24.1911L20.4445 19.149L20.3368 19.3355C20.2341 19.5143 20.2958 19.7425 20.4745 19.8453C20.6533 19.948 20.8815 19.8863 20.9843 19.7076L21.7712 18.3447C21.9448 18.1005 21.7727 17.7526 21.4653 17.7526H19.8558C19.6487 17.7526 19.4808 17.9205 19.4808 18.1276C19.4808 18.3347 19.6487 18.5026 19.8558 18.5026H20.0676L11.3363 23.5437C11.1575 23.6472 11.0965 23.8761 11.2001 24.0549C11.3036 24.2337 11.5325 24.2947 11.7113 24.1911ZM28.588 11.1156C28.668 11.3065 28.5782 11.5262 28.3873 11.6063C28.1964 11.6864 27.9767 11.5965 27.8966 11.4056C27.8184 11.2195 27.6214 11.1482 27.4328 11.1862C27.3202 11.2088 27.1902 11.2778 27.1966 11.4103C27.2037 11.5569 27.4762 11.6055 27.5865 11.6236C28.1445 11.7152 28.6646 11.9812 28.68 12.6197C28.6915 13.104 28.3367 13.415 27.8992 13.5282V13.545C27.8992 13.752 27.7312 13.92 27.5242 13.92C27.3171 13.92 27.1492 13.752 27.1492 13.545V13.5203C26.7701 13.4102 26.4758 13.1377 26.3784 12.747C26.3291 12.5464 26.4517 12.3437 26.6524 12.2944C26.853 12.245 27.0556 12.3677 27.105 12.5683C27.153 12.7606 27.3695 12.8307 27.5473 12.8265C27.6582 12.8238 27.9362 12.7739 27.933 12.6373C27.933 12.443 27.6111 12.3857 27.4664 12.3619C27.2641 12.3287 27.043 12.2672 26.8581 12.1465C26.6297 11.9974 26.4656 11.7762 26.4495 11.4455C26.4272 10.9848 26.7262 10.6276 27.1492 10.4898V10.4582C27.1492 10.2511 27.3171 10.0832 27.5242 10.0832C27.7313 10.0832 27.8992 10.2511 27.8992 10.4582V10.4851C28.1891 10.5772 28.4475 10.7809 28.588 11.1156ZM27.5243 9.5625C26.1772 9.5625 25.0852 10.6545 25.0852 12.0015C25.0852 13.2211 25.9802 14.2315 27.1493 14.4119V16.4952C26.4839 15.1939 25.0958 14.4362 23.6441 14.5773C23.5096 14.5904 23.4148 14.712 23.435 14.8456C23.7087 16.6573 25.3235 17.9587 27.1493 17.8528V19.6679H26.4541C26.325 19.6679 26.2198 19.7731 26.2198 19.9022V30.9375H28.7403V19.9022C28.7403 19.7731 28.635 19.6679 28.506 19.6679H27.8993V17.8528C29.7251 17.9587 31.3399 16.6572 31.6136 14.8456C31.6338 14.712 31.539 14.5904 31.4045 14.5773C29.9527 14.4362 28.5647 15.1939 27.8993 16.4952V14.4119C29.0683 14.2315 29.9633 13.2211 29.9633 12.0015C29.9633 10.6545 28.8713 9.5625 27.5243 9.5625ZM10.9435 32.4374C10.7364 32.4374 10.5685 32.2695 10.5685 32.0624C10.5685 31.8553 10.7364 31.6874 10.9435 31.6874H29.9757C30.1828 31.6874 30.3507 31.8553 30.3507 32.0624C30.3507 32.2695 30.1828 32.4374 29.9757 32.4374H10.9435ZM23.8258 22.0477C23.9549 22.0477 24.0601 22.153 24.0601 22.2821V30.9375H21.5395V22.2821C21.5395 22.153 21.6448 22.0477 21.7739 22.0477H23.8258ZM19.1454 24.6933C18.4615 24.6933 17.7775 24.6933 17.0936 24.6933C16.9645 24.6933 16.8592 24.7986 16.8592 24.9277V30.9375H19.3798V24.9277C19.3798 24.7986 19.2745 24.6933 19.1454 24.6933Z" fill="white"/>
</svg>
