<svg width="42" height="42" viewBox="0 0 42 42" fill="none" xmlns="http://www.w3.org/2000/svg">
<circle cx="21" cy="21" r="21" fill="#2970CC"/>
<path d="M22.0007 13.9963C22.7098 13.1667 23.7264 12.5916 24.8105 12.4897C25.9375 12.3496 27.1113 12.7107 27.986 13.4414C29.0011 14.2757 29.6344 15.5823 29.6083 16.9146C29.6466 18.12 29.1207 19.3014 28.2843 20.1434C27.2707 21.1636 26.2825 22.2103 25.2628 23.2235C24.2171 22.1543 23.1691 21.0866 22.1348 20.0056C21.3015 19.1317 20.8744 17.8936 20.9342 16.6835C20.9818 15.7006 21.3743 14.7449 22.0007 13.9963ZM24.9063 14.4064C24.0569 14.5348 23.3155 15.1574 23.0004 15.9636C22.6209 16.9021 22.8831 18.0508 23.613 18.7395C24.1121 19.215 24.8113 19.4656 25.4944 19.401C26.3592 19.3418 27.1504 18.7465 27.5 17.9481C27.9377 16.9753 27.6955 15.7232 26.8997 15.015C26.363 14.5302 25.6178 14.3029 24.9063 14.4064Z" fill="white"/>
<path d="M15.4686 20.4342C16.2468 20.1673 17.0058 19.8451 17.7909 19.5977C17.462 21.5089 17.071 23.4086 16.7283 25.3175C15.9938 25.0272 15.2885 24.6646 14.5632 24.3533C14.2933 24.228 13.9606 24.4646 14.002 24.7681C13.9836 24.9836 14.1791 25.1043 14.3485 25.1766C15.0891 25.5066 15.8274 25.8428 16.5757 26.1525C16.4109 27.1097 16.233 28.0669 16.0283 29.0163C14.3271 29.4412 12.6312 29.8864 10.9238 30.2848C11.6031 28.3977 12.3353 26.5315 13.0245 24.6482C13.519 23.3805 13.9591 22.0895 14.475 20.8319C14.7855 20.6537 15.1397 20.5712 15.4686 20.4342Z" fill="white"/>
<path d="M18.326 21.1375C18.4272 20.62 18.5077 20.0986 18.638 19.5889C19.4584 19.9196 20.2695 20.2706 21.0883 20.6044C21.0983 21.392 21.0829 22.1795 21.0914 22.9663C20.6643 23.2667 20.1997 23.504 19.7589 23.7819C19.0359 24.2068 18.326 24.655 17.5977 25.0706C17.8208 23.7554 18.0952 22.4503 18.326 21.1375Z" fill="white"/>
<path d="M26.1821 24.7153C27.0891 23.7597 28.0129 22.8188 28.9398 21.8818C29.8292 24.232 30.6986 26.59 31.5848 28.9418C31.7489 29.3861 31.9206 29.8274 32.0663 30.2787C30.3658 29.8927 28.6753 29.4608 26.9841 29.0344C26.7234 27.5931 26.4183 26.1604 26.1821 24.7153Z" fill="white"/>
<path d="M17.5739 26.0838C18.7545 25.3982 19.9038 24.6573 21.0883 23.9795C21.0936 25.9569 21.0867 27.9336 21.0921 29.911C21.0883 30.006 21.0783 30.1009 21.063 30.1951C19.6715 29.7593 18.2485 29.4309 16.8547 29.0021C17.028 28.1126 17.2066 27.2246 17.3707 26.3344C17.3738 26.2091 17.4773 26.1382 17.5739 26.0838Z" fill="white"/>
<path d="M21.9094 24.0762C22.8486 24.7789 23.7839 25.4878 24.7246 26.189C24.9822 25.9571 25.2038 25.6871 25.4691 25.4637C25.686 26.6606 25.9321 27.8528 26.1353 29.052C24.7239 29.4287 23.317 29.824 21.9094 30.2147C21.9094 28.1688 21.9102 26.1229 21.9094 24.0762Z" fill="white"/>
</svg>
