<svg width="42" height="42" viewBox="0 0 42 42" fill="none" xmlns="http://www.w3.org/2000/svg">
<circle cx="21" cy="21" r="21" fill="#2970CC"/>
<path d="M19.0757 29C20.4471 29 21.5089 28.8706 22.3607 28.6061C22.3426 28.5106 22.3305 28.413 22.3305 28.3125C22.3305 27.8635 22.5199 27.4581 22.8226 27.1667C22.5199 26.8752 22.3305 26.4699 22.3305 26.0208C22.3305 25.5718 22.5199 25.1665 22.8226 24.875C22.5199 24.5835 22.3305 24.1782 22.3305 23.7292C22.3305 23.2801 22.5199 22.8748 22.8226 22.5833C22.5199 22.2919 22.3305 21.8865 22.3305 21.4375C22.3305 20.9071 22.5962 20.4396 23 20.1474C22.7234 19.8978 22.428 19.6741 22.118 19.4773C22.2439 19.3209 22.3305 19.1317 22.3305 18.9167C22.3305 18.4104 21.9142 18 21.4006 18H16.7508C16.2371 18 15.8209 18.4104 15.8209 18.9167C15.8209 19.1313 15.9072 19.3199 16.0324 19.476C14.2272 20.6223 13 22.698 13 24.875C13 28.5726 16.4807 29 19.0757 29ZM19.0707 24.5509C18.3014 24.5509 17.6758 23.9342 17.6758 23.1759C17.6758 22.5774 18.0681 22.0724 18.6107 21.8839V21.2083C18.6107 20.9551 18.8187 20.75 19.0757 20.75C19.3326 20.75 19.5407 20.9551 19.5407 21.2083V21.887C20.0782 22.0781 20.4656 22.5811 20.4656 23.1759C20.4656 23.4293 20.2576 23.6343 20.0007 23.6343C19.7436 23.6343 19.5357 23.4293 19.5357 23.1759C19.5357 22.923 19.3272 22.7176 19.0707 22.7176C18.8141 22.7176 18.6057 22.923 18.6057 23.1759C18.6057 23.4289 18.8141 23.6343 19.0707 23.6343C19.8399 23.6343 20.4656 24.2511 20.4656 25.0093C20.4656 25.6042 20.0782 26.1071 19.5407 26.2983V26.7083C19.5407 26.9616 19.3326 27.1667 19.0757 27.1667C18.8187 27.1667 18.6107 26.9616 18.6107 26.7083V26.3013C18.0681 26.113 17.6758 25.6079 17.6758 25.0093C17.6758 24.756 17.8837 24.5509 18.1408 24.5509C18.3977 24.5509 18.6057 24.756 18.6057 25.0093C18.6057 25.2622 18.8141 25.4676 19.0707 25.4676C19.3272 25.4676 19.5357 25.2622 19.5357 25.0093C19.5357 24.7564 19.3272 24.5509 19.0707 24.5509Z" fill="white"/>
<path d="M28.2541 28H23.7459C23.334 28 23 28.2239 23 28.5C23 28.7761 23.334 29 23.7459 29H28.2541C28.666 29 29 28.7761 29 28.5C29 28.2239 28.666 28 28.2541 28Z" fill="white"/>
<path d="M28.2541 25H23.7459C23.334 25 23 25.4477 23 26C23 26.5523 23.334 27 23.7459 27H28.2541C28.666 27 29 26.5523 29 26C29 25.4477 28.666 25 28.2541 25Z" fill="white"/>
<path d="M28.2541 23H23.7459C23.334 23 23 23.2239 23 23.5C23 23.7761 23.334 24 23.7459 24H28.2541C28.666 24 29 23.7761 29 23.5C29 23.2239 28.666 23 28.2541 23Z" fill="white"/>
<path d="M28.2541 21H23.7459C23.334 21 23 21.2239 23 21.5C23 21.7761 23.334 22 23.7459 22H28.2541C28.666 22 29 21.7761 29 21.5C29 21.2239 28.666 21 28.2541 21Z" fill="white"/>
<path d="M20.2068 13.9836C20.0292 13.4124 19.558 13 19 13C18.4413 13 17.9646 13.4111 17.7875 13.9836H16.4286C16.2909 13.9836 16.1615 14.0594 16.0808 14.1878C16.0005 14.316 15.9782 14.4812 16.0222 14.631L16.6913 17H21.3088L21.9778 14.631C22.0218 14.4812 21.9995 14.316 21.9192 14.1878C21.8385 14.0594 21.7091 13.9836 21.5714 13.9836H20.2068Z" fill="white"/>
</svg>
