<svg width="126" height="36" viewBox="0 0 126 36" fill="none" xmlns="http://www.w3.org/2000/svg">
<rect width="126" height="36" rx="4" fill="#EDEFFF"/>
<path d="M28.3438 24.1285V17.1367H30.2763L30.5324 14.7273H28.3438L28.347 13.5214C28.347 12.893 28.4068 12.5562 29.3106 12.5562H30.5187V10.1465H28.5859C26.2643 10.1465 25.4471 11.3154 25.4471 13.281V14.7276H24V17.137H25.4471V24.1285H28.3438Z" fill="#1877F2"/>
<path d="M43.631 22V17.954H48.293V16.512H43.631V14.104H48.391V12.662H41.993V22H43.631ZM55.4537 22V17.506C55.4537 15.7 54.1377 15.07 52.6257 15.07C51.5477 15.07 50.5677 15.406 49.7837 16.162L50.3997 17.184C50.9737 16.596 51.6457 16.316 52.4017 16.316C53.3257 16.316 53.9837 16.792 53.9837 17.576V18.584C53.4797 18.01 52.7097 17.716 51.7857 17.716C50.6797 17.716 49.4477 18.36 49.4477 19.928C49.4477 21.412 50.6937 22.168 51.7857 22.168C52.6817 22.168 53.4797 21.846 53.9837 21.258V22H55.4537ZM52.3737 21.16C51.5477 21.16 50.9177 20.684 50.9177 19.942C50.9177 19.214 51.5477 18.724 52.3737 18.724C53.0037 18.724 53.6337 18.962 53.9837 19.424V20.46C53.6337 20.922 53.0037 21.16 52.3737 21.16ZM60.4392 22.168C61.7692 22.168 62.5532 21.594 63.0292 20.964L62.0632 20.054C61.6852 20.586 61.1672 20.866 60.5092 20.866C59.2912 20.866 58.4652 19.928 58.4652 18.612C58.4652 17.296 59.2912 16.372 60.5092 16.372C61.1672 16.372 61.6852 16.624 62.0632 17.156L63.0292 16.274C62.5532 15.63 61.7692 15.07 60.4392 15.07C58.3952 15.07 56.9532 16.568 56.9532 18.612C56.9532 20.656 58.3952 22.168 60.4392 22.168ZM67.4679 22.168C68.5319 22.168 69.5259 21.818 70.2119 21.174L69.5399 20.208C69.0499 20.698 68.2799 20.964 67.6079 20.964C66.3339 20.964 65.5779 20.11 65.4659 19.102H70.6739V18.738C70.6739 16.61 69.3859 15.07 67.3559 15.07C65.3539 15.07 63.9259 16.652 63.9259 18.612C63.9259 20.754 65.4239 22.168 67.4679 22.168ZM69.2599 18.052H65.4519C65.5079 17.24 66.0959 16.274 67.3419 16.274C68.6719 16.274 69.2179 17.254 69.2599 18.052ZM73.5949 19.97V17.282C73.9309 16.778 74.6449 16.372 75.3449 16.372C76.5069 16.372 77.2489 17.31 77.2489 18.612C77.2489 19.928 76.5069 20.866 75.3449 20.866C74.6449 20.866 73.9309 20.474 73.5949 19.97ZM73.5949 22V21.076C74.1129 21.748 74.8969 22.168 75.7649 22.168C77.5009 22.168 78.7749 20.852 78.7749 18.612C78.7749 16.428 77.5149 15.07 75.7649 15.07C74.9249 15.07 74.1409 15.448 73.5949 16.176V12.662H72.1249V22H73.5949ZM83.3256 22.168C85.4816 22.168 86.7976 20.544 86.7976 18.612C86.7976 16.666 85.4816 15.07 83.3256 15.07C81.1696 15.07 79.8536 16.666 79.8536 18.612C79.8536 20.544 81.1696 22.168 83.3256 22.168ZM83.3256 20.866C82.0796 20.866 81.3796 19.816 81.3796 18.612C81.3796 17.422 82.0796 16.372 83.3256 16.372C84.5856 16.372 85.2716 17.422 85.2716 18.612C85.2716 19.816 84.5856 20.866 83.3256 20.866ZM91.3647 22.168C93.5207 22.168 94.8367 20.544 94.8367 18.612C94.8367 16.666 93.5207 15.07 91.3647 15.07C89.2087 15.07 87.8927 16.666 87.8927 18.612C87.8927 20.544 89.2087 22.168 91.3647 22.168ZM91.3647 20.866C90.1187 20.866 89.4187 19.816 89.4187 18.612C89.4187 17.422 90.1187 16.372 91.3647 16.372C92.6247 16.372 93.3107 17.422 93.3107 18.612C93.3107 19.816 92.6247 20.866 91.3647 20.866ZM102.666 22L99.8097 18.304L102.61 15.238H100.79L97.8077 18.5V12.662H96.3377V22H97.8077V20.18L98.7597 19.2L100.818 22H102.666Z" fill="#1877F2"/>
</svg>
