<svg width="46" height="46" viewBox="0 0 46 46" fill="none" xmlns="http://www.w3.org/2000/svg">
<circle cx="23" cy="23" r="23" fill="#E9EDF0"/>
<path d="M16.3329 26.1113H13.6662C13.1753 26.1113 12.7773 26.5093 12.7773 27.0002V30.5558C12.7773 31.0467 13.1753 31.4447 13.6662 31.4447H16.3329C16.8238 31.4447 17.2218 31.0467 17.2218 30.5558V27.0002C17.2218 26.5093 16.8238 26.1113 16.3329 26.1113Z" fill="#54616B"/>
<path d="M26.9999 24.3335H24.3332C23.8423 24.3335 23.4443 24.7315 23.4443 25.2224V30.5557C23.4443 31.0466 23.8423 31.4446 24.3332 31.4446H26.9999C27.4908 31.4446 27.8888 31.0466 27.8888 30.5557V25.2224C27.8888 24.7315 27.4908 24.3335 26.9999 24.3335Z" fill="#54616B"/>
<path d="M21.6669 22.5557H19.0002C18.5093 22.5557 18.1113 22.9536 18.1113 23.4446V30.5557C18.1113 31.0466 18.5093 31.4446 19.0002 31.4446H21.6669C22.1578 31.4446 22.5558 31.0466 22.5558 30.5557V23.4446C22.5558 22.9536 22.1578 22.5557 21.6669 22.5557Z" fill="#54616B"/>
<path d="M32.3329 19.8887H29.6662C29.1753 19.8887 28.7773 20.2866 28.7773 20.7776V30.5553C28.7773 31.0463 29.1753 31.4442 29.6662 31.4442H32.3329C32.8238 31.4442 33.2218 31.0463 33.2218 30.5553V20.7776C33.2218 20.2866 32.8238 19.8887 32.3329 19.8887Z" fill="#54616B"/>
<path d="M14.5567 24.3334C14.732 24.3336 14.9033 24.2816 15.0489 24.1841L20.0207 20.8699L24.9413 22.5101C25.0979 22.5623 25.266 22.5698 25.4267 22.5319C25.5873 22.4939 25.7342 22.412 25.851 22.2952L30.5558 17.5904V18.1112C30.5558 18.347 30.6495 18.5731 30.8162 18.7398C30.9829 18.9065 31.209 19.0001 31.4447 19.0001C31.6805 19.0001 31.9066 18.9065 32.0733 18.7398C32.24 18.5731 32.3336 18.347 32.3336 18.1112V15.4446C32.3336 15.2088 32.24 14.9827 32.0733 14.816C31.9066 14.6493 31.6805 14.5557 31.4447 14.5557H28.7781C28.5423 14.5557 28.3162 14.6493 28.1495 14.816C27.9828 14.9827 27.8892 15.2088 27.8892 15.4446C27.8892 15.6803 27.9828 15.9064 28.1495 16.0731C28.3162 16.2398 28.5423 16.3334 28.7781 16.3334H29.2989L24.9825 20.6499L20.1704 19.0457C20.042 19.0031 19.9055 18.9903 19.7713 19.0083C19.6372 19.0263 19.5089 19.0745 19.3961 19.1494L14.0628 22.705C13.904 22.8108 13.7835 22.965 13.7191 23.1447C13.6547 23.3243 13.6499 23.5199 13.7053 23.7026C13.7607 23.8852 13.8734 24.0451 14.0267 24.1588C14.18 24.2724 14.3659 24.3336 14.5567 24.3334Z" fill="#54616B"/>
<path d="M25.1996 12.8002C23.9842 11.5848 22.0153 11.5848 20.8002 12.8002C19.5848 14.0152 19.5848 15.984 20.8002 17.1994C22.0157 18.4147 23.9846 18.4147 25.1996 17.1994C26.4146 15.984 26.4146 14.0152 25.1996 12.8002ZM21.8625 15.8397C21.8373 15.5641 22.2538 15.5259 22.2799 15.8014C22.3228 16.2654 23.086 16.4955 23.5248 16.1367C23.6451 16.0378 23.7204 15.9053 23.7204 15.761C23.7204 14.8511 21.8575 15.607 21.8575 14.2381C21.8575 13.7312 22.2917 13.3627 22.7843 13.2827V12.9689C22.7843 12.8507 22.876 12.759 23.0048 12.759V12.7602C23.123 12.7602 23.216 12.857 23.2135 12.9735L23.2063 13.2811C23.7023 13.3585 24.1411 13.7282 24.1411 14.2373C24.1411 14.5141 23.72 14.5141 23.72 14.2373C23.72 13.7497 22.9269 13.491 22.4738 13.8616C22.3523 13.9605 22.2782 14.093 22.2782 14.2373C22.2782 15.1472 24.1411 14.3913 24.1411 15.7602C24.1411 16.2684 23.7048 16.6365 23.2109 16.7156L23.205 17.0294C23.205 17.3062 22.7839 17.3062 22.7839 17.0294V16.7156C22.3207 16.6398 21.9067 16.3109 21.8625 15.8397Z" fill="#54616B"/>
</svg>
