<svg width="42" height="42" viewBox="0 0 42 42" fill="none" xmlns="http://www.w3.org/2000/svg">
<circle cx="21" cy="21" r="21" fill="#45C7FF"/>
<path d="M28.5 29.3335C28.5 27.3444 27.7098 25.4367 26.3033 24.0302C24.8968 22.6237 22.9891 21.8335 21 21.8335C19.0109 21.8335 17.1032 22.6237 15.6967 24.0302C14.2902 25.4367 13.5 27.3444 13.5 29.3335L21 29.3335H28.5Z" fill="white"/>
<path d="M24.3334 15.9998C24.3334 17.8408 22.841 19.3332 21.0001 19.3332C19.1591 19.3332 17.6667 17.8408 17.6667 15.9998C17.6667 14.1589 19.1591 12.6665 21.0001 12.6665C22.841 12.6665 24.3334 14.1589 24.3334 15.9998Z" fill="white"/>
</svg>
