<svg width="1920" height="465" viewBox="0 0 1920 465" fill="none" xmlns="http://www.w3.org/2000/svg">
<rect width="1920" height="465" fill="#001924"/>
<g clip-path="url(#clip0_20128_23063)">
<g opacity="0.35">
<mask id="mask0_20128_23063" style="mask-type:alpha" maskUnits="userSpaceOnUse" x="0" y="326" width="1920" height="260">
<rect y="326" width="1920" height="260" fill="#D9D9D9"/>
</mask>
<g mask="url(#mask0_20128_23063)">
<mask id="mask1_20128_23063" style="mask-type:alpha" maskUnits="userSpaceOnUse" x="-86" y="341" width="2092" height="258">
<g style="mix-blend-mode:overlay">
<path d="M158.346 468.094C158.346 468.094 242.932 411.703 335.978 445.538C429.023 479.372 457.218 487.831 522.049 465.275C586.899 442.718 584.079 437.079 617.914 456.816C651.748 476.553 668.666 487.831 789.906 445.538C911.147 403.245 939.342 496.29 1040.83 479.372C1142.33 462.455 1145.15 406.064 1232.54 445.538C1319.94 485.011 1336.86 485.011 1365.06 479.372C1393.25 473.733 1396.07 451.177 1438.36 459.636C1480.66 468.094 1486.3 476.553 1525.77 459.636C1565.24 442.718 1579.34 431.44 1652.65 462.455C1725.96 493.47 1810.55 459.636 1810.55 459.636" stroke="white" stroke-width="0.469925" stroke-miterlimit="10"/>
<path d="M1809.27 460.763C1809.27 460.763 1724.68 490.293 1650.43 462.38C1576.18 434.448 1561.43 445.594 1520.73 460.632C1480.06 475.669 1474.81 467.342 1432.93 460.237C1391.05 453.113 1387.56 475.143 1354.92 478.489C1322.29 481.854 1304.85 486.271 1216.77 447.887C1128.7 409.485 1125.88 460.5 1025.06 478.489C924.229 496.478 896.579 407.869 779.774 447.887C662.97 487.887 646.729 476.083 612.481 457.681C578.252 439.278 580.658 445.068 517.03 465.745C453.383 486.421 425.864 477.831 333.759 447.079C241.654 416.327 157.067 468.433 157.067 468.433" stroke="white" stroke-width="0.469925" stroke-miterlimit="10"/>
<path d="M1808.03 461.891C1808.03 461.891 1723.44 487.135 1648.25 462.286C1573.06 437.455 1557.63 448.451 1515.73 461.609C1473.85 474.767 1469 466.572 1427.52 460.801C1386.03 455.03 1381.88 476.515 1344.81 477.587C1307.76 478.658 1289.77 487.53 1201.01 450.199C1112.27 412.869 1109.45 458.526 1009.3 477.587C909.154 496.647 882.03 412.474 769.662 450.199C657.293 487.925 641.71 475.575 607.068 458.526C572.425 441.478 574.436 447.38 512.011 466.177C449.586 484.974 422.725 476.252 331.56 448.583C240.395 420.932 155.808 468.714 155.808 468.714" stroke="white" stroke-width="0.469925" stroke-miterlimit="10"/>
<path d="M1806.77 463C1806.77 463 1722.18 483.94 1646.05 462.192C1569.92 440.444 1553.82 451.309 1510.71 462.587C1467.61 473.865 1463.2 465.801 1422.1 461.384C1381.01 456.948 1376.18 477.906 1334.7 476.684C1293.21 475.481 1274.68 488.771 1185.26 452.512C1095.85 416.271 1093.03 456.534 993.552 476.684C894.06 496.816 867.481 417.079 759.548 452.512C651.597 487.963 636.71 475.068 601.654 459.354C566.616 443.639 568.233 449.692 507.011 466.609C445.789 483.527 419.605 474.673 329.379 450.087C239.154 425.519 154.567 469.015 154.567 469.015" stroke="white" stroke-width="0.469925" stroke-miterlimit="10"/>
<path d="M1805.51 464.128C1805.51 464.128 1720.92 480.782 1643.85 462.117C1566.79 443.451 1550 454.203 1505.7 463.602C1461.39 473 1457.37 465.087 1416.69 461.985C1376.01 458.903 1370.51 479.297 1324.59 475.82C1278.67 472.324 1259.61 490.049 1169.51 454.88C1079.42 419.711 1076.6 454.617 977.801 475.82C878.985 497.042 852.932 421.722 749.436 454.88C645.921 488.038 631.691 474.617 596.24 460.256C560.789 445.895 562.011 452.06 501.992 467.098C441.973 482.136 416.466 473.132 327.18 451.666C237.895 430.181 153.308 469.391 153.308 469.391" stroke="white" stroke-width="0.469925" stroke-miterlimit="10"/>
<path d="M1804.27 465.237C1804.27 465.237 1719.68 477.587 1641.67 462.023C1563.67 446.44 1546.22 457.06 1500.7 464.579C1455.19 472.098 1451.56 464.316 1411.28 462.568C1371 460.82 1364.83 480.688 1314.47 474.917C1264.14 469.147 1244.53 491.29 1153.76 457.192C1063.01 423.094 1060.19 452.624 962.049 474.917C863.91 497.211 838.402 426.308 739.323 457.192C640.244 488.075 626.673 474.109 590.827 461.083C554.981 448.057 555.789 454.372 496.974 467.53C438.177 480.688 413.327 471.553 324.981 453.169C236.635 434.767 152.049 469.692 152.049 469.692" stroke="white" stroke-width="0.469925" stroke-miterlimit="10"/>
<path d="M1803.01 466.365C1803.01 466.365 1718.42 474.429 1639.47 461.929C1560.53 449.447 1542.41 459.917 1495.68 465.556C1448.95 471.196 1445.73 463.545 1405.86 463.132C1366 462.737 1359.13 482.06 1304.36 474.015C1249.59 465.951 1229.44 492.549 1138.01 459.523C1046.58 426.496 1043.76 450.669 946.297 474.015C848.834 497.38 823.853 430.914 729.21 459.523C634.567 488.113 621.673 473.62 585.413 461.947C549.173 450.275 549.567 456.703 491.973 467.981C434.379 479.259 410.206 469.993 322.8 454.692C235.394 439.391 150.808 469.993 150.808 469.993" stroke="white" stroke-width="0.469925" stroke-miterlimit="10"/>
<path d="M1801.75 467.474C1801.75 467.474 1717.16 471.233 1637.27 461.835C1557.39 452.436 1538.59 462.775 1490.66 466.534C1442.73 470.293 1439.91 462.775 1400.43 463.714C1360.96 464.654 1353.44 483.451 1294.23 473.113C1235.02 462.775 1214.34 493.79 1122.24 461.835C1030.13 429.88 1027.31 448.677 930.527 473.113C833.722 497.549 809.286 435.519 719.079 461.835C628.854 488.151 616.636 473.113 579.981 462.775C543.327 452.436 543.327 459.015 486.936 468.414C430.545 477.812 407.049 468.414 320.583 456.196C234.117 443.978 149.53 470.293 149.53 470.293" stroke="white" stroke-width="0.469925" stroke-miterlimit="10"/>
<path d="M1800.51 468.602C1800.51 468.602 1715.92 468.057 1635.09 461.76C1554.27 455.444 1534.81 465.651 1485.66 467.53C1436.52 469.41 1434.1 462.023 1395.04 464.316C1355.98 466.59 1347.78 484.861 1284.14 472.23C1220.49 459.617 1199.29 495.049 1106.5 464.166C1013.74 433.282 1010.92 446.703 914.794 472.23C818.666 497.737 794.775 440.143 708.985 464.166C623.196 488.207 611.655 472.624 574.587 463.62C537.538 454.617 537.124 461.346 481.955 468.865C426.767 476.384 403.948 466.854 318.421 457.718C232.895 448.583 148.309 470.613 148.309 470.613" stroke="white" stroke-width="0.469925" stroke-miterlimit="10"/>
<path d="M1799.25 469.711C1799.25 469.711 1714.66 464.88 1632.89 461.647C1551.13 458.433 1531 468.489 1480.64 468.489C1430.3 468.489 1428.27 461.233 1389.61 464.861C1350.94 468.489 1342.09 486.215 1274 471.309C1205.94 456.403 1184.19 496.29 1090.73 466.478C997.293 436.666 994.474 444.73 899.023 471.309C803.571 497.888 780.207 444.73 698.853 466.478C617.5 488.226 606.617 472.117 569.154 464.466C531.692 456.816 530.884 463.658 476.917 469.297C422.951 474.936 400.79 465.275 316.203 459.222C231.617 453.188 147.03 470.895 147.03 470.895" stroke="white" stroke-width="0.469925" stroke-miterlimit="10"/>
<path d="M1797.99 470.839C1797.99 470.839 1713.4 461.703 1630.7 461.572C1547.99 461.44 1527.18 471.365 1475.62 469.485C1424.06 467.606 1422.46 460.481 1384.19 465.463C1345.92 470.425 1336.39 487.624 1263.89 470.425C1191.39 453.245 1169.1 497.549 1074.98 468.809C980.864 440.087 978.045 442.756 883.27 470.425C788.477 498.075 765.658 449.354 688.74 468.809C611.804 488.282 601.616 471.628 563.74 465.312C525.883 458.997 524.68 465.989 471.917 469.748C419.154 473.508 397.669 463.715 314.022 460.745C230.376 457.794 145.789 471.215 145.789 471.215" stroke="white" stroke-width="0.469925" stroke-miterlimit="10"/>
<path d="M1796.75 471.948C1796.75 471.948 1712.16 458.526 1628.52 461.478C1544.87 464.429 1523.38 474.241 1470.62 470.481C1417.86 466.722 1416.65 459.748 1378.8 466.045C1340.94 472.361 1330.73 488.996 1253.8 469.542C1176.86 450.068 1154.04 498.808 1059.27 471.158C964.474 443.508 961.654 440.82 867.556 469.542C773.44 498.263 751.147 453.959 678.665 471.158C606.165 488.338 596.635 471.158 558.365 466.196C520.094 461.233 518.496 468.338 466.936 470.218C415.376 472.098 394.568 462.154 311.861 462.305C229.154 462.436 144.568 471.572 144.568 471.572" stroke="white" stroke-width="0.469925" stroke-miterlimit="10"/>
<path d="M1795.49 473.075C1795.49 473.075 1710.9 455.35 1626.32 461.403C1541.73 467.436 1519.59 477.117 1465.6 471.478C1411.64 465.839 1410.83 458.997 1373.36 466.647C1335.9 474.297 1325.04 490.406 1243.67 468.658C1162.31 446.91 1138.95 500.068 1043.5 473.489C948.045 446.91 945.226 438.846 851.786 468.658C758.346 498.47 736.598 458.583 668.515 473.489C600.451 488.395 591.579 470.669 552.914 467.042C514.248 463.414 512.237 470.669 461.88 470.669C411.541 470.669 391.391 460.594 309.624 463.827C227.857 467.042 143.271 471.891 143.271 471.891" stroke="white" stroke-width="0.469925" stroke-miterlimit="10"/>
<path d="M1794.23 474.184C1794.23 474.184 1709.64 452.173 1624.12 461.29C1538.59 470.425 1515.77 479.955 1460.58 472.436C1405.39 464.917 1405 458.207 1367.95 467.192C1330.9 476.196 1319.34 491.759 1233.55 467.737C1147.76 443.696 1123.87 501.308 1027.74 475.801C931.616 450.293 928.797 436.872 836.034 467.737C743.27 498.62 722.049 463.169 658.402 475.801C594.755 488.414 586.579 470.162 547.5 467.887C508.44 465.613 506.015 472.981 456.879 471.102C407.744 469.222 388.27 459.015 307.443 465.331C226.616 471.647 142.03 472.173 142.03 472.173" stroke="white" stroke-width="0.469925" stroke-miterlimit="10"/>
<path d="M1792.99 475.312C1792.99 475.312 1708.4 448.996 1621.94 461.214C1535.47 473.433 1511.97 482.831 1455.58 473.433C1399.19 464.034 1399.19 457.455 1362.54 467.793C1325.88 478.132 1313.67 493.169 1223.44 466.854C1133.21 440.538 1108.78 502.568 1011.99 478.132C915.188 453.696 912.368 434.899 820.282 466.854C728.177 498.808 707.5 467.793 648.289 478.132C589.079 488.47 581.56 469.673 542.086 468.733C502.613 467.793 499.793 475.312 451.861 471.553C403.928 467.793 385.132 457.455 305.244 466.854C225.357 476.252 140.771 472.493 140.771 472.493" stroke="white" stroke-width="0.469925" stroke-miterlimit="10"/>
<path d="M1791.73 476.421C1791.73 476.421 1707.14 445.82 1619.74 461.12C1532.33 476.421 1508.18 485.688 1450.56 474.41C1392.97 463.132 1393.36 456.684 1357.12 468.376C1320.88 480.049 1307.99 494.56 1213.33 465.951C1118.68 437.361 1093.7 503.808 996.24 480.444C898.778 457.079 895.958 432.925 804.53 465.951C713.101 498.978 692.969 472.399 638.176 480.444C583.402 488.508 576.56 469.166 536.673 469.56C496.804 469.955 493.571 477.624 446.86 471.985C400.131 466.346 382.011 455.876 303.064 468.357C224.116 480.838 139.53 472.793 139.53 472.793" stroke="white" stroke-width="0.469925" stroke-miterlimit="10"/>
<path d="M1790.47 477.549C1790.47 477.549 1705.88 442.643 1617.54 461.026C1529.19 479.429 1504.36 488.545 1445.55 475.387C1386.75 462.229 1387.54 455.914 1351.69 468.94C1315.85 481.966 1302.29 495.933 1203.2 465.049C1104.12 434.166 1078.61 505.049 980.47 482.775C882.331 460.481 879.512 430.951 788.76 465.049C698.008 499.147 678.402 477.004 628.045 482.775C577.707 488.545 571.523 468.677 531.241 470.425C490.959 472.173 487.331 479.955 441.824 472.436C396.316 464.917 378.854 454.316 300.846 469.88C222.839 485.463 138.252 473.094 138.252 473.094" stroke="white" stroke-width="0.469925" stroke-miterlimit="10"/>
<path d="M1789.23 478.658C1789.23 478.658 1704.64 439.448 1615.36 460.933C1526.07 482.418 1500.56 491.403 1440.55 476.365C1380.53 461.327 1381.75 455.143 1346.3 469.523C1310.85 483.884 1296.62 497.305 1193.1 464.147C1089.59 430.989 1063.53 506.309 964.737 485.087C865.921 463.865 863.102 428.959 773.027 464.147C682.933 499.316 663.873 481.609 617.952 485.087C572.03 488.583 566.523 468.169 525.846 471.252C485.17 474.335 481.147 482.267 436.843 472.869C392.538 463.47 375.752 452.737 298.685 471.384C221.617 490.049 137.03 473.395 137.03 473.395" stroke="white" stroke-width="0.469925" stroke-miterlimit="10"/>
<path d="M1787.97 479.786C1787.97 479.786 1703.38 436.29 1613.16 460.857C1522.93 485.425 1496.75 494.278 1435.53 477.38C1374.3 460.463 1375.92 454.429 1340.88 470.124C1305.85 485.838 1290.94 498.714 1182.99 463.282C1075.04 427.831 1048.46 507.587 948.985 487.455C849.492 467.323 846.673 427.041 757.274 463.282C667.857 499.523 649.323 486.233 607.838 487.455C566.353 488.658 561.522 467.718 520.432 472.154C479.342 476.59 474.924 484.635 431.823 473.357C388.721 462.079 372.612 451.196 296.485 472.963C220.357 494.711 135.77 473.771 135.77 473.771" stroke="white" stroke-width="0.469925" stroke-miterlimit="10"/>
<path d="M1786.71 480.895C1786.71 480.895 1702.12 433.094 1610.96 460.763C1519.79 488.414 1492.95 497.154 1430.51 478.357C1368.08 459.56 1370.09 453.658 1335.45 470.707C1300.81 487.756 1285.24 500.105 1172.86 462.38C1060.49 424.654 1033.36 508.827 933.214 489.767C833.064 470.707 830.245 425.049 741.504 462.38C652.763 499.711 634.775 490.838 597.707 489.767C560.658 488.696 556.485 467.211 515 472.981C473.515 478.752 468.684 486.947 426.786 473.79C384.906 460.632 369.455 449.617 294.267 474.466C219.079 499.297 134.493 474.072 134.493 474.072" stroke="white" stroke-width="0.469925" stroke-miterlimit="10"/>
<path d="M1785.47 482.023C1785.47 482.023 1700.88 429.936 1608.78 460.669C1516.67 491.421 1489.15 500.011 1425.51 479.335C1361.86 458.658 1364.29 452.887 1330.06 471.271C1295.83 489.673 1279.57 501.478 1162.76 461.478C1045.96 421.478 1018.31 510.087 917.482 492.079C816.655 474.09 813.835 423.075 725.771 461.478C637.707 499.88 620.245 495.444 587.613 492.079C554.982 488.714 551.504 466.703 509.606 473.827C467.726 480.951 462.482 489.26 421.805 474.222C381.128 459.184 366.354 448.038 292.106 475.97C217.858 503.902 133.271 474.354 133.271 474.354" stroke="white" stroke-width="0.469925" stroke-miterlimit="10"/>
<path d="M1784.21 483.132C1784.21 483.132 1699.62 426.741 1606.58 460.575C1513.53 494.41 1485.34 502.869 1420.49 480.312C1355.64 457.756 1358.46 452.117 1324.62 471.854C1290.79 491.59 1273.87 502.869 1152.63 460.575C1031.39 418.282 1003.2 511.327 901.711 494.41C800.207 477.493 797.387 421.102 710 460.575C622.594 500.049 605.677 500.049 577.481 494.41C549.286 488.771 546.466 466.214 504.173 474.673C461.88 483.132 456.241 491.59 416.767 474.673C377.293 457.756 363.196 446.478 289.887 477.493C216.579 508.508 131.993 474.673 131.993 474.673" stroke="white" stroke-width="0.469925" stroke-miterlimit="10"/>
</g>
<g style="mix-blend-mode:overlay">
<path d="M-52.2365 484.429C-52.2365 484.429 53.083 263.169 168.929 395.932C284.775 528.696 319.888 561.891 400.639 473.376C481.391 384.861 477.876 362.737 520 440.181C562.124 517.624 583.196 561.872 734.155 395.932C885.113 229.974 920.226 595.068 1046.6 528.696C1172.99 462.323 1176.49 241.045 1285.32 395.932C1394.15 550.82 1415.21 550.82 1450.32 528.696C1485.43 506.571 1488.93 418.056 1541.6 451.252C1594.25 484.447 1601.28 517.624 1650.43 451.252C1699.59 384.88 1717.14 340.613 1808.4 462.323C1899.68 584.015 2005 451.252 2005 451.252" stroke="white" stroke-width="0.469925" stroke-miterlimit="10"/>
<path d="M2003.44 455.632C2003.44 455.632 1898.12 571.534 1805.68 461.947C1713.23 352.361 1694.85 396.101 1644.19 455.105C1593.53 514.109 1587.01 481.44 1534.87 453.526C1482.71 425.613 1478.36 512.004 1437.74 525.18C1397.12 538.357 1375.39 555.744 1265.71 405.068C1156.05 254.391 1152.54 454.598 1026.99 525.18C901.448 595.782 867.011 248.056 721.56 405.068C576.128 562.06 555.884 515.707 513.271 443.526C470.658 371.346 473.647 393.996 394.417 475.143C315.169 556.271 280.902 522.549 166.222 401.91C51.5227 281.252 -53.7968 485.669 -53.7968 485.669" stroke="white" stroke-width="0.469925" stroke-miterlimit="10"/>
<path d="M2001.88 460.03C2001.88 460.03 1896.56 559.071 1802.95 461.609C1709.34 364.147 1690.11 407.342 1637.95 458.977C1585.79 510.613 1579.77 478.47 1528.12 455.82C1476.47 433.169 1471.28 517.455 1425.15 521.665C1379 525.876 1356.62 560.65 1246.11 414.184C1135.6 267.718 1132.11 446.853 1007.39 521.665C882.669 596.477 848.91 266.158 708.985 414.184C569.06 562.229 549.662 513.752 506.541 446.853C463.402 379.936 465.921 403.132 388.177 476.891C310.432 550.65 277.011 516.402 163.496 407.868C49.9625 299.335 -55.3571 486.891 -55.3571 486.891" stroke="white" stroke-width="0.469925" stroke-miterlimit="10"/>
<path d="M2000.32 464.41C2000.32 464.41 1895 546.59 1800.21 461.252C1705.41 375.913 1685.36 418.583 1631.69 462.831C1578.03 507.079 1572.52 475.481 1521.35 458.094C1470.21 440.707 1464.17 522.887 1412.52 518.15C1360.86 513.413 1337.8 565.556 1226.45 423.32C1115.11 281.083 1111.6 439.128 987.726 518.15C863.853 597.173 830.752 284.241 696.334 423.32C561.936 562.398 543.365 511.835 499.737 450.18C456.109 388.545 458.101 412.248 381.88 478.62C305.639 544.992 273.045 510.237 160.714 413.827C48.4022 317.436 -56.9174 488.132 -56.9174 488.132" stroke="white" stroke-width="0.469925" stroke-miterlimit="10"/>
<path d="M1998.76 468.808C1998.76 468.808 1893.44 534.128 1797.48 460.914C1701.52 387.681 1680.62 429.823 1625.45 466.703C1570.28 503.583 1565.26 472.493 1514.62 460.387C1463.97 448.263 1457.12 528.357 1399.94 514.654C1342.76 500.951 1319.02 570.5 1206.86 432.474C1094.68 294.447 1091.18 431.421 968.139 514.654C845.094 597.887 812.669 302.342 683.778 432.474C554.887 562.605 537.161 509.917 493.026 453.545C448.891 397.173 450.394 421.402 375.676 480.406C300.958 539.41 269.191 504.109 158.007 419.823C46.8419 335.519 -58.4777 489.354 -58.4777 489.354" stroke="white" stroke-width="0.469925" stroke-miterlimit="10"/>
<path d="M1997.2 473.207C1997.2 473.207 1891.88 521.684 1794.76 460.556C1697.63 399.447 1675.9 441.064 1619.23 470.575C1562.56 500.087 1558.04 469.523 1507.89 462.681C1457.74 455.838 1450.06 533.808 1387.37 511.158C1324.68 488.508 1300.26 575.425 1187.26 441.609C1074.25 307.793 1070.73 423.696 948.533 511.158C826.334 598.62 794.567 320.444 671.184 441.609C547.8 562.775 530.921 507.981 486.297 456.891C441.654 405.782 442.669 430.556 369.436 482.173C296.221 533.808 265.282 497.981 155.282 425.801C45.2816 353.602 -60.038 490.575 -60.038 490.575" stroke="white" stroke-width="0.469925" stroke-miterlimit="10"/>
<path d="M1995.64 477.587C1995.64 477.587 1890.32 509.203 1792.03 460.199C1693.74 411.196 1671.17 452.305 1612.99 474.429C1554.81 496.553 1550.81 466.534 1501.15 464.955C1451.5 463.376 1442.97 539.241 1374.76 507.624C1306.54 476.008 1281.47 580.331 1167.63 450.726C1053.78 321.12 1050.28 415.951 928.91 507.624C807.538 599.297 776.448 338.508 658.591 450.726C540.734 562.944 524.681 506.045 479.549 460.199C434.418 414.372 434.906 439.654 363.196 483.902C291.485 528.15 261.391 491.797 152.557 431.741C43.7222 371.703 -61.5974 491.816 -61.5974 491.816" stroke="white" stroke-width="0.469925" stroke-miterlimit="10"/>
<path d="M1994.08 481.985C1994.08 481.985 1888.76 496.741 1789.29 459.861C1689.81 422.981 1666.41 463.545 1606.73 478.301C1547.05 493.057 1543.53 463.545 1494.38 467.229C1445.23 470.914 1435.86 544.673 1362.14 504.109C1288.42 463.545 1262.67 585.237 1147.99 459.861C1033.31 334.466 1029.79 408.226 909.267 504.109C788.741 599.993 758.309 356.59 645.959 459.861C533.609 563.113 518.402 504.109 472.763 463.545C427.124 422.981 427.124 448.79 356.918 485.669C286.711 522.549 257.444 485.669 149.793 437.718C42.1619 389.786 -63.1577 493.038 -63.1577 493.038" stroke="white" stroke-width="0.469925" stroke-miterlimit="10"/>
<path d="M1992.52 486.365C1992.52 486.365 1887.2 484.259 1786.56 459.504C1685.92 434.748 1661.67 474.786 1600.49 482.154C1539.3 489.523 1536.3 460.556 1487.65 469.504C1439 478.451 1428.8 550.105 1349.57 500.594C1270.32 451.064 1243.91 590.162 1128.4 468.977C1012.88 347.812 1009.38 400.481 889.681 500.594C769.981 600.688 740.226 374.673 633.402 468.977C526.579 563.282 512.199 502.173 466.053 466.872C419.906 431.571 419.417 457.925 350.696 487.417C281.993 516.929 253.572 479.523 147.087 443.696C40.6016 407.868 -64.718 494.278 -64.718 494.278" stroke="white" stroke-width="0.469925" stroke-miterlimit="10"/>
<path d="M1990.96 490.763C1990.96 490.763 1885.64 471.797 1783.84 459.147C1682.03 446.496 1656.96 486.007 1594.27 486.007C1531.58 486.007 1529.06 457.568 1480.92 471.778C1432.78 486.007 1421.75 555.538 1336.99 497.06C1252.24 438.583 1225.15 595.049 1108.8 478.094C992.444 361.139 988.929 392.756 870.076 497.06C751.222 601.365 722.124 392.756 620.827 478.094C519.512 563.432 505.978 500.218 459.343 470.199C412.707 440.162 411.692 467.041 344.493 489.165C277.294 511.289 249.7 473.357 144.38 449.654C39.0605 425.951 -66.259 495.481 -66.259 495.481" stroke="white" stroke-width="0.469925" stroke-miterlimit="10"/>
<path d="M1989.4 495.143C1989.4 495.143 1884.08 459.316 1781.11 458.789C1678.14 458.263 1652.22 497.248 1588.03 489.88C1523.83 482.511 1521.82 454.579 1474.17 474.071C1426.52 493.564 1414.66 561.008 1324.38 493.564C1234.1 426.12 1206.35 599.992 1089.17 487.248C971.992 374.504 968.477 385.049 850.451 493.564C732.425 602.098 704.004 410.857 608.214 487.248C512.425 563.639 499.718 498.32 452.575 473.545C405.432 448.771 403.928 476.177 338.233 490.932C272.537 505.688 245.789 467.229 141.635 455.632C37.481 444.034 -67.8386 496.722 -67.8386 496.722" stroke="white" stroke-width="0.469925" stroke-miterlimit="10"/>
<path d="M1987.84 499.541C1987.84 499.541 1882.52 446.853 1778.36 458.451C1674.21 470.049 1647.46 508.508 1581.77 493.752C1516.07 478.996 1514.57 451.609 1467.42 476.365C1420.28 501.12 1407.57 566.459 1311.79 490.068C1216 413.677 1187.57 604.917 1069.55 496.383C951.522 387.85 948.007 377.323 830.827 490.068C713.646 602.812 685.883 428.959 595.62 496.383C505.338 563.827 493.477 496.383 445.827 476.891C398.176 457.398 396.184 485.312 331.973 492.699C267.782 500.068 241.861 461.083 138.891 461.609C35.9207 462.135 -69.3989 497.962 -69.3989 497.962" stroke="white" stroke-width="0.469925" stroke-miterlimit="10"/>
<path d="M1986.28 503.94C1986.28 503.94 1880.96 434.391 1775.64 458.113C1670.32 481.816 1642.74 519.748 1575.53 497.624C1508.33 475.5 1507.31 448.62 1460.68 478.658C1414.04 508.696 1400.49 571.91 1299.19 486.553C1197.88 401.214 1168.8 609.823 1049.94 505.519C931.091 401.214 927.576 369.598 811.222 486.553C694.869 603.508 667.782 447.041 583.027 505.519C498.271 563.996 487.237 494.447 439.098 480.237C390.959 466.008 388.44 494.466 325.752 494.466C263.064 494.466 237.989 454.955 136.185 467.605C34.3613 480.218 -70.9582 499.184 -70.9582 499.184" stroke="white" stroke-width="0.469925" stroke-miterlimit="10"/>
<path d="M1984.72 508.32C1984.72 508.32 1879.4 421.91 1772.91 457.737C1666.43 493.564 1638.01 530.97 1569.3 501.459C1500.6 471.947 1500.09 445.613 1453.95 480.914C1407.8 516.214 1393.42 577.323 1286.6 483.019C1179.77 388.714 1150.02 614.729 1030.32 514.635C910.621 414.541 907.106 361.853 791.598 483.019C676.072 604.184 649.662 465.105 570.433 514.635C491.185 564.165 480.997 492.511 432.35 483.545C383.703 474.598 380.696 503.564 319.512 496.195C258.327 488.827 234.079 448.789 133.44 473.545C32.801 498.301 -72.5185 500.406 -72.5185 500.406" stroke="white" stroke-width="0.469925" stroke-miterlimit="10"/>
<path d="M1983.16 512.718C1983.16 512.718 1877.84 409.466 1770.17 457.399C1662.5 505.35 1633.25 542.211 1563.05 505.35C1492.84 468.47 1492.84 442.662 1447.2 483.226C1401.56 523.79 1386.35 582.793 1274 479.541C1161.65 376.29 1131.24 619.673 1010.7 523.79C890.169 427.906 886.654 354.147 771.974 479.541C657.293 604.936 631.541 483.226 557.82 523.79C484.098 564.353 474.737 490.594 425.583 486.91C376.429 483.226 372.932 512.718 313.233 497.981C253.553 483.226 230.15 442.662 130.677 479.541C31.2407 516.402 -74.0788 501.647 -74.0788 501.647" stroke="white" stroke-width="0.469925" stroke-miterlimit="10"/>
<path d="M1981.6 517.098C1981.6 517.098 1876.28 396.985 1767.44 457.041C1658.61 517.098 1628.52 553.451 1556.8 509.203C1485.09 464.955 1485.58 439.654 1440.45 485.5C1395.32 531.327 1379.27 588.226 1261.41 476.026C1143.55 363.808 1112.46 624.598 991.09 532.925C869.718 441.252 866.203 346.421 752.368 476.026C638.515 605.632 613.44 501.308 545.244 532.925C477.03 564.541 468.515 488.677 418.853 490.256C369.192 491.835 365.188 521.872 307.011 499.729C248.835 477.605 226.259 436.515 127.97 485.5C29.6804 534.485 -75.6391 502.887 -75.6391 502.887" stroke="white" stroke-width="0.469925" stroke-miterlimit="10"/>
<path d="M1980.04 521.496C1980.04 521.496 1874.72 384.523 1764.72 456.703C1654.72 528.884 1623.8 564.711 1550.56 513.075C1477.35 461.44 1478.35 436.684 1433.7 487.793C1389.06 538.902 1372.18 593.696 1248.82 472.511C1125.43 351.346 1093.68 629.504 971.466 542.06C849.267 454.598 845.752 338.696 732.744 472.511C619.737 606.327 595.319 519.391 532.631 542.06C469.943 564.711 462.255 486.741 412.105 493.583C361.955 500.425 357.443 530.989 300.771 501.478C244.098 471.966 222.368 430.35 125.244 491.459C28.1201 552.568 -77.1994 504.109 -77.1994 504.109" stroke="white" stroke-width="0.469925" stroke-miterlimit="10"/>
<path d="M1978.48 525.876C1978.48 525.876 1873.16 372.041 1761.99 456.327C1650.83 540.613 1619.06 575.914 1544.32 516.91C1469.61 457.906 1471.11 433.677 1426.97 490.049C1382.84 546.421 1365.11 599.109 1236.22 468.977C1107.33 338.846 1074.91 634.41 951.861 551.158C828.816 467.925 825.319 330.932 713.139 468.977C600.958 607.004 577.218 537.474 520.056 551.158C462.876 564.861 456.034 484.786 405.376 496.891C354.718 509.015 349.699 540.087 294.549 503.207C239.379 466.327 218.477 424.184 122.518 497.417C26.5598 570.669 -78.7597 505.331 -78.7597 505.331" stroke="white" stroke-width="0.469925" stroke-miterlimit="10"/>
<path d="M1976.92 530.275C1976.92 530.275 1871.6 359.579 1759.25 455.989C1646.9 552.399 1614.31 587.173 1538.08 520.782C1461.84 454.41 1463.85 430.688 1420.23 492.342C1376.6 553.978 1358.05 604.56 1223.63 465.481C1089.21 326.402 1056.13 639.335 932.237 560.312C808.365 481.29 804.85 323.245 693.515 465.481C582.181 607.718 559.117 555.575 507.444 560.312C455.79 565.049 449.775 482.869 398.609 500.256C347.463 517.643 341.936 549.26 288.271 504.993C234.606 460.745 214.549 418.057 119.756 503.414C24.9628 588.752 -80.3567 506.572 -80.3567 506.572" stroke="white" stroke-width="0.469925" stroke-miterlimit="10"/>
<path d="M1975.36 534.673C1975.36 534.673 1870.04 347.117 1756.52 455.651C1643.01 564.184 1609.57 598.414 1531.84 524.673C1454.1 450.914 1456.62 427.737 1413.48 494.635C1370.34 561.553 1350.96 610.011 1211.03 461.966C1071.11 313.921 1037.33 644.26 912.632 569.448C787.913 494.635 784.417 315.519 673.91 461.966C563.402 608.432 541.015 573.658 494.868 569.448C448.722 565.237 443.553 480.932 391.898 503.602C340.244 526.252 334.229 558.395 282.068 506.76C229.906 455.124 210.677 411.929 117.068 509.391C23.4585 606.854 -81.861 507.812 -81.861 507.812" stroke="white" stroke-width="0.469925" stroke-miterlimit="10"/>
<path d="M1973.8 539.053C1973.8 539.053 1868.48 334.635 1753.8 455.293C1639.12 575.932 1604.85 609.654 1525.6 528.526C1446.35 447.398 1449.36 424.748 1406.75 496.91C1364.12 569.09 1343.89 615.444 1198.46 458.451C1053.03 301.459 1018.57 649.165 893.026 578.564C767.481 507.962 763.966 307.774 654.305 458.451C544.643 609.128 522.914 591.741 482.275 578.564C441.654 565.387 437.312 478.996 385.151 506.91C332.989 534.823 326.466 567.492 275.827 508.489C225.169 449.485 206.786 405.763 114.342 515.331C21.8799 624.936 -83.4397 509.034 -83.4397 509.034" stroke="white" stroke-width="0.469925" stroke-miterlimit="10"/>
<path d="M1972.24 543.451C1972.24 543.451 1866.92 322.173 1751.07 454.936C1635.23 587.699 1600.11 620.895 1519.36 532.38C1438.61 443.865 1442.12 421.741 1400 499.184C1357.88 576.628 1336.8 620.876 1185.85 454.936C1034.89 288.978 999.774 654.072 873.402 587.699C747.011 521.327 743.515 300.049 634.68 454.936C525.846 609.824 504.793 609.824 469.68 587.699C434.568 565.575 431.071 477.06 378.402 510.256C325.733 543.451 318.722 576.628 269.568 510.256C220.414 443.884 202.857 399.617 111.598 521.327C20.3196 643.019 -85 510.256 -85 510.256" stroke="white" stroke-width="0.469925" stroke-miterlimit="10"/>
</g>
<g style="mix-blend-mode:overlay">
<path d="M-52.2365 484.429C-52.2365 484.429 53.083 263.169 168.929 395.932C284.775 528.696 319.888 561.891 400.639 473.376C481.391 384.861 477.876 362.737 520 440.181C562.124 517.624 583.196 561.872 734.155 395.932C885.113 229.974 920.226 595.068 1046.6 528.696C1172.99 462.323 1176.49 241.045 1285.32 395.932C1394.15 550.82 1415.21 550.82 1450.32 528.696C1485.43 506.571 1488.93 418.056 1541.6 451.252C1594.25 484.447 1601.28 517.624 1650.43 451.252C1699.59 384.88 1717.14 340.613 1808.4 462.323C1899.68 584.015 2005 451.252 2005 451.252" stroke="white" stroke-width="0.469925" stroke-miterlimit="10"/>
<path d="M2003.44 455.632C2003.44 455.632 1898.12 571.534 1805.68 461.947C1713.23 352.361 1694.85 396.101 1644.19 455.105C1593.53 514.109 1587.01 481.44 1534.87 453.526C1482.71 425.613 1478.36 512.004 1437.74 525.18C1397.12 538.357 1375.39 555.744 1265.71 405.068C1156.05 254.391 1152.54 454.598 1026.99 525.18C901.448 595.782 867.011 248.056 721.56 405.068C576.128 562.06 555.884 515.707 513.271 443.526C470.658 371.346 473.647 393.996 394.417 475.143C315.169 556.271 280.902 522.549 166.222 401.91C51.5227 281.252 -53.7968 485.669 -53.7968 485.669" stroke="white" stroke-width="0.469925" stroke-miterlimit="10"/>
<path d="M2001.88 460.03C2001.88 460.03 1896.56 559.071 1802.95 461.609C1709.34 364.147 1690.11 407.342 1637.95 458.977C1585.79 510.613 1579.77 478.47 1528.12 455.82C1476.47 433.169 1471.28 517.455 1425.15 521.665C1379 525.876 1356.62 560.65 1246.11 414.184C1135.6 267.718 1132.11 446.853 1007.39 521.665C882.669 596.477 848.91 266.158 708.985 414.184C569.06 562.229 549.662 513.752 506.541 446.853C463.402 379.936 465.921 403.132 388.177 476.891C310.432 550.65 277.011 516.402 163.496 407.868C49.9625 299.335 -55.3571 486.891 -55.3571 486.891" stroke="white" stroke-width="0.469925" stroke-miterlimit="10"/>
<path d="M2000.32 464.41C2000.32 464.41 1895 546.59 1800.21 461.252C1705.41 375.913 1685.36 418.583 1631.69 462.831C1578.03 507.079 1572.52 475.481 1521.35 458.094C1470.21 440.707 1464.17 522.887 1412.52 518.15C1360.86 513.413 1337.8 565.556 1226.45 423.32C1115.11 281.083 1111.6 439.128 987.726 518.15C863.853 597.173 830.752 284.241 696.334 423.32C561.936 562.398 543.365 511.835 499.737 450.18C456.109 388.545 458.101 412.248 381.88 478.62C305.639 544.992 273.045 510.237 160.714 413.827C48.4022 317.436 -56.9174 488.132 -56.9174 488.132" stroke="white" stroke-width="0.469925" stroke-miterlimit="10"/>
<path d="M1998.76 468.808C1998.76 468.808 1893.44 534.128 1797.48 460.914C1701.52 387.681 1680.62 429.823 1625.45 466.703C1570.28 503.583 1565.26 472.493 1514.62 460.387C1463.97 448.263 1457.12 528.357 1399.94 514.654C1342.76 500.951 1319.02 570.5 1206.86 432.474C1094.68 294.447 1091.18 431.421 968.139 514.654C845.094 597.887 812.669 302.342 683.778 432.474C554.887 562.605 537.161 509.917 493.026 453.545C448.891 397.173 450.394 421.402 375.676 480.406C300.958 539.41 269.191 504.109 158.007 419.823C46.8419 335.519 -58.4777 489.354 -58.4777 489.354" stroke="white" stroke-width="0.469925" stroke-miterlimit="10"/>
<path d="M1997.2 473.207C1997.2 473.207 1891.88 521.684 1794.76 460.556C1697.63 399.447 1675.9 441.064 1619.23 470.575C1562.56 500.087 1558.04 469.523 1507.89 462.681C1457.74 455.838 1450.06 533.808 1387.37 511.158C1324.68 488.508 1300.26 575.425 1187.26 441.609C1074.25 307.793 1070.73 423.696 948.533 511.158C826.334 598.62 794.567 320.444 671.184 441.609C547.8 562.775 530.921 507.981 486.297 456.891C441.654 405.782 442.669 430.556 369.436 482.173C296.221 533.808 265.282 497.981 155.282 425.801C45.2816 353.602 -60.038 490.575 -60.038 490.575" stroke="white" stroke-width="0.469925" stroke-miterlimit="10"/>
<path d="M1995.64 477.587C1995.64 477.587 1890.32 509.203 1792.03 460.199C1693.74 411.196 1671.17 452.305 1612.99 474.429C1554.81 496.553 1550.81 466.534 1501.15 464.955C1451.5 463.376 1442.97 539.241 1374.76 507.624C1306.54 476.008 1281.47 580.331 1167.63 450.726C1053.78 321.12 1050.28 415.951 928.91 507.624C807.538 599.297 776.448 338.508 658.591 450.726C540.734 562.944 524.681 506.045 479.549 460.199C434.418 414.372 434.906 439.654 363.196 483.902C291.485 528.15 261.391 491.797 152.557 431.741C43.7222 371.703 -61.5974 491.816 -61.5974 491.816" stroke="white" stroke-width="0.469925" stroke-miterlimit="10"/>
<path d="M1994.08 481.985C1994.08 481.985 1888.76 496.741 1789.29 459.861C1689.81 422.981 1666.41 463.545 1606.73 478.301C1547.05 493.057 1543.53 463.545 1494.38 467.229C1445.23 470.914 1435.86 544.673 1362.14 504.109C1288.42 463.545 1262.67 585.237 1147.99 459.861C1033.31 334.466 1029.79 408.226 909.267 504.109C788.741 599.993 758.309 356.59 645.959 459.861C533.609 563.113 518.402 504.109 472.763 463.545C427.124 422.981 427.124 448.79 356.918 485.669C286.711 522.549 257.444 485.669 149.793 437.718C42.1619 389.786 -63.1577 493.038 -63.1577 493.038" stroke="white" stroke-width="0.469925" stroke-miterlimit="10"/>
<path d="M1992.52 486.365C1992.52 486.365 1887.2 484.259 1786.56 459.504C1685.92 434.748 1661.67 474.786 1600.49 482.154C1539.3 489.523 1536.3 460.556 1487.65 469.504C1439 478.451 1428.8 550.105 1349.57 500.594C1270.32 451.064 1243.91 590.162 1128.4 468.977C1012.88 347.812 1009.38 400.481 889.681 500.594C769.981 600.688 740.226 374.673 633.402 468.977C526.579 563.282 512.199 502.173 466.053 466.872C419.906 431.571 419.417 457.925 350.696 487.417C281.993 516.929 253.572 479.523 147.087 443.696C40.6016 407.868 -64.718 494.278 -64.718 494.278" stroke="white" stroke-width="0.469925" stroke-miterlimit="10"/>
<path d="M1990.96 490.763C1990.96 490.763 1885.64 471.797 1783.84 459.147C1682.03 446.496 1656.96 486.007 1594.27 486.007C1531.58 486.007 1529.06 457.568 1480.92 471.778C1432.78 486.007 1421.75 555.538 1336.99 497.06C1252.24 438.583 1225.15 595.049 1108.8 478.094C992.444 361.139 988.929 392.756 870.076 497.06C751.222 601.365 722.124 392.756 620.827 478.094C519.512 563.432 505.978 500.218 459.343 470.199C412.707 440.162 411.692 467.041 344.493 489.165C277.294 511.289 249.7 473.357 144.38 449.654C39.0605 425.951 -66.259 495.481 -66.259 495.481" stroke="white" stroke-width="0.469925" stroke-miterlimit="10"/>
<path d="M1989.4 495.143C1989.4 495.143 1884.08 459.316 1781.11 458.789C1678.14 458.263 1652.22 497.248 1588.03 489.88C1523.83 482.511 1521.82 454.579 1474.17 474.071C1426.52 493.564 1414.66 561.008 1324.38 493.564C1234.1 426.12 1206.35 599.992 1089.17 487.248C971.992 374.504 968.477 385.049 850.451 493.564C732.425 602.098 704.004 410.857 608.214 487.248C512.425 563.639 499.718 498.32 452.575 473.545C405.432 448.771 403.928 476.177 338.233 490.932C272.537 505.688 245.789 467.229 141.635 455.632C37.481 444.034 -67.8386 496.722 -67.8386 496.722" stroke="white" stroke-width="0.469925" stroke-miterlimit="10"/>
<path d="M1987.84 499.541C1987.84 499.541 1882.52 446.853 1778.36 458.451C1674.21 470.049 1647.46 508.508 1581.77 493.752C1516.07 478.996 1514.57 451.609 1467.42 476.365C1420.28 501.12 1407.57 566.459 1311.79 490.068C1216 413.677 1187.57 604.917 1069.55 496.383C951.522 387.85 948.007 377.323 830.827 490.068C713.646 602.812 685.883 428.959 595.62 496.383C505.338 563.827 493.477 496.383 445.827 476.891C398.176 457.398 396.184 485.312 331.973 492.699C267.782 500.068 241.861 461.083 138.891 461.609C35.9207 462.135 -69.3989 497.962 -69.3989 497.962" stroke="white" stroke-width="0.469925" stroke-miterlimit="10"/>
<path d="M1986.28 503.94C1986.28 503.94 1880.96 434.391 1775.64 458.113C1670.32 481.816 1642.74 519.748 1575.53 497.624C1508.33 475.5 1507.31 448.62 1460.68 478.658C1414.04 508.696 1400.49 571.91 1299.19 486.553C1197.88 401.214 1168.8 609.823 1049.94 505.519C931.091 401.214 927.576 369.598 811.222 486.553C694.869 603.508 667.782 447.041 583.027 505.519C498.271 563.996 487.237 494.447 439.098 480.237C390.959 466.008 388.44 494.466 325.752 494.466C263.064 494.466 237.989 454.955 136.185 467.605C34.3613 480.218 -70.9582 499.184 -70.9582 499.184" stroke="white" stroke-width="0.469925" stroke-miterlimit="10"/>
<path d="M1984.72 508.32C1984.72 508.32 1879.4 421.91 1772.91 457.737C1666.43 493.564 1638.01 530.97 1569.3 501.459C1500.6 471.947 1500.09 445.613 1453.95 480.914C1407.8 516.214 1393.42 577.323 1286.6 483.019C1179.77 388.714 1150.02 614.729 1030.32 514.635C910.621 414.541 907.106 361.853 791.598 483.019C676.072 604.184 649.662 465.105 570.433 514.635C491.185 564.165 480.997 492.511 432.35 483.545C383.703 474.598 380.696 503.564 319.512 496.195C258.327 488.827 234.079 448.789 133.44 473.545C32.801 498.301 -72.5185 500.406 -72.5185 500.406" stroke="white" stroke-width="0.469925" stroke-miterlimit="10"/>
<path d="M1983.16 512.718C1983.16 512.718 1877.84 409.466 1770.17 457.399C1662.5 505.35 1633.25 542.211 1563.05 505.35C1492.84 468.47 1492.84 442.662 1447.2 483.226C1401.56 523.79 1386.35 582.793 1274 479.541C1161.65 376.29 1131.24 619.673 1010.7 523.79C890.169 427.906 886.654 354.147 771.974 479.541C657.293 604.936 631.541 483.226 557.82 523.79C484.098 564.353 474.737 490.594 425.583 486.91C376.429 483.226 372.932 512.718 313.233 497.981C253.553 483.226 230.15 442.662 130.677 479.541C31.2407 516.402 -74.0788 501.647 -74.0788 501.647" stroke="white" stroke-width="0.469925" stroke-miterlimit="10"/>
<path d="M1981.6 517.098C1981.6 517.098 1876.28 396.985 1767.44 457.041C1658.61 517.098 1628.52 553.451 1556.8 509.203C1485.09 464.955 1485.58 439.654 1440.45 485.5C1395.32 531.327 1379.27 588.226 1261.41 476.026C1143.55 363.808 1112.46 624.598 991.09 532.925C869.718 441.252 866.203 346.421 752.368 476.026C638.515 605.632 613.44 501.308 545.244 532.925C477.03 564.541 468.515 488.677 418.853 490.256C369.192 491.835 365.188 521.872 307.011 499.729C248.835 477.605 226.259 436.515 127.97 485.5C29.6804 534.485 -75.6391 502.887 -75.6391 502.887" stroke="white" stroke-width="0.469925" stroke-miterlimit="10"/>
<path d="M1980.04 521.496C1980.04 521.496 1874.72 384.523 1764.72 456.703C1654.72 528.884 1623.8 564.711 1550.56 513.075C1477.35 461.44 1478.35 436.684 1433.7 487.793C1389.06 538.902 1372.18 593.696 1248.82 472.511C1125.43 351.346 1093.68 629.504 971.466 542.06C849.267 454.598 845.752 338.696 732.744 472.511C619.737 606.327 595.319 519.391 532.631 542.06C469.943 564.711 462.255 486.741 412.105 493.583C361.955 500.425 357.443 530.989 300.771 501.478C244.098 471.966 222.368 430.35 125.244 491.459C28.1201 552.568 -77.1994 504.109 -77.1994 504.109" stroke="white" stroke-width="0.469925" stroke-miterlimit="10"/>
<path d="M1978.48 525.876C1978.48 525.876 1873.16 372.041 1761.99 456.327C1650.83 540.613 1619.06 575.914 1544.32 516.91C1469.61 457.906 1471.11 433.677 1426.97 490.049C1382.84 546.421 1365.11 599.109 1236.22 468.977C1107.33 338.846 1074.91 634.41 951.861 551.158C828.816 467.925 825.319 330.932 713.139 468.977C600.958 607.004 577.218 537.474 520.056 551.158C462.876 564.861 456.034 484.786 405.376 496.891C354.718 509.015 349.699 540.087 294.549 503.207C239.379 466.327 218.477 424.184 122.518 497.417C26.5598 570.669 -78.7597 505.331 -78.7597 505.331" stroke="white" stroke-width="0.469925" stroke-miterlimit="10"/>
<path d="M1976.92 530.275C1976.92 530.275 1871.6 359.579 1759.25 455.989C1646.9 552.399 1614.31 587.173 1538.08 520.782C1461.84 454.41 1463.85 430.688 1420.23 492.342C1376.6 553.978 1358.05 604.56 1223.63 465.481C1089.21 326.402 1056.13 639.335 932.237 560.312C808.365 481.29 804.85 323.245 693.515 465.481C582.181 607.718 559.117 555.575 507.444 560.312C455.79 565.049 449.775 482.869 398.609 500.256C347.463 517.643 341.936 549.26 288.271 504.993C234.606 460.745 214.549 418.057 119.756 503.414C24.9628 588.752 -80.3567 506.572 -80.3567 506.572" stroke="white" stroke-width="0.469925" stroke-miterlimit="10"/>
<path d="M1975.36 534.673C1975.36 534.673 1870.04 347.117 1756.52 455.651C1643.01 564.184 1609.57 598.414 1531.84 524.673C1454.1 450.914 1456.62 427.737 1413.48 494.635C1370.34 561.553 1350.96 610.011 1211.03 461.966C1071.11 313.921 1037.33 644.26 912.632 569.448C787.913 494.635 784.417 315.519 673.91 461.966C563.402 608.432 541.015 573.658 494.868 569.448C448.722 565.237 443.553 480.932 391.898 503.602C340.244 526.252 334.229 558.395 282.068 506.76C229.906 455.124 210.677 411.929 117.068 509.391C23.4585 606.854 -81.861 507.812 -81.861 507.812" stroke="white" stroke-width="0.469925" stroke-miterlimit="10"/>
<path d="M1973.8 539.053C1973.8 539.053 1868.48 334.635 1753.8 455.293C1639.12 575.932 1604.85 609.654 1525.6 528.526C1446.35 447.398 1449.36 424.748 1406.75 496.91C1364.12 569.09 1343.89 615.444 1198.46 458.451C1053.03 301.459 1018.57 649.165 893.026 578.564C767.481 507.962 763.966 307.774 654.305 458.451C544.643 609.128 522.914 591.741 482.275 578.564C441.654 565.387 437.312 478.996 385.151 506.91C332.989 534.823 326.466 567.492 275.827 508.489C225.169 449.485 206.786 405.763 114.342 515.331C21.8799 624.936 -83.4397 509.034 -83.4397 509.034" stroke="white" stroke-width="0.469925" stroke-miterlimit="10"/>
<path d="M1972.24 543.451C1972.24 543.451 1866.92 322.173 1751.07 454.936C1635.23 587.699 1600.11 620.895 1519.36 532.38C1438.61 443.865 1442.12 421.741 1400 499.184C1357.88 576.628 1336.8 620.876 1185.85 454.936C1034.89 288.978 999.774 654.072 873.402 587.699C747.011 521.327 743.515 300.049 634.68 454.936C525.846 609.824 504.793 609.824 469.68 587.699C434.568 565.575 431.071 477.06 378.402 510.256C325.733 543.451 318.722 576.628 269.568 510.256C220.414 443.884 202.857 399.617 111.598 521.327C20.3196 643.019 -85 510.256 -85 510.256" stroke="white" stroke-width="0.469925" stroke-miterlimit="10"/>
</g>
</mask>
<g mask="url(#mask1_20128_23063)">
<rect x="-135.94" y="340.12" width="2197.37" height="263.158" fill="#45C7FF"/>
</g>
</g>
</g>
</g>
<defs>
<clipPath id="clip0_20128_23063">
<rect width="1920" height="139" fill="white" transform="translate(0 326)"/>
</clipPath>
</defs>
</svg>
