<svg width="114" height="36" viewBox="0 0 114 36" fill="none" xmlns="http://www.w3.org/2000/svg">
<rect width="114" height="36" rx="4" fill="#FFEFEE"/>
<path d="M28.9899 12.8497C30.3025 12.8497 31.1878 13.4168 31.6927 13.8906L33.6654 11.9642C32.4538 10.8379 30.8772 10.1465 28.9899 10.1465C26.2561 10.1465 23.8951 11.7156 22.7456 13.9994L25.0057 15.7549C25.5726 14.0693 27.1415 12.8497 28.9899 12.8497Z" fill="#F35C4F"/>
<path d="M35.7 17.2929C35.7 16.7181 35.6535 16.2986 35.5525 15.8636H28.9897V18.4581H32.842C32.7643 19.1028 32.3449 20.0738 31.4129 20.7263L33.6186 22.4352C34.9389 21.2156 35.7 19.4213 35.7 17.2929Z" fill="#F35C4F"/>
<path d="M25.0134 18.5202C24.8659 18.0852 24.7804 17.6192 24.7804 17.1376C24.7804 16.656 24.8659 16.1899 25.0057 15.7549L22.7456 13.9994C22.2718 14.9471 22 16.0112 22 17.1376C22 18.2639 22.2718 19.3281 22.7456 20.2758L25.0134 18.5202Z" fill="#F35C4F"/>
<path d="M28.99 24.1285C30.8772 24.1285 32.4616 23.5071 33.6188 22.4352L31.4131 20.7263C30.8229 21.1379 30.0307 21.4254 28.99 21.4254C27.1415 21.4254 25.5727 20.2058 25.0135 18.5202L22.7534 20.2757C23.9029 22.5594 26.2561 24.1285 28.99 24.1285Z" fill="#F35C4F"/>
<path d="M51.488 22.182C53.098 22.182 54.414 21.496 55.324 20.474V16.988H50.9V18.43H53.7V19.872C53.28 20.278 52.44 20.712 51.488 20.712C49.64 20.712 48.268 19.284 48.268 17.338C48.268 15.364 49.64 13.964 51.488 13.964C52.524 13.964 53.406 14.51 53.91 15.21L55.24 14.44C54.498 13.376 53.308 12.508 51.488 12.508C48.772 12.508 46.588 14.398 46.588 17.338C46.588 20.264 48.772 22.182 51.488 22.182ZM60.0532 22.168C62.2092 22.168 63.5252 20.544 63.5252 18.612C63.5252 16.666 62.2092 15.07 60.0532 15.07C57.8972 15.07 56.5812 16.666 56.5812 18.612C56.5812 20.544 57.8972 22.168 60.0532 22.168ZM60.0532 20.866C58.8072 20.866 58.1072 19.816 58.1072 18.612C58.1072 17.422 58.8072 16.372 60.0532 16.372C61.3132 16.372 61.9992 17.422 61.9992 18.612C61.9992 19.816 61.3132 20.866 60.0532 20.866ZM68.0922 22.168C70.2482 22.168 71.5642 20.544 71.5642 18.612C71.5642 16.666 70.2482 15.07 68.0922 15.07C65.9362 15.07 64.6202 16.666 64.6202 18.612C64.6202 20.544 65.9362 22.168 68.0922 22.168ZM68.0922 20.866C66.8462 20.866 66.1462 19.816 66.1462 18.612C66.1462 17.422 66.8462 16.372 68.0922 16.372C69.3522 16.372 70.0382 17.422 70.0382 18.612C70.0382 19.816 69.3522 20.866 68.0922 20.866ZM75.8233 24.744C77.4753 24.744 79.2953 24.086 79.2953 21.65V15.238H77.8253V16.176C77.2793 15.448 76.5093 15.07 75.6553 15.07C73.9053 15.07 72.6593 16.344 72.6593 18.542C72.6593 20.768 73.9333 22.014 75.6553 22.014C76.5373 22.014 77.3073 21.566 77.8253 20.88V21.65C77.8253 23.092 76.7893 23.54 75.8233 23.54C74.9273 23.54 74.2273 23.302 73.6673 22.672L72.9813 23.736C73.8213 24.492 74.6753 24.744 75.8233 24.744ZM76.0893 20.698C74.9133 20.698 74.1713 19.844 74.1713 18.542C74.1713 17.24 74.9133 16.372 76.0893 16.372C76.7753 16.372 77.4893 16.778 77.8253 17.268V19.802C77.4893 20.292 76.7753 20.698 76.0893 20.698ZM82.67 22V12.662H81.2V22H82.67ZM87.713 22.168C88.777 22.168 89.771 21.818 90.457 21.174L89.785 20.208C89.295 20.698 88.525 20.964 87.853 20.964C86.579 20.964 85.823 20.11 85.711 19.102H90.919V18.738C90.919 16.61 89.631 15.07 87.601 15.07C85.599 15.07 84.171 16.652 84.171 18.612C84.171 20.754 85.669 22.168 87.713 22.168ZM89.505 18.052H85.697C85.753 17.24 86.341 16.274 87.587 16.274C88.917 16.274 89.463 17.254 89.505 18.052Z" fill="#F35C4F"/>
</svg>
