<svg width="42" height="42" viewBox="0 0 42 42" fill="none" xmlns="http://www.w3.org/2000/svg">
<circle cx="21" cy="21" r="21" fill="#FFC362"/>
<path fill-rule="evenodd" clip-rule="evenodd" d="M21 10.5C17.272 10.5 14.25 13.5221 14.25 17.25C14.25 20.978 17.272 24 21 24C24.728 24 27.75 20.978 27.75 17.25C27.75 13.5221 24.728 10.5 21 10.5ZM21 13.125C21.4142 13.125 21.75 13.4608 21.75 13.875V16.8895L23.3435 18.1643C23.667 18.4231 23.7194 18.8951 23.4607 19.2185C23.2019 19.542 22.7299 19.5944 22.4065 19.3357L20.5315 17.8357C20.3536 17.6933 20.25 17.4778 20.25 17.25V13.875C20.25 13.4608 20.5858 13.125 21 13.125Z" fill="white"/>
<path fill-rule="evenodd" clip-rule="evenodd" d="M13.5 25.5C11.8431 25.5 10.5 26.8432 10.5 28.5C10.5 30.1568 11.8431 31.5 13.5 31.5H28.5C30.1568 31.5 31.5 30.1568 31.5 28.5C31.5 26.8432 30.1568 25.5 28.5 25.5H13.5ZM12.75 28.5C12.75 28.0858 13.0858 27.75 13.5 27.75H18C18.4142 27.75 18.75 28.0858 18.75 28.5C18.75 28.9142 18.4142 29.25 18 29.25H13.5C13.0858 29.25 12.75 28.9142 12.75 28.5Z" fill="white"/>
</svg>
