<svg width="42" height="42" viewBox="0 0 42 42" fill="none" xmlns="http://www.w3.org/2000/svg">
<circle cx="21" cy="21" r="21" fill="#68C8F8"/>
<path d="M21 25.25C23.0711 25.25 24.75 24.5504 24.75 23.6875C24.75 22.8246 23.0711 22.125 21 22.125C18.9289 22.125 17.25 22.8246 17.25 23.6875C17.25 24.5504 18.9289 25.25 21 25.25Z" fill="white"/>
<path d="M21 28.0627C19.8774 28.0627 18.8077 27.8745 17.9877 27.5329C17.6943 27.4107 17.4512 27.277 17.25 27.1377V27.4377C17.25 28.3006 18.9289 29.0002 21 29.0002C23.0711 29.0002 24.75 28.3006 24.75 27.4377V27.1377C24.5487 27.277 24.3057 27.4107 24.0122 27.5329C23.1923 27.8745 22.1226 28.0627 21 28.0627Z" fill="white"/>
<path d="M21 26.1877C19.8774 26.1877 18.8077 25.9995 17.9877 25.6579C17.6943 25.5357 17.4512 25.402 17.25 25.2627V25.5627C17.25 26.4256 18.9289 27.1252 21 27.1252C23.0711 27.1252 24.75 26.4256 24.75 25.5627V25.2627C24.5487 25.402 24.3057 25.5357 24.0122 25.6579C23.1923 25.9995 22.1226 26.1877 21 26.1877Z" fill="white"/>
<path d="M20.5309 21.1989C20.531 21.1951 20.5312 21.1913 20.5312 21.1875C20.5312 20.3246 18.8523 19.625 16.7812 19.625C14.7102 19.625 13.0312 20.3246 13.0312 21.1875C13.0312 22.026 14.6163 22.7101 16.606 22.7482C16.8431 22.3921 17.2615 22.0199 17.9877 21.7172C18.6925 21.4236 19.5821 21.2438 20.5309 21.1989Z" fill="white"/>
<path d="M13.0312 24.6377V24.9377C13.0312 25.7345 14.4627 26.3919 16.3125 26.488V25.5513C15.3635 25.5064 14.4738 25.3266 13.769 25.0329C13.4756 24.9106 13.2325 24.777 13.0312 24.6377Z" fill="white"/>
<path d="M16.3126 23.6763C15.3636 23.6314 14.4739 23.4516 13.769 23.1579C13.4756 23.0356 13.2325 22.902 13.0312 22.7627V23.0627C13.0312 23.8595 14.4627 24.5169 16.3125 24.613V23.7189L16.3128 23.7191C16.3127 23.7084 16.3125 23.6979 16.3125 23.6877C16.3125 23.6839 16.3126 23.6801 16.3126 23.6763Z" fill="white"/>
<path d="M19.125 15.8125H19.5937V18.1562C19.5937 18.4151 19.8036 18.625 20.0625 18.625H21.9375C22.1963 18.625 22.4062 18.4151 22.4062 18.1562V15.8125H22.875C23.0646 15.8125 23.2355 15.6983 23.308 15.5231C23.3806 15.348 23.3405 15.1463 23.2064 15.0123L21.3314 13.1373C21.1484 12.9542 20.8516 12.9542 20.6685 13.1373L18.7935 15.0123C18.6594 15.1463 18.6193 15.3479 18.6919 15.5231C18.7645 15.6983 18.9354 15.8125 19.125 15.8125Z" fill="white"/>
<path d="M13.5 16.4375H13.9687V18.1562C13.9687 18.4151 14.1786 18.625 14.4375 18.625H16.3125C16.5713 18.625 16.7812 18.4151 16.7812 18.1562V16.4375H17.25C17.4396 16.4375 17.6105 16.3233 17.683 16.1481C17.7556 15.973 17.7155 15.7713 17.5814 15.6373L15.7064 13.7623C15.5234 13.5792 15.2266 13.5792 15.0435 13.7623L13.1685 15.6373C13.0344 15.7713 12.9943 15.9729 13.0669 16.1481C13.1395 16.3233 13.3104 16.4375 13.5 16.4375Z" fill="white"/>
<path d="M24.75 16.4375H25.2187V18.1562C25.2187 18.4151 25.4286 18.625 25.6875 18.625H27.5625C27.8213 18.625 28.0312 18.4151 28.0312 18.1562V16.4375H28.5C28.6896 16.4375 28.8605 16.3233 28.933 16.1481C29.0056 15.973 28.9655 15.7713 28.8314 15.6373L26.9564 13.7623C26.7734 13.5792 26.4766 13.5792 26.2935 13.7623L24.4185 15.6373C24.2844 15.7713 24.2443 15.9729 24.3169 16.1481C24.3895 16.3233 24.5603 16.4375 24.75 16.4375Z" fill="white"/>
<path d="M28.9687 21.1875C28.9687 20.3246 27.2898 19.625 25.2187 19.625C23.1477 19.625 21.4688 20.3246 21.4688 21.1875C21.4688 21.1913 21.469 21.1951 21.4691 21.1989C22.4179 21.2438 23.3075 21.4236 24.0122 21.7172C24.7385 22.0199 25.1569 22.3921 25.3939 22.7482C27.3837 22.7101 28.9687 22.026 28.9687 21.1875Z" fill="white"/>
<path d="M25.6875 25.5513V26.488C27.5373 26.3919 28.9687 25.7345 28.9687 24.9377V24.6377C28.7675 24.777 28.5244 24.9107 28.231 25.0329C27.5262 25.3266 26.6365 25.5064 25.6875 25.5513Z" fill="white"/>
<path d="M25.6873 23.6763C25.6874 23.6801 25.6874 23.6839 25.6874 23.6877C25.6874 23.6979 25.6873 23.7084 25.6871 23.7191L25.6874 23.7189V24.613C27.5372 24.5169 28.9687 23.8595 28.9687 23.0627V22.7627C28.7674 22.902 28.5243 23.0357 28.2309 23.1579C27.526 23.4516 26.6364 23.6314 25.6873 23.6763Z" fill="white"/>
</svg>
