<svg width="42" height="42" viewBox="0 0 42 42" fill="none" xmlns="http://www.w3.org/2000/svg">
<circle cx="21" cy="21" r="21" fill="#2970CC"/>
<path d="M21.0001 26.4899C24.0274 26.4899 26.4903 24.027 26.4903 20.9997C26.4903 17.9723 24.0274 15.5094 21.0001 15.5094C17.9722 15.5094 15.5088 17.9724 15.5088 20.9997C15.5088 24.027 17.9722 26.4899 21.0001 26.4899ZM20.4142 17.9186V17.6347C20.4142 17.4793 20.4759 17.3302 20.5858 17.2204C20.6957 17.1105 20.8447 17.0487 21.0001 17.0487C21.1555 17.0487 21.3045 17.1105 21.4144 17.2204C21.5243 17.3302 21.586 17.4793 21.586 17.6347V17.9198C22.1336 18.0715 22.5998 18.4303 22.8492 18.9175C22.92 19.0559 22.9329 19.2167 22.8852 19.3645C22.8374 19.5124 22.7328 19.6353 22.5945 19.7061C22.4562 19.7769 22.2954 19.7898 22.1475 19.742C21.9996 19.6943 21.8768 19.5897 21.806 19.4514C21.6692 19.1844 21.3525 19.0119 20.9988 19.0119C20.5274 19.0119 20.1292 19.3329 20.1292 19.7128C20.1292 20.1475 20.2681 20.2476 21.1205 20.4269C21.5319 20.5135 21.9573 20.603 22.3232 20.8441C22.7998 21.1584 23.0416 21.6437 23.0416 22.2866C23.0416 23.1322 22.4271 23.8483 21.586 24.0802V24.3647C21.586 24.5201 21.5243 24.6691 21.4144 24.779C21.3045 24.8889 21.1555 24.9507 21.0001 24.9507C20.8447 24.9507 20.6957 24.8889 20.5858 24.779C20.4759 24.6691 20.4142 24.5201 20.4142 24.3647V24.0801C19.8662 23.9288 19.3994 23.5698 19.1498 23.0819C19.0794 22.9436 19.0667 22.783 19.1146 22.6354C19.1624 22.4877 19.2669 22.3651 19.405 22.2944C19.5432 22.2237 19.7037 22.2108 19.8515 22.2583C19.9992 22.3059 20.122 22.4101 20.193 22.5481C20.3297 22.8151 20.6459 22.9876 20.9988 22.9876C21.479 22.9876 21.8699 22.6731 21.8699 22.2866C21.8699 21.8528 21.731 21.7528 20.8793 21.5737C20.4677 21.4871 20.0421 21.3975 19.6762 21.1562C19.1994 20.8417 18.9574 20.3561 18.9574 19.7128C18.9574 18.8665 19.5726 18.1498 20.4142 17.9186H20.4142ZM28.5371 24.6692C27.7114 26.3657 26.3375 27.734 24.6376 28.5528C22.9377 29.3715 21.0113 29.5928 19.1701 29.1808C17.3288 28.7688 15.6804 27.7476 14.4915 26.2825C13.3027 24.8174 12.6429 22.9941 12.6189 21.1074L12.3123 21.414C12.2021 21.5224 12.0535 21.5829 11.899 21.5823C11.7444 21.5816 11.5963 21.5199 11.487 21.4106C11.3777 21.3013 11.3161 21.1533 11.3154 20.9987C11.3148 20.8441 11.3753 20.6956 11.4837 20.5854L12.7892 19.2798C12.899 19.1699 13.0481 19.1082 13.2035 19.1082C13.3589 19.1082 13.5079 19.1699 13.6178 19.2798L14.9233 20.5854C15.0324 20.6954 15.0935 20.8442 15.0932 20.9992C15.0928 21.1541 15.0311 21.3026 14.9215 21.4122C14.812 21.5218 14.6635 21.5835 14.5085 21.5838C14.3535 21.5842 14.2048 21.5231 14.0947 21.414L13.7908 21.1101C13.8501 25.0353 17.0604 28.2103 20.999 28.2103C23.7794 28.2103 26.2642 26.6566 27.4838 24.1556C27.5173 24.0861 27.5642 24.0239 27.6218 23.9725C27.6795 23.9212 27.7467 23.8817 27.8196 23.8564C27.8925 23.8311 27.9697 23.8205 28.0467 23.8251C28.1237 23.8297 28.1991 23.8495 28.2685 23.8833C28.3378 23.9172 28.3998 23.9643 28.4509 24.0222C28.502 24.08 28.5411 24.1474 28.5661 24.2204C28.591 24.2935 28.6013 24.3707 28.5964 24.4477C28.5914 24.5247 28.5713 24.6 28.5371 24.6692ZM30.5154 21.414L29.2099 22.7195C29.1 22.8294 28.951 22.8911 28.7956 22.8911C28.6402 22.8911 28.4912 22.8294 28.3813 22.7195L27.0757 21.414C27.0209 21.3597 26.9774 21.2951 26.9476 21.2239C26.9179 21.1527 26.9025 21.0763 26.9023 20.9992C26.9021 20.922 26.9172 20.8456 26.9467 20.7742C26.9761 20.7029 27.0193 20.6381 27.0739 20.5836C27.1285 20.529 27.1933 20.4857 27.2646 20.4563C27.3359 20.4268 27.4124 20.4118 27.4895 20.4119C27.5667 20.4121 27.643 20.4275 27.7142 20.4573C27.7854 20.487 27.85 20.5306 27.9044 20.5854L28.2082 20.8892C28.1489 16.9647 24.938 13.7901 20.999 13.7901C18.2189 13.7901 15.7345 15.3434 14.5153 17.8437C14.4467 17.9827 14.3259 18.0888 14.1793 18.139C14.0327 18.1891 13.8722 18.1791 13.733 18.1112C13.5937 18.0433 13.487 17.923 13.4362 17.7766C13.3854 17.6302 13.3947 17.4697 13.4619 17.3301C14.2878 15.6339 15.6618 14.2658 17.3616 13.4472C19.0615 12.6287 20.9877 12.4075 22.8289 12.8195C24.67 13.2314 26.3183 14.2525 27.5072 15.7174C28.696 17.1823 29.356 19.0055 29.3802 20.892L29.6868 20.5854C29.797 20.477 29.9456 20.4165 30.1001 20.4171C30.2547 20.4178 30.4028 20.4795 30.5121 20.5888C30.6214 20.6981 30.6831 20.8461 30.6837 21.0007C30.6843 21.1553 30.6238 21.3038 30.5154 21.414Z" fill="white"/>
</svg>
