<svg width="41" height="40" viewBox="0 0 41 40" fill="none" xmlns="http://www.w3.org/2000/svg">
<circle cx="20.98" cy="20" r="20" fill="#FFE8E8"/>
<g clip-path="url(#clip0_20050_7288)">
<path d="M30.5802 24.5722L23.5733 12.4358C22.4288 10.4309 19.5347 10.4309 18.3944 12.4358L11.3834 24.5722C10.2389 26.5771 11.6633 29.0678 13.9729 29.0678H27.966C30.2755 29.0678 31.7246 26.5524 30.5802 24.5722ZM20.9797 26.3754C20.3704 26.3754 19.8641 25.869 19.8641 25.2597C19.8641 24.6504 20.3704 24.1441 20.9797 24.1441C21.589 24.1441 22.0954 24.6504 22.0707 25.2885C22.0995 25.869 21.5643 26.3754 20.9797 26.3754ZM21.9966 19.1627C21.9472 20.0272 21.8937 20.8876 21.8443 21.7522C21.8196 22.0321 21.8196 22.2874 21.8196 22.5632C21.7949 23.0202 21.4367 23.3742 20.9797 23.3742C20.5228 23.3742 20.1687 23.0449 20.1399 22.5879C20.0658 21.2417 19.9876 19.9202 19.9135 18.574C19.8888 18.2199 19.8641 17.8618 19.8352 17.5077C19.8352 16.9231 20.1646 16.4415 20.6998 16.2892C21.235 16.1615 21.766 16.4168 21.9966 16.9231C22.0748 17.1002 22.0995 17.2772 22.0995 17.483C22.0748 18.047 22.0213 18.6069 21.9966 19.1627Z" fill="#FF5050"/>
</g>
<defs>
<clipPath id="clip0_20050_7288">
<rect width="20" height="20" fill="white" transform="translate(10.98 10)"/>
</clipPath>
</defs>
</svg>
