<svg width="46" height="46" viewBox="0 0 46 46" fill="none" xmlns="http://www.w3.org/2000/svg">
<circle cx="23" cy="23" r="23" fill="white"/>
<path d="M16.5547 34H29.4453C30.5115 34 31.3789 33.1326 31.3789 32.0664V18.4453H26.8672C25.801 18.4453 24.9336 17.5779 24.9336 16.5117V12H16.5547C15.4885 12 14.6211 12.8674 14.6211 13.9336V32.0664C14.6211 33.1326 15.4885 34 16.5547 34ZM19.1328 21.0664H26.8672C27.2234 21.0664 27.5117 21.3547 27.5117 21.7109C27.5117 22.0672 27.2234 22.3555 26.8672 22.3555H19.1328C18.7766 22.3555 18.4883 22.0672 18.4883 21.7109C18.4883 21.3547 18.7766 21.0664 19.1328 21.0664ZM19.1328 23.6445H26.8672C27.2234 23.6445 27.5117 23.9328 27.5117 24.2891C27.5117 24.6453 27.2234 24.9336 26.8672 24.9336H19.1328C18.7766 24.9336 18.4883 24.6453 18.4883 24.2891C18.4883 23.9328 18.7766 23.6445 19.1328 23.6445ZM19.1328 26.2227H26.8672C27.2234 26.2227 27.5117 26.5109 27.5117 26.8672C27.5117 27.2234 27.2234 27.5117 26.8672 27.5117H19.1328C18.7766 27.5117 18.4883 27.2234 18.4883 26.8672C18.4883 26.5109 18.7766 26.2227 19.1328 26.2227ZM19.1328 28.8008H24.2891C24.6453 28.8008 24.9336 29.0891 24.9336 29.4453C24.9336 29.8016 24.6453 30.0898 24.2891 30.0898H19.1328C18.7766 30.0898 18.4883 29.8016 18.4883 29.4453C18.4883 29.0891 18.7766 28.8008 19.1328 28.8008Z" fill="#54616B"/>
<path d="M26.8672 17.156H31.0013L26.2227 12.3774V16.5115C26.2227 16.8671 26.5116 17.156 26.8672 17.156Z" fill="#54616B"/>
</svg>
