<svg width="46" height="46" viewBox="0 0 46 46" fill="none" xmlns="http://www.w3.org/2000/svg">
<circle cx="23" cy="23" r="23" fill="white"/>
<path d="M23.3875 26.779L29.5 16.1915V15C29.5 13.6195 28.3805 12.5 27 12.5H16C14.6195 12.5 13.5 13.6195 13.5 15V31C13.5 32.3805 14.6195 33.5 16 33.5H27C28.3805 33.5 29.5 32.3805 29.5 31V26.1925L27.718 29.2795C27.4545 29.735 27.084 30.128 26.646 30.4165L25.322 31.2915C25.0585 31.4655 24.754 31.5575 24.4415 31.5575C24.0015 31.5575 23.576 31.373 23.2725 31.051C22.969 30.728 22.8165 30.305 22.8435 29.86L22.938 28.276C22.9695 27.7505 23.125 27.233 23.3875 26.7785V26.779ZM16.5 15.5H21C21.2765 15.5 21.5 15.724 21.5 16C21.5 16.276 21.2765 16.5 21 16.5H16.5C16.2235 16.5 16 16.276 16 16C16 15.724 16.2235 15.5 16.5 15.5ZM16.5 18.5H25.645C25.9215 18.5 26.145 18.724 26.145 19C26.145 19.276 25.9215 19.5 25.645 19.5H16.5C16.2235 19.5 16 19.276 16 19C16 18.724 16.2235 18.5 16.5 18.5ZM21.18 30.5H20.5C20.333 30.5 20.177 30.4165 20.0845 30.278L19.4995 29.403L19.181 29.8825C19.016 30.119 18.7495 30.2435 18.4705 30.2105C18.1975 30.1795 17.964 30.002 17.861 29.7475L17.5 28.846L16.964 30.186C16.886 30.3815 16.698 30.5005 16.4995 30.5005C16.4375 30.5005 16.375 30.489 16.314 30.4645C16.0575 30.362 15.9325 30.071 16.035 29.8145L16.57 28.4745C16.7255 28.0915 17.0895 27.845 17.499 27.845C17.9085 27.845 18.273 28.0915 18.427 28.4725L18.611 28.9325L18.6675 28.848C18.848 28.5695 19.16 28.4 19.4985 28.4C19.837 28.4 20.149 28.569 20.333 28.853L20.7655 29.5H21.1785C21.455 29.5 21.6785 29.724 21.6785 30C21.6785 30.276 21.455 30.5 21.1785 30.5H21.18ZM22.18 25.5H16.5C16.2235 25.5 16 25.276 16 25C16 24.724 16.2235 24.5 16.5 24.5H22.18C22.4565 24.5 22.68 24.724 22.68 25C22.68 25.276 22.4565 25.5 22.18 25.5ZM16.5 22.5C16.2235 22.5 16 22.276 16 22C16 21.724 16.2235 21.5 16.5 21.5H23.91C24.1865 21.5 24.41 21.724 24.41 22C24.41 22.276 24.1865 22.5 23.91 22.5H16.5Z" fill="#54616B"/>
<path d="M32.7225 18.6104L33.339 17.5424C33.6705 16.9684 33.4735 16.2344 32.9 15.9034L32.3805 15.6034C31.8065 15.2719 31.0725 15.4689 30.7415 16.0424L30.125 17.1104L32.7225 18.6104Z" fill="#54616B"/>
<path d="M29.625 17.9766L24.254 27.2796C24.0675 27.6021 23.959 27.9641 23.937 28.3356L23.842 29.9201C23.8125 30.4136 24.359 30.7291 24.7715 30.4566L26.0965 29.5821C26.4075 29.3766 26.6665 29.1021 26.8525 28.7791L32.2235 19.4761L29.6255 17.9761L29.625 17.9766Z" fill="#54616B"/>
</svg>
