<svg width="46" height="46" viewBox="0 0 46 46" fill="none" xmlns="http://www.w3.org/2000/svg">
<circle cx="23" cy="23" r="23" fill="white"/>
<path d="M32.4902 23.9704L31.6052 22.5454C31.573 22.4983 31.5323 22.4576 31.4852 22.4254L25.4177 18.6829L25.6127 18.3679C25.6389 18.3261 25.6567 18.2795 25.6648 18.2308C25.673 18.1821 25.6715 18.1323 25.6603 18.0842C25.6492 18.0361 25.6286 17.9907 25.5998 17.9506C25.5711 17.9104 25.5347 17.8764 25.4927 17.8504L23.4077 16.5679C23.3591 16.5315 23.3186 16.4853 23.2889 16.4324C23.2592 16.3794 23.2409 16.3209 23.2352 16.2604C23.1507 15.6841 22.9324 15.1356 22.5976 14.6589C22.2629 14.1821 21.8211 13.7905 21.3077 13.5154C20.7944 13.2485 20.2269 13.1024 19.6485 13.0881C19.0701 13.0738 18.4961 13.1917 17.9702 13.4329C17.3461 13.6957 16.8107 14.1323 16.4278 14.6908C16.0448 15.2493 15.8304 15.906 15.8102 16.5829C15.7707 17.2863 15.9271 17.9868 16.2621 18.6065C16.5972 19.2262 17.0976 19.7407 17.7077 20.0929C18.1594 20.3454 18.6588 20.5012 19.174 20.5502C19.6891 20.5993 20.2089 20.5406 20.7002 20.3779C20.7567 20.3542 20.8179 20.3439 20.8791 20.3478C20.9402 20.3517 20.9997 20.3697 21.0527 20.4004L23.1302 21.6829C23.2155 21.7351 23.318 21.7512 23.4152 21.7279C23.4638 21.7168 23.5095 21.6957 23.5495 21.6661C23.5896 21.6364 23.623 21.5987 23.6477 21.5554L23.8427 21.2404L25.4402 22.2229C25.5255 22.2751 25.628 22.2912 25.7252 22.2679L26.3927 22.1104L26.5502 22.7779C26.5725 22.8741 26.6318 22.9576 26.7152 23.0104L27.3527 23.4079C27.438 23.4601 27.5405 23.4762 27.6377 23.4529L28.3052 23.2954L28.4627 23.9629C28.487 24.0582 28.5458 24.141 28.6277 24.1954L29.9102 24.9829C29.9703 25.0151 30.037 25.0331 30.1052 25.0354C30.1329 25.037 30.1607 25.0345 30.1877 25.0279L32.2577 24.5329C32.3148 24.5205 32.368 24.4941 32.4125 24.4562C32.457 24.4182 32.4914 24.3699 32.5127 24.3154C32.5351 24.2599 32.5447 24.2001 32.5408 24.1403C32.5369 24.0806 32.5196 24.0225 32.4902 23.9704ZM20.9102 17.6254C20.7766 17.8435 20.5891 18.0236 20.3658 18.1484C20.1426 18.2731 19.891 18.3384 19.6352 18.3379C19.357 18.3367 19.0845 18.2588 18.8477 18.1129C18.6802 18.0096 18.5346 17.8742 18.4194 17.7146C18.3043 17.555 18.2217 17.3743 18.1764 17.1827C18.1311 16.9912 18.124 16.7926 18.1556 16.5983C18.1871 16.404 18.2566 16.2178 18.3602 16.0504C18.5702 15.7126 18.904 15.4704 19.2902 15.3754C19.5788 15.3085 19.8808 15.3284 20.1582 15.4326C20.4356 15.5368 20.676 15.7207 20.8491 15.9612C21.0222 16.2017 21.1204 16.4879 21.1313 16.7841C21.1422 17.0802 21.0652 17.3729 20.9102 17.6254Z" fill="#54616B"/>
<path d="M31.4253 26.5879H26.3928C26.4077 26.9424 26.3078 27.2923 26.1078 27.5854C25.8618 27.959 25.481 28.223 25.0449 28.3222C24.6087 28.4215 24.1512 28.3483 23.7678 28.1179L21.1278 26.5354C21.0852 26.5099 21.048 26.4763 21.0184 26.4364C20.9889 26.3965 20.9675 26.3512 20.9555 26.303C20.9435 26.2548 20.9411 26.2048 20.9485 26.1557C20.9559 26.1066 20.973 26.0594 20.9987 26.0169C21.0244 25.9744 21.0582 25.9375 21.0982 25.9081C21.1382 25.8787 21.1837 25.8575 21.2319 25.8458C21.2802 25.834 21.3302 25.8319 21.3793 25.8396C21.4284 25.8472 21.4754 25.8645 21.5178 25.8904L24.1503 27.4729C24.3689 27.6035 24.6292 27.6451 24.8776 27.5893C25.126 27.5335 25.3435 27.3844 25.4853 27.1729C25.5685 27.0374 25.6223 26.8859 25.643 26.7282C25.6636 26.5705 25.6508 26.4103 25.6053 26.2579C25.5575 26.0306 25.4644 25.8152 25.3317 25.6245C25.199 25.4338 25.0293 25.2717 24.8328 25.1479L20.0253 22.1479C19.9644 22.11 19.8944 22.0893 19.8228 22.0879H14.0103C13.9609 22.0874 13.9119 22.0968 13.8662 22.1155C13.8205 22.1341 13.7789 22.1617 13.744 22.1966C13.7091 22.2316 13.6815 22.2731 13.6628 22.3188C13.6441 22.3645 13.6348 22.4135 13.6353 22.4629V29.2129C13.6348 29.2623 13.6441 29.3113 13.6628 29.357C13.6815 29.4027 13.7091 29.4442 13.744 29.4792C13.7789 29.5141 13.8205 29.5417 13.8662 29.5604C13.9119 29.579 13.9609 29.5884 14.0103 29.5879H16.7178L19.9353 31.5379C20.8825 32.106 21.9461 32.4524 23.0462 32.5511C24.1463 32.6498 25.2545 32.4983 26.2878 32.1079L32.0403 29.8954C32.361 29.7683 32.6366 29.5484 32.8316 29.2638C33.0267 28.9792 33.1324 28.6429 33.1353 28.2979C33.1354 28.0733 33.0912 27.8509 33.0053 27.6434C32.9194 27.4359 32.7935 27.2473 32.6346 27.0885C32.4758 26.9297 32.2873 26.8038 32.0798 26.7179C31.8723 26.632 31.6499 26.5878 31.4253 26.5879Z" fill="#54616B"/>
</svg>
