<svg width="270" height="48" viewBox="0 0 270 48" fill="none" xmlns="http://www.w3.org/2000/svg">
<path d="M13.5 23.879H22.5V41.6855L13.5 37.1855V23.879Z" fill="#45C7FF"/>
<path d="M25.5 19.3065H34.5V41.7581L25.5 46.2581V19.3065Z" fill="#45C7FF"/>
<path d="M6.21539 13.7321L24 3.4641L41.7846 13.732V34.2679L24 44.5359L6.21539 34.2679V13.7321Z" stroke="#2970CC" stroke-width="6"/>
<path d="M62.268 37V11.8H74.58C76.284 11.8 77.784 12.136 79.08 12.808C80.4 13.456 81.42 14.368 82.14 15.544C82.884 16.72 83.256 18.076 83.256 19.612C83.256 21.22 82.812 22.636 81.924 23.86C81.036 25.084 79.848 25.996 78.36 26.596L83.94 37H78.108L73.176 27.352H67.488V37H62.268ZM67.488 23.068H74.112C75.288 23.068 76.224 22.756 76.92 22.132C77.64 21.508 78 20.692 78 19.684C78 18.676 77.64 17.86 76.92 17.236C76.224 16.612 75.288 16.3 74.112 16.3H67.488V23.068ZM94.4678 37.36C92.5958 37.36 90.8918 36.928 89.3558 36.064C87.8438 35.2 86.6438 34.036 85.7558 32.572C84.8678 31.108 84.4238 29.464 84.4238 27.64C84.4238 25.816 84.8438 24.172 85.6838 22.708C86.5478 21.244 87.7118 20.08 89.1758 19.216C90.6398 18.352 92.2718 17.92 94.0718 17.92C95.8718 17.92 97.4678 18.364 98.8598 19.252C100.252 20.14 101.344 21.34 102.136 22.852C102.952 24.364 103.36 26.08 103.36 28V29.296H89.4638C89.6798 30.04 90.0278 30.712 90.5078 31.312C91.0118 31.912 91.6238 32.38 92.3438 32.716C93.0878 33.052 93.8798 33.22 94.7198 33.22C95.5598 33.22 96.3278 33.088 97.0238 32.824C97.7438 32.56 98.3558 32.188 98.8598 31.708L102.1 34.66C100.948 35.596 99.7598 36.28 98.5358 36.712C97.3358 37.144 95.9798 37.36 94.4678 37.36ZM89.3918 25.768H98.4998C98.3318 25.024 98.0198 24.376 97.5638 23.824C97.1318 23.248 96.6038 22.804 95.9798 22.492C95.3798 22.156 94.7078 21.988 93.9638 21.988C93.1958 21.988 92.4998 22.144 91.8758 22.456C91.2518 22.768 90.7238 23.212 90.2918 23.788C89.8838 24.34 89.5838 25 89.3918 25.768ZM106.382 37V18.244H111.314V19.792C112.73 18.52 114.482 17.884 116.57 17.884C118.034 17.884 119.318 18.208 120.422 18.856C121.55 19.48 122.426 20.356 123.05 21.484C123.674 22.588 123.986 23.884 123.986 25.372V37H119.054V26.092C119.054 24.868 118.706 23.908 118.01 23.212C117.314 22.492 116.366 22.132 115.166 22.132C114.326 22.132 113.582 22.3 112.934 22.636C112.286 22.948 111.746 23.404 111.314 24.004V37H106.382ZM136.086 37.288C133.998 37.288 132.414 36.82 131.334 35.884C130.278 34.924 129.75 33.532 129.75 31.708V22.348H125.898V18.244H129.75V13.456L134.682 12.34V18.244H140.046V22.348H134.682V30.7C134.682 31.564 134.874 32.188 135.258 32.572C135.642 32.932 136.314 33.112 137.274 33.112C137.754 33.112 138.186 33.088 138.57 33.04C138.978 32.968 139.422 32.848 139.902 32.68V36.748C139.398 36.916 138.762 37.048 137.994 37.144C137.25 37.24 136.614 37.288 136.086 37.288ZM142.452 37V18.244H147.384V19.684C148.728 18.484 150.36 17.884 152.28 17.884C153.504 17.884 154.596 18.136 155.556 18.64C156.516 19.12 157.308 19.804 157.932 20.692C158.7 19.78 159.6 19.084 160.632 18.604C161.688 18.124 162.852 17.884 164.124 17.884C165.54 17.884 166.776 18.208 167.832 18.856C168.912 19.48 169.752 20.356 170.352 21.484C170.976 22.588 171.288 23.884 171.288 25.372V37H166.392V26.092C166.392 24.868 166.068 23.908 165.42 23.212C164.772 22.492 163.908 22.132 162.828 22.132C162.084 22.132 161.4 22.288 160.776 22.6C160.176 22.912 159.66 23.38 159.228 24.004C159.252 24.22 159.276 24.436 159.3 24.652C159.324 24.868 159.336 25.108 159.336 25.372V37H154.404V26.092C154.404 24.868 154.08 23.908 153.432 23.212C152.808 22.492 151.956 22.132 150.876 22.132C150.132 22.132 149.46 22.276 148.86 22.564C148.284 22.852 147.792 23.284 147.384 23.86V37H142.452ZM184.222 37.36C182.35 37.36 180.646 36.928 179.11 36.064C177.598 35.2 176.398 34.036 175.51 32.572C174.622 31.108 174.178 29.464 174.178 27.64C174.178 25.816 174.598 24.172 175.438 22.708C176.302 21.244 177.466 20.08 178.93 19.216C180.394 18.352 182.026 17.92 183.826 17.92C185.626 17.92 187.222 18.364 188.614 19.252C190.006 20.14 191.098 21.34 191.89 22.852C192.706 24.364 193.114 26.08 193.114 28V29.296H179.218C179.434 30.04 179.782 30.712 180.262 31.312C180.766 31.912 181.378 32.38 182.098 32.716C182.842 33.052 183.634 33.22 184.474 33.22C185.314 33.22 186.082 33.088 186.778 32.824C187.498 32.56 188.11 32.188 188.614 31.708L191.854 34.66C190.702 35.596 189.514 36.28 188.29 36.712C187.09 37.144 185.734 37.36 184.222 37.36ZM179.146 25.768H188.254C188.086 25.024 187.774 24.376 187.318 23.824C186.886 23.248 186.358 22.804 185.734 22.492C185.134 22.156 184.462 21.988 183.718 21.988C182.95 21.988 182.254 22.144 181.63 22.456C181.006 22.768 180.478 23.212 180.046 23.788C179.638 24.34 179.338 25 179.146 25.768ZM204.5 37.288C202.412 37.288 200.828 36.82 199.748 35.884C198.692 34.924 198.164 33.532 198.164 31.708V22.348H194.312V18.244H198.164V13.456L203.096 12.34V18.244H208.46V22.348H203.096V30.7C203.096 31.564 203.288 32.188 203.672 32.572C204.056 32.932 204.728 33.112 205.688 33.112C206.168 33.112 206.6 33.088 206.984 33.04C207.392 32.968 207.836 32.848 208.316 32.68V36.748C207.812 36.916 207.176 37.048 206.408 37.144C205.664 37.24 205.028 37.288 204.5 37.288ZM210.866 37V18.244H215.798V20.332C216.398 19.516 217.118 18.892 217.958 18.46C218.798 18.028 219.746 17.812 220.802 17.812C221.714 17.836 222.398 17.98 222.854 18.244V22.564C222.494 22.396 222.098 22.276 221.666 22.204C221.234 22.108 220.79 22.06 220.334 22.06C219.374 22.06 218.498 22.3 217.706 22.78C216.914 23.26 216.278 23.944 215.798 24.832V37H210.866ZM225.561 37V18.244H230.493V37H225.561ZM228.009 16.012C227.241 16.012 226.581 15.736 226.029 15.184C225.477 14.632 225.201 13.972 225.201 13.204C225.201 12.412 225.477 11.752 226.029 11.224C226.581 10.672 227.241 10.396 228.009 10.396C228.801 10.396 229.461 10.672 229.989 11.224C230.541 11.752 230.817 12.412 230.817 13.204C230.817 13.972 230.541 14.632 229.989 15.184C229.461 15.736 228.801 16.012 228.009 16.012ZM243.314 37.36C241.466 37.36 239.798 36.94 238.31 36.1C236.822 35.236 235.646 34.072 234.782 32.608C233.918 31.12 233.486 29.464 233.486 27.64C233.486 25.792 233.918 24.136 234.782 22.672C235.646 21.208 236.822 20.044 238.31 19.18C239.798 18.316 241.466 17.884 243.314 17.884C244.802 17.884 246.218 18.172 247.562 18.748C248.93 19.324 250.106 20.152 251.09 21.232L248.066 24.436C247.37 23.668 246.638 23.104 245.87 22.744C245.126 22.36 244.31 22.168 243.422 22.168C242.462 22.168 241.598 22.408 240.83 22.888C240.086 23.368 239.486 24.016 239.03 24.832C238.598 25.648 238.382 26.584 238.382 27.64C238.382 28.648 238.598 29.572 239.03 30.412C239.486 31.228 240.11 31.876 240.902 32.356C241.694 32.812 242.57 33.04 243.53 33.04C244.37 33.04 245.15 32.872 245.87 32.536C246.614 32.176 247.322 31.648 247.994 30.952L250.946 34.048C249.986 35.08 248.834 35.896 247.49 36.496C246.146 37.072 244.754 37.36 243.314 37.36ZM260.706 37.36C258.978 37.36 257.382 37.144 255.918 36.712C254.454 36.256 253.182 35.608 252.102 34.768L254.55 31.492C255.63 32.212 256.662 32.752 257.646 33.112C258.654 33.472 259.65 33.652 260.634 33.652C261.738 33.652 262.614 33.472 263.262 33.112C263.934 32.728 264.27 32.236 264.27 31.636C264.27 31.156 264.078 30.772 263.694 30.484C263.334 30.196 262.746 29.992 261.93 29.872L258.33 29.332C256.458 29.044 255.042 28.444 254.082 27.532C253.122 26.596 252.642 25.372 252.642 23.86C252.642 22.636 252.954 21.592 253.578 20.728C254.226 19.84 255.126 19.156 256.278 18.676C257.454 18.172 258.846 17.92 260.454 17.92C261.822 17.92 263.154 18.112 264.45 18.496C265.77 18.88 267.006 19.468 268.158 20.26L265.782 23.464C264.75 22.816 263.766 22.348 262.83 22.06C261.894 21.772 260.946 21.628 259.986 21.628C259.098 21.628 258.378 21.796 257.826 22.132C257.298 22.468 257.034 22.912 257.034 23.464C257.034 23.968 257.226 24.364 257.61 24.652C257.994 24.94 258.654 25.144 259.59 25.264L263.154 25.804C265.026 26.068 266.454 26.668 267.438 27.604C268.422 28.516 268.914 29.704 268.914 31.168C268.914 32.368 268.554 33.436 267.834 34.372C267.114 35.284 266.142 36.016 264.918 36.568C263.694 37.096 262.29 37.36 260.706 37.36Z" fill="#001924"/>
</svg>
