<svg width="180" height="32" viewBox="0 0 180 32" fill="none" xmlns="http://www.w3.org/2000/svg">
<path d="M9 15.9194H15V27.7904L9 24.7904V15.9194Z" fill="#45C7FF"/>
<path d="M17 12.8711H23V27.8388L17 30.8388V12.8711Z" fill="#45C7FF"/>
<path d="M4.14359 9.1547L16 2.3094L27.8564 9.1547V22.8453L16 29.6906L4.14359 22.8453V9.1547Z" stroke="#2970CC" stroke-width="4"/>
<path d="M41.512 25V8.2H49.72C50.856 8.2 51.856 8.424 52.72 8.872C53.6 9.304 54.28 9.912 54.76 10.696C55.256 11.48 55.504 12.384 55.504 13.408C55.504 14.48 55.208 15.424 54.616 16.24C54.024 17.056 53.232 17.664 52.24 18.064L55.96 25H52.072L48.784 18.568H44.992V25H41.512ZM44.992 15.712H49.408C50.192 15.712 50.816 15.504 51.28 15.088C51.76 14.672 52 14.128 52 13.456C52 12.784 51.76 12.24 51.28 11.824C50.816 11.408 50.192 11.2 49.408 11.2H44.992V15.712ZM62.9785 25.24C61.7305 25.24 60.5945 24.952 59.5705 24.376C58.5625 23.8 57.7625 23.024 57.1705 22.048C56.5785 21.072 56.2825 19.976 56.2825 18.76C56.2825 17.544 56.5625 16.448 57.1225 15.472C57.6985 14.496 58.4745 13.72 59.4505 13.144C60.4265 12.568 61.5145 12.28 62.7145 12.28C63.9145 12.28 64.9785 12.576 65.9065 13.168C66.8345 13.76 67.5625 14.56 68.0905 15.568C68.6345 16.576 68.9065 17.72 68.9065 19V19.864H59.6425C59.7865 20.36 60.0185 20.808 60.3385 21.208C60.6745 21.608 61.0825 21.92 61.5625 22.144C62.0585 22.368 62.5865 22.48 63.1465 22.48C63.7065 22.48 64.2185 22.392 64.6825 22.216C65.1625 22.04 65.5705 21.792 65.9065 21.472L68.0665 23.44C67.2985 24.064 66.5065 24.52 65.6905 24.808C64.8905 25.096 63.9865 25.24 62.9785 25.24ZM59.5945 17.512H65.6665C65.5545 17.016 65.3465 16.584 65.0425 16.216C64.7545 15.832 64.4025 15.536 63.9865 15.328C63.5865 15.104 63.1385 14.992 62.6425 14.992C62.1305 14.992 61.6665 15.096 61.2505 15.304C60.8345 15.512 60.4825 15.808 60.1945 16.192C59.9225 16.56 59.7225 17 59.5945 17.512ZM70.921 25V12.496H74.209V13.528C75.153 12.68 76.321 12.256 77.713 12.256C78.689 12.256 79.545 12.472 80.281 12.904C81.033 13.32 81.617 13.904 82.033 14.656C82.449 15.392 82.657 16.256 82.657 17.248V25H79.369V17.728C79.369 16.912 79.137 16.272 78.673 15.808C78.209 15.328 77.577 15.088 76.777 15.088C76.217 15.088 75.721 15.2 75.289 15.424C74.857 15.632 74.497 15.936 74.209 16.336V25H70.921ZM90.724 25.192C89.332 25.192 88.276 24.88 87.556 24.256C86.852 23.616 86.5 22.688 86.5 21.472V15.232H83.932V12.496H86.5V9.304L89.788 8.56V12.496H93.364V15.232H89.788V20.8C89.788 21.376 89.916 21.792 90.172 22.048C90.428 22.288 90.876 22.408 91.516 22.408C91.836 22.408 92.124 22.392 92.38 22.36C92.652 22.312 92.948 22.232 93.268 22.12V24.832C92.932 24.944 92.508 25.032 91.996 25.096C91.5 25.16 91.076 25.192 90.724 25.192ZM94.9679 25V12.496H98.2559V13.456C99.1519 12.656 100.24 12.256 101.52 12.256C102.336 12.256 103.064 12.424 103.704 12.76C104.344 13.08 104.872 13.536 105.288 14.128C105.8 13.52 106.4 13.056 107.088 12.736C107.792 12.416 108.568 12.256 109.416 12.256C110.36 12.256 111.184 12.472 111.888 12.904C112.608 13.32 113.168 13.904 113.568 14.656C113.984 15.392 114.192 16.256 114.192 17.248V25H110.928V17.728C110.928 16.912 110.712 16.272 110.28 15.808C109.848 15.328 109.272 15.088 108.552 15.088C108.056 15.088 107.6 15.192 107.184 15.4C106.784 15.608 106.44 15.92 106.152 16.336C106.168 16.48 106.184 16.624 106.2 16.768C106.216 16.912 106.224 17.072 106.224 17.248V25H102.936V17.728C102.936 16.912 102.72 16.272 102.288 15.808C101.872 15.328 101.304 15.088 100.584 15.088C100.088 15.088 99.6399 15.184 99.2399 15.376C98.8559 15.568 98.5279 15.856 98.2559 16.24V25H94.9679ZM122.814 25.24C121.566 25.24 120.43 24.952 119.406 24.376C118.398 23.8 117.598 23.024 117.006 22.048C116.414 21.072 116.118 19.976 116.118 18.76C116.118 17.544 116.398 16.448 116.958 15.472C117.534 14.496 118.31 13.72 119.286 13.144C120.262 12.568 121.35 12.28 122.55 12.28C123.75 12.28 124.814 12.576 125.742 13.168C126.67 13.76 127.398 14.56 127.926 15.568C128.47 16.576 128.742 17.72 128.742 19V19.864H119.478C119.622 20.36 119.854 20.808 120.174 21.208C120.51 21.608 120.918 21.92 121.398 22.144C121.894 22.368 122.422 22.48 122.982 22.48C123.542 22.48 124.054 22.392 124.518 22.216C124.998 22.04 125.406 21.792 125.742 21.472L127.902 23.44C127.134 24.064 126.342 24.52 125.526 24.808C124.726 25.096 123.822 25.24 122.814 25.24ZM119.43 17.512H125.502C125.39 17.016 125.182 16.584 124.878 16.216C124.59 15.832 124.238 15.536 123.822 15.328C123.422 15.104 122.974 14.992 122.478 14.992C121.966 14.992 121.502 15.096 121.086 15.304C120.67 15.512 120.318 15.808 120.03 16.192C119.758 16.56 119.558 17 119.43 17.512ZM136.333 25.192C134.941 25.192 133.885 24.88 133.165 24.256C132.461 23.616 132.109 22.688 132.109 21.472V15.232H129.541V12.496H132.109V9.304L135.397 8.56V12.496H138.973V15.232H135.397V20.8C135.397 21.376 135.525 21.792 135.781 22.048C136.037 22.288 136.485 22.408 137.125 22.408C137.445 22.408 137.733 22.392 137.989 22.36C138.261 22.312 138.557 22.232 138.877 22.12V24.832C138.541 24.944 138.117 25.032 137.605 25.096C137.109 25.16 136.685 25.192 136.333 25.192ZM140.577 25V12.496H143.865V13.888C144.265 13.344 144.745 12.928 145.305 12.64C145.865 12.352 146.497 12.208 147.201 12.208C147.809 12.224 148.265 12.32 148.569 12.496V15.376C148.329 15.264 148.065 15.184 147.777 15.136C147.489 15.072 147.193 15.04 146.889 15.04C146.249 15.04 145.665 15.2 145.137 15.52C144.609 15.84 144.185 16.296 143.865 16.888V25H140.577ZM150.374 25V12.496H153.662V25H150.374ZM152.006 11.008C151.494 11.008 151.054 10.824 150.686 10.456C150.318 10.088 150.134 9.648 150.134 9.136C150.134 8.608 150.318 8.168 150.686 7.816C151.054 7.448 151.494 7.264 152.006 7.264C152.534 7.264 152.974 7.448 153.326 7.816C153.694 8.168 153.878 8.608 153.878 9.136C153.878 9.648 153.694 10.088 153.326 10.456C152.974 10.824 152.534 11.008 152.006 11.008ZM162.21 25.24C160.978 25.24 159.866 24.96 158.874 24.4C157.882 23.824 157.098 23.048 156.521 22.072C155.946 21.08 155.658 19.976 155.658 18.76C155.658 17.528 155.946 16.424 156.521 15.448C157.098 14.472 157.882 13.696 158.874 13.12C159.866 12.544 160.978 12.256 162.21 12.256C163.202 12.256 164.146 12.448 165.042 12.832C165.954 13.216 166.738 13.768 167.394 14.488L165.378 16.624C164.914 16.112 164.426 15.736 163.914 15.496C163.418 15.24 162.874 15.112 162.282 15.112C161.642 15.112 161.066 15.272 160.554 15.592C160.058 15.912 159.658 16.344 159.354 16.888C159.066 17.432 158.922 18.056 158.922 18.76C158.922 19.432 159.066 20.048 159.354 20.608C159.658 21.152 160.074 21.584 160.602 21.904C161.13 22.208 161.714 22.36 162.354 22.36C162.914 22.36 163.434 22.248 163.914 22.024C164.41 21.784 164.882 21.432 165.33 20.968L167.298 23.032C166.658 23.72 165.89 24.264 164.994 24.664C164.098 25.048 163.17 25.24 162.21 25.24ZM173.804 25.24C172.652 25.24 171.588 25.096 170.612 24.808C169.636 24.504 168.788 24.072 168.068 23.512L169.7 21.328C170.42 21.808 171.108 22.168 171.764 22.408C172.436 22.648 173.1 22.768 173.756 22.768C174.492 22.768 175.076 22.648 175.508 22.408C175.956 22.152 176.18 21.824 176.18 21.424C176.18 21.104 176.052 20.848 175.796 20.656C175.556 20.464 175.164 20.328 174.62 20.248L172.22 19.888C170.972 19.696 170.028 19.296 169.388 18.688C168.748 18.064 168.428 17.248 168.428 16.24C168.428 15.424 168.636 14.728 169.052 14.152C169.484 13.56 170.084 13.104 170.852 12.784C171.636 12.448 172.564 12.28 173.636 12.28C174.548 12.28 175.436 12.408 176.3 12.664C177.18 12.92 178.004 13.312 178.772 13.84L177.188 15.976C176.5 15.544 175.844 15.232 175.22 15.04C174.596 14.848 173.964 14.752 173.324 14.752C172.732 14.752 172.252 14.864 171.884 15.088C171.532 15.312 171.356 15.608 171.356 15.976C171.356 16.312 171.484 16.576 171.74 16.768C171.996 16.96 172.436 17.096 173.06 17.176L175.436 17.536C176.684 17.712 177.636 18.112 178.292 18.736C178.948 19.344 179.276 20.136 179.276 21.112C179.276 21.912 179.036 22.624 178.556 23.248C178.076 23.856 177.428 24.344 176.612 24.712C175.796 25.064 174.86 25.24 173.804 25.24Z" fill="white"/>
</svg>
