<svg width="46" height="47" viewBox="0 0 46 47" fill="none" xmlns="http://www.w3.org/2000/svg">
<circle cx="23" cy="23.5" r="23" fill="white"/>
<g clip-path="url(#clip0_20092_8853)">
<path fill-rule="evenodd" clip-rule="evenodd" d="M15.0205 18.8899L14.7584 17.262C14.6898 16.8367 14.8071 16.4025 15.081 16.0699C15.0822 16.0682 15.0836 16.0668 15.0848 16.0653C15.4246 15.6624 15.7981 15.2889 16.2027 14.951L16.2054 14.9488C16.5373 14.6755 16.971 14.5579 17.3938 14.626C17.8686 14.7009 18.6186 14.8212 19.0239 14.8864L19.9897 13.5499C20.2419 13.2007 20.6319 12.9768 21.0608 12.935C21.0627 12.935 21.0646 12.9348 21.0668 12.9345C21.5919 12.8899 22.1202 12.8899 22.645 12.9372L22.6484 12.9374C23.0766 12.9789 23.4661 13.2024 23.7171 13.5496C24.0001 13.9382 24.445 14.5536 24.6858 14.8864L26.3137 14.6241C26.739 14.5557 27.1731 14.6731 27.5058 14.9469C27.5072 14.9481 27.5086 14.9493 27.5103 14.9508C27.9133 15.2906 28.2867 15.664 28.6246 16.0687L28.6268 16.0713C28.9002 16.4032 29.0175 16.8369 28.9494 17.2596C28.8747 17.7345 28.7542 18.4843 28.6892 18.8899L30.0258 19.8556C30.375 20.1079 30.5989 20.4979 30.6404 20.9268C30.6406 20.9287 30.6409 20.9306 30.6409 20.9325C30.6858 21.4579 30.6855 21.9861 30.6382 22.511L30.638 22.5144C30.5967 22.9404 30.3754 23.328 30.0298 23.58C29.8978 23.6784 29.7414 23.7914 29.5878 23.9023C28.9909 24.3336 28.1691 24.268 27.6483 23.7472L26.709 22.8076C26.6 22.6987 26.545 22.5432 26.5671 22.3848C26.767 20.9558 26.3182 19.4532 25.2205 18.3552C23.3629 16.4976 20.3468 16.4976 18.4892 18.3552C16.6318 20.2128 16.6318 23.2288 18.4892 25.0862C19.5872 26.1842 21.0901 26.633 22.519 26.4331C22.6774 26.411 22.833 26.4657 22.9419 26.5747L24.4837 28.1167C24.6572 28.2902 24.6793 28.564 24.5355 28.763L23.72 29.8915C23.4678 30.2407 23.0775 30.4646 22.6489 30.5064C22.647 30.5066 22.6448 30.5066 22.6429 30.5068C22.1178 30.5515 21.5895 30.5515 21.0644 30.5042L21.061 30.504C20.6331 30.4624 20.2434 30.239 19.9926 29.8917C19.7096 29.5032 19.2646 28.8878 19.0239 28.5552L17.396 28.8172C16.9707 28.8859 16.5366 28.7683 16.2039 28.4947C16.2025 28.4932 16.2008 28.492 16.1994 28.4908C15.7964 28.151 15.423 27.7773 15.085 27.3729L15.0829 27.3703C14.8095 27.0381 14.6922 26.6047 14.7601 26.1818C14.835 25.7068 14.9552 24.9571 15.0205 24.5517L13.6839 23.5857C13.3347 23.3337 13.1108 22.9435 13.0693 22.5148C13.069 22.5127 13.0688 22.5108 13.0686 22.5088C13.0239 21.9835 13.0239 21.4555 13.0712 20.9304L13.0717 20.927C13.113 20.4988 13.3366 20.1093 13.6837 19.8585C14.0722 19.5756 14.6876 19.1304 15.0205 18.8899ZM25.4122 28.3382C23.8714 26.7972 22.5572 25.4829 22.5574 25.4829C21.3589 25.7056 20.0744 25.3536 19.1482 24.4272C18.1474 23.4264 17.817 22.0075 18.1575 20.7307C18.2034 20.5579 18.3382 20.423 18.5108 20.3764C18.6834 20.3301 18.8677 20.3796 18.9942 20.5058L20.619 22.1306C20.7126 22.2244 20.8398 22.277 20.9725 22.277C21.105 22.2772 21.2322 22.2244 21.326 22.1306L22.2646 21.192C22.3585 21.0981 22.4113 20.9709 22.4113 20.8384C22.4113 20.7057 22.3585 20.5785 22.2646 20.4847L20.6398 18.8601C20.5136 18.7336 20.4642 18.5493 20.5107 18.3768C20.557 18.2042 20.6919 18.0693 20.8647 18.0232C22.1415 17.6829 23.5606 18.0134 24.5614 19.0142C25.4876 19.9404 25.8397 21.2248 25.6172 22.4232L28.4722 25.2782L25.4122 28.3382ZM29.1795 25.9852L33.2953 30.1012C33.5766 30.3825 33.7347 30.7639 33.7347 31.1618C33.7347 31.5597 33.5766 31.9411 33.2953 32.2224L32.3566 33.1612C32.0751 33.4425 31.6938 33.6004 31.2958 33.6004C30.8982 33.6004 30.5166 33.4425 30.2353 33.1612C30.2353 33.1612 28.1266 31.0526 26.1195 29.0455L29.1795 25.9852Z" fill="#54616B"/>
</g>
<defs>
<clipPath id="clip0_20092_8853">
<rect width="24" height="24" fill="white" transform="translate(11.3853 11.3379)"/>
</clipPath>
</defs>
</svg>
