<svg width="20" height="20" viewBox="0 0 20 20" fill="none" xmlns="http://www.w3.org/2000/svg">
<path d="M3.33341 16.6668C2.87508 16.6668 2.48272 16.5036 2.15633 16.1772C1.82994 15.8509 1.66675 15.4585 1.66675 15.0002V5.00016C1.66675 4.54183 1.82994 4.14947 2.15633 3.82308C2.48272 3.49669 2.87508 3.3335 3.33341 3.3335H16.6667C17.1251 3.3335 17.5174 3.49669 17.8438 3.82308C18.1702 4.14947 18.3334 4.54183 18.3334 5.00016V9.16683H16.6667V5.00016H10.8334V9.16683H9.16675V5.00016H3.33341V15.0002H9.16675V16.6668H3.33341ZM12.9167 18.3335C12.5695 18.3335 12.2744 18.212 12.0313 17.9689C11.7883 17.7259 11.6667 17.4307 11.6667 17.0835V14.7918H13.3334V16.6668H16.6667V14.7918H18.3334V17.0835C18.3334 17.4307 18.2119 17.7259 17.9688 17.9689C17.7258 18.212 17.4306 18.3335 17.0834 18.3335H12.9167ZM12.1459 15.0002C11.757 15.0002 11.4445 14.8474 11.2084 14.5418C10.9723 14.2363 10.889 13.8891 10.9584 13.5002L11.2917 11.8335C11.3612 11.5418 11.507 11.3022 11.7292 11.1147C11.9515 10.9272 12.2084 10.8335 12.5001 10.8335H17.5001C17.7917 10.8335 18.0487 10.9272 18.2709 11.1147C18.4931 11.3022 18.639 11.5418 18.7084 11.8335L19.0417 13.5002C19.1112 13.8891 19.0279 14.2363 18.7917 14.5418C18.5556 14.8474 18.2431 15.0002 17.8542 15.0002H12.1459ZM12.6876 13.3335H17.3126L17.1459 12.5002H12.8542L12.6876 13.3335ZM4.16675 13.3335H8.33342V11.6668H4.16675V13.3335ZM4.16675 10.8335H8.33342V9.16683H4.16675V10.8335ZM4.16675 8.3335H8.33342V6.66683H4.16675V8.3335ZM11.6667 8.3335V6.66683H15.8334V8.3335H11.6667Z" fill="white"/>
</svg>
