<svg width="42" height="42" viewBox="0 0 42 42" fill="none" xmlns="http://www.w3.org/2000/svg">
<circle cx="21" cy="21" r="21" fill="#30D287"/>
<g clip-path="url(#clip0_22021_34231)">
<path d="M30.549 25.4696V26.5927C30.549 26.6977 30.4635 26.7837 30.358 26.7837H24.776C24.6709 26.7837 24.585 26.6981 24.585 26.5927V25.4696C24.585 25.3645 24.6705 25.2786 24.776 25.2786H30.358C30.4635 25.2786 30.549 25.3645 30.549 25.4696ZM30.549 28.7009C30.549 28.8059 30.4635 28.8919 30.358 28.8919H24.776C24.6709 28.8919 24.585 28.8063 24.585 28.7009V27.5778C24.585 27.4727 24.6705 27.3868 24.776 27.3868H30.358C30.4631 27.3868 30.549 27.4723 30.549 27.5778V28.7009ZM18.0178 22.3759V21.2528C18.0178 21.1477 18.1033 21.0618 18.2088 21.0618H23.7908C23.8959 21.0618 23.9818 21.1473 23.9818 21.2528V22.3759C23.9818 22.4809 23.8963 22.5669 23.7908 22.5669H18.2088C18.1037 22.5669 18.0178 22.4813 18.0178 22.3759ZM25.1525 24.6751H24.776C24.6982 24.6751 24.6236 24.6868 24.5525 24.7075C24.5732 24.6364 24.585 24.5618 24.585 24.4841V24.1075L25.1525 24.6751ZM18.0178 23.3614C18.0178 23.2563 18.1033 23.1704 18.2088 23.1704H23.7908C23.8959 23.1704 23.9818 23.2559 23.9818 23.3614V24.4844C23.9818 24.5895 23.8963 24.6755 23.7908 24.6755H18.2088C18.1037 24.6755 18.0178 24.5899 18.0178 24.4844V23.3614ZM18.0178 25.4696C18.0178 25.3645 18.1033 25.2786 18.2088 25.2786H23.7908C23.8959 25.2786 23.9818 25.3641 23.9818 25.4696V26.5927C23.9818 26.6977 23.8963 26.7837 23.7908 26.7837H18.2088C18.1037 26.7837 18.0178 26.6981 18.0178 26.5927V25.4696ZM18.0178 28.7009V27.5778C18.0178 27.4727 18.1033 27.3868 18.2088 27.3868H23.7908C23.8959 27.3868 23.9818 27.4723 23.9818 27.5778V28.7009C23.9818 28.8059 23.8963 28.8919 23.7908 28.8919H18.2088C18.1037 28.8919 18.0178 28.8063 18.0178 28.7009ZM29.4865 20.104C29.4865 21.7235 29.042 23.302 28.2002 24.6755H26.0064L24.576 23.245C24.5553 23.1044 24.4979 22.9759 24.4131 22.8692C24.5205 22.7337 24.5854 22.5626 24.5854 22.3766V21.2536C24.5854 21.0677 24.5205 20.8966 24.4131 20.761L29.4752 19.663C29.4826 19.8102 29.4865 19.9579 29.4865 20.104ZM30.0893 18.9114L23.1885 20.4083C23.1467 20.4173 23.1088 20.4348 23.076 20.4583H22.2029V20.2942V12.554C25.94 12.6856 29.1697 15.2887 30.0893 18.9114ZM11.8979 21.0606C11.8635 15.6247 16.0885 11.2055 21.5158 11.0001C21.5436 10.9989 21.5619 11.0118 21.5732 11.0223C21.583 11.0317 21.599 11.052 21.599 11.0833V12.493V20.295V20.4591H18.2084C17.7701 20.4591 17.4139 20.8153 17.4139 21.2536V22.3766C17.4139 22.5626 17.4787 22.7337 17.5861 22.8692C17.4787 23.0048 17.4139 23.1759 17.4139 23.3618V24.4848C17.4139 24.6708 17.4787 24.8419 17.5861 24.9774C17.4787 25.113 17.4139 25.2841 17.4139 25.47V26.593C17.4139 26.6708 17.4256 26.7454 17.4463 26.8165C17.3752 26.7958 17.3006 26.7841 17.2229 26.7841H13.7271C12.5428 25.1098 11.9107 23.1348 11.8979 21.0606ZM11.4506 27.5778C11.4506 27.4727 11.5361 27.3868 11.6416 27.3868H13.5713H13.5725H13.5732H17.2236C17.3287 27.3868 17.4146 27.4723 17.4146 27.5778V28.7009C17.4146 28.8059 17.3291 28.8919 17.2236 28.8919H11.6412C11.5361 28.8919 11.4502 28.8063 11.4502 28.7009V27.5778H11.4506ZM17.2232 31.0001H11.6412C11.5361 31.0001 11.4502 30.9145 11.4502 30.8091V29.686C11.4502 29.5809 11.5357 29.495 11.6412 29.495H17.2232C17.3283 29.495 17.4143 29.5805 17.4143 29.686V30.8091C17.4143 30.9145 17.3287 31.0001 17.2232 31.0001ZM23.7908 31.0001H18.2088C18.1037 31.0001 18.0178 30.9145 18.0178 30.8091V29.686C18.0178 29.5809 18.1033 29.495 18.2088 29.495H23.7908C23.8959 29.495 23.9818 29.5805 23.9818 29.686V30.8091C23.9818 30.9145 23.8959 31.0001 23.7908 31.0001ZM30.549 30.8091C30.549 30.9141 30.4635 31.0001 30.358 31.0001H24.776C24.6709 31.0001 24.585 30.9145 24.585 30.8091V29.686C24.585 29.5809 24.6705 29.495 24.776 29.495H30.358C30.4631 29.495 30.549 29.5805 30.549 29.686V30.8091Z" fill="white"/>
</g>
<defs>
<clipPath id="clip0_22021_34231">
<rect width="20" height="20" fill="white" transform="translate(11 11)"/>
</clipPath>
</defs>
</svg>
