<svg width="42" height="42" viewBox="0 0 42 42" fill="none" xmlns="http://www.w3.org/2000/svg">
<circle cx="21" cy="21" r="21" fill="#30D287"/>
<path d="M20.4584 12.405C20.5238 12.1711 20.7558 11.9919 21.0004 12.0003C21.2251 11.9929 21.4389 12.1431 21.5218 12.3494C21.5948 12.5358 21.5517 12.7399 21.5634 12.9345C23.4617 13.0576 25.303 13.8883 26.6553 15.2257C27.3268 15.8798 27.8805 16.6536 28.2886 17.4975C28.7308 18.4163 28.9968 19.4193 29.0668 20.4366C29.2364 20.444 29.4091 20.4196 29.5766 20.4533C29.8188 20.5125 30.0076 20.7488 30.0004 21.0001C30.0105 21.285 29.7659 21.5466 29.4824 21.5619C29.3444 21.567 29.2062 21.5622 29.0682 21.5643C28.9697 23.0721 28.4318 24.5475 27.5429 25.7689C26.6986 26.9324 25.5347 27.8596 24.2143 28.4275C23.3755 28.788 22.4756 29.0109 21.5642 29.0686C21.551 29.273 21.5991 29.4908 21.5083 29.6829C21.4163 29.8724 21.2132 30.008 20.9997 30.0006C20.7215 30.0092 20.4637 29.7768 20.439 29.5003C20.4321 29.3568 20.4388 29.2131 20.4364 29.0698C19.3525 28.9979 18.2844 28.7003 17.3164 28.2073C16.5586 27.822 15.8638 27.3143 15.2622 26.7141C14.5999 26.0471 14.0534 25.2651 13.6595 24.4114C13.2486 23.5168 12.9942 22.5476 12.9314 21.5643C12.734 21.5514 12.526 21.5976 12.3384 21.5181C12.1381 21.4309 11.9912 21.2217 11.9999 21.0001C11.9889 20.714 12.2371 20.4529 12.5207 20.438C12.6578 20.4351 12.7951 20.438 12.9324 20.437C13.0308 18.9933 13.5273 17.5787 14.3572 16.3927C15.0326 15.4193 15.9249 14.597 16.9499 14.0023C18.0096 13.3851 19.213 13.0171 20.4366 12.9333C20.446 12.7576 20.4144 12.5772 20.4584 12.405ZM19.3053 14.2474C17.8979 14.5979 16.6087 15.4054 15.6779 16.5176C14.747 17.6123 14.1727 19.004 14.0606 20.4366C14.1847 20.439 14.3088 20.4335 14.4329 20.4394C14.702 20.4624 14.933 20.704 14.9344 20.9757C14.9512 21.2042 14.8086 21.4333 14.5959 21.5181C14.4267 21.5948 14.2372 21.5528 14.0582 21.5643C14.1572 22.8392 14.6208 24.0834 15.376 25.1151C15.9388 25.8827 16.6592 26.5347 17.482 27.0139C18.3807 27.5378 19.398 27.8642 20.4364 27.9411C20.4362 27.8395 20.4364 27.7381 20.4359 27.637C20.4287 27.4248 20.5562 27.2166 20.7462 27.1226C20.9942 26.9942 21.3334 27.0814 21.476 27.3258C21.6001 27.5077 21.5555 27.7348 21.5637 27.9413C23.1668 27.8198 24.7194 27.1135 25.8656 25.986C27.0645 24.8297 27.8134 23.2235 27.9414 21.5639C27.7617 21.5552 27.5719 21.5928 27.4021 21.5171C27.2001 21.4328 27.0559 21.2212 27.0652 21.0003C27.0551 20.7797 27.2013 20.5688 27.4016 20.4833C27.5698 20.4049 27.7598 20.4478 27.9383 20.4366C27.8341 19.0826 27.3134 17.7666 26.4727 16.7011C25.9346 16.0159 25.2668 15.4332 24.515 14.993C23.6189 14.464 22.6011 14.1442 21.5639 14.061C21.5522 14.239 21.5943 14.4276 21.5184 14.596C21.4355 14.7999 21.2201 14.942 20.9999 14.935C20.785 14.9418 20.573 14.8066 20.4879 14.6092C20.4036 14.4384 20.4477 14.2433 20.4362 14.0608C20.0547 14.0905 19.6764 14.1547 19.3053 14.2474Z" fill="white"/>
<path d="M20.6711 15.7269C21.5748 15.6708 22.4929 15.8493 23.3066 16.2482C24.0644 16.616 24.7309 17.1692 25.2341 17.8449C25.8139 18.6192 26.1755 19.5556 26.2595 20.5197C26.335 21.3348 26.2169 22.1674 25.9179 22.9295C25.5724 23.8162 24.9813 24.6057 24.2273 25.1862C23.4453 25.7924 22.4886 26.1714 21.5029 26.2605C20.5424 26.353 19.5553 26.1803 18.6879 25.755C17.8947 25.37 17.2015 24.7815 16.6936 24.0609C16.1257 23.2637 15.7858 22.3056 15.7287 21.3283C15.678 20.5523 15.8042 19.765 16.0934 19.0428C16.5043 18.0143 17.247 17.1213 18.1853 16.5326C18.9278 16.0587 19.7925 15.7815 20.6711 15.7269ZM22.8803 18.6463C21.3625 19.1938 19.8459 19.7446 18.3283 20.2928C18.2339 20.3273 18.1304 20.3556 18.0605 20.4327C17.9177 20.5779 17.928 20.8407 18.0799 20.9756C18.1417 21.0331 18.2243 21.0626 18.307 21.0727C18.997 21.1476 19.6868 21.2238 20.3764 21.3012C20.5429 21.319 20.6818 21.463 20.6977 21.629C20.7707 22.2675 20.8381 22.907 20.9116 23.5455C20.9229 23.6598 20.9243 23.7841 20.9933 23.8816C21.1184 24.0697 21.4286 24.1001 21.5793 23.9279C21.6572 23.8483 21.68 23.7357 21.7198 23.6358C22.2584 22.1467 22.7967 20.6577 23.3365 19.1691C23.372 19.074 23.3813 18.9647 23.3435 18.8691C23.2711 18.6928 23.0648 18.5862 22.8803 18.6463Z" fill="white"/>
</svg>
