<svg width="20" height="20" viewBox="0 0 20 20" fill="none" xmlns="http://www.w3.org/2000/svg">
<g clip-path="url(#clip0_22001_3955)">
<path fill-rule="evenodd" clip-rule="evenodd" d="M19.309 14.458L18.6371 14.1995C18.6248 14.1947 18.6163 14.185 18.6132 14.1722C18.5235 13.8043 18.3775 13.4526 18.1807 13.1291C18.1738 13.1177 18.173 13.1049 18.1784 13.0928L18.4708 12.4345C18.4775 12.4194 18.4744 12.4026 18.4627 12.3909L17.6734 11.6017C17.6617 11.59 17.6449 11.5869 17.6299 11.5936L16.9713 11.8861C16.9592 11.8914 16.9464 11.8906 16.9351 11.8837C16.6117 11.687 16.2601 11.5411 15.8923 11.4514C15.8794 11.4482 15.8698 11.4397 15.865 11.4274L15.6064 10.7554C15.6004 10.74 15.5863 10.7303 15.5698 10.7303H14.4537C14.4371 10.7303 14.4231 10.74 14.4171 10.7554L14.1585 11.4274C14.1537 11.4397 14.1441 11.4482 14.1312 11.4514C13.7634 11.5411 13.4118 11.687 13.0883 11.8837C13.077 11.8906 13.0642 11.8914 13.0521 11.8861L12.3935 11.5936C12.3784 11.5869 12.3616 11.59 12.35 11.6017L11.5607 12.3909C11.549 12.4026 11.5459 12.4194 11.5526 12.4345L11.8451 13.093C11.8504 13.1051 11.8496 13.1179 11.8427 13.1293C11.646 13.4527 11.5001 13.8044 11.4104 14.1722C11.4073 14.185 11.3987 14.1947 11.3864 14.1995L10.7145 14.4581C10.6991 14.464 10.6894 14.4781 10.6894 14.4946V15.6108C10.6894 15.6273 10.6991 15.6414 10.7145 15.6473L11.3863 15.9059C11.3986 15.9107 11.4071 15.9203 11.4103 15.9332C11.5 16.301 11.6459 16.6528 11.8427 16.9762C11.8496 16.9875 11.8504 17.0004 11.845 17.0125L11.5526 17.6708C11.546 17.6859 11.5491 17.7027 11.5607 17.7144L12.35 18.5037C12.3617 18.5154 12.3785 18.5185 12.3936 18.5118L13.0521 18.2193C13.0642 18.2139 13.0771 18.2147 13.0884 18.2216C13.4118 18.4183 13.7634 18.5643 14.1312 18.6539C14.1441 18.6571 14.1537 18.6656 14.1585 18.6779L14.4172 19.3499C14.4231 19.3654 14.4372 19.375 14.4537 19.375H15.5699C15.5864 19.375 15.6005 19.3653 15.6064 19.3499L15.865 18.6781C15.8698 18.6657 15.8794 18.6572 15.8923 18.6541C16.2601 18.5644 16.6119 18.4184 16.9354 18.2217C16.9467 18.2148 16.9596 18.2139 16.9717 18.2193L17.63 18.5117C17.6451 18.5184 17.6619 18.5153 17.6736 18.5036L18.4628 17.7144C18.4745 17.7027 18.4776 17.6859 18.4709 17.6708L18.1785 17.0122C18.1731 17.0001 18.1739 16.9873 18.1808 16.976C18.3775 16.6525 18.5235 16.3009 18.6131 15.9331C18.6163 15.9203 18.6248 15.9106 18.6371 15.9059L19.3091 15.6472C19.3245 15.6412 19.3342 15.6271 19.3342 15.6106V14.4945C19.3341 14.4781 19.3244 14.464 19.309 14.458ZM15.0117 17.1141C13.8731 17.1141 12.9503 16.1912 12.9503 15.0527C12.9503 13.9141 13.8731 12.9912 15.0117 12.9912C16.1503 12.9912 17.0732 13.9141 17.0732 15.0527C17.0732 16.1912 16.1503 17.1141 15.0117 17.1141ZM8.21702 5.17469C6.57972 5.17469 5.25237 6.50199 5.25237 8.13934C5.25237 9.77664 6.57968 11.104 8.21702 11.104C9.85436 11.104 11.1817 9.77668 11.1817 8.13934C11.1817 6.50199 9.85436 5.17469 8.21702 5.17469ZM9.93858 7.61293L8.14515 9.40637C7.88585 9.6657 7.53897 9.56027 7.30901 9.33031L6.49554 8.51684C6.2921 8.31344 6.29214 7.98059 6.49554 7.77719C6.69893 7.57379 7.03179 7.57375 7.23519 7.77719L7.76511 8.30711L9.19893 6.87328C9.40233 6.66988 9.73518 6.66988 9.93858 6.87328C10.142 7.07668 10.142 7.40953 9.93858 7.61293ZM14.5318 6.67914C14.373 6.01152 14.1083 5.37383 13.7485 4.78957L14.2935 3.56238L12.8467 2.11563L11.6192 2.66082C11.035 2.30113 10.3975 2.03652 9.73015 1.87766L9.24796 0.625H7.20194L6.71972 1.87766C6.05233 2.03648 5.41483 2.30109 4.83065 2.66082L3.60315 2.11566L2.15636 3.56246L2.70151 4.78988C2.34175 5.37406 2.07714 6.0116 1.91831 6.6791L0.665771 7.16125V9.20727L1.91815 9.68934C2.07702 10.3569 2.34159 10.9946 2.70147 11.5789L2.15644 12.8061L3.60323 14.2528L4.83081 13.7076C5.41499 14.0673 6.05245 14.3319 6.71987 14.4907L7.20206 15.7434H9.24808L9.73011 14.4911C9.84476 14.4638 9.95847 14.4334 10.0712 14.3999C10.105 14.1643 10.2632 13.962 10.49 13.8748L10.889 13.7212C10.9603 13.5004 11.0493 13.2857 11.1551 13.0792L10.9815 12.6882C10.8704 12.438 10.9253 12.1425 11.1189 11.9489L11.9081 11.1597C12.1016 10.9661 12.3971 10.9113 12.6473 11.0223L13.0384 11.196C13.2448 11.0902 13.4596 11.0012 13.6803 10.9298L13.8339 10.5308C13.9283 10.2855 14.1573 10.1204 14.4174 10.1062C14.4601 9.96875 14.4982 9.82969 14.5316 9.68934L15.7843 9.20715V7.16113L14.5318 6.67914ZM8.22495 12.7613C5.6971 12.7613 3.64788 10.7121 3.64788 8.18418C3.64788 5.65633 5.6971 3.60711 8.22495 3.60711C10.7528 3.60711 12.802 5.65633 12.802 8.18418C12.802 10.7121 10.7528 12.7613 8.22495 12.7613Z" fill="white"/>
</g>
<defs>
<clipPath id="clip0_22001_3955">
<rect width="20" height="20" fill="white"/>
</clipPath>
</defs>
</svg>
