<svg width="42" height="42" viewBox="0 0 42 42" fill="none" xmlns="http://www.w3.org/2000/svg">
<circle cx="21" cy="21" r="21" fill="#FF5050"/>
<path fill-rule="evenodd" clip-rule="evenodd" d="M24.4886 27.8752V24.4211C24.4886 23.9324 24.0912 23.532 23.6006 23.532H13.7458C13.4689 22.737 13.3183 21.8828 13.3183 20.9936C13.3183 16.7354 16.7641 13.2818 21.0172 13.2818V20.9936H28.716C28.716 23.9986 26.997 26.604 24.4886 27.8752ZM22.2936 19.7156V12C26.5505 12 30 15.4536 30 19.7156H22.2936ZM26.4238 14.4215L23.5747 18.392C23.4781 18.5266 23.5088 18.7145 23.6433 18.8112C23.7777 18.9079 23.9654 18.8771 24.062 18.7425L26.9111 14.7719C27.0077 14.6373 26.9769 14.4495 26.8425 14.3528C26.708 14.256 26.5204 14.2868 26.4238 14.4215ZM26.3856 17.2874C26.0103 17.2874 25.7057 17.5923 25.7057 17.9681C25.7057 18.3439 26.0103 18.6488 26.3856 18.6488C26.7609 18.6488 27.0655 18.3439 27.0655 17.9681C27.0655 17.7862 26.9947 17.6151 26.8665 17.4867C26.7383 17.3583 26.5673 17.2874 26.3856 17.2874ZM24.0748 14.5164C23.6994 14.5164 23.3949 14.8213 23.3949 15.1971C23.3949 15.5743 23.6994 15.8779 24.0748 15.8779C24.4515 15.8779 24.7547 15.573 24.7547 15.1971C24.7547 15.0166 24.6839 14.8441 24.5556 14.7157C24.4274 14.5873 24.2564 14.5164 24.0748 14.5164ZM12 29.7117V24.4211C12 24.2626 12.1297 24.1327 12.288 24.1327H23.6006C23.7597 24.1327 23.8886 24.2626 23.8886 24.4211V29.7117C23.8886 29.8709 23.7597 30 23.6006 30H12.288C12.1297 30 12 29.8709 12 29.7117ZM22.2104 29.2859C22.3761 29.2859 22.5104 29.1514 22.5104 28.9855C22.5104 28.7597 22.6856 28.5736 22.9055 28.5736C23.0712 28.5736 23.2055 28.4391 23.2055 28.2732V25.8603C23.2055 25.6944 23.0712 25.5599 22.9055 25.5599C22.6856 25.5599 22.5104 25.3733 22.5104 25.148C22.5104 24.9821 22.3761 24.8477 22.2104 24.8477H13.6782C13.5125 24.8477 13.3782 24.9821 13.3782 25.148C13.3782 25.3733 13.2035 25.5599 12.9831 25.5599C12.8174 25.5599 12.6831 25.6944 12.6831 25.8603V28.2732C12.6831 28.4391 12.8174 28.5736 12.9831 28.5736C13.2035 28.5736 13.3782 28.7597 13.3782 28.9855C13.3782 29.1514 13.5125 29.2859 13.6782 29.2859H22.2104ZM21.9549 28.6851H13.9338C13.8375 28.3683 13.5927 28.119 13.2831 28.0197V26.1138C13.5926 26.0142 13.8373 25.7647 13.9337 25.4484C13.9337 25.4484 21.955 25.4484 21.955 25.4484C22.0515 25.7646 22.2965 26.014 22.6055 26.1136C22.6055 26.1136 22.6055 28.0198 22.6055 28.0198C22.2963 28.1193 22.0513 28.3684 21.9549 28.6851ZM17.6443 25.939C17.6334 25.9427 17.6227 25.9467 17.612 25.9509C17.3213 26.0654 17.1149 26.3189 17.1315 26.6606V26.6611C17.1532 27.0972 17.5308 27.2965 17.8974 27.3566L17.8979 27.3567C17.971 27.3686 18.0494 27.3848 18.1182 27.4161C18.1638 27.4368 18.209 27.4631 18.2159 27.5207L18.216 27.5213C18.2212 27.5642 18.1862 27.5851 18.1533 27.6013C18.0945 27.6301 18.0246 27.643 17.9606 27.6446C17.8337 27.6477 17.6951 27.6046 17.6627 27.4744C17.6226 27.3135 17.4597 27.2155 17.299 27.2556C17.1384 27.2957 17.0405 27.4588 17.0805 27.6197C17.1546 27.9174 17.3758 28.1154 17.6443 28.1995C17.6451 28.3646 17.7792 28.4984 17.9443 28.4984C18.1079 28.4984 18.2411 28.367 18.2442 28.2039C18.5766 28.1089 18.8605 27.8521 18.8116 27.4489C18.7587 27.0079 18.3646 26.8239 17.994 26.7637C17.929 26.7531 17.8593 26.7376 17.7993 26.7083C17.7668 26.6923 17.733 26.6735 17.7308 26.6314C17.7278 26.5685 17.7781 26.531 17.8316 26.51C17.9551 26.4613 18.1295 26.4862 18.1939 26.6398C18.258 26.7927 18.434 26.8647 18.5867 26.8005C18.7393 26.7363 18.8112 26.5601 18.7471 26.4073C18.6438 26.1608 18.4557 26.0076 18.2443 25.936V25.9354C18.2443 25.7697 18.1099 25.6351 17.9443 25.6351C17.7787 25.6351 17.6443 25.7697 17.6443 25.9354V25.939ZM21.3301 26.7664H20.2825C20.117 26.7664 19.9826 26.901 19.9826 27.0668C19.9826 27.2325 20.117 27.3671 20.2825 27.3671H21.3301C21.4957 27.3671 21.6301 27.2325 21.6301 27.0668C21.6301 26.901 21.4957 26.7664 21.3301 26.7664ZM15.6061 26.7664H14.5585C14.393 26.7664 14.2585 26.901 14.2585 27.0668C14.2585 27.2325 14.393 27.3671 14.5585 27.3671H15.6061C15.7716 27.3671 15.9061 27.2325 15.9061 27.0668C15.9061 26.901 15.7716 26.7664 15.6061 26.7664Z" fill="white"/>
</svg>
