<svg width="46" height="47" viewBox="0 0 46 47" fill="none" xmlns="http://www.w3.org/2000/svg">
<circle cx="23" cy="23.5" r="23" fill="white"/>
<path d="M23 14C21.0222 14 19.0888 14.5865 17.4443 15.6853C15.7998 16.7841 14.5181 18.3459 13.7612 20.1732C13.0043 22.0004 12.8063 24.0111 13.1922 25.9509C13.578 27.8907 14.5304 29.6725 15.9289 31.0711C17.3275 32.4696 19.1093 33.422 21.0491 33.8079C22.9889 34.1937 24.9996 33.9957 26.8268 33.2388C28.6541 32.4819 30.2159 31.2002 31.3147 29.5557C32.4135 27.9112 33 25.9778 33 24C33 22.6868 32.7413 21.3864 32.2388 20.1732C31.7363 18.9599 30.9997 17.8575 30.0711 16.9289C29.1425 16.0003 28.0401 15.2638 26.8268 14.7612C25.6136 14.2587 24.3132 14 23 14ZM25.2 27.869C24.8008 28.2667 24.2831 28.524 23.725 28.602V29C23.725 29.1989 23.646 29.3897 23.5053 29.5303C23.3647 29.671 23.1739 29.75 22.975 29.75C22.7761 29.75 22.5853 29.671 22.4447 29.5303C22.304 29.3897 22.225 29.1989 22.225 29V28.6C21.6606 28.5086 21.1416 28.235 20.7472 27.821C20.3528 27.4069 20.1048 26.8752 20.041 26.307C20.0268 26.2076 20.0328 26.1064 20.0585 26.0094C20.0841 25.9123 20.129 25.8214 20.1905 25.7421C20.2519 25.6627 20.3287 25.5965 20.4162 25.5473C20.5037 25.4982 20.6002 25.4671 20.7 25.4559C20.7997 25.4447 20.9007 25.4537 20.9969 25.4822C21.0932 25.5108 21.1827 25.5584 21.2602 25.6222C21.3377 25.686 21.4016 25.7647 21.4481 25.8536C21.4946 25.9426 21.5228 26.04 21.531 26.14C21.5617 26.4147 21.6924 26.6684 21.8983 26.8528C22.1041 27.0373 22.3706 27.1395 22.647 27.14H23.347C23.6207 27.1395 23.8848 27.039 24.0897 26.8574C24.2945 26.6759 24.426 26.4257 24.4594 26.1541C24.4928 25.8824 24.4258 25.6079 24.2711 25.3821C24.1163 25.1563 23.8844 24.9948 23.619 24.928L22.011 24.528C21.4425 24.3841 20.938 24.0552 20.577 23.593C20.2967 23.2344 20.1149 22.8088 20.0495 22.3583C19.9842 21.9079 20.0375 21.4482 20.2042 21.0247C20.371 20.6012 20.6454 20.2285 21.0004 19.9436C21.3553 19.6586 21.7785 19.4713 22.228 19.4V19C22.228 18.8011 22.307 18.6103 22.4477 18.4697C22.5883 18.329 22.7791 18.25 22.978 18.25C23.1769 18.25 23.3677 18.329 23.5083 18.4697C23.649 18.6103 23.728 18.8011 23.728 19V19.4C24.3016 19.4826 24.8316 19.7532 25.2348 20.1695C25.6381 20.5857 25.8917 21.124 25.956 21.7C25.9702 21.7994 25.9642 21.9006 25.9386 21.9976C25.9129 22.0947 25.868 22.1856 25.8065 22.2649C25.7451 22.3443 25.6683 22.4105 25.5808 22.4597C25.4933 22.5088 25.3968 22.5399 25.297 22.5511C25.1973 22.5623 25.0963 22.5533 25.0001 22.5248C24.9038 22.4962 24.8143 22.4486 24.7368 22.3848C24.6593 22.321 24.5954 22.2423 24.5489 22.1534C24.5024 22.0644 24.4742 21.967 24.466 21.867C24.4353 21.5923 24.3046 21.3386 24.0987 21.1542C23.8929 20.9697 23.6264 20.8675 23.35 20.867H22.65C22.3525 20.8673 22.0673 20.9856 21.8569 21.1959C21.6466 21.4063 21.5283 21.6915 21.528 21.989C21.5262 22.2371 21.6083 22.4785 21.761 22.674C21.915 22.8748 22.1325 23.0176 22.378 23.079L23.986 23.479C24.4367 23.5912 24.8495 23.8211 25.1821 24.1452C25.5148 24.4694 25.7553 24.8761 25.8791 25.3237C26.0029 25.7713 26.0056 26.2438 25.8868 26.6928C25.768 27.1418 25.532 27.5512 25.203 27.879L25.2 27.869Z" fill="#54616B"/>
</svg>
