<svg width="46" height="46" viewBox="0 0 46 46" fill="none" xmlns="http://www.w3.org/2000/svg">
<circle cx="23" cy="23" r="23" fill="white"/>
<path fill-rule="evenodd" clip-rule="evenodd" d="M29 12.0879C31.622 12.0879 33.75 14.2159 33.75 16.8379C33.75 19.4599 31.622 21.5879 29 21.5879C26.378 21.5879 24.25 19.4599 24.25 16.8379C24.25 14.2159 26.378 12.0879 29 12.0879ZM29.754 14.0309C29.764 13.9499 29.716 13.8729 29.639 13.8469C29.562 13.8209 29.477 13.8529 29.436 13.9229L27.005 17.4379C26.974 17.4909 26.974 17.5569 27.004 17.6099C27.035 17.6629 27.092 17.6959 27.153 17.6959H28.571C28.571 17.6959 28.373 18.6289 28.246 19.6449C28.236 19.7259 28.284 19.8029 28.361 19.8289C28.438 19.8549 28.523 19.8229 28.564 19.7529L30.995 16.2379C31.026 16.1849 31.026 16.1189 30.996 16.0659C30.965 16.0129 30.908 15.9799 30.847 15.9799H29.429C29.429 15.9799 29.627 15.0469 29.754 14.0309Z" fill="#54616B"/>
<path fill-rule="evenodd" clip-rule="evenodd" d="M29.586 30.8069L27.586 33.3069C27.443 33.4839 27.228 33.5879 27 33.5879H13C12.586 33.5879 12.25 33.2519 12.25 32.8379V27.8379C12.25 27.4239 12.586 27.0879 13 27.0879H27C27.228 27.0879 27.443 27.1919 27.586 27.3689L29.586 29.8689C29.805 30.1429 29.805 30.5329 29.586 30.8069Z" fill="#54616B"/>
<path fill-rule="evenodd" clip-rule="evenodd" d="M25.586 23.8069L23.586 26.3069C23.443 26.4839 23.228 26.5879 23 26.5879H13C12.586 26.5879 12.25 26.2519 12.25 25.8379V20.8379C12.25 20.4239 12.586 20.0879 13 20.0879H23C23.228 20.0879 23.443 20.1919 23.586 20.3689L25.586 22.8689C25.805 23.1429 25.805 23.5329 25.586 23.8069Z" fill="#54616B"/>
<path fill-rule="evenodd" clip-rule="evenodd" d="M21.586 16.8069L19.586 19.3069C19.443 19.4839 19.228 19.5879 19 19.5879H13C12.586 19.5879 12.25 19.2519 12.25 18.8379V13.8379C12.25 13.4239 12.586 13.0879 13 13.0879H19C19.228 13.0879 19.443 13.1919 19.586 13.3689L21.586 15.8689C21.805 16.1429 21.805 16.5329 21.586 16.8069Z" fill="#54616B"/>
</svg>
