<svg width="42" height="42" viewBox="0 0 42 42" fill="none" xmlns="http://www.w3.org/2000/svg">
<circle cx="21" cy="21" r="21" fill="#2970CC"/>
<path d="M26.7999 13.9585C26.7999 14.2285 26.8805 14.4794 27.0185 14.689L24.0614 18.1403C23.861 18.0201 23.6274 17.9494 23.3761 17.9494C22.9754 17.9494 22.617 18.1279 22.3739 18.4079L19.9052 16.9621C19.9352 16.8501 19.9539 16.733 19.9539 16.6114C19.9539 15.8774 19.3587 15.2828 18.6241 15.2828C17.8901 15.2828 17.2952 15.8774 17.2952 16.6114C17.2952 16.733 17.3125 16.851 17.3439 16.9634L14.8743 18.4079C14.6312 18.1265 14.2723 17.9494 13.8716 17.9494C13.1381 17.9494 12.543 18.5441 12.543 19.2781C12.543 20.0121 13.1381 20.6068 13.8716 20.6068C14.6056 20.6068 15.2005 20.0121 15.2005 19.2781C15.2005 19.1565 15.1832 19.0385 15.1527 18.9265L17.6205 17.4821C17.8645 17.7621 18.2234 17.9401 18.6241 17.9401C19.0256 17.9401 19.3832 17.7634 19.6276 17.4821L22.0963 18.9265C22.065 19.0385 22.0476 19.1565 22.0476 19.2781C22.0476 20.0121 22.6423 20.6068 23.3763 20.6068C24.1112 20.6068 24.7061 20.0121 24.7061 19.2781C24.7061 19.0085 24.625 18.7585 24.4874 18.5481L27.4445 15.0968C27.6445 15.217 27.8785 15.2877 28.1299 15.2877C28.8634 15.2877 29.4585 14.6921 29.4585 13.9588C29.4585 13.2254 28.8632 12.6299 28.1296 12.6299C27.3943 12.6299 26.7999 13.225 26.7999 13.9585Z" fill="white"/>
<path d="M12.4131 23.6934C12.4131 23.1411 12.8608 22.6934 13.4131 22.6934H14.3302C14.8825 22.6934 15.3302 23.1411 15.3302 23.6934V29.3751H12.4131V23.6934Z" fill="white"/>
<path d="M17.165 21.4847C17.165 20.6793 17.818 20.0264 18.6234 20.0264C19.4288 20.0264 20.0817 20.6793 20.0817 21.4847V29.3748H17.165V21.4847Z" fill="white"/>
<path d="M21.918 24.1524C21.918 23.3466 22.5712 22.6934 23.377 22.6934C24.1828 22.6934 24.836 23.3466 24.836 24.1524V29.3751H21.918V24.1524Z" fill="white"/>
<path d="M26.6711 18.8333C26.6711 18.0279 27.3241 17.375 28.1295 17.375C28.9349 17.375 29.5878 18.0279 29.5878 18.8333V29.375H26.6711V18.8333Z" fill="white"/>
</svg>
