<svg width="42" height="42" viewBox="0 0 42 42" fill="none" xmlns="http://www.w3.org/2000/svg">
<circle cx="21" cy="21" r="21" fill="#2970CC"/>
<path d="M20.9998 12.6665C19.3517 12.6665 17.7405 13.1552 16.3701 14.0709C14.9997 14.9866 13.9316 16.2881 13.3008 17.8108C12.6701 19.3335 12.5051 21.0091 12.8266 22.6256C13.1482 24.2421 13.9418 25.727 15.1073 26.8924C16.2727 28.0578 17.7576 28.8515 19.3741 29.173C20.9906 29.4946 22.6662 29.3296 24.1889 28.6988C25.7116 28.0681 27.0131 27 27.9288 25.6296C28.8444 24.2592 29.3332 22.648 29.3332 20.9998C29.3332 19.9055 29.1176 18.8219 28.6988 17.8108C28.28 16.7998 27.6662 15.8811 26.8924 15.1073C26.1186 14.3335 25.1999 13.7196 24.1889 13.3008C23.1778 12.8821 22.0942 12.6665 20.9998 12.6665ZM22.8332 24.224C22.5005 24.5554 22.0691 24.7698 21.604 24.8348V25.1665C21.604 25.3323 21.5382 25.4912 21.4209 25.6084C21.3037 25.7257 21.1448 25.7915 20.979 25.7915C20.8132 25.7915 20.6543 25.7257 20.5371 25.6084C20.4199 25.4912 20.354 25.3323 20.354 25.1665V24.8332C19.8836 24.757 19.4511 24.529 19.1225 24.184C18.7939 23.8389 18.5872 23.3959 18.534 22.9223C18.5222 22.8395 18.5272 22.7552 18.5486 22.6743C18.5699 22.5935 18.6074 22.5177 18.6586 22.4516C18.7098 22.3854 18.7737 22.3302 18.8467 22.2893C18.9196 22.2483 19 22.2224 19.0831 22.2131C19.1663 22.2038 19.2504 22.2112 19.3306 22.235C19.4108 22.2588 19.4854 22.2985 19.55 22.3517C19.6146 22.4048 19.6678 22.4704 19.7066 22.5445C19.7454 22.6187 19.7688 22.6998 19.7757 22.7832C19.8013 23.0121 19.9102 23.2235 20.0817 23.3772C20.2533 23.5309 20.4754 23.6161 20.7057 23.6165H21.289C21.5171 23.6161 21.7372 23.5323 21.9079 23.381C22.0786 23.2297 22.1881 23.0213 22.216 22.7949C22.2438 22.5685 22.188 22.3397 22.0591 22.1516C21.9301 21.9634 21.7369 21.8289 21.5157 21.7732L20.1757 21.4398C19.7019 21.3199 19.2815 21.0458 18.9807 20.6607C18.7471 20.3618 18.5956 20.0072 18.5411 19.6318C18.4866 19.2564 18.5311 18.8733 18.67 18.5204C18.809 18.1675 19.0377 17.8569 19.3335 17.6195C19.6292 17.382 19.9819 17.2259 20.3565 17.1665V16.8332C20.3565 16.6674 20.4224 16.5084 20.5396 16.3912C20.6568 16.274 20.8157 16.2082 20.9815 16.2082C21.1473 16.2082 21.3062 16.274 21.4234 16.3912C21.5407 16.5084 21.6065 16.6674 21.6065 16.8332V17.1665C22.0845 17.2353 22.5262 17.4608 22.8622 17.8077C23.1982 18.1546 23.4096 18.6032 23.4632 19.0832C23.475 19.166 23.47 19.2503 23.4486 19.3312C23.4272 19.4121 23.3898 19.4878 23.3386 19.5539C23.2874 19.6201 23.2234 19.6753 23.1505 19.7162C23.0776 19.7572 22.9972 19.7831 22.914 19.7924C22.8309 19.8018 22.7468 19.7943 22.6666 19.7705C22.5864 19.7467 22.5118 19.707 22.4472 19.6539C22.3826 19.6007 22.3294 19.5351 22.2906 19.461C22.2518 19.3869 22.2283 19.3057 22.2215 19.2223C22.1959 18.9935 22.087 18.782 21.9154 18.6283C21.7439 18.4746 21.5218 18.3894 21.2915 18.389H20.7082C20.4603 18.3892 20.2226 18.4878 20.0473 18.6631C19.872 18.8384 19.7734 19.0761 19.7732 19.324C19.7717 19.5307 19.8401 19.7319 19.9673 19.8948C20.0957 20.0622 20.2769 20.1812 20.4815 20.2323L21.8215 20.5657C22.1971 20.6592 22.5411 20.8508 22.8183 21.1209C23.0955 21.391 23.2959 21.7299 23.3991 22.1029C23.5023 22.4759 23.5045 22.8697 23.4055 23.2439C23.3065 23.618 23.1098 23.9591 22.8357 24.2323L22.8332 24.224Z" fill="white"/>
</svg>
