<svg width="42" height="42" viewBox="0 0 42 42" fill="none" xmlns="http://www.w3.org/2000/svg">
<circle cx="21" cy="21" r="21" fill="#45C7FF"/>
<path fill-rule="evenodd" clip-rule="evenodd" d="M17.1972 13.3377C18.0775 13.3377 18.7911 14.0513 18.7911 14.9316C18.7911 15.8119 18.0775 16.5255 17.1972 16.5255C16.3169 16.5255 15.6033 15.8118 15.6033 14.9316C15.6033 14.0513 16.3169 13.3377 17.1972 13.3377ZM27.4375 9.75V11.9064H29.5939L27.4375 9.75ZM19.6374 18.1346L20.4002 17.3718L19.71 16.4185C19.8492 16.1838 19.9565 15.928 20.0258 15.6569L21.1875 15.471V14.3922L20.0257 14.2063C19.9564 13.9352 19.8492 13.6794 19.7099 13.4447L20.4002 12.4914L19.6374 11.7286L18.6841 12.4188C18.4494 12.2796 18.1936 12.1723 17.9225 12.103L17.7366 10.9412H16.6578L16.4719 12.103C16.2008 12.1723 15.9449 12.2796 15.7102 12.4187L14.757 11.7286L13.9942 12.4914L14.6844 13.4447C14.5452 13.6794 14.438 13.9352 14.3686 14.2063L13.2068 14.3923V15.471L14.3686 15.657C14.438 15.928 14.5453 16.1838 14.6844 16.4185L13.9942 17.3718L14.757 18.1346L15.7103 17.4444C15.945 17.5836 16.2008 17.691 16.4719 17.7602L16.6578 18.922H17.7366L17.9225 17.7602C18.1935 17.6909 18.4494 17.5836 18.6841 17.4444L19.6374 18.1346ZM14.9945 30.0135C14.7874 30.0135 14.6195 30.1814 14.6195 30.3885C14.6195 30.5955 14.7874 30.7635 14.9945 30.7635H27.0046C27.2117 30.7635 27.3796 30.5955 27.3796 30.3885C27.3796 30.1814 27.2117 30.0135 27.0046 30.0135C23.0013 30.0135 18.9979 30.0135 14.9945 30.0135ZM15.5572 29.2635H17.0301V27.5627H15.5572V29.2635ZM18.6944 29.2635H20.1674V25.0776H18.6944V29.2635ZM21.8317 29.2635H23.3046V26.0821C22.8137 26.0821 22.3227 26.0821 21.8317 26.0821V29.2635ZM24.9689 29.2635H26.4419V23.1455H24.9689V29.2635ZM26.6875 12.2814V9.375H12.499C12.2408 9.375 12.0303 9.58556 12.0303 9.84375V32.1562C12.0303 32.4144 12.2408 32.625 12.499 32.625H29.5001C29.7583 32.625 29.9689 32.4144 29.9689 32.1562V12.6564H27.0625C26.8554 12.6564 26.6875 12.4885 26.6875 12.2814ZM21.5672 18.7398C21.3601 18.7398 21.1922 18.5719 21.1922 18.3648C21.1922 18.1577 21.3601 17.9898 21.5672 17.9898H27.0046C27.2117 17.9898 27.3796 18.1577 27.3796 18.3648C27.3796 18.5719 27.2117 18.7398 27.0046 18.7398H21.5672ZM22.6178 17.0724C22.4107 17.0724 22.2428 16.9045 22.2428 16.6974C22.2428 16.4903 22.4107 16.3224 22.6178 16.3224H27.0046C27.2117 16.3224 27.3796 16.4903 27.3796 16.6974C27.3796 16.9045 27.2117 17.0724 27.0046 17.0724H22.6178ZM23.6684 15.4051C23.4613 15.4051 23.2934 15.2372 23.2934 15.0301C23.2934 14.823 23.4613 14.6551 23.6684 14.6551H27.0047C27.2118 14.6551 27.3797 14.823 27.3797 15.0301C27.3797 15.2372 27.2118 15.4051 27.0047 15.4051H23.6684ZM25.7054 19.4982C26.3028 19.4982 26.7872 19.9826 26.7872 20.58C26.7872 21.1773 26.3028 21.6617 25.7054 21.6617C25.5255 21.6617 25.3558 21.6177 25.2065 21.54L23.571 23.0278C23.6219 23.1532 23.6499 23.2904 23.6499 23.434C23.6499 24.0314 23.1655 24.5158 22.5682 24.5158C21.9708 24.5158 21.4865 24.0314 21.4865 23.434C21.4865 23.415 21.4869 23.3961 21.4879 23.3774L20.2151 22.83C20.0106 23.0456 19.7279 23.1667 19.4309 23.1667C19.2162 23.1667 19.0161 23.1042 18.8479 22.9963L17.3282 24.1502C17.3588 24.2505 17.3753 24.3569 17.3753 24.4672C17.3753 25.0645 16.891 25.5489 16.2936 25.5489C15.6963 25.5489 15.2119 25.0645 15.2119 24.4672C15.2119 23.8698 15.6963 23.3854 16.2936 23.3854C16.5083 23.3854 16.7084 23.448 16.8766 23.5559L18.3963 22.402C18.3656 22.3018 18.3491 22.1953 18.3491 22.0851C18.3491 21.4877 18.8335 21.0033 19.4309 21.0033C20.0282 21.0033 20.5126 21.4877 20.5126 22.0851C20.5126 22.1041 20.5121 22.123 20.5111 22.1417L21.7839 22.689C21.9888 22.4735 22.2706 22.3523 22.5681 22.3523C22.7481 22.3523 22.9178 22.3963 23.0671 22.4741L24.7025 20.9863C24.6516 20.8608 24.6236 20.7237 24.6236 20.58C24.6237 19.9826 25.1081 19.4982 25.7054 19.4982Z" fill="white"/>
</svg>
