<svg width="42" height="42" viewBox="0 0 42 42" fill="none" xmlns="http://www.w3.org/2000/svg">
<circle cx="21" cy="21" r="21" fill="#2970CC"/>
<g clip-path="url(#clip0_12006_6449)">
<path fill-rule="evenodd" clip-rule="evenodd" d="M26.2939 30.6375H15.7069C15.482 30.6375 15.2852 30.4547 15.2852 30.2157V28.5707C15.2852 28.3317 15.482 28.1489 15.7069 28.1489H17.4082C17.4082 28.1348 17.4082 28.1208 17.4082 28.0926V26.4336H24.5787V28.0926V28.1489H26.2939C26.5189 28.1489 26.7017 28.3317 26.7017 28.5707V30.2157C26.7017 30.4547 26.5189 30.6375 26.2939 30.6375Z" fill="white"/>
<path fill-rule="evenodd" clip-rule="evenodd" d="M32.5782 26.012H9.42179C9.19684 26.012 9 25.8151 9 25.5902V11.7694C9 11.5445 9.19684 11.3477 9.42179 11.3477H32.5782C32.8032 11.3477 33 11.5445 33 11.7694V25.5902C33 25.8151 32.8032 26.012 32.5782 26.012ZM30.9332 24.1842C31.0598 24.1842 31.1722 24.0717 31.1722 23.9452V13.4144C31.1722 13.2879 31.0598 13.1754 30.9332 13.1754H11.0668C10.9402 13.1754 10.8278 13.2879 10.8278 13.4144V23.9452C10.8278 24.0717 10.9402 24.1842 11.0668 24.1842H30.9332ZM11.2917 23.7062V13.6535H30.6942V23.7062H11.2917ZM25.1547 19.0665C25.6186 19.5164 26.2513 19.7694 26.9121 19.7694C28.29 19.7694 29.4148 18.6447 29.4288 17.2668V17.2528V17.2387C29.4148 15.8608 28.304 14.7361 26.9121 14.7361H26.8981C25.5062 14.7361 24.3814 15.8749 24.3814 17.2528C24.3814 17.9136 24.6485 18.5322 25.0984 19.0102H25.1125V19.0243C25.1125 19.0243 25.1265 19.0243 25.1265 19.0383L25.1406 19.0524L25.1547 19.0665ZM25.1687 18.3354C24.9578 18.012 24.8594 17.6324 24.8594 17.2528C24.8594 16.2967 25.5202 15.4672 26.4482 15.2563L26.6731 15.2V17.1543L25.2953 18.5322L25.1687 18.3354ZM26.9965 17.4918H28.9508L28.9086 17.7167C28.6837 18.6447 27.8541 19.3055 26.9121 19.3055C26.5185 19.3055 26.1529 19.193 25.8155 18.9962L25.6186 18.8696L26.9965 17.4918ZM27.1371 17.0137V15.2L27.3761 15.2563C28.1353 15.439 28.7258 16.0296 28.9086 16.7888L28.9508 17.0137H27.1371ZM14.5677 22.6236C14.6942 22.6236 14.7926 22.5111 14.7926 22.3846V17.1403C14.7926 17.0137 14.6942 16.9153 14.5677 16.9153H12.8102C12.6696 16.9153 12.5712 17.0137 12.5712 17.1403V22.3846C12.5712 22.5111 12.6696 22.6236 12.8102 22.6236H14.5677ZM13.0351 22.1455V17.3793H14.3286V22.1455H13.0351ZM17.7733 22.6236C17.8998 22.6236 17.9982 22.5111 17.9982 22.3846V19.2492C17.9982 19.1227 17.8998 19.0243 17.7733 19.0243H16.0158C15.8752 19.0243 15.7768 19.1227 15.7768 19.2492V22.3846C15.7768 22.5111 15.8752 22.6236 16.0158 22.6236H17.7733ZM16.2408 22.1455V19.4883H17.5343V22.1455H16.2408ZM20.9789 22.6236C21.1054 22.6236 21.2039 22.5111 21.2039 22.3846V18.7431C21.2039 18.6165 21.1054 18.5041 20.9789 18.5041H19.2214C19.0949 18.5041 18.9824 18.6165 18.9824 18.7431V22.3846C18.9824 22.5111 19.0949 22.6236 19.2214 22.6236H20.9789ZM19.4464 22.1455V18.9821H20.7399V22.1455H19.4464ZM17.1828 17.4918C17.1968 17.4918 17.2109 17.4918 17.225 17.4777L20.4306 16.9716C20.5571 16.9575 20.6415 16.831 20.6274 16.7044C20.6134 16.5779 20.4868 16.4935 20.3603 16.5076L17.239 17.0137L14.1178 14.947C14.0053 14.8767 13.8647 14.9048 13.7803 15.0173C13.71 15.1297 13.7522 15.2703 13.8506 15.3406L17.0562 17.4496C17.0984 17.4777 17.1406 17.4918 17.1828 17.4918ZM29.1898 22.6236C29.3163 22.6236 29.4288 22.5111 29.4288 22.3846C29.4288 22.258 29.3163 22.1455 29.1898 22.1455H23.594C23.4675 22.1455 23.3691 22.258 23.3691 22.3846C23.3691 22.5111 23.4675 22.6236 23.594 22.6236H29.1898ZM26.3919 21.2879C26.5185 21.2879 26.6309 21.1754 26.6309 21.0489C26.6309 20.9223 26.5185 20.8099 26.3919 20.8099H23.594C23.4675 20.8099 23.3691 20.9223 23.3691 21.0489C23.3691 21.1754 23.4675 21.2879 23.594 21.2879H26.3919Z" fill="white"/>
</g>
<defs>
<clipPath id="clip0_12006_6449">
<rect width="24" height="24" fill="white" transform="translate(9 9)"/>
</clipPath>
</defs>
</svg>
