<svg width="42" height="42" viewBox="0 0 42 42" fill="none" xmlns="http://www.w3.org/2000/svg">
<circle cx="21" cy="21" r="21" fill="#2970CC"/>
<g clip-path="url(#clip0_12004_12663)">
<path d="M23.3064 17.0683L23.1423 18.5267C23.1327 18.6161 23.1642 18.705 23.228 18.7684C23.2913 18.8346 23.3824 18.8665 23.4732 18.8541L24.9346 18.6878C24.9637 18.6844 24.989 18.6707 25.0169 18.6647L23.3287 16.9766C23.3195 17.0067 23.3121 17.0373 23.3064 17.0683Z" fill="white"/>
<path d="M23.8467 16.2852L28.5158 11.616L30.3905 13.4906L25.7213 18.1598L23.8467 16.2852Z" fill="white"/>
<path d="M29.1201 11.0059L29.7552 10.3708L31.6289 12.2445L30.9938 12.8796L29.1201 11.0059Z" fill="white"/>
<path d="M32.8658 11.0083C32.9513 10.9257 32.9997 10.8121 32.9999 10.6933C33.0001 10.5726 32.9518 10.457 32.8658 10.3723L31.6285 9.13456C31.5442 9.04854 31.4288 9.00008 31.3084 9C31.1903 9.00043 31.0774 9.0483 30.9951 9.13287L30.3643 9.76243L32.2379 11.6361L32.8658 11.0083Z" fill="white"/>
<path d="M11.5714 26.9997H12.4285C12.6652 26.9997 12.857 26.8078 12.857 26.5711V9.42856C12.8571 9.19188 12.6652 9 12.4285 9H11.5714C10.1518 9.00142 9.00142 10.1518 9 11.5714V28.1628C9.64988 27.4233 10.5868 26.9994 11.5714 26.9997Z" fill="white"/>
<path d="M11.6957 32.9997H32.571C32.8077 32.9997 32.9996 32.8078 32.9996 32.5711V15.4286C32.9996 15.1919 32.8077 15 32.571 15H30.0854L26.0166 19.0714C25.7495 19.3333 25.4025 19.4984 25.0309 19.5406C23.5845 19.7031 23.5712 19.7142 23.4461 19.7142H17.1427V24.4284H27.4283V22.2856C27.4283 22.0489 27.6202 21.857 27.8568 21.857C28.0935 21.857 28.2854 22.0489 28.2854 22.2856V28.7141C28.2854 29.1874 27.9016 29.5712 27.4283 29.5712H18.857C18.6203 29.5712 18.4284 29.3793 18.4284 29.1426C18.4284 28.9059 18.6203 28.7141 18.857 28.7141H21.8569V25.2855H17.1427V31.2854C17.1427 31.5221 16.9509 31.714 16.7142 31.714C16.4775 31.714 16.2856 31.5221 16.2856 31.2854V19.7142H14.9999C14.7632 19.7142 14.5714 19.5223 14.5714 19.2856C14.5714 19.049 14.7632 18.8571 14.9999 18.8571H22.3322C22.2925 18.7197 22.279 18.576 22.2924 18.4336L22.4548 16.9735C22.4966 16.594 22.6683 16.2407 22.9408 15.9733L23.9141 15H13.7142V26.5712C13.7142 27.2813 13.1386 27.8569 12.4285 27.8569H11.5714C10.1518 27.8584 9.00142 29.0088 9 30.4283V30.5226C9.09566 31.9344 10.2809 33.0235 11.6957 32.9997Z" fill="white"/>
<path d="M22.7139 25.2852H27.4281V28.7137H22.7139V25.2852Z" fill="white"/>
</g>
<defs>
<clipPath id="clip0_12004_12663">
<rect width="24" height="24" fill="white" transform="translate(9 9)"/>
</clipPath>
</defs>
</svg>
