<svg width="46" height="46" viewBox="0 0 46 46" fill="none" xmlns="http://www.w3.org/2000/svg">
<circle cx="23" cy="23" r="23" fill="white"/>
<path fill-rule="evenodd" clip-rule="evenodd" d="M15.6158 15.1186H16.5127V30.2564C16.5127 30.9225 17.0468 31.4647 17.7031 31.4647H28.9126V32.375C28.9126 32.7192 28.636 33 28.2968 33H15.6158C15.2766 33 15 32.7192 15 32.375V15.7436C15 15.3994 15.2766 15.1186 15.6158 15.1186ZM17.7032 13C17.364 13 17.0874 13.2808 17.0874 13.625V30.2564C17.0874 30.6006 17.364 30.8814 17.7032 30.8814H30.3842C30.7234 30.8814 31 30.6006 31 30.2564V16.4909H28.7511C28.0948 16.4909 27.5606 15.9488 27.5606 15.2825V13H17.7032ZM19.4254 16.9511H24.7211C24.8798 16.9511 25.0084 16.8205 25.0084 16.6594C25.0084 16.4983 24.8798 16.3677 24.7211 16.3677H19.4254C19.2667 16.3677 19.138 16.4983 19.138 16.6594C19.138 16.8205 19.2667 16.9511 19.4254 16.9511ZM19.4254 18.3573H22.4427C22.6014 18.3573 22.73 18.2268 22.73 18.0657C22.73 17.9046 22.6014 17.774 22.4427 17.774H19.4254C19.2667 17.774 19.138 17.9046 19.138 18.0657C19.138 18.2267 19.2667 18.3573 19.4254 18.3573ZM28.1353 15.2826C28.1353 15.6268 28.4119 15.9076 28.7511 15.9076H30.9466C30.9167 15.8412 30.8744 15.7801 30.8196 15.7245L28.3157 13.1831C28.2609 13.1275 28.2008 13.0845 28.1354 13.0542V15.2826H28.1353ZM19.6306 25.0543C19.5176 25.0543 19.4254 25.1479 19.4254 25.2626V27.8796C19.4254 27.9944 19.5176 28.088 19.6306 28.088H20.6611C20.7742 28.088 20.8664 27.9944 20.8664 27.8796V25.2626C20.8664 25.1479 20.7742 25.0543 20.6611 25.0543H19.6306ZM22.2292 23.7345C22.1161 23.7345 22.0239 23.8281 22.0239 23.9428V27.8796C22.0239 27.9944 22.1161 28.088 22.2292 28.088H23.2597C23.3727 28.088 23.4649 27.9944 23.4649 27.8796C23.4649 26.5674 23.4649 25.2551 23.4649 23.9428C23.4649 23.8281 23.3727 23.7345 23.2597 23.7345C22.9162 23.7345 22.5727 23.7345 22.2292 23.7345ZM24.8277 22.4147C24.7147 22.4147 24.6225 22.5083 24.6225 22.623V27.8796C24.6225 27.9943 24.7147 28.0879 24.8277 28.0879H25.8582C25.9713 28.0879 26.0635 27.9943 26.0635 27.8796C26.0635 26.1274 26.0635 24.3752 26.0635 22.623C26.0635 22.5083 25.9713 22.4147 25.8582 22.4147C25.5147 22.4147 25.1712 22.4147 24.8277 22.4147ZM27.4263 21.0949C27.3133 21.0949 27.2211 21.1885 27.2211 21.3032V27.8796C27.2211 27.9943 27.3133 28.0879 27.4263 28.0879H28.4568C28.5699 28.0879 28.6621 27.9943 28.6621 27.8796V21.3032C28.6621 21.1885 28.5699 21.0949 28.4568 21.0949H27.4263ZM25.7829 18.8776L26.2276 18.7605C25.6378 19.6572 24.813 20.4591 23.8127 21.1043C22.627 21.8692 21.198 22.4125 19.6234 22.6324C19.4666 22.6538 19.3565 22.8002 19.3776 22.9594C19.3987 23.1186 19.5429 23.2303 19.6998 23.2089C21.3613 22.9768 22.8693 22.4035 24.1203 21.5965C25.147 20.9342 26.0027 20.1135 26.6311 19.1933L26.6532 19.5328C26.663 19.6933 26.7993 19.8152 26.9573 19.8051C27.1154 19.795 27.2356 19.6568 27.2256 19.4964L27.146 18.2753C27.1318 18.0574 26.9083 17.9805 26.7048 18.0341L25.6393 18.3148C25.4861 18.355 25.3942 18.5137 25.4338 18.6691C25.4734 18.8245 25.6298 18.9179 25.7829 18.8776Z" fill="#54616B"/>
</svg>
