<svg width="46" height="46" viewBox="0 0 46 46" fill="none" xmlns="http://www.w3.org/2000/svg">
<circle cx="23" cy="23" r="23" fill="#E9EDF0"/>
<path d="M30.2004 19.5276H30.4663L23.0004 14.9219L15.5342 19.5276H15.8004H15.8057H30.1956H30.2004Z" fill="#54616B"/>
<path d="M25.72 22.9653H20.2803V31.1433H25.72V22.9653ZM24.8395 27.3667C24.8395 27.4662 24.8 27.5615 24.7297 27.6319C24.6594 27.7022 24.564 27.7417 24.4645 27.7417C24.3651 27.7417 24.2697 27.7022 24.1994 27.6319C24.129 27.5615 24.0895 27.4662 24.0895 27.3667V26.7423C24.0895 26.6429 24.129 26.5475 24.1994 26.4772C24.2697 26.4068 24.3651 26.3673 24.4645 26.3673C24.564 26.3673 24.6594 26.4068 24.7297 26.4772C24.8 26.5475 24.8395 26.6429 24.8395 26.7423V27.3667Z" fill="#54616B"/>
<path d="M29.8199 20.2773H16.1797V23.8203H17.9797C18.0791 23.8203 18.1745 23.8599 18.2449 23.9302C18.3152 24.0005 18.3547 24.0959 18.3547 24.1953V28.1328C18.3547 28.2323 18.3152 28.3277 18.2449 28.398C18.1745 28.4683 18.0791 28.5078 17.9797 28.5078H16.1797V31.1437H19.5299V22.5903C19.5299 22.4909 19.5694 22.3955 19.6398 22.3252C19.7101 22.2549 19.8055 22.2153 19.9049 22.2153H26.0947C26.1941 22.2153 26.2895 22.2549 26.3599 22.3252C26.4302 22.3955 26.4697 22.4909 26.4697 22.5903V31.1437H29.8199V28.5078H28.0199C27.9205 28.5078 27.8251 28.4683 27.7548 28.398C27.6844 28.3277 27.6449 28.2323 27.6449 28.1328V24.1953C27.6449 24.0959 27.6844 24.0005 27.7548 23.9302C27.8251 23.8599 27.9205 23.8203 28.0199 23.8203H29.8199V20.2773Z" fill="#54616B"/>
<path d="M30.5703 24.1954V28.1329V31.1438H33.5002V21.8535H30.5703V24.1954Z" fill="#54616B"/>
<path d="M28.3936 24.5703H29.8201V27.7578H28.3936V24.5703Z" fill="#54616B"/>
<path d="M15.4299 28.1329V24.1954V21.8535H12.5V31.1438H15.4299V28.1329Z" fill="#54616B"/>
<path d="M16.1797 24.5703H17.6062V27.7578H16.1797V24.5703Z" fill="#54616B"/>
</svg>
