<svg width="72" height="72" viewBox="0 0 72 72" fill="none" xmlns="http://www.w3.org/2000/svg">
<path d="M11.8625 41.7709C11.5194 40.8282 10.4771 40.3422 9.53436 40.6853L6.31629 41.8566C5.59869 42.1178 5.12109 42.7998 5.12109 43.5634V65.1836C5.12109 66.1868 5.93436 67 6.9375 67H14.8067C15.0186 67 15.2288 66.963 15.4279 66.8905L18.6461 65.7191C19.5888 65.3761 20.0747 64.3337 19.7317 63.391L11.8625 41.7709Z" fill="#2970CC"/>
<path d="M66.6002 47.6526C65.6768 45.1159 62.7783 43.9152 60.3316 45.0559L51.7621 49.0511C51.752 49.4545 51.7123 49.862 51.6401 50.271C50.8575 54.7095 46.6099 57.6838 42.1715 56.9011L29.9404 54.7445C28.9525 54.5703 28.2928 53.6281 28.467 52.6402C28.6413 51.6523 29.5833 50.9926 30.5713 51.1669L42.8024 53.3235C45.2721 53.759 47.6272 52.1099 48.0627 49.6402C48.4981 47.1705 46.8491 44.8154 44.3794 44.38L38.5411 43.3506C36.7939 43.0426 35.1649 42.3799 33.6989 41.3812C29.438 38.4783 24.0015 37.7979 19.1564 39.5614L15.4189 40.9217L23.3585 62.7351L38.7462 64.8497C40.6296 65.1086 42.515 64.7789 44.1987 63.8965L64.4124 53.3026C66.4533 52.2327 67.3884 49.8181 66.6002 47.6526Z" fill="#2970CC"/>
<path d="M34.6902 14.6875H46.9987L49.7112 7.45421C50.1565 6.26664 49.2786 5 48.0104 5H33.6784C32.4102 5 31.5323 6.26664 31.9777 7.45421L34.6902 14.6875Z" fill="#45C7FF"/>
<path d="M35.1275 37.9749C34.5043 37.2309 34.5736 36.1221 35.2991 35.4646C36.0425 34.791 37.1912 34.8474 37.8648 35.5908C38.6467 36.4536 39.8788 36.9686 41.1607 36.9686C42.3686 36.9686 43.2167 36.262 43.3386 35.5788C43.4997 34.6767 42.1165 34.0918 41.6887 33.934C39.6181 33.1703 37.7793 32.3518 37.7022 32.3173C37.6146 32.2783 37.5305 32.2324 37.4502 32.1801C35.9957 31.2319 35.2464 29.5692 35.4945 27.8408C35.7584 26.0026 37.1001 24.5059 38.9959 23.9348C42.629 22.8401 45.6298 25.223 45.8827 25.4314C45.8835 25.4321 45.8845 25.4329 45.8853 25.4337C45.8897 25.4372 45.895 25.4417 45.8973 25.4437L45.8968 25.4443C46.2928 25.7774 46.5449 26.2762 46.5449 26.8342C46.5449 27.8373 45.7317 28.6506 44.7285 28.6506C44.2834 28.6506 43.8761 28.4899 43.5602 28.2241L43.5597 28.2247L43.5711 28.2341C43.5543 28.2205 41.8579 26.8671 40.0436 27.4134C39.2722 27.6457 39.1199 28.1508 39.0903 28.3572C39.0702 28.4972 39.0598 28.8292 39.347 29.0725C39.8348 29.2857 41.3356 29.932 42.9457 30.5258C46.3942 31.7978 47.257 34.3 46.9145 36.2175C46.5481 38.27 44.8976 39.8672 42.7578 40.4051L45.0103 40.8023C47.1603 41.1814 49.0341 42.3751 50.2864 44.1635C50.5625 44.5579 50.801 44.9706 51.0013 45.3977L58.7049 41.8062V37.0054C58.7049 32.7655 57.5267 28.618 55.2976 25.0113C53.6603 22.3622 51.507 20.0917 48.9771 18.3203H32.7103C30.1804 20.0917 28.0271 22.3622 26.3898 25.0113C24.509 28.0546 23.3764 31.4827 23.0684 35.0266C23.59 34.9851 24.1145 34.9633 24.6412 34.9633C28.3782 34.9633 31.9879 36.0023 35.1275 37.9749Z" fill="#45C7FF"/>
</svg>
