<svg width="20" height="20" viewBox="0 0 20 20" fill="none" xmlns="http://www.w3.org/2000/svg">
<path d="M12.0317 9.22739C12.1447 9.22739 12.2365 9.31931 12.2365 9.43224V12.3111C11.8974 12.8324 11.671 13.4335 11.5922 14.0795H9.45951V9.43224C9.45951 9.31927 9.55139 9.22739 9.66432 9.22739H12.0317H12.0317ZM12.7061 11.7146V9.43224C12.7061 9.0604 12.4036 8.7579 12.0317 8.7579H9.66436C9.29252 8.7579 8.99002 9.0604 8.99002 9.43224V14.0795H6.79428C6.3858 14.0795 6.0535 13.7467 6.0535 13.3376V7.06505L10.848 4.29755L15.6426 7.06556V10.4014C14.4876 10.4306 13.4473 10.9299 12.706 11.7146H12.7061ZM12.024 6.26208C12.024 5.96962 11.7856 5.73169 11.4925 5.73169H10.3553C10.0629 5.73169 9.82494 5.96962 9.82494 6.26208V7.39927C9.82494 7.69231 10.0629 7.93075 10.3553 7.93075H11.4925C11.7856 7.93075 12.024 7.69231 12.024 7.39927V6.26208ZM15.9847 14.8777V16.2668C16.4071 16.1874 16.7211 15.8992 16.7211 15.5566C16.7211 15.1356 16.4938 14.9942 15.9847 14.8777V14.8777ZM19.4694 14.59C19.4694 16.6408 17.8008 18.3093 15.75 18.3093C13.6991 18.3093 12.0306 16.6408 12.0306 14.59C12.0306 12.5391 13.6991 10.8695 15.75 10.8695C17.8008 10.8695 19.4694 12.5385 19.4694 14.59ZM17.1906 15.5567C17.1906 14.7228 16.5434 14.5122 15.9847 14.3965V12.9129C16.3337 12.9798 16.6176 13.1915 16.6987 13.4652C16.7354 13.5895 16.8662 13.6605 16.9904 13.6236C17.1147 13.5868 17.1856 13.4562 17.1488 13.3319C17.009 12.8598 16.5467 12.5132 15.9847 12.4368V11.8373C15.9847 11.7076 15.8797 11.6025 15.75 11.6025C15.6203 11.6025 15.5152 11.7076 15.5152 11.8373V12.437C14.8322 12.5309 14.3094 13.027 14.3094 13.6233C14.3094 14.4566 14.9567 14.667 15.5152 14.7827V16.2659C15.174 16.1998 14.8925 15.9941 14.8062 15.7287C14.766 15.6054 14.6335 15.5382 14.5103 15.5781C14.387 15.6183 14.3196 15.7507 14.3597 15.874C14.5083 16.3307 14.9666 16.6665 15.5153 16.742V17.3416C15.5153 17.4712 15.6203 17.5763 15.75 17.5763C15.8797 17.5763 15.9848 17.4713 15.9848 17.3416V16.7418C16.6678 16.6481 17.1906 16.1524 17.1906 15.5567ZM14.7789 13.6233C14.7789 14.0439 15.0063 14.185 15.5153 14.3015V12.9121C15.0929 12.9916 14.7789 13.2802 14.7789 13.6233ZM11.4925 6.20118H10.3553C10.3223 6.20118 10.2944 6.22907 10.2944 6.26212V7.39931C10.2944 7.4329 10.3223 7.4613 10.3553 7.4613H11.4925C11.5256 7.4613 11.5545 7.43231 11.5545 7.39931V6.26212C11.5545 6.22911 11.5261 6.20118 11.4925 6.20118ZM3.014 14.479C2.46182 14.479 2.0126 14.9288 2.0126 15.4817C2.0126 16.0346 2.46182 16.4832 3.014 16.4832C3.56619 16.4832 4.01545 16.0339 4.01545 15.4817C4.01545 14.9295 3.56619 14.479 3.014 14.479ZM11.7856 15.4817C11.7856 15.7847 11.5707 16.0538 11.2745 16.1214C11.152 16.1494 11.0651 16.2584 11.0651 16.3841V17.2355H10.1933V16.4069C10.1933 16.2581 10.0726 16.1375 9.92381 16.1375H8.91475C8.76592 16.1375 8.64533 16.2581 8.64533 16.4069V17.2355H7.77479V16.4069C7.77479 16.2581 7.65416 16.1375 7.50537 16.1375H5.60795C5.49408 16.1375 5.39244 16.2091 5.35416 16.3164C5.00232 17.3025 4.06189 17.965 3.01404 17.965C1.64471 17.965 0.530762 16.851 0.530762 15.4817C0.530762 14.1124 1.64475 12.9972 3.01404 12.9972C4.06189 12.9972 5.00232 13.6597 5.35416 14.6458C5.39244 14.753 5.49408 14.8247 5.60795 14.8247H11.1299C11.4915 14.8247 11.7857 15.1194 11.7857 15.4817H11.7856ZM4.55436 15.4817C4.55436 14.6317 3.86338 13.9401 3.014 13.9401C2.16463 13.9401 1.47369 14.6317 1.47369 15.4817C1.47369 16.3318 2.16467 17.022 3.014 17.022C3.86334 17.022 4.55436 16.3311 4.55436 15.4817ZM3.71775 7.5436C3.96783 7.6106 4.22795 7.57681 4.45014 7.44845L10.7307 3.82317C10.767 3.8022 10.8075 3.79173 10.848 3.79173C10.8885 3.79173 10.9291 3.8022 10.9654 3.82317L15.9874 6.72251C15.99 6.72388 15.9924 6.7254 15.9949 6.72684L17.2448 7.44841C17.7062 7.71438 18.2986 7.55571 18.5652 7.09458C18.6933 6.8727 18.727 6.61267 18.6599 6.36243C18.5928 6.1122 18.4335 5.90376 18.2115 5.77552L11.3651 1.82251C11.0608 1.64708 10.6353 1.647 10.3308 1.82259L3.48459 5.77552C3.26248 5.90376 3.10322 6.11224 3.03615 6.36247C2.96904 6.6127 3.00272 6.87274 3.13092 7.09474C3.25916 7.31724 3.46756 7.47661 3.71775 7.54356V7.5436Z" fill="white"/>
</svg>
