<svg width="72" height="72" viewBox="0 0 72 72" fill="none" xmlns="http://www.w3.org/2000/svg">
<path d="M53.749 56.6667C51.7124 56.6667 49.9653 57.9257 49.2424 59.706H44.9961V63.353H49.2424C49.9653 65.1333 51.7124 66.3922 53.749 66.3922C56.4304 66.3922 58.6118 64.2108 58.6118 61.5295C58.6118 58.8482 56.4304 56.6667 53.749 56.6667Z" fill="#45C7FF"/>
<path d="M62.2588 46.3333C61.4595 46.3333 60.7054 46.5283 60.0395 46.8715L55.5243 43.1089C55.1966 42.8358 54.7835 42.6863 54.3569 42.6863H44.9961V46.3333H53.6966L57.6555 49.6325C57.4882 50.1235 57.3961 50.649 57.3961 51.1961C57.3961 53.8774 59.5775 56.0588 62.2588 56.0588C64.9402 56.0588 67.1216 53.8774 67.1216 51.1961C67.1216 48.5148 64.9402 46.3333 62.2588 46.3333Z" fill="#45C7FF"/>
<path d="M62.2588 31.1372C60.2222 31.1372 58.4751 32.3962 57.7522 34.1764H44.9961V37.8235H57.7522C58.4751 39.6037 60.2222 40.8627 62.2588 40.8627C64.9402 40.8627 67.1216 38.6813 67.1216 36C67.1216 33.3186 64.9402 31.1372 62.2588 31.1372Z" fill="#45C7FF"/>
<path d="M55.5243 28.8911L60.0395 25.1285C60.7054 25.4718 61.4595 25.6668 62.2588 25.6668C64.9402 25.6668 67.1216 23.4853 67.1216 20.804C67.1216 18.1227 64.9402 15.9413 62.2588 15.9413C59.5775 15.9413 57.3961 18.1227 57.3961 20.804C57.3961 21.3511 57.4882 21.8766 57.6555 22.3676L53.6966 25.6668H44.9961V29.3138H54.3569C54.7835 29.3138 55.1966 29.1643 55.5243 28.8911Z" fill="#45C7FF"/>
<path d="M53.749 15.3333C56.4304 15.3333 58.6118 13.1519 58.6118 10.4705C58.6118 7.78922 56.4304 5.60779 53.749 5.60779C51.7124 5.60779 49.9653 6.86675 49.2424 8.647H44.9961V12.2941H49.2424C49.9653 14.0743 51.7124 15.3333 53.749 15.3333Z" fill="#45C7FF"/>
<path d="M23.1143 36.0001C23.1143 43.0385 28.8405 48.7648 35.879 48.7648C37.8356 48.7648 39.6905 48.3216 41.3496 47.5315V24.4687C39.6905 23.6785 37.8356 23.2354 35.879 23.2354C28.8405 23.2354 23.1143 28.9616 23.1143 36.0001Z" fill="#2970CC"/>
<path d="M39.526 5H32.2318C31.2248 5 30.4083 5.81645 30.4083 6.82353V9.19716C26.9865 9.89423 23.712 11.2508 20.7952 13.1796L19.1163 11.5009C18.4041 10.7887 17.2496 10.7887 16.5375 11.5009L11.3798 16.6586C10.6676 17.3706 10.6676 18.5252 11.3798 19.2374L13.0585 20.9163C11.1297 23.833 9.77314 27.1076 9.07606 30.5294H6.70244C5.69536 30.5294 4.87891 31.3459 4.87891 32.3529V39.6471C4.87891 40.6541 5.69536 41.4706 6.70244 41.4706H9.07606C9.77314 44.8924 11.1297 48.167 13.0585 51.0839L11.3797 52.7627C11.0377 53.1047 10.8456 53.5685 10.8456 54.0521C10.8456 54.5357 11.0377 54.9994 11.3797 55.3413L16.5375 60.4991C17.2496 61.2113 18.4041 61.2113 19.1163 60.4991L20.7952 58.8204C23.712 60.7492 26.9865 62.1056 30.4083 62.8028V65.1765C30.4083 66.1835 31.2248 67 32.2318 67H39.526C40.533 67 41.3495 66.1835 41.3495 65.1765V51.473C39.6376 52.0801 37.7964 52.4118 35.8789 52.4118C26.8295 52.4118 19.4671 45.0494 19.4671 36C19.4671 26.9506 26.8295 19.5882 35.8789 19.5882C37.7964 19.5882 39.6376 19.9199 41.3495 20.527V6.82353C41.3495 5.81645 40.533 5 39.526 5Z" fill="#2970CC"/>
</svg>
