<svg width="46" height="46" viewBox="0 0 46 46" fill="none" xmlns="http://www.w3.org/2000/svg">
<circle cx="23" cy="23" r="23" fill="white"/>
<path d="M22.4414 15.393C23.3202 14.9411 24.3925 14.8837 25.3287 15.1961C25.4877 15.2507 25.644 15.3144 25.7923 15.393C25.5545 15.7145 25.3459 16.0561 25.1613 16.4091C24.9652 16.7916 24.7973 17.1922 24.7105 17.6128C24.3152 17.6166 23.9198 17.6123 23.5246 17.6147C23.4366 17.2022 23.2755 16.8079 23.0838 16.4315C22.897 16.0702 22.6829 15.7221 22.4414 15.393Z" fill="#54616B"/>
<path d="M25.7995 15.9746C26.0501 16.1228 26.2811 16.3025 26.4844 16.5084C26.115 16.795 25.7834 17.1618 25.6572 17.6147C25.4562 17.6134 25.2551 17.6149 25.0542 17.6139C25.194 17.0278 25.4779 16.4845 25.7995 15.9746Z" fill="#54616B"/>
<path d="M21.7524 16.5112C21.9516 16.3012 22.1852 16.1245 22.4326 15.9717C22.7559 16.4822 23.0371 17.0266 23.1818 17.6126C22.9809 17.6128 22.7798 17.6145 22.5789 17.6122C22.4454 17.1643 22.1233 16.7946 21.7524 16.5112Z" fill="#54616B"/>
<path d="M22.5223 17.9449C23.5838 17.942 24.6452 17.947 25.7065 17.9424C26.1986 18.6087 26.6852 19.2792 27.1382 19.9715C27.6137 20.7027 28.0576 21.4569 28.4035 22.2554C28.5886 22.6861 28.7471 23.1293 28.8476 23.5865C28.9475 24.038 28.9901 24.5068 28.9206 24.9656C28.8648 25.3424 28.7243 25.7092 28.4993 26.0213C28.2583 26.3621 27.9245 26.6301 27.5638 26.8434C27.2867 26.5987 26.9306 26.4305 26.5556 26.4017C26.0424 26.357 25.5254 26.3915 25.0129 26.339C24.7097 26.31 24.4062 26.2554 24.1234 26.1422C23.7553 25.993 23.4174 25.7845 23.08 25.5801C22.4033 25.1692 21.7232 24.7277 20.9412 24.5341C20.5608 24.4321 20.1595 24.474 19.7779 24.5478C19.6116 24.5806 19.4468 24.62 19.2843 24.6678C19.2565 24.1539 19.3523 23.6413 19.4995 23.1497C19.7265 22.4013 20.0704 21.6918 20.4578 21.0107C21.0667 19.9402 21.7936 18.9397 22.5223 17.9449ZM23.7847 20.0923C22.8898 20.1918 22.0698 20.7569 21.6711 21.5432C21.2867 22.2753 21.2837 23.1822 21.6607 23.9175C21.9751 24.5453 22.5534 25.0418 23.2326 25.2649C24.0151 25.5297 24.9189 25.4213 25.6101 24.9756C26.2733 24.558 26.7338 23.849 26.8305 23.0845C26.9443 22.2734 26.645 21.4205 26.0444 20.8482C25.4626 20.2763 24.6042 19.9897 23.7847 20.0923Z" fill="#54616B"/>
<path d="M27.5071 18.2531C27.8404 18.088 28.2408 18.0582 28.5963 18.1706C28.9277 18.2722 29.2161 18.4973 29.3946 18.7873C29.5626 19.0576 29.6313 19.3844 29.5878 19.6974C29.5496 19.9906 29.4122 20.2704 29.2022 20.4835C28.9405 20.7544 28.5642 20.9172 28.182 20.9203C28.155 20.9155 28.1142 20.9324 28.0995 20.9017C27.954 20.6435 27.8002 20.3897 27.6415 20.1389C27.7379 20.2259 27.8552 20.2875 27.9841 20.314C27.9861 20.3506 27.9878 20.3872 27.9898 20.4238C28.1014 20.423 28.2132 20.4234 28.3253 20.4234C28.3244 20.3878 28.3242 20.3523 28.3236 20.3169C28.4512 20.286 28.5809 20.2312 28.6621 20.1258C28.7924 19.9658 28.7794 19.7179 28.6423 19.5658C28.5379 19.4464 28.3818 19.3821 28.2261 19.3573C28.1299 19.3423 28.0265 19.3313 27.9481 19.2695C27.8929 19.2292 27.8712 19.1361 27.927 19.0881C27.9902 19.0354 28.0782 19.0231 28.159 19.0241C28.2634 19.0248 28.3742 19.0563 28.443 19.1372C28.5411 19.084 28.6419 19.036 28.7401 18.9829C28.6506 18.836 28.4912 18.7467 28.3238 18.7101C28.324 18.6734 28.3244 18.6372 28.3249 18.6008C28.213 18.6017 28.1014 18.6015 27.9898 18.6008C27.9876 18.6377 27.9854 18.6743 27.9835 18.7111C27.8554 18.7384 27.7281 18.7958 27.6476 18.9003C27.5175 19.0593 27.5318 19.3048 27.6654 19.4576C27.7726 19.5814 27.9355 19.6473 28.0971 19.6705C28.1987 19.686 28.3131 19.7008 28.3857 19.78C28.4356 19.8352 28.4208 19.9353 28.3457 19.9628C28.1937 20.0308 27.9833 20.0164 27.868 19.8885C27.7713 19.9387 27.6743 19.988 27.5774 20.038C27.3411 19.6631 27.0912 19.2965 26.8369 18.9331C26.9739 18.6417 27.2113 18.3949 27.5071 18.2531Z" fill="#54616B"/>
<path d="M23.7407 20.4304C24.2067 20.3598 24.6942 20.4226 25.1222 20.6169C25.7175 20.8827 26.19 21.3966 26.3937 22.0034C26.5683 22.5142 26.5537 23.0831 26.3539 23.5847C26.1136 24.1955 25.598 24.6957 24.9698 24.9257C24.4506 25.119 23.8621 25.1285 23.3368 24.9515C22.6953 24.7397 22.1592 24.2486 21.9014 23.6385C21.6914 23.1498 21.661 22.5912 21.8141 22.083C21.9952 21.468 22.4508 20.9374 23.0378 20.6514C23.2584 20.5426 23.4966 20.4688 23.7407 20.4304ZM23.949 21.2163C23.9483 21.3086 23.9509 21.4011 23.9444 21.4934C23.7031 21.5221 23.4532 21.6273 23.3212 21.8356C23.1811 22.0572 23.2087 22.3624 23.3741 22.5643C23.4971 22.7112 23.6742 22.8075 23.8597 22.8583C24.043 22.9097 24.2423 22.9042 24.4154 22.9902C24.5164 23.0372 24.6145 23.1119 24.6482 23.2204C24.6756 23.3199 24.6693 23.4403 24.5893 23.5165C24.4625 23.6391 24.2723 23.6702 24.1003 23.6679C23.8912 23.6617 23.6595 23.5968 23.5385 23.4175C23.4404 23.4693 23.3416 23.5199 23.2423 23.5697C23.3809 23.8173 23.6649 23.9464 23.9411 23.9847C23.9563 24.0766 23.9455 24.1703 23.9487 24.263C24.061 24.2628 24.1735 24.2628 24.2858 24.263C24.2855 24.1714 24.2851 24.0798 24.2862 23.9883C24.5704 23.957 24.8732 23.8065 24.9689 23.5267C25.0456 23.303 24.9867 23.0393 24.8171 22.8699C24.679 22.7307 24.491 22.6471 24.299 22.6052C24.1533 22.5719 23.9993 22.569 23.8604 22.5108C23.7685 22.472 23.6788 22.4187 23.6215 22.3368C23.5427 22.2164 23.5474 22.0352 23.6675 21.9412C23.8115 21.8269 24.0082 21.8049 24.1878 21.8163C24.3802 21.8305 24.5846 21.901 24.6964 22.0633C24.7924 22.0092 24.8927 21.9628 24.9898 21.9105C24.851 21.6625 24.5646 21.5302 24.2864 21.4974C24.2849 21.4043 24.2851 21.3113 24.2862 21.2184C24.1737 21.2144 24.0614 21.2172 23.949 21.2163Z" fill="#54616B"/>
<path d="M14.9758 24.0924C15.9902 24.0913 17.0045 24.092 18.0188 24.0922C18.1055 24.0901 18.1732 24.1531 18.2273 24.2116C18.3567 24.3595 18.4375 24.5405 18.5087 24.7202C18.6547 25.1066 18.7396 25.5124 18.8017 25.9189C18.8922 26.5277 18.9233 27.1438 18.9142 27.7586C18.9031 28.3121 18.859 28.8656 18.7615 29.4112C18.6911 29.7901 18.601 30.1689 18.4427 30.5232C18.38 30.6591 18.3072 30.7943 18.2006 30.9029C18.1519 30.9497 18.0918 30.9963 18.0195 30.9931C17.0049 30.9935 15.9904 30.9937 14.9758 30.9931C14.9763 28.6929 14.976 26.3926 14.9758 24.0924ZM17.4757 25.3143C17.6249 25.8284 17.7148 26.3585 17.75 26.8915C17.7834 27.3861 17.7621 27.8848 17.6755 28.3735C17.7865 28.3919 17.8972 28.4114 18.008 28.4313C18.1954 27.3633 18.0946 26.2582 17.7991 25.2177C17.6894 25.2436 17.5839 25.2831 17.4757 25.3143Z" fill="#54616B"/>
<path d="M18.9814 25.1048C19.4368 24.9562 19.905 24.8239 20.3875 24.8036C20.7117 24.7867 21.026 24.8883 21.3239 25.0019C22.1606 25.333 22.8722 25.8892 23.6672 26.2968C23.9845 26.4615 24.3282 26.5779 24.6844 26.6295C25.2079 26.7131 25.7402 26.696 26.2685 26.7127C26.495 26.7231 26.7308 26.7335 26.938 26.8336C27.1569 26.9324 27.3832 27.0704 27.4802 27.296C27.5482 27.4524 27.5085 27.6277 27.4398 27.7769C27.1982 27.7468 26.9554 27.7206 26.7115 27.7223C26.7106 27.6385 26.7109 27.5549 26.7111 27.4713C26.5982 27.4715 26.4854 27.4717 26.3727 27.4713C26.3723 27.5578 26.3725 27.6446 26.3721 27.7314C25.9845 27.7481 25.6125 27.8635 25.2316 27.9229C24.7387 28.0084 24.2336 28.0436 23.7347 27.9886C23.2694 27.9397 22.8134 27.8211 22.3773 27.6571C22.3371 27.7598 22.2959 27.8622 22.2568 27.9655C22.6978 28.1295 23.1567 28.2521 23.6257 28.3079C24.2401 28.3856 24.864 28.3327 25.4694 28.2152C25.7235 28.171 25.9725 28.1001 26.2296 28.073C26.6561 28.0266 27.0885 28.052 27.51 28.1251C27.5688 28.135 27.6307 28.1054 27.6644 28.0584C27.8262 27.8139 27.9069 27.503 27.8127 27.2194C28.1495 27.1826 28.4861 27.1436 28.8229 27.1068C28.8885 27.0994 28.9439 27.0617 29.0021 27.0346C29.5367 26.772 30.0698 26.5064 30.6053 26.2454C30.8633 26.1209 31.1945 26.2589 31.3082 26.5095C31.3847 26.6585 31.3627 26.8416 31.2694 26.9788C31.0192 27.3665 30.6689 27.6806 30.3137 27.9754C29.882 28.3297 29.4114 28.6345 28.9482 28.9473C28.136 29.4887 27.2857 30.0058 26.3334 30.2759C25.6092 30.4816 24.8427 30.5572 24.0924 30.4706C22.7999 30.3239 21.5853 29.8164 20.2963 29.6515C19.8905 29.6001 19.4803 29.5836 19.0711 29.5903C19.1823 29.0218 19.2346 28.4434 19.2498 27.8654C19.2687 26.9398 19.2086 26.006 18.9814 25.1048Z" fill="#54616B"/>
<path d="M30.0729 25.6941C30.2254 25.6441 30.3817 25.5758 30.5461 25.5897C30.7522 25.6283 30.9398 25.7481 31.0677 25.9093C30.8606 25.8446 30.6308 25.8632 30.4369 25.9589C29.8936 26.227 29.3496 26.4943 28.8067 26.7633C28.7746 26.7801 28.7385 26.786 28.7031 26.7896C28.5196 26.8078 28.3366 26.8315 28.1531 26.8497C28.3368 26.703 28.5077 26.5417 28.659 26.3635C28.7991 26.2759 28.9518 26.2082 29.0981 26.1309C29.4165 25.9722 29.7387 25.819 30.0729 25.6941Z" fill="#54616B"/>
</svg>
