<svg width="72" height="72" viewBox="0 0 72 72" fill="none" xmlns="http://www.w3.org/2000/svg">
<path d="M68.4539 60.0696L56.9771 48.5928C56.1261 47.7419 54.7464 47.7419 53.8954 48.5928L48.769 43.4665C52.2107 38.8584 53.9314 33.3648 53.9314 27.8712C53.9314 21.1896 51.3826 14.508 46.3067 9.42484C35.7035 -1.17073 18.1791 -0.723432 8.16856 10.7667C-0.329093 20.5204 -0.302348 35.3147 8.22607 45.0414C13.4291 50.9755 20.6488 53.9424 27.8602 53.9424C33.3539 53.9424 38.8474 52.2217 43.4554 48.7801L48.5818 53.9065C47.7309 54.7574 47.7309 56.1371 48.5818 56.9881L59.914 68.3202C60.9822 69.3885 62.3868 70.1033 63.8951 70.1899C65.6181 70.2888 67.2477 69.6633 68.4539 68.4648C70.7651 66.1465 70.7651 62.3809 68.4539 60.0696ZM42.5195 42.5305C34.441 50.6089 21.2867 50.6161 13.201 42.5305C5.11544 34.452 5.11544 21.2976 13.201 13.2121C17.2402 9.16566 22.5539 7.14962 27.8602 7.14962C33.1739 7.14962 38.4802 9.16566 42.5195 13.2121C50.6051 21.2976 50.6051 34.452 42.5195 42.5305Z" fill="#2970CC"/>
<path d="M36.0297 21H39.9703C40.539 21 41 21.4897 41 22.0938V38.9063C41 39.5103 40.539 40 39.9703 40H36.0297C35.461 40 35 39.5103 35 38.9063V22.0938C35 21.4897 35.461 21 36.0297 21Z" fill="#45C7FF"/>
<path d="M15.0297 23H18.9703C19.539 23 20 23.7738 20 24.7283V38.2717C20 39.2262 19.539 40 18.9703 40H15.0297C14.461 40 14 39.2262 14 38.2717V24.7283C14 23.7738 14.461 23 15.0297 23Z" fill="#45C7FF"/>
<path d="M26.0309 14H29.9691C30.5385 14 31 14.5188 31 15.1587V38.8413C31 39.4812 30.5385 40 29.9691 40H26.0309C25.4615 40 25 39.4812 25 38.8413V15.1587C25 14.5188 25.4615 14 26.0309 14Z" fill="#45C7FF"/>
<path d="M8 40L5 33.5L47 13.5L50 20.5L8 40Z" fill="#2970CC"/>
</svg>
