<svg width="72" height="72" viewBox="0 0 72 72" fill="none" xmlns="http://www.w3.org/2000/svg">
<path d="M41.8495 56.7778H30.071C27.9269 56.7778 27.9269 53.5378 30.071 53.5378H41.8495C43.9937 53.5378 43.9937 56.7778 41.8495 56.7778Z" fill="#45C7FF"/>
<path d="M50.3669 63.2642H21.5525C19.4083 63.2642 19.4083 60.0242 21.5525 60.0242H50.3669C52.511 60.0242 52.511 63.2642 50.3669 63.2642Z" fill="#45C7FF"/>
<path d="M34.3407 8.73578C27.1997 9.12242 20.7694 12.0089 15.8223 16.4671L21.9963 22.6411C25.2859 19.7813 29.5001 17.8431 34.3407 17.4845V8.73578Z" fill="#45C7FF"/>
<path d="M14.556 37.2766C14.9001 32.557 16.7599 28.3752 19.7083 24.935L13.5199 18.7466C9.03142 23.7319 6.17734 30.0218 5.80078 37.2766H14.556Z" fill="#45C7FF"/>
<path d="M14.5416 40.5165H5.80078C6.13918 46.8871 8.41438 52.7436 12.095 57.4697C12.6573 58.1911 13.7273 58.2696 14.4249 57.6777L18.6067 54.1353C19.2864 53.5593 19.3533 52.5672 18.8155 51.8565C16.3941 48.6576 14.8577 44.7573 14.5416 40.5165Z" fill="#45C7FF"/>
<path d="M61.8304 23.2639C60.3688 25.0589 58.1995 27.7207 55.7745 30.6907C56.8322 33.2222 57.4521 35.9806 57.4521 38.8966C57.4521 43.7962 55.8127 48.3127 53.0522 51.9278C52.5309 52.6104 52.6785 53.5932 53.3351 54.1462L57.4982 57.6504C58.2045 58.2451 59.2859 58.1638 59.8526 57.4344C63.8313 52.3145 66.2001 45.882 66.2001 38.8958C66.2008 33.084 64.5736 27.774 61.8304 23.2639Z" fill="#2970CC"/>
<path d="M59.9018 20.497C54.6062 13.6634 46.5076 9.2196 37.5803 8.73792V17.4924C43.1323 17.9158 48.8354 20.5034 52.8847 25.6817C52.8847 25.6817 33.5959 39.9996 32.9097 40.6865C31.3322 42.264 31.3322 44.8222 32.9097 46.3997C34.4872 47.9772 37.0454 47.9772 38.6229 46.3997C39.6453 45.3766 59.9018 20.497 59.9018 20.497ZM59.8211 20.5963C59.8219 20.5963 59.8219 20.5956 59.8219 20.5956L59.8211 20.5963Z" fill="#2970CC"/>
</svg>
