<svg width="72" height="72" viewBox="0 0 72 72" fill="none" xmlns="http://www.w3.org/2000/svg">
<path d="M61.7994 59.2496C61.7994 55.2939 58.8037 52.0673 54.9522 51.5961L52.9276 42.5519C55.1265 41.179 56.5994 38.7672 56.5994 36C56.5994 33.7851 55.6526 31.8019 54.1541 30.3894L58.6055 20.4394C58.8066 20.4542 58.9971 20.4997 59.2 20.4997C63.5062 20.4997 67 17.0289 67 12.7499C67 8.47138 63.5062 5 59.2 5C54.8909 5 51.4 8.47138 51.4 12.7499C51.4 14.9648 52.3444 16.9479 53.8453 18.3605L49.3933 28.3105C49.1934 28.2957 49.0029 28.2501 48.8 28.2501C44.4915 28.2501 41 31.7209 41 36C41 39.9556 43.9934 43.1828 47.8478 43.6535L49.8718 52.6982C47.6729 54.0706 46.1994 56.4824 46.1994 59.2496C46.1994 63.5286 49.6909 67 53.9994 67C58.3062 67 61.7994 63.5286 61.7994 59.2496Z" fill="#2970CC"/>
<path d="M30.8334 59.2496C30.8334 56.4824 29.37 54.0706 27.1853 52.6982L29.1962 43.6535C33.0235 43.1828 36 39.9556 36 36C36 31.7209 32.5286 28.2501 28.2501 28.2501C27.5938 28.2501 26.9689 28.356 26.3604 28.5097L18.9364 17.3719C19.9043 16.0799 20.5003 14.4906 20.5003 12.7499C20.5003 8.47138 17.0289 5 12.7504 5C8.46902 5 5 8.47138 5 12.7499C5 17.0289 8.46901 20.4997 12.7504 20.4997C13.4068 20.4997 14.0311 20.3939 14.6396 20.2401L22.0642 31.3756C21.0963 32.6699 20.5003 34.2593 20.5003 36C20.5003 38.7672 21.9631 41.1825 24.1479 42.5519L22.1369 51.5961C18.3078 52.0673 15.3331 55.2933 15.3331 59.2496C15.3331 63.5286 18.8027 67 23.083 67C27.362 67 30.8334 63.5286 30.8334 59.2496Z" fill="#45C7FF"/>
</svg>
