<svg width="73" height="72" viewBox="0 0 73 72" fill="none" xmlns="http://www.w3.org/2000/svg">
<path fill-rule="evenodd" clip-rule="evenodd" d="M34.091 59.9455L31.4619 64.5042C31.2217 64.9221 30.8298 65.2133 30.3622 65.34C29.8945 65.4666 29.4141 65.4033 28.997 65.1627C28.1501 64.6688 27.8468 63.5925 28.3018 62.7314L30.9562 58.122C31.2849 57.5395 31.9043 57.2229 32.5236 57.2229C32.827 57.2229 33.143 57.2989 33.4211 57.4635C33.8382 57.7041 34.1289 58.0967 34.2553 58.5652C34.3944 59.0464 34.3312 59.5276 34.091 59.9455Z" fill="#2970CC"/>
<path fill-rule="evenodd" clip-rule="evenodd" d="M24.6236 54.4749L22.6644 57.8813C22.1714 58.7424 21.059 59.0463 20.1995 58.5397C19.34 58.0459 19.0366 56.9315 19.5422 56.0704L21.5015 52.664C21.9944 51.8029 23.1068 51.499 23.9663 52.0056C24.8258 52.4994 25.1166 53.6011 24.6236 54.4749Z" fill="#2970CC"/>
<path fill-rule="evenodd" clip-rule="evenodd" d="M29.3634 57.2102L26.178 62.7313C25.6851 63.5924 24.5727 63.8963 23.7132 63.3898C22.8536 62.8959 22.5503 61.7816 23.0559 60.9205L26.2412 55.3993C26.5699 54.8168 27.1892 54.5002 27.8086 54.5002C28.112 54.5002 28.428 54.5762 28.7061 54.7408C29.553 55.2347 29.8563 56.3491 29.3634 57.2102Z" fill="#2970CC"/>
<path fill-rule="evenodd" clip-rule="evenodd" d="M38.8306 62.6805L36.8714 66.0869C36.3784 66.948 35.2661 67.2519 34.4065 66.7454C33.547 66.2515 33.2436 65.1372 33.7493 64.2761L35.7085 60.8697C36.2141 59.9959 37.3138 59.7173 38.1733 60.2112C39.0202 60.7051 39.3236 61.8194 38.8306 62.6805Z" fill="#2970CC"/>
<path fill-rule="evenodd" clip-rule="evenodd" d="M42.8505 65.4539C42.4713 66.1123 41.5865 66.5302 40.2339 65.7451L39.4629 65.3146L40.4488 63.6177C40.6384 63.3011 40.7648 62.9592 40.8407 62.6173L42.2817 63.4531C43.1538 63.9723 43.1918 64.8587 42.8505 65.4539Z" fill="#2970CC"/>
<path fill-rule="evenodd" clip-rule="evenodd" d="M67.6629 46.725C67.6123 46.9529 67.4859 47.1049 67.271 47.2062L64.6166 48.3332C64.5281 48.3712 64.4396 48.3079 64.4396 48.2193C64.3764 41.837 61.7725 36.3032 56.906 32.2004C56.8681 32.1624 56.8555 32.1371 56.8555 32.0864C56.8555 32.0357 56.8807 32.0104 56.9187 31.9851L60.2936 30.0983C60.3947 30.035 60.5085 30.0096 60.6223 30.0096C60.7613 30.0096 60.9003 30.0603 61.0267 30.1616C66.0323 34.0998 68.8258 41.0646 67.6629 46.725Z" fill="#2970CC"/>
<path fill-rule="evenodd" clip-rule="evenodd" d="M62.582 47.6749L55.7816 50.8406C55.5161 50.4228 54.9473 49.8276 54.5176 49.587L46.0107 44.661C44.0135 43.496 42.2818 42.5463 39.8928 42.5463C37.706 42.5589 35.8353 43.4707 34.1794 44.2811C31.5376 45.5728 29.9576 46.2186 27.9857 44.5851C27.5939 44.2558 27.3537 43.7873 27.3916 43.3947C27.4169 43.0781 27.5939 42.8249 27.9478 42.5969L36.8339 37.0505C39.9434 35.113 42.7621 34.5938 45.4419 35.4802C48.4755 36.4806 51.5218 36.202 54.2521 34.6825L55.908 33.7581C60.1425 37.4177 62.3924 42.1031 62.582 47.6749Z" fill="#2970CC"/>
<path fill-rule="evenodd" clip-rule="evenodd" d="M54.2521 53.7024C53.7465 54.5761 52.6089 54.88 51.7367 54.3735C49.828 53.2718 47.9194 52.1701 46.0107 51.0684C45.5683 50.8152 44.9995 50.9671 44.7467 51.4103C44.4939 51.8536 44.6455 52.4234 45.088 52.6767L49.9924 55.5132C50.8519 56.0197 51.1426 57.1468 50.6497 58.0205C50.1441 58.8943 49.0191 59.1982 48.1343 58.6917C46.2003 57.5773 44.2663 56.4503 42.3324 55.3359C41.89 55.0827 41.3212 55.2346 41.0684 55.6778C40.8156 56.121 40.9672 56.6909 41.4096 56.9441L46.4152 59.8313C47.1862 60.2999 47.439 61.3129 46.984 62.098C46.5289 62.8958 45.4924 63.1744 44.6961 62.7059L40.6133 60.3505C40.3099 59.6161 39.7791 59.0082 39.0712 58.603C38.1358 58.0585 37.0488 57.9825 36.0881 58.2991C36.0755 58.2358 36.0502 58.1598 36.0375 58.0965C35.7847 57.1467 35.178 56.3616 34.3311 55.8678C33.3957 55.3233 32.3087 55.2473 31.348 55.5639C31.1458 54.5761 30.539 53.677 29.591 53.1325C28.6557 52.588 27.5686 52.512 26.6079 52.8286C26.4057 51.8409 25.799 50.9418 24.8509 50.3973C23.1066 49.3842 20.8566 49.9921 19.8454 51.7396L18.9732 53.2592L17.3553 51.5116C17.2794 51.4357 17.191 51.3724 17.1025 51.3217L10.3652 47.8393C10.5169 42.2042 12.7669 37.4809 17.0266 33.7959L17.823 34.2391C21.9058 36.5438 25.0658 36.2652 27.8593 36.0246C29.9702 35.8473 31.841 35.6827 33.8761 36.6958L26.9113 41.0392C26.0518 41.5711 25.5462 42.3689 25.4956 43.2806C25.4324 44.281 25.9127 45.332 26.7596 46.0285C29.7427 48.4978 32.5109 47.1555 34.9505 45.9525C36.4926 45.1927 38.0979 44.4076 39.8549 44.4076C41.8268 44.4076 43.3689 45.3067 45.0248 46.2691L53.4937 51.1697C54.3785 51.7776 54.8209 52.7273 54.2521 53.7024Z" fill="#2970CC"/>
<path fill-rule="evenodd" clip-rule="evenodd" d="M16.0784 32.1879C11.2119 36.2907 8.60803 41.8372 8.54482 48.2067C8.54482 48.308 8.45634 48.3587 8.36786 48.3207L5.71341 47.1937C5.49853 47.105 5.37213 46.9531 5.32156 46.7125C4.1713 41.0521 6.95216 34.0873 11.945 30.1364C12.1599 29.9591 12.4254 29.9465 12.6782 30.0731L16.0531 31.9726C16.1416 32.0232 16.1542 32.1245 16.0784 32.1879Z" fill="#2970CC"/>
<path d="M21.1445 22.1285C18.9579 22.349 17.2283 24.1058 17.0112 26.3267C16.7941 24.1058 15.0645 22.349 12.8779 22.1285C15.0645 21.908 16.7941 20.1512 17.0112 17.9303C17.2283 20.1512 18.9579 21.908 21.1445 22.1285Z" fill="#45C7FF"/>
<path d="M59.8935 10.0732C57.707 10.2937 55.9773 12.0505 55.7602 14.2714C55.5432 12.0505 53.8135 10.2937 51.627 10.0732C53.8135 9.85271 55.5432 8.0959 55.7602 5.875C55.9773 8.0959 57.707 9.85271 59.8935 10.0732Z" fill="#45C7FF"/>
<path fill-rule="evenodd" clip-rule="evenodd" d="M36.493 5C29.1743 5 23.2334 10.9517 23.2334 18.2836C23.2334 25.6156 29.1743 31.5673 36.493 31.5673C43.8117 31.5673 49.7526 25.6156 49.7526 18.2836C49.7526 10.9517 43.8243 5 36.493 5ZM43.976 14.9912L34.8624 24.1214C34.42 24.5646 33.8638 24.7545 33.2445 24.6659C32.6251 24.5899 32.1321 24.248 31.8288 23.7161L28.7319 18.3343C28.2263 17.4605 28.5297 16.3462 29.4018 15.8397C30.2614 15.3331 31.3863 15.637 31.892 16.5108L33.8765 19.9552L41.4227 12.3953C42.1305 11.6861 43.2934 11.6861 44.0013 12.3953C44.7092 13.1044 44.6839 14.2821 43.976 14.9912Z" fill="#45C7FF"/>
<path fill-rule="evenodd" clip-rule="evenodd" d="M43.9753 14.9912L34.8617 24.1213C34.4193 24.5645 33.8632 24.7545 33.2438 24.6658C32.6244 24.5899 32.1314 24.248 31.8281 23.7161L28.7312 18.3343C28.2256 17.4605 28.529 16.3462 29.4012 15.8396C30.2607 15.3331 31.3857 15.637 31.8913 16.5108L33.8758 19.9552L41.422 12.3953C42.1299 11.6861 43.2928 11.6861 44.0006 12.3953C44.7085 13.1044 44.6832 14.2821 43.9753 14.9912Z" fill="white"/>
</svg>
