<svg width="20" height="20" viewBox="0 0 20 20" fill="none" xmlns="http://www.w3.org/2000/svg">
<path d="M15 1.25H5C4.50272 1.25 4.02581 1.44754 3.67417 1.79917C3.32254 2.15081 3.125 2.62772 3.125 3.125V16.875C3.125 17.3723 3.32254 17.8492 3.67417 18.2008C4.02581 18.5525 4.50272 18.75 5 18.75H15C15.4973 18.75 15.9742 18.5525 16.3258 18.2008C16.6775 17.8492 16.875 17.3723 16.875 16.875V3.125C16.875 2.62772 16.6775 2.15081 16.3258 1.79917C15.9742 1.44754 15.4973 1.25 15 1.25ZM5.625 9.375C5.625 9.20924 5.69085 9.05027 5.80806 8.93306C5.92527 8.81585 6.08424 8.75 6.25 8.75C6.41576 8.75 6.57473 8.81585 6.69194 8.93306C6.80915 9.05027 6.875 9.20924 6.875 9.375V10.625C6.875 10.7908 6.80915 10.9497 6.69194 11.0669C6.57473 11.1842 6.41576 11.25 6.25 11.25C6.08424 11.25 5.92527 11.1842 5.80806 11.0669C5.69085 10.9497 5.625 10.7908 5.625 10.625V9.375ZM13.75 16.25H6.25C6.08424 16.25 5.92527 16.1842 5.80806 16.0669C5.69085 15.9497 5.625 15.7908 5.625 15.625C5.625 15.4592 5.69085 15.3003 5.80806 15.1831C5.92527 15.0658 6.08424 15 6.25 15H13.75C13.9158 15 14.0747 15.0658 14.1919 15.1831C14.3092 15.3003 14.375 15.4592 14.375 15.625C14.375 15.7908 14.3092 15.9497 14.1919 16.0669C14.0747 16.1842 13.9158 16.25 13.75 16.25ZM13.75 13.75H6.25C6.08424 13.75 5.92527 13.6842 5.80806 13.5669C5.69085 13.4497 5.625 13.2908 5.625 13.125C5.625 12.9592 5.69085 12.8003 5.80806 12.6831C5.92527 12.5658 6.08424 12.5 6.25 12.5H13.75C13.9158 12.5 14.0747 12.5658 14.1919 12.6831C14.3092 12.8003 14.375 12.9592 14.375 13.125C14.375 13.2908 14.3092 13.4497 14.1919 13.5669C14.0747 13.6842 13.9158 13.75 13.75 13.75ZM8.125 10.625V8.75C8.125 8.58424 8.19085 8.42527 8.30806 8.30806C8.42527 8.19085 8.58424 8.125 8.75 8.125C8.91576 8.125 9.07473 8.19085 9.19194 8.30806C9.30915 8.42527 9.375 8.58424 9.375 8.75V10.625C9.375 10.7908 9.30915 10.9497 9.19194 11.0669C9.07473 11.1842 8.91576 11.25 8.75 11.25C8.58424 11.25 8.42527 11.1842 8.30806 11.0669C8.19085 10.9497 8.125 10.7908 8.125 10.625ZM10.625 10.625V9.375C10.625 9.20924 10.6908 9.05027 10.8081 8.93306C10.9253 8.81585 11.0842 8.75 11.25 8.75C11.4158 8.75 11.5747 8.81585 11.6919 8.93306C11.8092 9.05027 11.875 9.20924 11.875 9.375V10.625C11.875 10.7908 11.8092 10.9497 11.6919 11.0669C11.5747 11.1842 11.4158 11.25 11.25 11.25C11.0842 11.25 10.9253 11.1842 10.8081 11.0669C10.6908 10.9497 10.625 10.7908 10.625 10.625ZM14.375 10.625C14.375 10.7908 14.3092 10.9497 14.1919 11.0669C14.0747 11.1842 13.9158 11.25 13.75 11.25C13.5842 11.25 13.4253 11.1842 13.3081 11.0669C13.1908 10.9497 13.125 10.7908 13.125 10.625V8.75C13.125 8.58424 13.1908 8.42527 13.3081 8.30806C13.4253 8.19085 13.5842 8.125 13.75 8.125C13.9158 8.125 14.0747 8.19085 14.1919 8.30806C14.3092 8.42527 14.375 8.58424 14.375 8.75V10.625ZM14.375 6.25C14.375 6.41576 14.3092 6.57473 14.1919 6.69194C14.0747 6.80915 13.9158 6.875 13.75 6.875C13.5842 6.875 13.4253 6.80915 13.3081 6.69194C13.1908 6.57473 13.125 6.41576 13.125 6.25V5.88125L11.6937 7.31875C11.6356 7.37733 11.5665 7.42383 11.4904 7.45556C11.4142 7.48729 11.3325 7.50362 11.25 7.50362C11.1675 7.50362 11.0858 7.48729 11.0096 7.45556C10.9335 7.42383 10.8644 7.37733 10.8063 7.31875L8.69375 5.2L6.625 6.75C6.49239 6.84946 6.32571 6.89216 6.16161 6.86872C5.99752 6.84528 5.84946 6.75761 5.75 6.625C5.65054 6.49239 5.60784 6.32571 5.63128 6.16161C5.65472 5.99752 5.74239 5.84946 5.875 5.75L8.375 3.875C8.49529 3.784 8.64443 3.73958 8.7949 3.74992C8.94538 3.76025 9.08704 3.82466 9.19375 3.93125L11.25 5.99375L12.2437 5H11.875C11.7092 5 11.5503 4.93415 11.4331 4.81694C11.3158 4.69973 11.25 4.54076 11.25 4.375C11.25 4.20924 11.3158 4.05027 11.4331 3.93306C11.5503 3.81585 11.7092 3.75 11.875 3.75H13.75C13.9158 3.75 14.0747 3.81585 14.1919 3.93306C14.3092 4.05027 14.375 4.20924 14.375 4.375V6.25Z" fill="white"/>
</svg>
