<svg width="42" height="42" viewBox="0 0 42 42" fill="none" xmlns="http://www.w3.org/2000/svg">
<circle cx="21" cy="21" r="21" fill="#45C7FF"/>
<g clip-path="url(#clip0_20072_12813)">
<path d="M20.944 11H21.1004C22.6604 11.0471 24.1849 11.7991 25.1342 13.0427C25.9146 14.0347 26.3262 15.3129 26.256 16.5742C26.1946 18.096 25.4151 19.56 24.208 20.4836C23.0889 21.3529 21.6053 21.7422 20.2044 21.5147C19.0773 21.3502 18.0133 20.7964 17.2249 19.976C16.2631 18.9964 15.7111 17.6249 15.7377 16.2507C15.7431 14.7573 16.432 13.2889 17.5564 12.3102C18.4844 11.4862 19.7066 11.0338 20.944 11ZM20.4577 12.5609C20.3662 12.9147 20.4284 13.2889 20.4151 13.6507C19.6622 13.9164 19.1244 14.7236 19.2471 15.5244C19.3342 16.3004 19.9911 16.9787 20.7751 17.0489C21.0462 17.072 21.3795 17.0969 21.5066 17.384C21.7111 17.7227 21.448 18.2169 21.0506 18.2302C20.7253 18.2782 20.4195 18 20.416 17.6756C20.4337 17.2658 19.9697 16.9236 19.592 17.1164C19.2711 17.2364 19.1635 17.6258 19.2533 17.9333C19.3502 18.5591 19.8124 19.0978 20.4071 19.3084C20.4382 19.6213 20.3271 20.0107 20.5893 20.2498C20.8053 20.4747 21.1937 20.4738 21.4097 20.2498C21.6711 20.0116 21.5662 19.624 21.5875 19.312C22.3537 19.0382 22.8791 18.2027 22.7315 17.392C22.6213 16.5769 21.8711 15.9058 21.0471 15.8996C20.7635 15.9147 20.496 15.7191 20.4284 15.4436C20.32 15.0498 20.7315 14.6302 21.1244 14.7493C21.4053 14.8036 21.5733 15.0809 21.5831 15.352C21.5893 15.6658 21.8889 15.9369 22.2035 15.8933C22.5537 15.896 22.8213 15.5209 22.752 15.1876C22.7111 14.5004 22.2213 13.8924 21.5831 13.6542C21.5715 13.2898 21.6355 12.9129 21.5404 12.5564C21.3502 12.0987 20.6444 12.1004 20.4577 12.5609Z" fill="white"/>
<path d="M16.4018 22.8869C17.7973 22.2113 19.5573 22.5073 20.7218 23.5073C20.864 23.6247 20.9938 23.7589 21.1529 23.854C21.632 24.0629 22.1876 23.8176 22.6622 24.0469C23.1716 24.2718 23.4524 24.8913 23.2916 25.4229C23.1573 25.8993 22.6942 26.2673 22.1947 26.2611C21.0116 26.2736 19.8284 26.254 18.6462 26.2691C18.2444 26.2522 17.9378 26.7207 18.1138 27.0807C18.1947 27.3367 18.4747 27.4691 18.7298 27.4442C20.1538 27.4442 21.5778 27.4442 23.0027 27.4442C24.8044 26.1927 26.6071 24.942 28.4098 23.6905C28.8684 23.366 29.4827 23.2513 30.016 23.4469C30.4462 23.5962 30.8711 23.9065 31 24.3625V24.4905C30.9538 24.6665 30.8649 24.8318 30.7049 24.9305C27.9298 26.8931 25.1511 28.8522 22.3769 30.8158C22.2613 30.8976 22.1324 30.9571 21.9982 30.9998H21.9138C19.7262 30.6042 17.536 30.2309 15.3511 29.8211C14.9431 29.7402 14.5244 29.782 14.1102 29.7749C13.2498 29.7696 12.3893 29.7865 11.5289 29.7722C11.2462 29.774 11.0578 29.5171 11 29.2647V24.4593C11.056 24.2042 11.24 23.9482 11.5262 23.9491C12.648 23.9251 13.7716 23.9625 14.8924 23.9331C15.3778 23.5625 15.8284 23.1269 16.4018 22.8869Z" fill="white"/>
</g>
<defs>
<clipPath id="clip0_20072_12813">
<rect width="20" height="20" fill="white" transform="translate(11 11)"/>
</clipPath>
</defs>
</svg>
