<svg width="582" height="400" viewBox="0 0 582 400" fill="none" xmlns="http://www.w3.org/2000/svg">
<g clip-path="url(#clip0_20128_13942)">
<rect width="582" height="400" fill="white"/>
<path d="M292 0C141.791 0 20 121.25 20 270.792C20 313.079 29.7544 353.012 47.0868 388.612C48.4037 391.317 51.1667 393 54.1751 393H529.825C532.833 393 535.596 391.317 536.913 388.612C554.246 353.004 564 312.977 564 270.792C564 121.144 442.209 0 292 0Z" fill="url(#paint0_linear_20128_13942)"/>
<g clip-path="url(#clip1_20128_13942)">
<path d="M456.131 66.5733C461.262 61.9389 466.011 56.9401 470.319 51.6203C470.649 51.2178 470.041 51.0166 469.717 51.0002C469.207 50.973 468.559 51.1797 468.24 51.5714C464.013 56.7878 459.368 61.6832 454.342 66.2251C454 66.5352 454.098 66.8561 454.556 66.9703C455.042 67.09 455.778 66.8996 456.137 66.5733H456.131Z" fill="#45C7FF"/>
<path d="M468.947 51.9955C470.464 57.9408 473.406 63.4346 476.846 68.5912C477.234 69.1786 479.412 68.5041 478.925 67.7698C475.543 62.6948 472.677 57.2772 471.182 51.4298C470.997 50.7064 468.756 51.2449 468.947 51.9955Z" fill="#45C7FF"/>
<path d="M454.029 66.9377C456.293 71.98 457.915 77.2508 458.847 82.6576C458.969 83.3647 461.222 82.8751 461.083 82.0919C460.15 76.6905 458.529 71.4143 456.264 66.372C455.934 65.6431 453.734 66.2795 454.029 66.9377Z" fill="#45C7FF"/>
<path d="M461.21 82.2822C466.144 77.0168 472.005 72.5565 478.479 69.0644C478.821 68.8795 479.104 68.4879 478.676 68.2431C478.247 67.9983 477.483 68.2268 477.089 68.4389C470.337 72.0833 464.274 76.7449 459.125 82.2332C458.761 82.6194 459.432 82.837 459.733 82.8533C460.278 82.8805 460.851 82.6629 461.21 82.2822Z" fill="#45C7FF"/>
</g>
<g filter="url(#filter0_d_20128_13942)">
<path d="M147.504 185.054L96.015 195.145C92.3589 195.861 88.8307 193.523 88.1069 189.904L78.1952 140.338C77.4715 136.718 79.8336 133.226 83.4896 132.509L134.979 122.418C138.635 121.702 142.163 124.04 142.887 127.66L152.799 177.225C153.523 180.845 151.161 184.337 147.504 185.054Z" fill="white"/>
</g>
<path d="M123.698 149.391L95.5664 154.904C92.1135 155.581 88.8286 153.404 88.1451 149.985C87.4615 146.567 89.6607 143.315 93.1137 142.638L121.245 137.125C124.698 136.449 127.983 138.626 128.666 142.044C129.35 145.462 127.151 148.714 123.698 149.391Z" stroke="#2970CC" stroke-width="0.5" stroke-miterlimit="10"/>
<path d="M136.371 167.385L108.239 172.898C104.786 173.575 101.501 171.397 100.818 167.979C100.134 164.561 102.334 161.309 105.787 160.632L133.918 155.119C137.371 154.443 140.656 156.62 141.339 160.038C142.023 163.456 139.824 166.708 136.371 167.385Z" stroke="#2970CC" stroke-width="0.5" stroke-miterlimit="10"/>
<path d="M123.024 140.747L94.2832 146.379C93.8769 146.459 93.5119 146.217 93.4315 145.815C93.3511 145.413 93.5954 145.051 94.0017 144.972L122.844 139.319C123.25 139.24 123.615 139.482 123.696 139.884C123.776 140.286 123.43 140.667 123.024 140.747Z" fill="#2970CC"/>
<path d="M123.647 143.863L94.9062 149.495C94.5 149.575 94.135 149.333 94.0546 148.931C93.9741 148.529 94.2185 148.167 94.6247 148.088L123.467 142.435C123.873 142.356 124.238 142.598 124.319 143C124.399 143.402 124.053 143.783 123.647 143.863Z" fill="#2970CC"/>
<path d="M109.139 149.946L95.5302 152.613C95.124 152.692 94.759 152.45 94.6786 152.048C94.5982 151.646 94.8425 151.285 95.2487 151.205L108.857 148.538C109.264 148.458 109.629 148.7 109.709 149.103C109.769 149.404 109.545 149.866 109.139 149.946Z" fill="#2970CC"/>
<path d="M105.739 164.612L134.582 158.96C134.988 158.88 135.232 158.519 135.152 158.117C135.071 157.714 134.706 157.472 134.3 157.552L105.458 163.204C105.051 163.284 104.807 163.645 104.888 164.048C104.968 164.45 105.333 164.692 105.739 164.612Z" fill="#2970CC"/>
<path d="M117.21 165.499L135.185 161.976C135.592 161.896 135.836 161.535 135.755 161.133C135.675 160.731 135.31 160.489 134.904 160.568L116.928 164.091C116.522 164.17 116.278 164.532 116.358 164.934C116.438 165.336 116.803 165.578 117.21 165.499Z" fill="#2970CC"/>
<path d="M106.343 167.628L114.061 166.115C114.467 166.036 114.712 165.674 114.631 165.272C114.551 164.87 114.186 164.628 113.78 164.708L106.061 166.22C105.655 166.3 105.411 166.661 105.491 167.063C105.571 167.465 105.936 167.707 106.343 167.628Z" fill="#2970CC"/>
<path d="M122.098 167.779L135.707 165.112C136.113 165.033 136.357 164.672 136.277 164.269C136.196 163.867 135.831 163.625 135.425 163.705L121.816 166.372C121.41 166.451 121.166 166.813 121.246 167.215C121.327 167.617 121.692 167.859 122.098 167.779Z" fill="#2970CC"/>
<path d="M97.784 183.41C97.9448 184.214 97.4561 184.937 96.6437 185.096C95.8312 185.255 95.1012 184.772 94.9404 183.967C94.7796 183.163 95.2683 182.44 96.0807 182.281C96.8932 182.122 97.6232 182.606 97.784 183.41Z" fill="#2970CC"/>
<path d="M103.674 182.256C103.834 183.06 103.346 183.783 102.533 183.942C101.721 184.101 100.991 183.617 100.83 182.813C100.669 182.009 101.158 181.286 101.97 181.127C102.681 180.987 103.513 181.451 103.674 182.256Z" fill="#2970CC"/>
<path d="M109.463 181.121C109.624 181.926 109.135 182.648 108.322 182.807C107.51 182.967 106.78 182.483 106.619 181.679C106.458 180.874 106.947 180.152 107.759 179.992C108.572 179.833 109.302 180.317 109.463 181.121Z" fill="#2970CC"/>
<path d="M497.94 233.249H508.19C511.296 233.249 513.884 235.811 513.884 238.886V399.488" stroke="#E5E8FF" stroke-miterlimit="10"/>
<path d="M497.94 269.838H508.19C511.296 269.838 513.884 272.4 513.884 275.475V399.488" stroke="#E5E8FF" stroke-miterlimit="10"/>
<path d="M497.94 306.529H508.19C511.296 306.529 513.884 309.091 513.884 312.166V399.488" stroke="#E5E8FF" stroke-miterlimit="10"/>
<path d="M497.94 343.118H508.19C511.296 343.118 513.884 345.68 513.884 348.755V399.488" stroke="#E5E8FF" stroke-miterlimit="10"/>
<path d="M497.94 379.707H508.19C511.296 379.707 513.884 382.269 513.884 385.344V399.385" stroke="#E5E8FF" stroke-miterlimit="10"/>
<path d="M242.951 278.652V399.385" stroke="white" stroke-miterlimit="10"/>
<path d="M484.69 395.08H337.266C332.193 395.08 328.155 390.981 328.155 386.061V371.61C328.155 366.588 332.296 362.591 337.266 362.591H484.794C489.866 362.591 493.904 366.691 493.904 371.61V386.061C493.904 390.981 489.763 395.08 484.69 395.08Z" fill="url(#paint1_linear_20128_13942)"/>
<path d="M348.033 387.804H337.576C336.852 387.804 336.23 387.189 336.23 386.471V371.098C336.23 370.38 336.852 369.765 337.576 369.765H348.033C348.757 369.765 349.379 370.38 349.379 371.098V386.471C349.379 387.291 348.757 387.804 348.033 387.804Z" fill="white"/>
<path d="M364.701 387.804H354.244C353.52 387.804 352.898 387.189 352.898 386.471V371.098C352.898 370.38 353.52 369.765 354.244 369.765H364.701C365.425 369.765 366.047 370.38 366.047 371.098V386.471C366.047 387.291 365.425 387.804 364.701 387.804Z" fill="#45C7FF"/>
<path d="M443.071 387.804H370.912C370.188 387.804 369.566 387.189 369.566 386.471V371.098C369.566 370.38 370.188 369.765 370.912 369.765H443.071C443.796 369.765 444.417 370.38 444.417 371.098V386.471C444.417 387.291 443.9 387.804 443.071 387.804Z" fill="white"/>
<path d="M458.497 378.887C458.497 381.449 456.427 383.499 453.838 383.499C451.25 383.499 449.18 381.449 449.18 378.887C449.18 376.325 451.25 374.275 453.838 374.275C456.427 374.173 458.497 376.325 458.497 378.887Z" fill="url(#paint2_linear_20128_13942)"/>
<path d="M471.334 378.887C471.334 381.449 469.264 383.499 466.675 383.499C464.087 383.499 462.017 381.449 462.017 378.887C462.017 376.325 464.087 374.275 466.675 374.275C469.264 374.173 471.334 376.325 471.334 378.887Z" fill="white"/>
<path d="M484.897 380.834H474.958C474.441 380.834 474.026 380.424 474.026 379.912V377.657C474.026 377.145 474.441 376.735 474.958 376.735H484.897C485.414 376.735 485.829 377.145 485.829 377.657V379.912C485.829 380.424 485.414 380.834 484.897 380.834Z" fill="url(#paint3_linear_20128_13942)"/>
<path d="M354.452 395.08H342.753V398.975H354.452V395.08Z" fill="white"/>
<path d="M479.927 395.08H468.229V398.975H479.927V395.08Z" fill="white"/>
<path d="M496.285 382.987H493.904V374.582H496.285C497.114 374.582 497.838 375.3 497.838 376.12V381.347C497.942 382.269 497.217 382.987 496.285 382.987Z" fill="#45C7FF"/>
<path d="M484.69 358.697H337.266C332.193 358.697 328.155 354.597 328.155 349.677V335.226C328.155 330.204 332.296 326.207 337.266 326.207H484.794C489.866 326.207 493.904 330.307 493.904 335.226V349.677C493.904 354.597 489.763 358.697 484.69 358.697Z" fill="url(#paint4_linear_20128_13942)"/>
<path d="M348.033 351.42H337.576C336.852 351.42 336.23 350.805 336.23 350.087V334.714C336.23 333.996 336.852 333.382 337.576 333.382H348.033C348.757 333.382 349.379 333.996 349.379 334.714V350.087C349.379 350.907 348.757 351.42 348.033 351.42Z" fill="#45C7FF"/>
<path d="M364.701 351.42H354.244C353.52 351.42 352.898 350.805 352.898 350.087V334.714C352.898 333.996 353.52 333.382 354.244 333.382H364.701C365.425 333.382 366.047 333.996 366.047 334.714V350.087C366.047 350.907 365.425 351.42 364.701 351.42Z" fill="white"/>
<path d="M443.071 351.42H370.912C370.188 351.42 369.566 350.805 369.566 350.087V334.714C369.566 333.996 370.188 333.382 370.912 333.382H443.071C443.796 333.382 444.417 333.996 444.417 334.714V350.087C444.417 350.907 443.9 351.42 443.071 351.42Z" fill="white"/>
<path d="M458.497 342.503C458.497 345.065 456.427 347.115 453.838 347.115C451.25 347.115 449.18 345.065 449.18 342.503C449.18 339.941 451.25 337.891 453.838 337.891C456.427 337.789 458.497 339.838 458.497 342.503Z" fill="url(#paint5_linear_20128_13942)"/>
<path d="M471.334 342.503C471.334 345.065 469.264 347.115 466.675 347.115C464.087 347.115 462.017 345.065 462.017 342.503C462.017 339.941 464.087 337.891 466.675 337.891C469.264 337.789 471.334 339.838 471.334 342.503Z" fill="white"/>
<path d="M484.897 344.45H474.958C474.441 344.45 474.026 344.04 474.026 343.528V341.273C474.026 340.761 474.441 340.351 474.958 340.351H484.897C485.414 340.351 485.829 340.761 485.829 341.273V343.528C485.829 344.04 485.414 344.45 484.897 344.45Z" fill="white"/>
<path d="M354.452 358.697H342.753V362.591H354.452V358.697Z" fill="white"/>
<path d="M479.927 358.697H468.229V362.591H479.927V358.697Z" fill="white"/>
<path d="M496.285 346.603H493.904V338.199H496.285C497.114 338.199 497.838 338.916 497.838 339.736V344.963C497.942 345.885 497.217 346.603 496.285 346.603Z" fill="#45C7FF"/>
<path d="M484.69 322.313H337.266C332.193 322.313 328.155 318.213 328.155 313.294V298.842C328.155 293.82 332.296 289.823 337.266 289.823H484.794C489.866 289.823 493.904 293.923 493.904 298.842V313.294C493.904 318.213 489.763 322.313 484.69 322.313Z" fill="url(#paint6_linear_20128_13942)"/>
<path d="M348.033 315.036H337.576C336.852 315.036 336.23 314.421 336.23 313.703V298.33C336.23 297.613 336.852 296.998 337.576 296.998H348.033C348.757 296.998 349.379 297.613 349.379 298.33V313.703C349.379 314.421 348.757 315.036 348.033 315.036Z" fill="white"/>
<path d="M364.701 315.036H354.244C353.52 315.036 352.898 314.421 352.898 313.703V298.33C352.898 297.613 353.52 296.998 354.244 296.998H364.701C365.425 296.998 366.047 297.613 366.047 298.33V313.703C366.047 314.421 365.425 315.036 364.701 315.036Z" fill="#45C7FF"/>
<path d="M443.071 315.036H370.912C370.188 315.036 369.566 314.421 369.566 313.703V298.33C369.566 297.613 370.188 296.998 370.912 296.998H443.071C443.796 296.998 444.417 297.613 444.417 298.33V313.703C444.417 314.421 443.9 315.036 443.071 315.036Z" fill="white"/>
<path d="M458.497 306.017C458.497 308.579 456.427 310.629 453.838 310.629C451.25 310.629 449.18 308.579 449.18 306.017C449.18 303.455 451.25 301.405 453.838 301.405C456.427 301.405 458.497 303.455 458.497 306.017Z" fill="url(#paint7_linear_20128_13942)"/>
<path d="M471.334 306.017C471.334 308.579 469.264 310.629 466.675 310.629C464.087 310.629 462.017 308.579 462.017 306.017C462.017 303.455 464.087 301.405 466.675 301.405C469.264 301.405 471.334 303.455 471.334 306.017Z" fill="url(#paint8_linear_20128_13942)"/>
<path d="M484.897 308.067H474.958C474.441 308.067 474.026 307.657 474.026 307.144V304.889C474.026 304.377 474.441 303.967 474.958 303.967H484.897C485.414 303.967 485.829 304.377 485.829 304.889V307.144C485.829 307.657 485.414 308.067 484.897 308.067Z" fill="white"/>
<path d="M354.452 322.313H342.753V326.207H354.452V322.313Z" fill="white"/>
<path d="M479.927 322.313H468.229V326.207H479.927V322.313Z" fill="white"/>
<path d="M496.285 310.219H493.904V301.815H496.285C497.114 301.815 497.838 302.532 497.838 303.352V308.579C497.942 309.501 497.217 310.219 496.285 310.219Z" fill="#45C7FF"/>
<path d="M484.69 285.929H337.266C332.193 285.929 328.155 281.829 328.155 276.91V262.459C328.155 257.437 332.296 253.439 337.266 253.439H484.794C489.866 253.439 493.904 257.539 493.904 262.459V276.91C493.904 281.829 489.763 285.929 484.69 285.929Z" fill="url(#paint9_linear_20128_13942)"/>
<path d="M348.033 278.652H337.576C336.852 278.652 336.23 278.037 336.23 277.32V261.946C336.23 261.229 336.852 260.614 337.576 260.614H348.033C348.757 260.614 349.379 261.229 349.379 261.946V277.32C349.379 278.037 348.757 278.652 348.033 278.652Z" fill="#45C7FF"/>
<path d="M364.701 278.652H354.244C353.52 278.652 352.898 278.037 352.898 277.32V261.946C352.898 261.229 353.52 260.614 354.244 260.614H364.701C365.425 260.614 366.047 261.229 366.047 261.946V277.32C366.047 278.037 365.425 278.652 364.701 278.652Z" fill="white"/>
<path d="M443.071 278.652H370.912C370.188 278.652 369.566 278.037 369.566 277.32V261.946C369.566 261.229 370.188 260.614 370.912 260.614H443.071C443.796 260.614 444.417 261.229 444.417 261.946V277.32C444.417 278.037 443.9 278.652 443.071 278.652Z" fill="white"/>
<path d="M458.497 269.633C458.497 272.195 456.427 274.245 453.838 274.245C451.25 274.245 449.18 272.195 449.18 269.633C449.18 267.071 451.25 265.021 453.838 265.021C456.427 265.021 458.497 267.071 458.497 269.633Z" fill="url(#paint10_linear_20128_13942)"/>
<path d="M471.334 269.633C471.334 272.195 469.264 274.245 466.675 274.245C464.087 274.245 462.017 272.195 462.017 269.633C462.017 267.071 464.087 265.021 466.675 265.021C469.264 265.021 471.334 267.071 471.334 269.633Z" fill="url(#paint11_linear_20128_13942)"/>
<path d="M484.897 271.683H474.958C474.441 271.683 474.026 271.273 474.026 270.76V268.505C474.026 267.993 474.441 267.583 474.958 267.583H484.897C485.414 267.583 485.829 267.993 485.829 268.505V270.76C485.829 271.273 485.414 271.683 484.897 271.683Z" fill="white"/>
<path d="M354.452 285.929H342.753V289.823H354.452V285.929Z" fill="white"/>
<path d="M479.927 285.929H468.229V289.823H479.927V285.929Z" fill="white"/>
<path d="M496.285 273.835H493.904V265.431H496.285C497.114 265.431 497.838 266.148 497.838 266.968V272.195C497.942 273.117 497.217 273.835 496.285 273.835Z" fill="#45C7FF"/>
<path d="M484.69 249.545H337.266C332.193 249.545 328.155 245.445 328.155 240.526V226.075C328.155 221.053 332.296 217.055 337.266 217.055H484.794C489.866 217.055 493.904 221.155 493.904 226.075V240.526C493.904 245.445 489.763 249.545 484.69 249.545Z" fill="url(#paint12_linear_20128_13942)"/>
<path d="M348.033 242.268H337.576C336.852 242.268 336.23 241.653 336.23 240.936V225.562C336.23 224.845 336.852 224.23 337.576 224.23H348.033C348.757 224.23 349.379 224.845 349.379 225.562V240.936C349.379 241.653 348.757 242.268 348.033 242.268Z" fill="white"/>
<path d="M364.701 242.268H354.244C353.52 242.268 352.898 241.653 352.898 240.936V225.562C352.898 224.845 353.52 224.23 354.244 224.23H364.701C365.425 224.23 366.047 224.845 366.047 225.562V240.936C366.047 241.653 365.425 242.268 364.701 242.268Z" fill="white"/>
<path d="M443.071 242.268H370.912C370.188 242.268 369.566 241.653 369.566 240.936V225.562C369.566 224.845 370.188 224.23 370.912 224.23H443.071C443.796 224.23 444.417 224.845 444.417 225.562V240.936C444.417 241.653 443.9 242.268 443.071 242.268Z" fill="white"/>
<path d="M458.497 233.249C458.497 235.811 456.427 237.861 453.838 237.861C451.25 237.861 449.18 235.811 449.18 233.249C449.18 230.687 451.25 228.637 453.838 228.637C456.427 228.637 458.497 230.687 458.497 233.249Z" fill="white"/>
<path d="M471.334 233.249C471.334 235.811 469.264 237.861 466.675 237.861C464.087 237.861 462.017 235.811 462.017 233.249C462.017 230.687 464.087 228.637 466.675 228.637C469.264 228.637 471.334 230.687 471.334 233.249Z" fill="url(#paint13_linear_20128_13942)"/>
<path d="M484.897 235.299H474.958C474.441 235.299 474.026 234.889 474.026 234.376V232.122C474.026 231.609 474.441 231.199 474.958 231.199H484.897C485.414 231.199 485.829 231.609 485.829 232.122V234.376C485.829 234.889 485.414 235.299 484.897 235.299Z" fill="white"/>
<path d="M354.452 249.545H342.753V253.439H354.452V249.545Z" fill="white"/>
<path d="M479.927 249.545H468.229V253.439H479.927V249.545Z" fill="white"/>
<path d="M496.285 237.451H493.904V229.047H496.285C497.114 229.047 497.838 229.764 497.838 230.584V235.811C497.942 236.734 497.217 237.451 496.285 237.451Z" fill="#45C7FF"/>
<path d="M358.696 281.727C358.696 281.727 359.627 283.776 360.249 285.314C360.87 286.954 360.042 289.823 360.042 289.823H358.799C358.799 289.823 353.83 293.513 351.345 295.05C348.861 296.588 347.825 297.1 346.583 297.1C345.651 297.1 343.166 296.383 343.374 294.845C343.581 293.308 351.449 282.854 351.449 282.854C351.449 282.854 356.936 282.957 358.696 281.727Z" fill="#001924"/>
<path d="M332.401 244.625C332.401 244.625 333.54 245.958 334.886 247.803C336.128 249.647 336.231 253.337 336.231 253.337L316.872 262.459C316.872 262.459 313.559 260.306 316.561 256.822C320.495 252.21 324.326 247.598 324.326 247.598C324.326 247.598 329.088 247.188 332.401 244.625Z" fill="#001924"/>
<path d="M322.461 241.551L324.324 247.598C324.324 247.598 329.294 247.905 332.4 244.625L331.157 239.398" fill="url(#paint14_linear_20128_13942)"/>
<path d="M341.097 195.225C341.097 195.225 348.344 196.148 352.588 195.738C357.351 195.225 352.899 190.716 352.899 190.716L341.614 193.38L341.097 195.225Z" fill="url(#paint15_linear_20128_13942)"/>
<path d="M364.597 201.785L363.251 216.953H347.929C347.929 216.953 341.924 215.416 334.677 212.546C332.089 211.521 329.397 210.394 326.706 209.061C327.637 211.111 328.052 213.058 328.673 217.261C330.433 231.097 331.986 241.243 331.986 241.243C327.327 244.318 322.668 244.01 322.668 244.01C322.668 244.01 311.28 213.366 309.52 202.604C308.588 196.66 312.729 190.203 325.877 191.843C330.536 192.458 342.649 195.533 347.101 196.558C357.557 199.222 364.597 201.785 364.597 201.785Z" fill="url(#paint16_linear_20128_13942)"/>
<path opacity="0.5" d="M358.178 216.953H347.928C347.928 216.953 341.924 215.416 334.677 212.546C334.677 212.546 344.408 215.313 354.037 215.416C356.832 215.518 357.971 215.723 358.178 216.953Z" fill="url(#paint17_linear_20128_13942)"/>
<path d="M350.414 277.32L351.553 282.854C351.553 282.854 356.936 283.879 358.696 281.727L358.386 277.832" fill="url(#paint18_linear_20128_13942)"/>
<path d="M384.37 199.632C384.37 199.632 370.394 203.527 363.458 199.837C363.458 199.837 341.924 225.87 341.096 235.709C340.889 238.271 344.409 252.005 347.1 263.688C349.274 273.22 350.827 281.317 350.827 281.317C350.827 281.317 355.9 281.419 359.006 280.189C359.006 280.189 358.178 246.368 355.486 237.963C362.112 233.351 372.465 226.28 378.469 219.003C379.505 217.773 380.954 217.056 382.507 217.056C382.507 216.953 387.787 210.496 384.37 199.632Z" fill="url(#paint19_linear_20128_13942)"/>
<path d="M351.966 174.932C351.241 174.727 350.517 174.522 349.792 174.317C342.856 172.267 340.889 169.808 340.889 169.808C345.237 157.611 348.032 154.844 350.103 152.692C353.933 148.592 351.034 161.711 350.62 162.018L351.966 174.932Z" fill="url(#paint20_linear_20128_13942)"/>
<path d="M350.414 162.838L348.758 170.218L352.692 169.193L350.414 162.838Z" fill="url(#paint21_linear_20128_13942)"/>
<path d="M384.577 198.402C384.784 200.35 386.027 201.067 386.027 203.322C386.027 203.834 384.163 206.192 379.401 207.012C379.401 207.012 369.255 211.521 359.316 203.424C354.554 199.53 349.274 197.172 349.274 197.172C349.067 197.07 349.067 196.66 349.378 196.25C349.585 195.943 350.827 194.2 350.827 193.995C352.691 183.746 351.138 182.721 351.034 174.932C351.034 174.727 351.034 174.522 351.034 174.317C350.827 162.223 349.585 156.279 350.206 152.487C353.001 149.412 360.766 146.952 361.283 146.85C361.283 146.85 369.462 146.747 371.222 146.85C375.26 147.875 382.507 150.027 386.13 156.074C385.923 160.891 386.234 166.835 385.613 174.317C385.509 175.65 383.542 189.998 384.577 198.402Z" fill="url(#paint22_linear_20128_13942)"/>
<path d="M353.001 128.504C353.001 128.504 352.38 132.706 354.347 133.424L355.175 128.812" fill="#192139"/>
<path d="M363.354 152.999C358.592 152.384 360.766 147.567 361.18 146.952C361.18 146.952 362.009 141.828 362.009 141.623L370.084 138.138C370.084 138.138 370.291 146.952 371.119 147.055C372.361 147.567 370.705 153.922 363.354 152.999Z" fill="url(#paint23_linear_20128_13942)"/>
<path d="M367.289 141.008C367.289 141.008 365.529 144.8 361.388 145.62L362.009 141.623L367.289 141.008Z" fill="#FFC4BD"/>
<path d="M353.933 128.299C353.933 128.299 352.069 142.135 358.281 144.39C358.281 144.39 364.389 145.005 368.013 140.188C369.048 138.856 370.394 138.548 370.808 136.806C371.533 134.141 372.465 129.119 371.222 126.147C369.462 121.945 354.14 117.948 353.933 128.299Z" fill="url(#paint24_linear_20128_13942)"/>
<path d="M358.075 118.563C358.075 118.563 359.524 115.283 363.976 116.82C367.082 117.948 368.635 120.203 368.635 120.203C368.635 120.203 369.877 119.178 371.016 120.715C371.74 121.74 371.326 123.79 371.326 123.79C378.677 125.122 371.223 140.598 371.119 141.111L370.291 141.52C370.084 139.266 370.187 137.216 369.98 135.576C369.98 135.064 369.152 134.859 369.049 134.449C367.599 134.654 366.15 134.654 365.322 133.936C363.872 132.706 363.562 130.759 363.458 129.427C362.112 129.837 350.828 131.681 351.449 125.327C351.449 125.327 350.931 124.302 350.828 123.38C349.482 115.591 358.075 118.563 358.075 118.563Z" fill="#001837"/>
<path d="M367.599 137.626C370.394 138.651 371.222 131.886 368.634 131.579C366.667 131.374 366.563 134.141 366.563 134.141C366.563 134.141 366.046 137.011 367.599 137.626Z" fill="url(#paint25_linear_20128_13942)"/>
<path d="M374.433 165.503L377.642 175.957L384.061 176.879L374.433 165.503Z" fill="url(#paint26_linear_20128_13942)"/>
<path d="M395.139 177.699C392.447 169.808 387.788 160.379 387.788 160.379L376.918 166.528C376.918 166.528 381.059 174.727 383.75 180.364C381.059 180.979 374.329 182.721 369.049 184.361C362.424 186.514 356.315 187.026 356.315 187.026C356.626 189.076 356.626 190.921 356.626 190.921C363.045 191.228 375.261 191.331 383.854 190.818C387.374 190.613 390.48 190.203 392.033 189.691C394.517 188.871 396.277 188.153 396.381 185.489C396.588 181.799 395.242 177.802 395.139 177.699Z" fill="url(#paint27_linear_20128_13942)"/>
<path d="M369.05 194.098H354.038V192.663H369.05C369.464 192.663 369.774 192.97 369.774 193.38C369.774 193.79 369.464 194.098 369.05 194.098Z" fill="white"/>
<path d="M360.973 194.098H325.152C324.738 194.098 324.324 193.79 324.22 193.38L316.559 166.016C316.352 165.401 316.87 164.786 317.491 164.786H352.069C352.897 164.786 353.622 165.298 353.933 166.118L361.594 193.38C361.594 193.79 361.283 194.098 360.973 194.098Z" fill="white"/>
<path d="M359.628 194.098H323.807C323.393 194.098 322.979 193.79 322.875 193.38L315.214 166.016C315.007 165.401 315.525 164.786 316.146 164.786H350.725C351.553 164.786 352.277 165.298 352.588 166.118L360.249 193.38C360.146 193.79 359.939 194.098 359.628 194.098Z" fill="url(#paint28_linear_20128_13942)"/>
<path d="M327.948 194.098C327.948 194.098 328.569 195.43 331.365 195.738L331.158 194.098H327.948Z" fill="url(#paint29_linear_20128_13942)"/>
<path d="M328.674 189.486C328.777 189.178 329.399 188.973 329.916 189.076C329.709 188.461 329.502 187.948 329.502 187.948C329.502 187.231 330.227 187.333 330.641 187.538C331.159 187.846 331.676 188.973 331.78 189.076C331.573 188.666 331.366 188.256 331.366 188.153C331.469 187.743 332.401 187.333 333.022 187.846C333.333 188.051 334.161 189.486 334.368 189.896C334.264 189.691 334.264 189.486 334.264 189.486C334.368 189.076 335.196 188.871 335.714 189.383C336.542 190.101 337.681 192.765 337.681 192.765C338.198 193.995 338.716 194.098 338.82 194.098C339.234 194.098 341.718 194.098 341.718 194.098C341.718 194.098 341.511 195.328 340.062 195.738C338.716 196.148 336.542 196.455 333.85 196.455C332.504 196.455 330.951 195.943 330.123 194.713C329.813 194.303 329.295 192.15 329.088 191.433C329.088 191.023 328.57 189.486 328.674 189.486Z" fill="url(#paint30_linear_20128_13942)"/>
<path d="M386.027 156.279C386.027 156.279 388.408 159.251 392.653 169.5C392.653 169.5 386.234 173.19 378.366 174.727C378.366 174.727 376.709 171.448 372.879 161.813" fill="url(#paint31_linear_20128_13942)"/>
<path d="M216.03 399.59H239.428V256.822H216.03V399.59Z" fill="#2970CC"/>
<path d="M214.684 399.59H236.321V256.822H214.684V399.59Z" fill="#DEEFF8"/>
<path d="M182.177 277.32L186.421 276.807L197.602 206.909C197.706 206.192 198.327 205.782 198.948 205.782H276.491L277.216 203.424L280.322 205.372C280.322 205.372 280.425 205.372 280.425 205.474C280.839 205.782 281.046 206.294 280.943 206.807L269.451 278.754C269.348 279.472 268.726 279.882 268.105 279.882H186.525C186.214 279.882 185.8 279.779 185.593 279.574L182.177 277.32Z" fill="#2970CC"/>
<g filter="url(#filter1_d_20128_13942)">
<path d="M183.108 277.73H264.688C265.413 277.73 265.931 277.217 266.034 276.602L277.526 204.654C277.629 203.834 277.008 203.117 276.18 203.117H194.6C193.875 203.117 193.357 203.629 193.254 204.244L181.762 276.09C181.659 276.91 182.28 277.73 183.108 277.73Z" fill="white"/>
</g>
<path d="M186.939 274.245H261.893C262.307 274.245 262.722 273.937 262.722 273.527L273.281 207.421C273.385 206.909 272.971 206.397 272.453 206.397H197.499C197.085 206.397 196.671 206.704 196.671 207.114L186.111 273.22C186.007 273.835 186.421 274.245 186.939 274.245Z" fill="#ECF9FF"/>
<path d="M212.923 243.088H237.874C238.391 243.088 238.909 242.678 239.013 242.166L242.533 220.335C242.636 219.618 242.118 219.105 241.394 219.105H216.443C215.926 219.105 215.408 219.515 215.305 220.028L211.785 241.858C211.681 242.473 212.199 243.088 212.923 243.088Z" fill="url(#paint32_linear_20128_13942)"/>
<path d="M217.582 240.116H215.822C215.615 240.116 215.408 239.911 215.408 239.706L217.479 226.895C217.479 226.69 217.789 226.485 217.996 226.485H219.756C219.963 226.485 220.171 226.69 220.171 226.895L218.1 239.706C218.1 239.911 217.893 240.116 217.582 240.116Z" fill="#EEF6FD"/>
<path d="M222.034 240.116H220.274C220.067 240.116 219.86 239.911 219.86 239.706L221.517 229.559C221.517 229.354 221.827 229.149 222.034 229.149H223.794C224.001 229.149 224.209 229.354 224.209 229.559L222.552 239.706C222.552 239.911 222.345 240.116 222.034 240.116Z" fill="#EEF6FD"/>
<path d="M226.486 240.116H224.829C224.622 240.116 224.415 239.911 224.415 239.706L226.382 227.612C226.382 227.407 226.693 227.202 226.9 227.202H228.66C228.867 227.202 229.074 227.407 229.074 227.612L227.107 239.706C227.003 239.911 226.796 240.116 226.486 240.116Z" fill="#EEF6FD"/>
<path d="M230.938 240.116H229.178C228.971 240.116 228.764 239.911 228.764 239.706L231.662 221.668C231.662 221.463 231.973 221.258 232.18 221.258H233.94C234.147 221.258 234.354 221.463 234.354 221.668L231.455 239.706C231.455 239.911 231.248 240.116 230.938 240.116Z" fill="#EEF6FD"/>
<path d="M235.39 240.116H233.63C233.423 240.116 233.216 239.911 233.216 239.706L235.493 225.46C235.493 225.255 235.804 225.05 236.011 225.05H237.771C237.978 225.05 238.185 225.255 238.185 225.46L235.908 239.706C235.908 239.911 235.597 240.116 235.39 240.116Z" fill="#EEF6FD"/>
<path d="M244.5 258.461H258.166C258.476 258.461 258.683 258.256 258.787 257.949L260.754 245.958C260.858 245.548 260.547 245.24 260.133 245.24H246.467C246.157 245.24 245.949 245.445 245.846 245.753L243.879 257.744C243.879 258.154 244.086 258.461 244.5 258.461Z" fill="url(#paint33_linear_20128_13942)"/>
<path opacity="0.5" d="M216.549 267.686H246.883C247.297 267.686 247.608 267.378 247.711 266.968L250.299 250.672C250.403 250.16 249.989 249.75 249.471 249.75H219.137C218.723 249.75 218.413 250.057 218.309 250.467L215.721 266.763C215.618 267.173 216.032 267.686 216.549 267.686Z" fill="url(#paint34_linear_20128_13942)"/>
<path d="M220.171 256.719L219.032 263.586H245.743L247.088 255.079C247.088 255.079 245.432 254.157 243.154 255.387C241.394 256.309 238.806 259.076 237.046 258.871C235.286 258.666 234.147 254.259 231.766 254.259C229.385 254.259 227.418 259.179 225.451 259.179C223.691 259.281 221.413 256.617 220.171 256.719Z" fill="white"/>
<path d="M248.33 225.05H263.135C263.342 225.05 263.549 224.947 263.549 224.742L264.791 216.851C264.791 216.646 264.688 216.338 264.377 216.338H249.676C249.469 216.338 249.262 216.441 249.262 216.646L248.02 224.537C247.916 224.742 248.123 225.05 248.33 225.05Z" fill="url(#paint35_linear_20128_13942)"/>
<g opacity="0.4">
<path d="M249.779 227.817H260.028C260.339 227.817 260.649 227.612 260.649 227.304C260.649 226.997 260.442 226.792 260.235 226.792H249.986C249.675 226.792 249.365 226.997 249.365 227.304C249.261 227.612 249.468 227.817 249.779 227.817Z" fill="url(#paint36_linear_20128_13942)"/>
<path d="M249.469 229.867H259.719C260.029 229.867 260.34 229.662 260.34 229.354C260.34 229.047 260.133 228.842 259.926 228.842H249.676C249.366 228.842 249.055 229.047 249.055 229.354C248.952 229.559 249.159 229.867 249.469 229.867Z" fill="url(#paint37_linear_20128_13942)"/>
<path d="M249.159 231.917H259.408C259.719 231.917 260.029 231.712 260.029 231.404C260.029 231.097 259.822 230.892 259.615 230.892H249.366C249.055 230.892 248.745 231.097 248.745 231.404C248.641 231.609 248.848 231.917 249.159 231.917Z" fill="url(#paint38_linear_20128_13942)"/>
<path d="M254.543 233.864H259.098C259.408 233.864 259.719 233.659 259.719 233.351C259.719 233.044 259.512 232.839 259.305 232.839H254.75C254.439 232.839 254.128 233.044 254.128 233.351C254.025 233.659 254.232 233.864 254.543 233.864Z" fill="url(#paint39_linear_20128_13942)"/>
</g>
<g opacity="0.4">
<path d="M197.707 257.744H212.201C212.615 257.744 213.029 257.437 213.132 257.027C213.236 256.617 212.925 256.309 212.511 256.309H198.017C197.603 256.309 197.189 256.617 197.085 257.027C196.982 257.437 197.293 257.744 197.707 257.744Z" fill="url(#paint40_linear_20128_13942)"/>
<path d="M197.292 260.614H211.786C212.2 260.614 212.614 260.306 212.717 259.896C212.821 259.486 212.51 259.179 212.096 259.179H197.602C197.188 259.179 196.774 259.486 196.67 259.896C196.567 260.306 196.878 260.614 197.292 260.614Z" fill="url(#paint41_linear_20128_13942)"/>
<path d="M196.774 263.483H211.268C211.682 263.483 212.096 263.176 212.2 262.766C212.303 262.356 211.993 262.049 211.579 262.049H197.085C196.671 262.049 196.256 262.356 196.153 262.766C196.049 263.073 196.36 263.483 196.774 263.483Z" fill="url(#paint42_linear_20128_13942)"/>
<path d="M204.332 266.353H210.75C211.165 266.353 211.579 266.046 211.682 265.636C211.786 265.226 211.475 264.918 211.061 264.918H204.642C204.228 264.918 203.814 265.226 203.71 265.636C203.607 265.943 203.918 266.353 204.332 266.353Z" fill="url(#paint43_linear_20128_13942)"/>
</g>
<g opacity="0.5">
<path opacity="0.4" d="M201.122 217.26H210.957C211.268 217.26 211.475 217.056 211.578 216.748C211.578 216.441 211.475 216.236 211.164 216.236H201.329C201.019 216.236 200.812 216.441 200.708 216.748C200.708 217.056 200.915 217.26 201.122 217.26Z" fill="url(#paint44_linear_20128_13942)"/>
<path opacity="0.4" d="M200.812 219.208H210.647C210.957 219.208 211.164 219.003 211.268 218.695C211.268 218.388 211.164 218.183 210.854 218.183H201.019C200.708 218.183 200.501 218.388 200.397 218.695C200.397 219.003 200.605 219.208 200.812 219.208Z" fill="url(#paint45_linear_20128_13942)"/>
<path opacity="0.4" d="M205.988 221.155H210.44C210.75 221.155 210.957 220.95 211.061 220.643C211.061 220.335 210.957 220.13 210.647 220.13H206.195C205.884 220.13 205.677 220.335 205.574 220.643C205.47 220.95 205.677 221.155 205.988 221.155Z" fill="url(#paint46_linear_20128_13942)"/>
</g>
<path d="M191.599 381.757L192.22 391.083C192.22 391.083 197.914 393.031 201.537 391.083L202.469 381.449" fill="url(#paint47_linear_20128_13942)"/>
<path d="M214.582 398.975H191.185C191.185 398.155 190.978 396.105 191.288 394.466C191.599 392.518 192.22 391.186 192.22 391.186C196.568 392.108 201.538 391.186 201.538 391.186C201.538 391.186 209.095 393.441 212.097 395.183C214.272 396.31 214.686 398.155 214.582 398.975Z" fill="#001924"/>
<path d="M141.595 377.965L139.007 386.369C139.007 386.369 142.63 389.956 147.082 389.239L151.43 378.99" fill="url(#paint48_linear_20128_13942)"/>
<path d="M155.674 398.975H155.467H146.253C146.046 398.975 145.943 398.975 145.839 398.975C143.458 396.823 134.762 389.546 134.865 389.034C134.969 388.624 135.797 387.086 137.039 385.344C138.385 383.397 140.352 382.474 140.352 382.474C143.976 385.549 148.738 385.651 148.738 385.651C148.738 385.651 151.016 391.698 152.361 392.826C153.707 393.031 157.331 394.978 155.674 398.975Z" fill="#001924"/>
<path d="M202.979 381.69C202.675 385.01 200.335 387.963 197.003 388.003C196.255 388.012 195.579 387.973 194.976 387.903C192.484 387.614 191.091 385.319 190.936 382.815C190.362 373.6 188.988 351.153 188.906 346.295C188.782 342.244 188.918 338.561 189.047 336.258C189.137 334.649 188.781 333.05 188.145 331.569C185.157 324.621 181.866 311.346 181.866 311.346C181.866 311.346 180.417 317.291 178.864 323.03C177.829 326.822 176.793 330.614 175.965 332.664C174.231 337.242 159.585 367.319 153.73 379.302C152.277 382.276 149.106 384.173 145.909 383.315C144.736 383.001 143.816 382.649 143.098 382.303C141.293 381.433 140.976 379.369 141.557 377.451C143.406 371.346 147.782 357.114 151.429 346.91C154.924 337.131 157.472 331.272 158.58 328.847C158.978 327.975 159.244 327.051 159.342 326.098L162.621 294.195C162.75 292.938 162.571 291.672 162.209 290.462C161.686 288.713 161.034 286.001 161.161 283.674C161.255 281.656 161.936 279.059 162.646 276.835C163.585 273.897 166.332 271.997 169.412 271.847L191.05 270.794C194.054 270.647 196.887 272.199 198.382 274.81L198.701 275.368C199.206 276.251 199.535 277.196 199.676 278.204C200.817 286.378 206.239 325.438 206.61 331.947C206.937 337.62 204.157 368.864 202.979 381.69Z" fill="#45C7FF"/>
<path d="M205.886 190.101C205.782 191.946 204.85 194.405 204.333 197.275C204.022 199.325 203.194 202.092 202.055 204.347C200.916 206.602 199.674 208.241 198.328 208.549C195.636 209.164 186.008 206.397 183.317 196.045C180.107 183.849 189.011 180.569 193.462 181.184C197.81 181.697 206.403 183.644 205.886 190.101Z" fill="url(#paint49_linear_20128_13942)"/>
<path d="M194.498 202.604C194.498 202.604 193.152 206.704 192.738 211.931C192.738 211.931 184.352 213.263 179.9 210.906C179.9 210.906 184.559 201.477 185.077 193.175" fill="#E9CDB2"/>
<path d="M163.853 232.839C163.853 232.839 160.54 244.42 160.954 248.827C161.161 250.365 170.892 254.669 170.892 254.669L172.756 238.168L163.853 232.839Z" fill="url(#paint50_linear_20128_13942)"/>
<path d="M172.755 240.731C172.548 240.731 172.341 240.731 172.134 240.731C169.649 240.526 167.682 240.116 166.026 239.603C163.541 238.783 162.195 237.758 162.195 237.758C164.991 226.382 167.268 220.848 167.268 220.848L172.755 240.731Z" fill="url(#paint51_linear_20128_13942)"/>
<path d="M171.721 240.833C169.237 240.628 167.27 240.218 165.613 239.706C166.131 236.221 166.649 231.302 166.649 231.302L167.787 232.839L171.721 240.833Z" fill="#2474DA"/>
<path d="M199.881 274.347C200.083 275.747 198.572 276.31 197.164 276.188C185.04 275.137 173.223 291.064 159.298 279.882C158.677 279.369 163.543 270.965 166.131 256.514C166.959 251.8 167.063 246.06 167.27 240.321C167.477 232.532 165.303 225.46 166.959 221.155C169.108 215.686 176.009 211.918 179.168 211.237C179.244 211.22 179.314 211.206 179.39 211.19C180.192 211.031 185.252 210.155 191.703 212.034C195.943 213.264 199.513 217.459 201.244 219.818C202.019 220.874 202.427 222.148 202.337 223.455C202.076 227.23 200.802 232.668 199.674 238.681C198.846 243.293 198.018 248.11 197.811 252.722C197.811 252.927 197.811 253.234 197.811 253.439C197.5 260.614 199.26 269.838 199.881 274.347Z" fill="url(#paint52_linear_20128_13942)"/>
<path d="M199.571 238.578C198.743 243.19 197.915 248.007 197.708 252.62C197.708 252.825 197.708 253.132 197.708 253.337V253.439L191.496 232.429L194.602 232.736L199.571 238.578Z" fill="#2776DD"/>
<path d="M233.527 230.379C233.527 230.379 234.149 228.637 234.356 227.612C234.563 226.587 234.77 225.562 235.08 225.562C235.391 225.665 235.909 226.28 236.012 226.997C236.219 227.714 236.012 229.457 236.012 229.457L233.527 230.379Z" fill="url(#paint53_linear_20128_13942)"/>
<path d="M242.327 226.587C242.12 226.587 241.499 226.895 240.878 227.202C239.946 227.612 239.014 227.919 239.014 227.919L236.944 229.252C237.358 228.842 237.772 228.432 238.186 228.022C238.911 227.407 239.532 226.997 239.739 226.792C240.878 225.767 240.049 225.05 239.428 225.46C238.807 225.767 237.358 226.485 236.84 226.895C236.012 227.509 234.148 229.354 234.045 229.559C233.734 229.867 231.664 234.274 231.249 234.889C230.732 235.606 228.868 236.631 228.868 236.631C223.278 238.988 212.097 243.395 212.097 243.395L207.749 234.479L195.325 237.246C195.325 237.246 204.022 252.722 206.713 254.567C212.511 258.461 228.351 242.268 233.424 239.603C233.424 239.603 236.012 238.476 237.047 237.553C237.668 236.939 237.979 236.221 238.186 235.709L238.704 234.684C238.704 234.684 238.807 236.119 238.911 236.836C239.014 237.451 239.739 237.758 239.946 237.553C240.049 237.451 240.153 236.631 240.256 235.709C240.36 234.581 240.567 233.351 240.464 233.249C240.256 232.941 239.739 232.224 239.739 232.224C239.739 232.224 239.842 231.814 239.635 231.609C239.428 231.507 239.014 231.097 238.704 230.994L240.36 229.662C240.36 229.662 241.085 229.252 242.016 228.637C242.741 227.714 242.638 226.69 242.327 226.587Z" fill="url(#paint54_linear_20128_13942)"/>
<path d="M190.045 225.05C189.424 231.302 196.154 242.576 196.154 242.576C196.154 242.576 203.09 241.346 208.991 236.016C208.991 236.016 204.539 224.64 202.262 221.463C199.777 217.978 190.667 218.798 190.045 225.05Z" fill="url(#paint55_linear_20128_13942)"/>
<path d="M208.991 188.973C209.819 186.821 209.302 184.361 205.264 184.259C200.605 176.47 191.495 178.109 188.7 178.827C181.142 180.569 177.208 188.973 178.14 195.225C179.072 202.399 181.039 203.629 181.763 204.654C182.488 205.679 188.596 207.114 191.598 205.679C192.634 205.167 195.636 196.353 195.947 195.43C196.05 195.225 196.05 194.918 196.257 194.815C196.568 194.61 196.982 194.61 197.396 194.61C197.5 194.61 197.603 194.61 197.603 194.61C197.5 195.533 197.707 196.66 198.742 196.353C199.674 196.148 200.398 195.225 200.813 194.508C206.3 193.483 208.474 190.306 208.991 188.973Z" fill="#001837"/>
<path d="M198.949 196.148C198.949 196.148 198.949 192.56 196.361 193.073C193.98 193.483 193.566 200.145 195.74 200.657C197.914 201.17 199.156 198.915 198.949 196.148Z" fill="url(#paint56_linear_20128_13942)"/>
<path d="M179.486 187.128C179.486 187.128 169.133 201.17 172.653 210.804C174.102 214.903 192.841 219.72 197.603 212.239C193.462 211.009 194.601 199.427 194.601 199.427L179.486 187.128Z" fill="#001837"/>
<g filter="url(#filter2_d_20128_13942)">
<path d="M315.213 151.155H262.931C260.24 151.155 258.065 149.002 258.065 146.338V135.884C258.065 133.219 260.24 131.066 262.931 131.066H315.213C317.905 131.066 320.079 133.219 320.079 135.884V146.338C320.079 149.002 317.905 151.155 315.213 151.155Z" fill="white"/>
</g>
<path d="M270.592 146.44H265.001C263.552 146.44 262.413 145.313 262.413 143.878V138.343C262.413 136.908 263.552 135.781 265.001 135.781H270.592C272.041 135.781 273.18 136.908 273.18 138.343V143.878C273.18 145.313 271.938 146.44 270.592 146.44Z" fill="#45C7FF"/>
<path d="M313.039 139.061H276.493C276.183 139.061 275.976 138.856 275.976 138.548C275.976 138.241 276.183 138.036 276.493 138.036H313.039C313.349 138.036 313.556 138.241 313.556 138.548C313.66 138.856 313.349 139.061 313.039 139.061Z" fill="#45C7FF"/>
<path d="M291.711 141.623H276.596C276.285 141.623 276.078 141.418 276.078 141.111C276.078 140.803 276.285 140.598 276.596 140.598H291.711C292.021 140.598 292.229 140.803 292.229 141.111C292.229 141.418 292.021 141.623 291.711 141.623Z" fill="#45C7FF"/>
<path d="M313.039 141.623H293.886C293.575 141.623 293.368 141.418 293.368 141.111C293.368 140.803 293.575 140.598 293.886 140.598H313.039C313.349 140.598 313.556 140.803 313.556 141.111C313.66 141.418 313.349 141.623 313.039 141.623Z" fill="#45C7FF"/>
<path d="M296.267 144.185H276.493C276.183 144.185 275.976 143.98 275.976 143.673C275.976 143.365 276.183 143.16 276.493 143.16H296.267C296.578 143.16 296.785 143.365 296.785 143.673C296.785 143.98 296.578 144.185 296.267 144.185Z" fill="#45C7FF"/>
<path d="M493.799 191.638L458.496 177.699L423.193 191.638C423.193 191.638 421.433 240.833 458.496 253.542C495.559 240.833 493.799 191.638 493.799 191.638Z" fill="#45C7FF"/>
<path d="M458.496 183.849L488.002 195.43C487.484 205.782 483.861 237.349 458.496 247.495C433.132 237.349 429.508 205.782 428.991 195.43L458.496 183.849ZM458.496 180.467L425.781 193.38C425.885 201.785 428.266 239.808 458.496 250.877C488.726 239.808 491.004 201.785 491.211 193.38L458.496 180.467Z" fill="white"/>
<path d="M437.169 209.881C437.169 209.881 452.802 220.233 458.392 234.684C458.392 234.684 473.404 196.66 493.695 183.849C493.695 183.849 474.025 187.743 456.632 219.618C456.736 219.618 449.075 210.599 437.169 209.881Z" fill="white"/>
<path opacity="0.2" d="M18.6055 399.078H556.435" stroke="#2970CC" stroke-miterlimit="10" stroke-linecap="round" stroke-linejoin="round"/>
<path d="M110.694 350.213C108.234 350.34 108.639 350.213 104.544 349.816C100.448 349.42 99.8983 353.029 98.3932 353.694C96.8882 354.359 95.6581 355.435 93.8057 357.628C92.2138 359.524 92.9953 363.572 93.2413 364.647C91.5481 367.973 89.9128 371.935 89.3628 375.756C89.0445 377.893 88.2775 380.681 87.3657 383.454C88.2485 378.53 89.5799 371.143 89.8404 369.402C90.0864 367.845 90.839 364.081 91.6928 360.784C92.1993 358.817 92.7492 357.005 93.2558 355.916C97.9736 354.416 99.551 349.632 99.551 349.632C103.241 349.364 103.241 347.085 104.471 347.227C105.701 347.354 106.657 346.562 107.756 346.151C108.856 345.755 109.811 346.279 111.852 346.151C113.907 346.024 113.487 345.613 114.558 345.741C115.629 345.868 116.845 346.618 116.845 346.618C115.484 343.406 108.914 343.137 105.383 343.547C101.852 343.944 102.214 346.095 99.2037 347.029C96.1935 347.963 91.823 351.713 90.7232 354.118C89.9562 355.817 90.7377 358.435 91.2731 359.836C91.2297 360.02 91.1718 360.204 91.1284 360.402C88.7984 370.025 87.7131 374.44 87.7131 374.44C87.7131 374.44 87.0763 377.327 86.208 380.44C86.1646 379.846 86.0922 379.096 85.9909 378.119C85.5857 374.114 87.6262 360.331 88.0459 357.925C88.1906 357.09 88.6103 355.562 89.0879 353.92C89.0879 353.92 92.4164 348.84 94.3267 347.722C96.2369 346.604 97.1921 343.349 98.6972 341.623C100.086 340.024 100.188 340.349 101.577 339.783C102.141 340.193 102.937 340.675 103.69 340.745C105.05 340.873 105.238 339.939 106.512 340.745C107.785 341.552 106.975 341.948 108.61 342.076C110.246 342.203 112.981 343.01 112.981 343.01C112.981 343.01 111.476 341.142 110.796 340.208C110.115 339.274 110.39 339.005 109.16 338.608C107.93 338.212 108.972 336.387 104.963 336.755C103.661 336.769 101.693 336.726 100.405 336.514C98.3354 336.16 96.3093 337.943 94.3267 338.269C92.344 338.594 91.7941 341.014 90.3759 342.797C88.9576 344.566 89.6089 345.161 87.4526 347.043C85.2963 348.911 87.2065 351.217 87.2065 351.217C86.8737 352.166 87.496 353.906 87.9157 354.883C86.7724 359.652 85.4989 366.558 84.7753 370.591C84.4569 363.246 84.1819 354.288 84.4569 349.505C85.0647 348.642 86.2948 347 87.4526 346.052C89.0589 344.722 88.7116 344.58 89.9417 342.444C91.1718 340.307 91.577 338.297 93.7767 336.74C95.962 335.17 95.687 332.821 97.1921 332.155C98.6971 331.49 101.36 329.014 101.36 329.014C102.662 328.943 105.354 327.924 105.354 327.924C106.266 328.108 109.291 326.608 109.291 326.608C105.875 325.136 103.14 326.877 99.4497 326.877C95.7594 326.877 93.0242 329.552 91.2442 330.358C89.4641 331.165 88.1038 333.16 87.8288 334.108C87.7275 334.462 87.5249 334.759 87.1921 335.085C87.3657 333.486 86.9171 332.014 87.0039 329.24C87.1342 325.179 87.0039 325.816 87.0039 323.268C87.0039 320.721 85.7015 319.801 85.7015 319.801C84.674 319.419 82.0691 321.259 81.1139 323.127C80.1588 324.995 79.2036 328.207 78.5813 331.391C77.9591 334.575 80.4337 334.901 79.3339 337.307C79.0589 337.929 78.8708 338.623 78.755 339.33C78.1472 337.42 77.1197 336.415 75.9041 334.986C74.399 333.203 74.399 333.415 72.4308 330.684C70.4482 327.938 66.7579 327.415 63.9938 326.014C61.2297 324.627 58.8418 326.014 58.8418 326.014C58.8418 326.014 62.5177 327.669 63.878 329.552C65.2383 331.42 64.8331 331.83 66.208 334.773C67.5683 337.717 69.0734 337.575 70.1732 340.519C71.2731 343.462 73.3136 344.934 74.4135 346.406C75.0502 347.269 75.0792 348.458 75.2239 349.859C74.8332 349.477 74.2398 349.081 73.1834 348.543C70.318 347.071 70.043 343.293 65.8606 342.712C61.6928 342.132 58.5379 342.528 57.3078 344.128C56.0777 345.727 55.3975 345.203 53.8925 346.675C52.4453 348.076 51.5625 350.92 51.5625 350.92C51.5625 350.92 53.0676 348.684 55.1081 348.684C57.1631 348.684 60.7087 348.812 62.0835 348.812C63.4583 348.812 64.6884 349.349 66.454 349.477C68.234 349.604 68.509 349.816 69.3918 351.175C70.2745 352.548 73.0097 353.482 73.0097 353.482L75.933 357.288C77.3078 361.888 81.331 375.431 81.8954 378.742C82.2717 380.921 82.3151 382.478 82.4743 383.483V383.61H82.3295C80.7232 379.11 76.3961 367.944 74.7753 363.812C74.7753 363.812 75.6291 363.43 75.8751 362.001C75.9185 361.789 75.9475 361.548 75.933 361.293C75.933 361.265 75.933 361.237 75.933 361.208C75.933 360.218 75.5712 359.354 75.0358 358.718C74.5003 358.01 73.7767 357.586 72.9518 357.501C72.8939 357.501 72.8505 357.487 72.7926 357.487C71.2876 357.43 71.2876 356.255 69.2326 356.043C67.1776 355.831 64.5871 353.694 62.9373 355.166C61.302 356.637 60.3324 355.562 59.522 357.175C58.7116 358.788 57.6985 357.402 56.9026 359.567C56.1066 361.732 53.5017 362.397 54.6016 364.93C54.6016 364.93 55.904 362.723 57.9446 362.454C59.9996 362.185 59.5799 360.982 61.0849 361.251C62.59 361.52 64.92 361.435 65.8751 360.331C66.8302 359.241 68.1906 361.605 70.4482 359.553C70.4482 359.553 70.8679 359.722 71.4468 360.062C71.9822 360.487 72.59 361.138 73.14 361.774L81.1429 383.638H75.6146C74.9923 383.638 74.5292 384.19 74.645 384.785L77.496 399.078H92.0112L95.1226 384.799C95.2529 384.204 94.7898 383.638 94.153 383.638H88.4366C89.7391 377.695 91.823 369.204 92.6479 367.067C93.3426 365.256 94.2977 363.458 95.166 361.958C95.166 361.958 96.5409 360.713 98.8998 359.977C101.244 359.241 103.386 356.156 103.386 356.156C106.946 356.156 105.441 354.147 107.756 354.147C110.086 354.147 109.537 352.675 112.952 352.279C116.367 351.883 117.945 354.883 117.945 354.883C117.945 349.958 113.169 350.085 110.694 350.213ZM85.5857 382.591C85.5857 382.605 85.5712 382.634 85.5712 382.648C85.5712 382.634 85.5568 382.605 85.5568 382.591H85.5857ZM82.4598 351.529C82.865 352.137 83.2847 352.604 83.5886 352.93C83.4294 357.104 83.4149 362.383 83.4149 364.69C82.6045 360.954 81.7941 358.038 81.1718 356.001C81.9822 355.01 82.3874 353.17 82.4598 351.529ZM81.0994 370.35C80.1877 367.93 78.7116 363.402 77.5539 359.991C77.5539 359.991 77.9012 357.43 77.6986 355.137C78.6971 355.859 79.8115 356.213 80.3759 356.354C81.056 359.128 83.4439 373.35 83.4439 373.35C83.4439 374.581 83.4439 375.742 83.4439 376.704C82.5032 374.412 82.1993 373.237 81.0994 370.35Z" fill="#C8EEFF"/>
<path d="M80.7233 356.17C80.6655 356.17 80.6076 356.128 80.5931 356.057C80.5497 355.803 75.7016 330.203 64.0084 326.084C63.9361 326.056 63.9071 325.985 63.9216 325.915C63.9505 325.844 64.0229 325.816 64.0952 325.83C67.5106 327.033 72.5323 330.91 76.9752 342.528C79.6235 349.449 80.8391 355.958 80.8536 356.015C80.8681 356.086 80.8246 356.156 80.7378 356.17C80.7378 356.17 80.7378 356.17 80.7233 356.17Z" fill="white"/>
<path d="M76.6129 357.458C76.555 357.458 76.5116 357.43 76.4826 357.373C76.4392 357.288 72.7055 348.812 65.4696 346.477C61.7069 345.26 57.6403 345.896 53.3711 348.345C53.3133 348.387 53.2264 348.359 53.183 348.302C53.1396 348.246 53.1685 348.161 53.2264 348.118C57.5535 345.628 61.7069 344.991 65.5419 346.222C72.9081 348.599 76.6852 357.175 76.7286 357.26C76.7576 357.331 76.7286 357.402 76.6563 357.43C76.6418 357.444 76.6273 357.458 76.6129 357.458Z" fill="white"/>
<path d="M83.5593 350.581L83.2988 350.538C83.3133 350.425 85.3393 339.316 90.6794 333.656C96.0195 327.981 106.396 326.353 106.497 326.325L106.541 326.594C106.439 326.608 96.1643 328.236 90.8821 333.839C85.5709 339.443 83.5738 350.482 83.5593 350.581Z" fill="white"/>
<path d="M82.3861 345.33C82.3137 345.33 82.2559 345.274 82.2559 345.217C81.127 335.339 84.6003 320.962 84.6292 320.82C84.6437 320.749 84.7161 320.707 84.7884 320.721C84.8608 320.735 84.9042 320.806 84.8897 320.877C84.8608 321.018 81.402 335.354 82.5163 345.175C82.5308 345.245 82.4729 345.316 82.4006 345.316C82.3861 345.33 82.3861 345.33 82.3861 345.33Z" fill="white"/>
<path d="M88.3347 354.019C88.3202 354.019 88.3058 354.019 88.2768 354.005C88.2045 353.977 88.1755 353.906 88.2045 353.835C88.3347 353.51 91.533 345.882 93.4143 344.269C94.0221 343.745 94.6155 342.896 95.2377 341.976C96.5691 340.052 98.0742 337.858 100.505 337.561C104.008 337.137 108.595 339.118 111.012 341.283C111.07 341.326 111.07 341.41 111.026 341.467C110.969 341.524 110.896 341.524 110.838 341.481C108.465 339.358 103.979 337.42 100.549 337.83C98.2479 338.113 96.7718 340.236 95.4838 342.132C94.847 343.052 94.2392 343.929 93.6169 344.467C91.779 346.038 88.5084 353.85 88.4794 353.934C88.436 353.991 88.3781 354.019 88.3347 354.019Z" fill="white"/>
<path d="M54.8472 363.543C54.8183 363.543 54.7894 363.529 54.7749 363.515C54.717 363.473 54.7025 363.388 54.7459 363.331C54.7894 363.26 59.5072 356.751 69.4638 356.694C69.5361 356.694 69.594 356.751 69.594 356.821C69.594 356.892 69.5361 356.949 69.4638 356.949C64.3407 356.991 60.6794 358.76 58.4941 360.232C56.1352 361.831 54.9775 363.458 54.963 363.473C54.9341 363.515 54.8907 363.543 54.8472 363.543Z" fill="white"/>
<path d="M93.6013 363.02C93.5868 363.02 93.5724 363.02 93.5434 363.006C93.4711 362.977 93.4421 362.906 93.4711 362.836C93.4855 362.793 95.1064 358.958 98.7533 356.736C99.8386 356.071 100.635 355.35 101.416 354.642C103.283 352.944 105.048 351.331 110.244 350.906C110.316 350.892 110.389 350.949 110.389 351.033C110.389 351.104 110.345 351.175 110.258 351.175C105.15 351.599 103.428 353.184 101.59 354.84C100.808 355.562 99.9978 356.298 98.8835 356.963C95.309 359.142 93.7315 362.906 93.7171 362.949C93.7026 362.991 93.6592 363.02 93.6013 363.02Z" fill="white"/>
<path d="M93.255 355.463L93.0234 355.321C93.1392 355.137 95.9323 350.765 98.378 348.996C101.62 346.661 106.555 343.646 111.967 344.354L111.938 344.623C106.612 343.93 101.735 346.915 98.5372 349.222C96.1349 350.949 93.2839 355.42 93.255 355.463Z" fill="white"/>
</g>
<defs>
<filter id="filter0_d_20128_13942" x="30.0649" y="74.2892" width="182.864" height="180.985" filterUnits="userSpaceOnUse" color-interpolation-filters="sRGB">
<feFlood flood-opacity="0" result="BackgroundImageFix"/>
<feColorMatrix in="SourceAlpha" type="matrix" values="0 0 0 0 0 0 0 0 0 0 0 0 0 0 0 0 0 0 127 0" result="hardAlpha"/>
<feOffset dx="6" dy="6"/>
<feGaussianBlur stdDeviation="27"/>
<feComposite in2="hardAlpha" operator="out"/>
<feColorMatrix type="matrix" values="0 0 0 0 0 0 0 0 0 0 0 0 0 0 0 0 0 0 0.06 0"/>
<feBlend mode="normal" in2="BackgroundImageFix" result="effect1_dropShadow_20128_13942"/>
<feBlend mode="normal" in="SourceGraphic" in2="effect1_dropShadow_20128_13942" result="shape"/>
</filter>
<filter id="filter1_d_20128_13942" x="153.751" y="182.117" width="135.786" height="114.613" filterUnits="userSpaceOnUse" color-interpolation-filters="sRGB">
<feFlood flood-opacity="0" result="BackgroundImageFix"/>
<feColorMatrix in="SourceAlpha" type="matrix" values="0 0 0 0 0 0 0 0 0 0 0 0 0 0 0 0 0 0 127 0" result="hardAlpha"/>
<feOffset dx="-8" dy="-1"/>
<feGaussianBlur stdDeviation="10"/>
<feComposite in2="hardAlpha" operator="out"/>
<feColorMatrix type="matrix" values="0 0 0 0 0 0 0 0 0 0 0 0 0 0 0 0 0 0 0.1 0"/>
<feBlend mode="normal" in2="BackgroundImageFix" result="effect1_dropShadow_20128_13942"/>
<feBlend mode="normal" in="SourceGraphic" in2="effect1_dropShadow_20128_13942" result="shape"/>
</filter>
<filter id="filter2_d_20128_13942" x="250.065" y="123.066" width="90.0132" height="48.088" filterUnits="userSpaceOnUse" color-interpolation-filters="sRGB">
<feFlood flood-opacity="0" result="BackgroundImageFix"/>
<feColorMatrix in="SourceAlpha" type="matrix" values="0 0 0 0 0 0 0 0 0 0 0 0 0 0 0 0 0 0 127 0" result="hardAlpha"/>
<feOffset dx="6" dy="6"/>
<feGaussianBlur stdDeviation="7"/>
<feComposite in2="hardAlpha" operator="out"/>
<feColorMatrix type="matrix" values="0 0 0 0 0 0 0 0 0 0 0 0 0 0 0 0 0 0 0.06 0"/>
<feBlend mode="normal" in2="BackgroundImageFix" result="effect1_dropShadow_20128_13942"/>
<feBlend mode="normal" in="SourceGraphic" in2="effect1_dropShadow_20128_13942" result="shape"/>
</filter>
<linearGradient id="paint0_linear_20128_13942" x1="292" y1="0" x2="292" y2="393" gradientUnits="userSpaceOnUse">
<stop stop-color="#3C8BF1" stop-opacity="0"/>
<stop offset="1" stop-color="white" stop-opacity="0.16"/>
</linearGradient>
<linearGradient id="paint1_linear_20128_13942" x1="328.155" y1="378.836" x2="493.904" y2="378.836" gradientUnits="userSpaceOnUse">
<stop stop-color="#2970CC"/>
<stop offset="1" stop-color="#3A8FFE"/>
</linearGradient>
<linearGradient id="paint2_linear_20128_13942" x1="488.564" y1="378.843" x2="366.479" y2="378.843" gradientUnits="userSpaceOnUse">
<stop stop-color="#CBE1F2"/>
<stop offset="1" stop-color="#AED2ED"/>
</linearGradient>
<linearGradient id="paint3_linear_20128_13942" x1="488.564" y1="378.815" x2="366.48" y2="378.815" gradientUnits="userSpaceOnUse">
<stop stop-color="#CBE1F2"/>
<stop offset="1" stop-color="#AED2ED"/>
</linearGradient>
<linearGradient id="paint4_linear_20128_13942" x1="328.155" y1="342.452" x2="493.904" y2="342.452" gradientUnits="userSpaceOnUse">
<stop stop-color="#2970CC"/>
<stop offset="1" stop-color="#3A8FFE"/>
</linearGradient>
<linearGradient id="paint5_linear_20128_13942" x1="453.833" y1="334.69" x2="453.833" y2="347.815" gradientUnits="userSpaceOnUse">
<stop stop-color="#71D2F9"/>
<stop offset="1" stop-color="#51B9F8"/>
</linearGradient>
<linearGradient id="paint6_linear_20128_13942" x1="410.987" y1="398.998" x2="410.987" y2="204.584" gradientUnits="userSpaceOnUse">
<stop stop-color="#256ABA"/>
<stop offset="1" stop-color="#5CA5F7"/>
</linearGradient>
<linearGradient id="paint7_linear_20128_13942" x1="453.833" y1="298.3" x2="453.833" y2="311.425" gradientUnits="userSpaceOnUse">
<stop stop-color="#71D2F9"/>
<stop offset="1" stop-color="#51B9F8"/>
</linearGradient>
<linearGradient id="paint8_linear_20128_13942" x1="480.11" y1="317.312" x2="449.654" y2="291.387" gradientUnits="userSpaceOnUse">
<stop stop-color="#CBE1F2"/>
<stop offset="1" stop-color="#AED2ED"/>
</linearGradient>
<linearGradient id="paint9_linear_20128_13942" x1="410.987" y1="398.998" x2="410.987" y2="204.584" gradientUnits="userSpaceOnUse">
<stop stop-color="#256ABA"/>
<stop offset="1" stop-color="#5CA5F7"/>
</linearGradient>
<linearGradient id="paint10_linear_20128_13942" x1="478.853" y1="283.925" x2="442.457" y2="262.768" gradientUnits="userSpaceOnUse">
<stop stop-color="#CBE1F2"/>
<stop offset="1" stop-color="#AED2ED"/>
</linearGradient>
<linearGradient id="paint11_linear_20128_13942" x1="482.034" y1="278.451" x2="445.639" y2="257.294" gradientUnits="userSpaceOnUse">
<stop stop-color="#CBE1F2"/>
<stop offset="1" stop-color="#AED2ED"/>
</linearGradient>
<linearGradient id="paint12_linear_20128_13942" x1="410.987" y1="398.998" x2="410.987" y2="204.584" gradientUnits="userSpaceOnUse">
<stop stop-color="#256ABA"/>
<stop offset="1" stop-color="#5CA5F7"/>
</linearGradient>
<linearGradient id="paint13_linear_20128_13942" x1="466.625" y1="225.519" x2="466.625" y2="238.644" gradientUnits="userSpaceOnUse">
<stop stop-color="#71D2F9"/>
<stop offset="1" stop-color="#51B9F8"/>
</linearGradient>
<linearGradient id="paint14_linear_20128_13942" x1="327.43" y1="239.398" x2="327.43" y2="247.605" gradientUnits="userSpaceOnUse">
<stop stop-color="#FFD9D5"/>
<stop offset="1" stop-color="#FFAA9F"/>
</linearGradient>
<linearGradient id="paint15_linear_20128_13942" x1="347.943" y1="190.716" x2="347.943" y2="195.843" gradientUnits="userSpaceOnUse">
<stop stop-color="#FFD9D5"/>
<stop offset="1" stop-color="#FFAA9F"/>
</linearGradient>
<linearGradient id="paint16_linear_20128_13942" x1="336.968" y1="195.121" x2="336.968" y2="268.028" gradientUnits="userSpaceOnUse">
<stop stop-color="#1A2F79"/>
<stop offset="1" stop-color="#160545"/>
</linearGradient>
<linearGradient id="paint17_linear_20128_13942" x1="346.434" y1="209.944" x2="346.434" y2="221.814" gradientUnits="userSpaceOnUse">
<stop stop-color="#283770"/>
<stop offset="1" stop-color="#141A5A"/>
</linearGradient>
<linearGradient id="paint18_linear_20128_13942" x1="354.555" y1="277.32" x2="354.555" y2="283.098" gradientUnits="userSpaceOnUse">
<stop stop-color="#FFD9D5"/>
<stop offset="1" stop-color="#FFAA9F"/>
</linearGradient>
<linearGradient id="paint19_linear_20128_13942" x1="363.272" y1="196.068" x2="363.272" y2="270.914" gradientUnits="userSpaceOnUse">
<stop stop-color="#1A2F79"/>
<stop offset="1" stop-color="#160545"/>
</linearGradient>
<linearGradient id="paint20_linear_20128_13942" x1="346.449" y1="147.471" x2="346.449" y2="201.464" gradientUnits="userSpaceOnUse">
<stop stop-color="#6EC4F7"/>
<stop offset="1" stop-color="#398EF6"/>
</linearGradient>
<linearGradient id="paint21_linear_20128_13942" x1="350.745" y1="163.758" x2="350.745" y2="172.19" gradientUnits="userSpaceOnUse">
<stop stop-color="#6EC4F7"/>
<stop offset="1" stop-color="#398EF6"/>
</linearGradient>
<linearGradient id="paint22_linear_20128_13942" x1="367.574" y1="147.471" x2="367.574" y2="201.464" gradientUnits="userSpaceOnUse">
<stop stop-color="#6EC4F7"/>
<stop offset="1" stop-color="#398EF6"/>
</linearGradient>
<linearGradient id="paint23_linear_20128_13942" x1="365.91" y1="138.138" x2="365.91" y2="153.091" gradientUnits="userSpaceOnUse">
<stop stop-color="#FFD9D5"/>
<stop offset="1" stop-color="#FFAA9F"/>
</linearGradient>
<linearGradient id="paint24_linear_20128_13942" x1="362.75" y1="121.744" x2="362.75" y2="144.416" gradientUnits="userSpaceOnUse">
<stop stop-color="#FFD9D5"/>
<stop offset="1" stop-color="#FFAA9F"/>
</linearGradient>
<linearGradient id="paint25_linear_20128_13942" x1="368.338" y1="131.568" x2="368.338" y2="137.731" gradientUnits="userSpaceOnUse">
<stop stop-color="#FFD9D5"/>
<stop offset="1" stop-color="#FFAA9F"/>
</linearGradient>
<linearGradient id="paint26_linear_20128_13942" x1="379.233" y1="160.127" x2="379.233" y2="193.208" gradientUnits="userSpaceOnUse">
<stop stop-color="#6EC4F7"/>
<stop offset="1" stop-color="#398EF6"/>
</linearGradient>
<linearGradient id="paint27_linear_20128_13942" x1="376.359" y1="160.379" x2="376.359" y2="191.177" gradientUnits="userSpaceOnUse">
<stop stop-color="#FFD9D5"/>
<stop offset="1" stop-color="#FFAA9F"/>
</linearGradient>
<linearGradient id="paint28_linear_20128_13942" x1="337.6" y1="159.94" x2="337.6" y2="198.063" gradientUnits="userSpaceOnUse">
<stop stop-color="#71D2F9"/>
<stop offset="1" stop-color="#51B9F8"/>
</linearGradient>
<linearGradient id="paint29_linear_20128_13942" x1="329.656" y1="194.098" x2="329.656" y2="195.738" gradientUnits="userSpaceOnUse">
<stop stop-color="#FFD9D5"/>
<stop offset="1" stop-color="#FFAA9F"/>
</linearGradient>
<linearGradient id="paint30_linear_20128_13942" x1="335.189" y1="187.387" x2="335.189" y2="196.455" gradientUnits="userSpaceOnUse">
<stop stop-color="#FFD9D5"/>
<stop offset="1" stop-color="#FFAA9F"/>
</linearGradient>
<linearGradient id="paint31_linear_20128_13942" x1="382.803" y1="147.471" x2="382.803" y2="201.464" gradientUnits="userSpaceOnUse">
<stop stop-color="#6EC4F7"/>
<stop offset="1" stop-color="#398EF6"/>
</linearGradient>
<linearGradient id="paint32_linear_20128_13942" x1="211.908" y1="218.869" x2="241.305" y2="242.988" gradientUnits="userSpaceOnUse">
<stop stop-color="#71D2F9"/>
<stop offset="1" stop-color="#51B9F8"/>
</linearGradient>
<linearGradient id="paint33_linear_20128_13942" x1="243.887" y1="251.91" x2="260.701" y2="251.91" gradientUnits="userSpaceOnUse">
<stop stop-color="#71D2F9"/>
<stop offset="1" stop-color="#51B9F8"/>
</linearGradient>
<linearGradient id="paint34_linear_20128_13942" x1="215.735" y1="258.67" x2="250.359" y2="258.67" gradientUnits="userSpaceOnUse">
<stop stop-color="#71D2F9"/>
<stop offset="1" stop-color="#51B9F8"/>
</linearGradient>
<linearGradient id="paint35_linear_20128_13942" x1="247.937" y1="220.639" x2="264.764" y2="220.639" gradientUnits="userSpaceOnUse">
<stop stop-color="#71D2F9"/>
<stop offset="1" stop-color="#51B9F8"/>
</linearGradient>
<linearGradient id="paint36_linear_20128_13942" x1="225.133" y1="242.027" x2="203.919" y2="247.945" gradientUnits="userSpaceOnUse">
<stop stop-color="#71D2F9"/>
<stop offset="1" stop-color="#51B9F8"/>
</linearGradient>
<linearGradient id="paint37_linear_20128_13942" x1="225.593" y1="243.671" x2="204.379" y2="249.589" gradientUnits="userSpaceOnUse">
<stop stop-color="#71D2F9"/>
<stop offset="1" stop-color="#51B9F8"/>
</linearGradient>
<linearGradient id="paint38_linear_20128_13942" x1="226.051" y1="245.315" x2="204.837" y2="251.233" gradientUnits="userSpaceOnUse">
<stop stop-color="#71D2F9"/>
<stop offset="1" stop-color="#51B9F8"/>
</linearGradient>
<linearGradient id="paint39_linear_20128_13942" x1="226.855" y1="248.194" x2="205.641" y2="254.111" gradientUnits="userSpaceOnUse">
<stop stop-color="#71D2F9"/>
<stop offset="1" stop-color="#51B9F8"/>
</linearGradient>
<linearGradient id="paint40_linear_20128_13942" x1="261.975" y1="225.342" x2="240.604" y2="233.261" gradientUnits="userSpaceOnUse">
<stop stop-color="#71D2F9"/>
<stop offset="1" stop-color="#51B9F8"/>
</linearGradient>
<linearGradient id="paint41_linear_20128_13942" x1="262.773" y1="227.497" x2="241.401" y2="235.416" gradientUnits="userSpaceOnUse">
<stop stop-color="#71D2F9"/>
<stop offset="1" stop-color="#51B9F8"/>
</linearGradient>
<linearGradient id="paint42_linear_20128_13942" x1="263.571" y1="229.652" x2="242.2" y2="237.57" gradientUnits="userSpaceOnUse">
<stop stop-color="#71D2F9"/>
<stop offset="1" stop-color="#51B9F8"/>
</linearGradient>
<linearGradient id="paint43_linear_20128_13942" x1="265.052" y1="233.649" x2="243.681" y2="241.567" gradientUnits="userSpaceOnUse">
<stop stop-color="#71D2F9"/>
<stop offset="1" stop-color="#51B9F8"/>
</linearGradient>
<linearGradient id="paint44_linear_20128_13942" x1="267.966" y1="182.695" x2="245.969" y2="190.694" gradientUnits="userSpaceOnUse">
<stop stop-color="#71D2F9"/>
<stop offset="1" stop-color="#51B9F8"/>
</linearGradient>
<linearGradient id="paint45_linear_20128_13942" x1="268.505" y1="184.176" x2="246.507" y2="192.175" gradientUnits="userSpaceOnUse">
<stop stop-color="#71D2F9"/>
<stop offset="1" stop-color="#51B9F8"/>
</linearGradient>
<linearGradient id="paint46_linear_20128_13942" x1="269.499" y1="186.913" x2="247.502" y2="194.911" gradientUnits="userSpaceOnUse">
<stop stop-color="#71D2F9"/>
<stop offset="1" stop-color="#51B9F8"/>
</linearGradient>
<linearGradient id="paint47_linear_20128_13942" x1="197.034" y1="381.449" x2="197.034" y2="391.949" gradientUnits="userSpaceOnUse">
<stop stop-color="#FFD9D5"/>
<stop offset="1" stop-color="#FFAA9F"/>
</linearGradient>
<linearGradient id="paint48_linear_20128_13942" x1="145.219" y1="377.965" x2="145.219" y2="389.333" gradientUnits="userSpaceOnUse">
<stop stop-color="#FFD9D5"/>
<stop offset="1" stop-color="#FFAA9F"/>
</linearGradient>
<linearGradient id="paint49_linear_20128_13942" x1="194.271" y1="181.114" x2="194.271" y2="208.63" gradientUnits="userSpaceOnUse">
<stop stop-color="#FFD9D5"/>
<stop offset="1" stop-color="#FFAA9F"/>
</linearGradient>
<linearGradient id="paint50_linear_20128_13942" x1="166.837" y1="232.839" x2="166.837" y2="254.669" gradientUnits="userSpaceOnUse">
<stop stop-color="#FFD9D5"/>
<stop offset="1" stop-color="#FFAA9F"/>
</linearGradient>
<linearGradient id="paint51_linear_20128_13942" x1="167.063" y1="221.053" x2="167.063" y2="240.936" gradientUnits="userSpaceOnUse">
<stop stop-color="#3C8BF1"/>
<stop offset="1" stop-color="#2271D8"/>
</linearGradient>
<linearGradient id="paint52_linear_20128_13942" x1="180.814" y1="210.848" x2="180.814" y2="283.881" gradientUnits="userSpaceOnUse">
<stop stop-color="#3C8BF1"/>
<stop offset="1" stop-color="#2271D8"/>
</linearGradient>
<linearGradient id="paint53_linear_20128_13942" x1="234.816" y1="225.562" x2="234.816" y2="230.379" gradientUnits="userSpaceOnUse">
<stop stop-color="#FFD9D5"/>
<stop offset="1" stop-color="#FFAA9F"/>
</linearGradient>
<linearGradient id="paint54_linear_20128_13942" x1="218.945" y1="225.342" x2="218.945" y2="255.168" gradientUnits="userSpaceOnUse">
<stop stop-color="#FFD9D5"/>
<stop offset="1" stop-color="#FFAA9F"/>
</linearGradient>
<linearGradient id="paint55_linear_20128_13942" x1="199.508" y1="205.315" x2="199.508" y2="267.986" gradientUnits="userSpaceOnUse">
<stop stop-color="#49A5F7"/>
<stop offset="1" stop-color="#1C6CEB"/>
</linearGradient>
<linearGradient id="paint56_linear_20128_13942" x1="196.646" y1="193.023" x2="196.646" y2="200.73" gradientUnits="userSpaceOnUse">
<stop stop-color="#FFD9D5"/>
<stop offset="1" stop-color="#FFAA9F"/>
</linearGradient>
<clipPath id="clip0_20128_13942">
<rect width="582" height="400" fill="white"/>
</clipPath>
<clipPath id="clip1_20128_13942">
<rect width="25" height="32" fill="white" transform="translate(454 51)"/>
</clipPath>
</defs>
</svg>
