<svg width="42" height="42" viewBox="0 0 42 42" fill="none" xmlns="http://www.w3.org/2000/svg">
<circle cx="21" cy="21" r="21" fill="#45C7FF"/>
<g clip-path="url(#clip0_20096_11878)">
<path d="M26.6498 14.7958C26.6498 14.3266 26.4667 13.8848 26.1348 13.553L24.4777 11.8959C24.1504 11.5686 23.6858 11.3809 23.2235 11.3809H23.1228V14.8965H26.6498L26.6498 14.7958Z" fill="white"/>
<path d="M22.1352 23.4721C22.2474 23.1317 22.4431 22.8147 22.6983 22.5578L26.6655 18.6065V16.0684H22.5484C22.2245 16.0684 21.9814 15.8063 21.9814 15.4824V11.3809H13.1924C12.2231 11.3809 11.4346 12.1694 11.4346 13.1387V29.623C11.4346 30.5923 12.2231 31.3809 13.1924 31.3809H24.8921C25.8614 31.3809 26.6655 30.5923 26.6655 29.623V25.25L26.0216 25.8782C25.7607 26.1369 25.4552 26.3251 25.1107 26.4402L23.2476 27.0621L22.9638 27.0776C22.4946 27.0776 22.0505 26.8493 21.7748 26.4671C21.5013 26.0866 21.4269 25.5933 21.5756 25.1476L22.1352 23.4721ZM14.3643 21.9277H20.2046C20.5285 21.9277 20.7905 22.1898 20.7905 22.5137C20.7905 22.8375 20.5285 23.0996 20.2046 23.0996H14.3643C14.0404 23.0996 13.7783 22.8375 13.7783 22.5137C13.7783 22.1898 14.0404 21.9277 14.3643 21.9277ZM13.7783 20.1699C13.7783 19.8461 14.0404 19.584 14.3643 19.584H20.2046C20.5285 19.584 20.7905 19.8461 20.7905 20.1699C20.7905 20.4938 20.5285 20.7559 20.2046 20.7559H14.3643C14.0404 20.7559 13.7783 20.4938 13.7783 20.1699ZM13.7783 24.8574C13.7783 24.5336 14.0404 24.2715 14.3643 24.2715H20.2046C20.5285 24.2715 20.7905 24.5336 20.7905 24.8574C20.7905 25.1813 20.5285 25.4434 20.2046 25.4434H14.3643C14.0404 25.4434 13.7783 25.1813 13.7783 24.8574ZM22.5484 27.7871C22.8722 27.7871 23.1343 28.0492 23.1343 28.373C23.1343 28.6969 22.8723 28.959 22.5484 28.959H19.0327C18.7089 28.959 18.4468 28.6969 18.4468 28.373C18.4468 28.0492 18.7089 27.7871 19.0327 27.7871H22.5484ZM14.3643 18.4121C14.0404 18.4121 13.7783 18.15 13.7783 17.8262C13.7783 17.5023 14.0404 17.2402 14.3643 17.2402H22.5484C22.8722 17.2402 23.1343 17.5023 23.1343 17.8262C23.1343 18.15 22.8722 18.4121 22.5484 18.4121H14.3643Z" fill="white"/>
<path d="M23.1962 23.9902L22.6865 25.5196C22.61 25.7487 22.8281 25.9666 23.0572 25.8901L24.5856 25.3796L23.1962 23.9902Z" fill="white"/>
<path d="M27.7476 19.166L23.8887 23.025L25.5529 24.6892C26.4251 23.8169 28.1222 22.1196 29.4117 20.8301L27.7476 19.166Z" fill="white"/>
<path d="M31.0902 17.4857C30.8842 17.2786 30.581 17.1602 30.2594 17.1602C29.9378 17.1602 29.6345 17.2786 29.4274 17.4863L28.5759 18.3378L30.2399 20.0018C30.706 19.5356 31.0282 19.2134 31.0914 19.1502C31.5491 18.6918 31.5491 17.9452 31.0902 17.4857Z" fill="white"/>
<path d="M31.0898 19.1499L31.0899 19.1498C31.0914 19.1484 31.0921 19.1477 31.0933 19.1465C31.0921 19.1477 31.0914 19.1484 31.0898 19.1499Z" fill="white"/>
<path d="M31.0938 19.1468C31.0956 19.1449 31.0978 19.1427 31.0989 19.1416C31.0978 19.1428 31.0956 19.1449 31.0938 19.1468Z" fill="white"/>
<path d="M31.0984 19.1415C31.1022 19.1378 31.1023 19.1377 31.0984 19.1415V19.1415Z" fill="white"/>
</g>
<defs>
<clipPath id="clip0_20096_11878">
<rect width="20" height="20" fill="white" transform="translate(11.4346 11.3809)"/>
</clipPath>
</defs>
</svg>
