<svg width="42" height="42" viewBox="0 0 42 42" fill="none" xmlns="http://www.w3.org/2000/svg">
<circle cx="21" cy="21" r="21" fill="#30D287"/>
<path d="M28.5004 13.6356C28.521 13.4917 28.4209 13.3583 28.277 13.3378L25.9314 13.0027C25.7875 12.9821 25.6541 13.0821 25.6336 13.2261C25.613 13.37 25.713 13.5034 25.857 13.5239L27.5733 13.7691L24.7065 15.9192C24.6142 15.9884 24.4876 15.9895 24.3942 15.9218L21.1611 13.5807C20.9138 13.4016 20.5854 13.3811 20.3178 13.528L13.8968 17.0533C13.7693 17.1233 13.7227 17.2833 13.7927 17.4108C13.8627 17.5382 14.0227 17.5848 14.1502 17.5148L20.5712 13.9896C20.6604 13.9406 20.7699 13.9474 20.8523 14.0071L24.0854 16.3483C24.3657 16.5513 24.7456 16.5481 25.0225 16.3405L27.8892 14.1903L27.6441 15.9067C27.6235 16.0507 27.7235 16.184 27.8675 16.2046C28.0114 16.2251 28.1447 16.1251 28.1653 15.9812L28.5004 13.6356Z" fill="white"/>
<path d="M20.2102 16.3623C19.774 16.3623 19.4204 16.7159 19.4204 17.1521V21.1011C19.4204 21.5373 19.774 21.8909 20.2102 21.8909H21.2633C21.6995 21.8909 22.0531 21.5373 22.0531 21.1011V17.1521C22.0531 16.7159 21.6995 16.3623 21.2633 16.3623H20.2102Z" fill="white"/>
<path d="M16.7877 17.6787C16.3515 17.6787 15.998 18.0323 15.998 18.4685V21.1011C15.998 21.5374 16.3515 21.8909 16.7877 21.8909H17.8408C18.277 21.8909 18.6306 21.5374 18.6306 21.1011V18.4685C18.6306 18.0323 18.277 17.6787 17.8408 17.6787H16.7877Z" fill="white"/>
<path d="M22.8428 18.9949C22.8428 18.5587 23.1964 18.2051 23.6326 18.2051H24.6857C25.1219 18.2051 25.4755 18.5587 25.4755 18.9949V21.101C25.4755 21.5372 25.1219 21.8908 24.6857 21.8908H23.6326C23.1964 21.8908 22.8428 21.5372 22.8428 21.101V18.9949Z" fill="white"/>
<path d="M27.0551 17.6787C26.6189 17.6787 26.2653 18.0323 26.2653 18.4685V21.1011C26.2653 21.5374 26.6189 21.8909 27.0551 21.8909H28.1081C28.5443 21.8909 28.8979 21.5374 28.8979 21.1011V18.4685C28.8979 18.0323 28.5443 17.6787 28.1081 17.6787H27.0551Z" fill="white"/>
<path d="M13.1021 23.2596C13.1021 22.4867 13.7677 21.8906 14.55 21.8906C14.8957 21.8906 15.2186 22.0071 15.4714 22.2037V27.6327C15.2186 27.8293 14.8957 27.9457 14.55 27.9457C13.7677 27.9457 13.1021 27.3496 13.1021 26.5767V23.2596Z" fill="white"/>
<path d="M15.998 27.6601L19.0075 28.7241C19.378 28.9051 19.7845 28.9991 20.1965 28.999H21.2174C21.8017 28.9991 22.3793 28.8739 22.9117 28.6318L28.0321 26.7667C28.0383 26.7644 28.0445 26.7619 28.0505 26.7592C28.2245 26.6804 28.3718 26.553 28.4753 26.3924C28.5787 26.2318 28.634 26.0448 28.6347 25.8538V25.85C28.633 25.6948 28.5956 25.5419 28.5254 25.4035C28.4553 25.2651 28.3541 25.1447 28.2297 25.052C28.1053 24.9593 27.9611 24.8969 27.8085 24.8697C27.6617 24.8436 27.511 24.8508 27.3676 24.8908L24.144 25.4233C24.0432 25.44 23.9509 25.4876 23.8681 25.5472C23.7966 25.5987 23.7229 25.6425 23.6448 25.689C23.585 25.7245 23.5227 25.7616 23.4568 25.8047C23.4345 25.8194 23.4122 25.834 23.3901 25.8486C23.3508 25.8744 23.3053 25.8893 23.2584 25.8916L20.7318 26.0173C20.5866 26.0245 20.463 25.9127 20.4558 25.7675C20.4485 25.6223 20.5604 25.4986 20.7056 25.4914L23.0173 25.3764C23.1111 25.3718 23.2021 25.3423 23.2803 25.2904C23.4531 25.1756 23.592 25.0782 23.698 24.9751C23.828 24.8487 23.8819 24.7388 23.8822 24.6069C23.8814 24.5286 23.8627 24.4083 23.8246 24.2908C23.7842 24.1662 23.7358 24.0873 23.7024 24.057C23.5848 23.9501 23.4219 23.8875 23.2487 23.8888H23.2444L21.2166 23.8695L20.7247 23.8886C20.656 23.8912 20.5049 23.8394 20.4564 23.7982C20.3918 23.7712 20.333 23.7316 20.2834 23.6816C19.6481 23.041 18.7859 22.6807 17.8865 22.6807L15.998 22.6807V27.6601Z" fill="white"/>
</svg>
