<svg width="42" height="42" viewBox="0 0 42 42" fill="none" xmlns="http://www.w3.org/2000/svg">
<circle cx="21" cy="21" r="21" fill="#FFC362"/>
<path d="M17.3086 15.1641H18.8906V25.7461H23.1094V15.1641H24.6914L21 12L17.3086 15.1641Z" fill="white"/>
<path d="M26.8008 21.5278H27.8555L25.2188 18.3643L24.1641 19.6297V25.7465H26.8008V21.5278Z" fill="white"/>
<path d="M17.8359 25.7465V19.6297L16.7812 18.3643L14.1445 21.5278H15.1992V25.7465H17.8359Z" fill="white"/>
<path d="M24.2264 26.8008L25.8082 30H30L27.3284 26.8008H24.2264Z" fill="white"/>
<path d="M18.9531 26.8008L17.3711 30H24.6289L23.0471 26.8008H18.9531Z" fill="white"/>
<path d="M17.7737 26.8008H14.6716L12 30H16.1919L17.7737 26.8008Z" fill="white"/>
</svg>
