<svg width="578" height="392" viewBox="0 0 578 392" fill="none" xmlns="http://www.w3.org/2000/svg">
<rect opacity="0.1" x="193.394" y="173.094" width="187.119" height="189.25" rx="93.5596" fill="#2970CC"/>
<rect x="223.587" y="202.75" width="187.119" height="189.25" rx="93.5596" fill="#2970CC"/>
<path d="M287.667 298L305.816 316.149L344.71 277.259" stroke="white" stroke-width="6" stroke-linecap="round" stroke-linejoin="round"/>
<path d="M277.847 114.601C267.903 118.032 256.93 114.601 249.386 107.395C243.557 101.561 237.042 88.8647 241.843 80.286C246.3 72.7367 255.558 76.1682 255.901 84.4038C256.244 93.6688 249.729 104.306 240.128 104.306C230.184 104.306 221.612 96.7572 216.468 88.5216C211.668 81.3154 205.496 67.5894 209.267 58.6675C212.696 50.7751 222.64 52.4908 224.698 60.7264C226.755 68.2757 219.897 82.0017 211.668 81.6586C201.038 81.6586 192.123 66.9031 188.694 57.9812C184.416 47.1138 184.243 34.6661 188.783 23.6713C189.164 22.7477 189.771 21.5829 190.762 21.7063C191.975 21.8573 191.267 23.572 190.979 24.7599C187.442 39.3634 189.056 55.0604 197.952 67.5894C200.352 70.6778 204.467 76.1682 208.239 77.1976C214.754 78.5702 218.526 73.0798 220.583 67.2463C221.247 65.2515 221.644 63.012 220.961 61.0234C220.833 60.6486 220.667 60.3186 220.464 60.0332C217.026 55.2033 211.037 63.1143 212.011 68.962C212.696 72.7367 214.068 76.5113 215.44 79.9428C218.526 87.149 223.326 94.012 230.184 97.7866C233.956 99.8455 239.442 101.904 243.9 99.8455C248.358 98.1298 251.444 90.9236 252.129 86.4627C252.732 84.0522 252.159 82.3472 250.48 81.3478C247.691 79.6877 244.076 82.0762 242.871 85.0901C242.185 87.4921 243.214 90.9236 243.9 93.3257C244.929 97.4435 247.329 101.218 250.072 104.306C256.738 111.93 265.461 113.967 274.88 113.411C276.398 113.321 279.206 113.921 277.847 114.601Z" fill="url(#paint0_linear_20162_10249)"/>
<path d="M313.802 0C317.983 1.79291 318.879 8.66571 315.295 11.6539C313.802 12.8492 311.712 13.148 310.219 11.3551C309.323 10.1598 309.622 8.3669 311.115 7.47044C312.608 6.57399 314.399 7.17163 315.594 8.3669C317.087 10.1598 317.087 12.8492 316.49 14.9409C315.892 17.3314 314.399 19.4232 312.011 20.0208C310.219 20.6184 308.129 19.722 307.83 17.6302C307.83 17.3314 308.129 17.0326 308.427 17.3314C310.816 20.3196 313.802 18.2279 314.997 15.2397C315.892 13.148 316.191 8.3669 313.205 7.76926C312.608 7.76926 311.413 7.76926 311.115 8.3669C309.323 11.0563 312.906 11.3551 313.802 10.7574C315.295 10.1598 316.191 8.66571 316.49 7.17163C317.386 4.78108 315.892 2.39054 313.802 0Z" fill="url(#paint1_linear_20162_10249)"/>
<path d="M173.487 119.905C175.136 119.905 176.473 118.567 176.473 116.917C176.473 115.267 175.136 113.929 173.487 113.929C171.838 113.929 170.501 115.267 170.501 116.917C170.501 118.567 171.838 119.905 173.487 119.905Z" fill="url(#paint2_linear_20162_10249)"/>
<path opacity="0.3" d="M27.5295 142.217C26.5341 143.612 24.7426 144.01 23.3491 143.014C21.9557 142.018 21.5576 140.225 22.5529 138.831C23.5482 137.436 25.3398 137.038 26.7332 138.034C28.1266 139.03 28.5248 140.823 27.5295 142.217Z" fill="url(#paint3_linear_20162_10249)"/>
<path opacity="0.7" d="M369.167 93.6093C375.138 95.0038 381.309 92.2148 385.092 87.4338C388.078 83.6488 391.064 75.8796 387.679 71.2977C384.694 67.3135 379.518 69.9032 379.916 74.4851C380.314 79.8638 384.693 85.4417 390.267 84.844C395.841 84.0472 400.419 79.2661 402.808 74.2859C404.998 69.704 407.785 61.3372 405.197 56.5561C402.609 52.1735 397.035 53.9664 396.438 58.7474C395.841 63.1301 400.619 70.7001 405.396 70.1025C411.567 69.3056 415.747 60.3411 416.942 54.7632C418.733 47.7909 417.937 40.4201 414.354 34.2445C413.956 33.6469 412.761 34.0453 413.159 34.8422C416.544 43.209 416.743 52.9703 412.164 60.9388C410.97 62.9309 408.979 66.3175 406.789 67.1143C403.206 68.5088 400.618 65.5206 399.026 62.3332C398.827 61.7356 398.628 61.138 398.429 60.7396C397.832 57.5522 399.424 56.5561 403.405 57.7514C404.401 58.7474 404.003 61.5364 404.003 62.9309C403.804 65.1222 403.405 67.3135 402.609 69.5048C401.216 73.8875 398.827 78.0709 395.244 80.6606C393.054 82.2543 390.068 83.6488 387.48 82.8519C384.893 82.0551 382.703 78.2701 381.907 75.6804C381.11 73.2898 382.305 71.8953 385.49 71.6961C386.087 72.493 386.684 73.489 387.281 74.2859C387.878 75.6804 387.48 77.6725 387.281 79.2661C386.883 81.6567 385.888 84.0472 384.494 86.0393C380.911 91.2188 375.338 92.8125 369.565 93.0117C368.768 92.8125 368.569 93.6093 369.167 93.6093Z" fill="url(#paint4_linear_20162_10249)"/>
<path d="M471.775 109.347C471.775 111.339 469.965 113.331 467.793 113.331C465.622 113.331 463.812 111.671 463.812 109.347C463.812 107.023 465.622 105.363 467.793 105.363C469.603 105.363 471.775 107.355 471.775 109.347Z" fill="url(#paint5_linear_20162_10249)"/>
<g clip-path="url(#clip0_20162_10249)">
<path d="M114.328 218.782C122.29 218.493 133.15 221.222 139.983 225.024C144.014 227.336 145.289 228.921 144.605 230.834C144.121 232.079 142.65 232.769 141.317 232.366C140.819 232.172 137.342 230.649 133.792 228.869C126.276 225.203 121.474 223.107 116.061 221.405C112.567 220.22 111.659 219.752 112.03 219.093C112.118 219.013 113.139 218.894 114.328 218.782Z" fill="url(#paint6_linear_20162_10249)"/>
</g>
<path d="M62.2865 173.311C56.5137 174.705 56.7128 183.072 62.2865 184.865C64.2772 185.463 67.0641 184.666 68.6566 182.873C71.0453 180.084 69.6519 175.104 66.0688 173.51C64.2772 173.112 63.8791 172.913 62.2865 173.311Z" fill="url(#paint7_linear_20162_10249)"/>
<path d="M491.291 298.597C478.949 298.597 478.949 317.921 491.291 317.921C503.633 317.722 503.633 298.597 491.291 298.597Z" fill="url(#paint8_linear_20162_10249)"/>
<path d="M104.462 290.628C98.2908 290.628 98.2908 300.191 104.462 300.191C110.633 300.191 110.633 290.628 104.462 290.628Z" fill="url(#paint9_linear_20162_10249)"/>
<path d="M460.826 222.299C453.395 222.299 453.395 233.455 460.826 233.455C468.258 233.455 468.258 222.299 460.826 222.299Z" fill="url(#paint10_linear_20162_10249)"/>
<path d="M87.6197 108.248C92.6152 112.578 104.569 117.472 113.132 118.977C122.945 120.671 126.87 120.671 126.513 118.977C126.513 118.601 123.48 116.719 119.734 114.648C116.165 112.578 108.494 107.872 102.606 104.295C96.7186 100.531 91.5447 97.3309 90.8311 96.9544C88.6902 96.0133 86.7277 96.2015 85.3004 97.5191C82.089 100.154 82.8026 104.295 87.6197 108.248Z" fill="url(#paint11_linear_20162_10249)"/>
<path d="M506.834 125.896C498.028 128.581 483.468 139.048 475.42 148.026C466.235 158.336 463.369 162.961 465.647 163.793C466.096 164.072 470.553 161.89 475.756 159.006C480.829 156.332 492.038 150.772 500.598 146.479C509.383 142.325 516.974 138.594 517.943 138.031C520.628 136.204 521.837 133.753 521.31 131.097C520.516 125.364 515.061 123.143 506.834 125.896Z" fill="url(#paint12_linear_20162_10249)"/>
<defs>
<linearGradient id="paint0_linear_20162_10249" x1="231.818" y1="21.6951" x2="231.818" y2="115.941" gradientUnits="userSpaceOnUse">
<stop stop-color="#45C7FF"/>
<stop offset="1" stop-color="#45C7FF" stop-opacity="0"/>
</linearGradient>
<linearGradient id="paint1_linear_20162_10249" x1="312.679" y1="0" x2="312.679" y2="20.2025" gradientUnits="userSpaceOnUse">
<stop stop-color="#00B654"/>
<stop offset="1" stop-color="#00B654" stop-opacity="0"/>
</linearGradient>
<linearGradient id="paint2_linear_20162_10249" x1="173.487" y1="113.929" x2="173.487" y2="119.905" gradientUnits="userSpaceOnUse">
<stop stop-color="#00B654"/>
<stop offset="1" stop-color="#00B654" stop-opacity="0"/>
</linearGradient>
<linearGradient id="paint3_linear_20162_10249" x1="25.0412" y1="137.48" x2="25.0412" y2="143.567" gradientUnits="userSpaceOnUse">
<stop stop-color="#00B654"/>
<stop offset="1" stop-color="#00B654" stop-opacity="0"/>
</linearGradient>
<linearGradient id="paint4_linear_20162_10249" x1="393.342" y1="33.9568" x2="393.342" y2="93.9688" gradientUnits="userSpaceOnUse">
<stop stop-color="#FF6262"/>
<stop offset="1" stop-color="#FF6262" stop-opacity="0"/>
</linearGradient>
<linearGradient id="paint5_linear_20162_10249" x1="467.793" y1="105.363" x2="467.793" y2="113.331" gradientUnits="userSpaceOnUse">
<stop stop-color="#00B654"/>
<stop offset="1" stop-color="#00B654" stop-opacity="0"/>
</linearGradient>
<linearGradient id="paint6_linear_20162_10249" x1="118.457" y1="213.258" x2="139.191" y2="236.096" gradientUnits="userSpaceOnUse">
<stop stop-color="#FF3D00"/>
<stop offset="1" stop-color="#FF3D00" stop-opacity="0"/>
</linearGradient>
<linearGradient id="paint7_linear_20162_10249" x1="63.9376" y1="173.094" x2="63.9376" y2="185.061" gradientUnits="userSpaceOnUse">
<stop stop-color="#FF6262"/>
<stop offset="1" stop-color="#FF6262" stop-opacity="0"/>
</linearGradient>
<linearGradient id="paint8_linear_20162_10249" x1="491.291" y1="298.597" x2="491.291" y2="317.921" gradientUnits="userSpaceOnUse">
<stop stop-color="#FF6262"/>
<stop offset="1" stop-color="#FF6262" stop-opacity="0"/>
</linearGradient>
<linearGradient id="paint9_linear_20162_10249" x1="104.462" y1="290.628" x2="104.462" y2="300.191" gradientUnits="userSpaceOnUse">
<stop stop-color="#FFA114"/>
<stop offset="1" stop-color="#FFA114" stop-opacity="0"/>
</linearGradient>
<linearGradient id="paint10_linear_20162_10249" x1="460.826" y1="222.299" x2="460.826" y2="233.455" gradientUnits="userSpaceOnUse">
<stop stop-color="#FFA114"/>
<stop offset="1" stop-color="#FFA114" stop-opacity="0"/>
</linearGradient>
<linearGradient id="paint11_linear_20162_10249" x1="104.939" y1="96.3662" x2="104.939" y2="120.248" gradientUnits="userSpaceOnUse">
<stop stop-color="#2970CC"/>
<stop offset="1" stop-color="white" stop-opacity="0"/>
</linearGradient>
<linearGradient id="paint12_linear_20162_10249" x1="509.888" y1="120.811" x2="478.309" y2="171.689" gradientUnits="userSpaceOnUse">
<stop stop-color="#30D287"/>
<stop offset="1" stop-color="#30D287" stop-opacity="0.1"/>
</linearGradient>
<clipPath id="clip0_20162_10249">
<rect width="15.0342" height="25.6895" fill="white" transform="matrix(0.740384 -0.672184 0.671632 0.740885 112.615 220.226)"/>
</clipPath>
</defs>
</svg>
