<svg width="16" height="17" viewBox="0 0 16 17" fill="none" xmlns="http://www.w3.org/2000/svg">
<g clip-path="url(#clip0_12004_25942)">
<path d="M8 16.5C6.41775 16.5 4.87104 16.0308 3.55544 15.1518C2.23985 14.2727 1.21447 13.0233 0.608967 11.5615C0.00346629 10.0997 -0.15496 8.49113 0.153721 6.93928C0.462403 5.38743 1.22433 3.96197 2.34315 2.84315C3.46197 1.72433 4.88743 0.962403 6.43928 0.653721C7.99113 0.34504 9.59966 0.503466 11.0615 1.10897C12.5233 1.71447 13.7727 2.73985 14.6518 4.05544C15.5308 5.37104 16 6.91775 16 8.5C15.9977 10.621 15.1541 12.6545 13.6543 14.1543C12.1545 15.6541 10.121 16.4977 8 16.5ZM8 1.83334C6.68146 1.83334 5.39253 2.22433 4.2962 2.95687C3.19987 3.68942 2.34539 4.73061 1.84081 5.94878C1.33622 7.16695 1.2042 8.5074 1.46144 9.80061C1.71867 11.0938 2.35361 12.2817 3.28596 13.214C4.21831 14.1464 5.4062 14.7813 6.6994 15.0386C7.99261 15.2958 9.33305 15.1638 10.5512 14.6592C11.7694 14.1546 12.8106 13.3001 13.5431 12.2038C14.2757 11.1075 14.6667 9.81855 14.6667 8.5C14.6647 6.73249 13.9617 5.03792 12.7119 3.7881C11.4621 2.53828 9.76752 1.83528 8 1.83334Z" fill="#BBC5CD"/>
<path d="M9.33366 13.166H8.00033V8.49935H6.66699V7.16602H8.00033C8.35395 7.16602 8.69309 7.30649 8.94313 7.55654C9.19318 7.80659 9.33366 8.14573 9.33366 8.49935V13.166Z" fill="#BBC5CD"/>
<path d="M8 5.83398C8.55228 5.83398 9 5.38627 9 4.83398C9 4.2817 8.55228 3.83398 8 3.83398C7.44772 3.83398 7 4.2817 7 4.83398C7 5.38627 7.44772 5.83398 8 5.83398Z" fill="#BBC5CD"/>
</g>
<defs>
<clipPath id="clip0_12004_25942">
<rect width="16" height="16" fill="white" transform="translate(0 0.5)"/>
</clipPath>
</defs>
</svg>
