<svg width="42" height="42" viewBox="0 0 42 42" fill="none" xmlns="http://www.w3.org/2000/svg">
<circle cx="21" cy="21" r="21" fill="#2970CC"/>
<path d="M21 12.2495C18.2423 12.2495 16 14.4918 16 17.2495C16 19.9018 18.0756 22.0712 20.6875 22.2336V28.682L19.4375 27.432C19.4375 27.2611 19.4375 25.7164 19.4375 25.062C19.4375 23.5124 18.1746 22.2495 16.625 22.2495H14.125C13.9524 22.2501 13.8118 22.3893 13.8125 22.562V25.062C13.8125 26.6116 15.0754 27.8745 16.625 27.8745H18.9956L20.7797 29.6586C20.8406 29.7191 20.9203 29.7495 21 29.7495C21.0797 29.7495 21.1594 29.7191 21.2203 29.6586L23.0044 27.8745H25.375C26.9246 27.8745 28.1875 26.6116 28.1875 25.062V22.562C28.1881 22.3893 28.0476 22.2501 27.875 22.2495H25.375C23.8254 22.2495 22.5635 23.5118 22.5631 25.0614L22.5625 27.4326L21.3125 28.682V22.2336C23.9244 22.0712 26 19.9018 26 17.2495C26 14.4918 23.7577 12.2495 21 12.2495ZM21 13.4995C23.0674 13.4995 24.75 15.1821 24.75 17.2495C24.75 19.3168 23.0674 20.9995 21 20.9995C18.9326 20.9995 17.25 19.3168 17.25 17.2495C17.25 15.1821 18.9326 13.4995 21 13.4995ZM21 14.1245C19.2704 14.1245 17.875 15.5199 17.875 17.2495C17.875 18.9791 19.2704 20.3745 21 20.3745C22.7296 20.3745 24.125 18.9791 24.125 17.2495C24.125 15.5199 22.7296 14.1245 21 14.1245ZM21 14.7495C21.1563 14.7495 21.3125 14.8535 21.3125 15.062V15.687H21.9375C21.9375 15.687 22.25 15.687 22.25 15.9995C22.25 16.312 21.9375 16.312 21.9375 16.312H20.6875C20.509 16.312 20.375 16.446 20.375 16.6245C20.375 16.803 20.509 16.9375 20.6875 16.937C20.8958 16.9367 21.1042 16.9361 21.3125 16.937C21.8265 16.9382 22.25 17.3605 22.25 17.8745C22.25 18.3885 21.8265 18.812 21.3125 18.812V19.437C21.3125 19.6454 21.1563 19.7495 21 19.7495C20.8437 19.7495 20.6875 19.6453 20.6875 19.437V18.812H20.0625C19.854 18.812 19.75 18.6558 19.75 18.4995C19.75 18.3432 19.8541 18.187 20.0625 18.187H21.3125C21.491 18.187 21.625 18.053 21.625 17.8745C21.625 17.696 21.491 17.562 21.3125 17.562H20.6875C20.1735 17.562 19.75 17.1385 19.75 16.6245C19.75 16.1105 20.1735 15.687 20.6875 15.687V15.062C20.6875 14.8536 20.8437 14.7495 21 14.7495ZM18.8125 16.937C18.9851 16.937 19.125 17.0769 19.125 17.2495C19.125 17.4221 18.9851 17.562 18.8125 17.562C18.6399 17.562 18.5 17.4221 18.5 17.2495C18.5 17.0769 18.6399 16.937 18.8125 16.937ZM23.1875 16.937C23.3601 16.937 23.5 17.0769 23.5 17.2495C23.5 17.4221 23.3601 17.562 23.1875 17.562C23.0149 17.562 22.875 17.4221 22.875 17.2495C22.875 17.0769 23.0149 16.937 23.1875 16.937ZM15.9994 24.1239C15.9994 24.1239 16.1324 24.1245 16.2209 24.2167L18.8125 26.8077V27.2483H18.3688L15.7778 24.6574C15.6866 24.5688 15.6869 24.4364 15.6869 24.4364C15.6869 24.1239 15.9994 24.1239 15.9994 24.1239ZM26.0006 24.1239C26.0006 24.1239 26.3131 24.1239 26.3131 24.4364C26.3131 24.4364 26.3134 24.5687 26.2222 24.6573L23.6312 27.2483H23.1875V26.8076L25.7791 24.2167C25.8676 24.1244 26.0006 24.1239 26.0006 24.1239Z" fill="white"/>
<path d="M18.8125 29.437C18.8125 29.4781 18.8206 29.5187 18.8363 29.5566C18.852 29.5945 18.875 29.629 18.904 29.658C18.9331 29.687 18.9675 29.71 19.0054 29.7257C19.0433 29.7414 19.084 29.7495 19.125 29.7495C19.2079 29.7495 19.2874 29.7166 19.346 29.658C19.4046 29.5994 19.4375 29.5199 19.4375 29.437C19.4375 29.396 19.4294 29.3553 19.4137 29.3174C19.398 29.2795 19.375 29.245 19.346 29.216C19.317 29.187 19.2825 29.164 19.2446 29.1483C19.2067 29.1326 19.166 29.1245 19.125 29.1245C19.084 29.1245 19.0433 29.1326 19.0054 29.1483C18.9675 29.164 18.933 29.187 18.904 29.216C18.875 29.245 18.852 29.2795 18.8363 29.3174C18.8206 29.3553 18.8125 29.396 18.8125 29.437Z" fill="white"/>
<path d="M13.1875 28.812C13.1875 28.8949 13.1546 28.9744 13.096 29.033C13.0374 29.0916 12.9579 29.1245 12.875 29.1245C12.7921 29.1245 12.7126 29.0916 12.654 29.033C12.5954 28.9744 12.5625 28.8949 12.5625 28.812C12.5625 28.771 12.5706 28.7303 12.5863 28.6924C12.602 28.6545 12.625 28.62 12.654 28.591C12.683 28.562 12.7175 28.539 12.7554 28.5233C12.7933 28.5076 12.834 28.4995 12.875 28.4995C12.916 28.4995 12.9567 28.5076 12.9946 28.5233C13.0325 28.539 13.0669 28.562 13.096 28.591C13.125 28.62 13.148 28.6545 13.1637 28.6924C13.1794 28.7303 13.1875 28.771 13.1875 28.812Z" fill="white"/>
<path d="M16.3125 29.437C16.3125 29.7495 16.625 29.7495 16.625 29.7495H17.875C18.0834 29.7495 18.1875 29.5933 18.1875 29.437C18.1875 29.2807 18.0833 29.1245 17.875 29.1245H16.625C16.625 29.1245 16.3125 29.1245 16.3125 29.437Z" fill="white"/>
<path d="M13.8125 28.812C13.8125 29.1245 14.125 29.1245 14.125 29.1245H15.375C15.5834 29.1245 15.6875 28.9683 15.6875 28.812C15.6875 28.6557 15.5834 28.4995 15.375 28.4995H14.125C14.125 28.4995 13.8125 28.4995 13.8125 28.812Z" fill="white"/>
<path d="M23.1875 29.437C23.1875 29.4781 23.1794 29.5187 23.1637 29.5566C23.148 29.5945 23.125 29.629 23.096 29.658C23.067 29.687 23.0325 29.71 22.9946 29.7257C22.9567 29.7414 22.916 29.7495 22.875 29.7495C22.7921 29.7495 22.7126 29.7166 22.654 29.658C22.5954 29.5994 22.5625 29.5199 22.5625 29.437C22.5625 29.396 22.5706 29.3553 22.5863 29.3174C22.602 29.2795 22.625 29.245 22.654 29.216C22.683 29.187 22.7175 29.164 22.7554 29.1483C22.7933 29.1326 22.834 29.1245 22.875 29.1245C22.916 29.1245 22.9567 29.1326 22.9946 29.1483C23.0325 29.164 23.067 29.187 23.096 29.216C23.125 29.245 23.148 29.2795 23.1637 29.3174C23.1794 29.3553 23.1875 29.396 23.1875 29.437Z" fill="white"/>
<path d="M28.8125 28.812C28.8125 28.8949 28.8454 28.9744 28.904 29.033C28.9626 29.0916 29.0421 29.1245 29.125 29.1245C29.2079 29.1245 29.2874 29.0916 29.346 29.033C29.4046 28.9744 29.4375 28.8949 29.4375 28.812C29.4375 28.771 29.4294 28.7303 29.4137 28.6924C29.398 28.6545 29.375 28.62 29.346 28.591C29.3169 28.562 29.2825 28.539 29.2446 28.5233C29.2067 28.5076 29.166 28.4995 29.125 28.4995C29.084 28.4995 29.0433 28.5076 29.0054 28.5233C28.9675 28.539 28.933 28.562 28.904 28.591C28.875 28.62 28.852 28.6545 28.8363 28.6924C28.8206 28.7303 28.8125 28.771 28.8125 28.812Z" fill="white"/>
<path d="M25.6875 29.437C25.6875 29.7495 25.375 29.7495 25.375 29.7495H24.125C23.9166 29.7495 23.8125 29.5933 23.8125 29.437C23.8125 29.2807 23.9167 29.1245 24.125 29.1245H25.375C25.375 29.1245 25.6875 29.1245 25.6875 29.437Z" fill="white"/>
<path d="M28.1875 28.812C28.1875 29.1245 27.875 29.1245 27.875 29.1245H26.625C26.4166 29.1245 26.3125 28.9683 26.3125 28.812C26.3125 28.6557 26.4166 28.4995 26.625 28.4995H27.875C27.875 28.4995 28.1875 28.4995 28.1875 28.812Z" fill="white"/>
<path d="M14.4375 21.312C14.4375 21.3531 14.4294 21.3937 14.4137 21.4316C14.398 21.4695 14.375 21.504 14.346 21.533C14.317 21.562 14.2825 21.585 14.2446 21.6007C14.2067 21.6164 14.166 21.6245 14.125 21.6245C14.0421 21.6245 13.9626 21.5916 13.904 21.533C13.8454 21.4744 13.8125 21.3949 13.8125 21.312C13.8125 21.271 13.8206 21.2303 13.8363 21.1924C13.852 21.1545 13.875 21.1201 13.904 21.0911C13.933 21.062 13.9675 21.039 14.0054 21.0233C14.0433 21.0076 14.084 20.9995 14.125 20.9995C14.166 20.9995 14.2067 21.0076 14.2446 21.0233C14.2825 21.039 14.317 21.062 14.346 21.0911C14.375 21.1201 14.398 21.1545 14.4137 21.1924C14.4294 21.2303 14.4375 21.271 14.4375 21.312Z" fill="white"/>
<path d="M13.1875 21.312C13.1875 21.3949 13.1546 21.4744 13.096 21.533C13.0374 21.5916 12.9579 21.6245 12.875 21.6245C12.7921 21.6245 12.7126 21.5916 12.654 21.533C12.5954 21.4744 12.5625 21.3949 12.5625 21.312C12.5625 21.271 12.5706 21.2303 12.5863 21.1924C12.602 21.1545 12.625 21.1201 12.654 21.0911C12.683 21.062 12.7175 21.039 12.7554 21.0233C12.7933 21.0076 12.834 20.9995 12.875 20.9995C12.916 20.9995 12.9567 21.0076 12.9946 21.0233C13.0325 21.039 13.0669 21.062 13.096 21.0911C13.125 21.1201 13.148 21.1545 13.1637 21.1924C13.1794 21.2303 13.1875 21.271 13.1875 21.312Z" fill="white"/>
<path d="M13.1875 22.562C13.1875 22.6449 13.1546 22.7244 13.096 22.783C13.0374 22.8416 12.9579 22.8745 12.875 22.8745C12.7921 22.8745 12.7126 22.8416 12.654 22.783C12.5954 22.7244 12.5625 22.6449 12.5625 22.562C12.5625 22.521 12.5706 22.4803 12.5863 22.4424C12.602 22.4045 12.625 22.37 12.654 22.341C12.683 22.312 12.7175 22.289 12.7554 22.2733C12.7933 22.2576 12.834 22.2495 12.875 22.2495C12.916 22.2495 12.9567 22.2576 12.9946 22.2733C13.0325 22.289 13.0669 22.312 13.096 22.341C13.125 22.37 13.148 22.4045 13.1637 22.4424C13.1794 22.4803 13.1875 22.521 13.1875 22.562Z" fill="white"/>
<path d="M27.5625 21.312C27.5625 21.3949 27.5954 21.4744 27.654 21.533C27.7126 21.5916 27.7921 21.6245 27.875 21.6245C27.9579 21.6245 28.0374 21.5916 28.096 21.533C28.1546 21.4744 28.1875 21.3949 28.1875 21.312C28.1875 21.271 28.1794 21.2303 28.1637 21.1924C28.148 21.1545 28.125 21.1201 28.096 21.0911C28.0669 21.062 28.0325 21.039 27.9946 21.0233C27.9567 21.0076 27.916 20.9995 27.875 20.9995C27.834 20.9995 27.7933 21.0076 27.7554 21.0233C27.7175 21.039 27.683 21.062 27.654 21.0911C27.625 21.1201 27.602 21.1545 27.5863 21.1924C27.5706 21.2303 27.5625 21.271 27.5625 21.312Z" fill="white"/>
<path d="M28.8125 21.312C28.8125 21.3949 28.8454 21.4744 28.904 21.533C28.9626 21.5916 29.0421 21.6245 29.125 21.6245C29.166 21.6245 29.2067 21.6164 29.2446 21.6007C29.2825 21.585 29.317 21.562 29.346 21.533C29.375 21.504 29.398 21.4695 29.4137 21.4316C29.4294 21.3937 29.4375 21.3531 29.4375 21.312C29.4375 21.271 29.4294 21.2303 29.4137 21.1924C29.398 21.1545 29.375 21.1201 29.346 21.0911C29.317 21.062 29.2825 21.039 29.2446 21.0233C29.2067 21.0076 29.166 20.9995 29.125 20.9995C29.084 20.9995 29.0433 21.0076 29.0054 21.0233C28.9675 21.039 28.933 21.062 28.904 21.0911C28.875 21.1201 28.852 21.1545 28.8363 21.1924C28.8206 21.2303 28.8125 21.271 28.8125 21.312Z" fill="white"/>
<path d="M28.8125 22.562C28.8125 22.6449 28.8454 22.7244 28.904 22.783C28.9626 22.8416 29.0421 22.8745 29.125 22.8745C29.166 22.8745 29.2067 22.8664 29.2446 22.8507C29.2825 22.835 29.317 22.812 29.346 22.783C29.375 22.754 29.398 22.7195 29.4137 22.6816C29.4294 22.6437 29.4375 22.6031 29.4375 22.562C29.4375 22.521 29.4294 22.4803 29.4137 22.4424C29.398 22.4045 29.375 22.37 29.346 22.341C29.317 22.312 29.2825 22.289 29.2446 22.2733C29.2067 22.2576 29.166 22.2495 29.125 22.2495C29.084 22.2495 29.0433 22.2576 29.0054 22.2733C28.9675 22.289 28.933 22.312 28.904 22.341C28.875 22.37 28.852 22.4045 28.8363 22.4424C28.8206 22.4803 28.8125 22.521 28.8125 22.562Z" fill="white"/>
<path d="M29.125 12.8745C29.084 12.8745 29.0433 12.8664 29.0054 12.8507C28.9675 12.835 28.933 12.812 28.904 12.783C28.875 12.7539 28.852 12.7195 28.8363 12.6816C28.8206 12.6437 28.8125 12.6031 28.8125 12.562C28.8125 12.4791 28.8454 12.3996 28.904 12.341C28.9626 12.2824 29.0421 12.2495 29.125 12.2495C29.166 12.2495 29.2067 12.2576 29.2446 12.2733C29.2825 12.289 29.317 12.312 29.346 12.341C29.375 12.37 29.398 12.4045 29.4137 12.4424C29.4294 12.4803 29.4375 12.521 29.4375 12.562C29.4375 12.6031 29.4294 12.6437 29.4137 12.6816C29.398 12.7195 29.375 12.7539 29.346 12.783C29.317 12.812 29.2825 12.835 29.2446 12.8507C29.2067 12.8664 29.166 12.8745 29.125 12.8745Z" fill="white"/>
<path d="M29.125 13.4995C28.8125 13.4995 28.8125 13.812 28.8125 13.812V16.937C28.8125 17.1454 28.9687 17.2495 29.125 17.2495C29.2813 17.2495 29.4375 17.1454 29.4375 16.937V13.812C29.4375 13.812 29.4375 13.4995 29.125 13.4995Z" fill="white"/>
<path d="M27.875 16.6245C27.834 16.6245 27.7933 16.6326 27.7554 16.6483C27.7175 16.664 27.683 16.687 27.654 16.716C27.625 16.745 27.602 16.7795 27.5863 16.8174C27.5706 16.8553 27.5625 16.896 27.5625 16.937C27.5625 17.0199 27.5954 17.0994 27.654 17.158C27.7126 17.2166 27.7921 17.2495 27.875 17.2495C27.916 17.2495 27.9567 17.2414 27.9946 17.2257C28.0325 17.21 28.067 17.187 28.096 17.158C28.125 17.129 28.148 17.0945 28.1637 17.0566C28.1794 17.0187 28.1875 16.9781 28.1875 16.937C28.1875 16.896 28.1794 16.8553 28.1637 16.8174C28.148 16.7795 28.125 16.745 28.096 16.716C28.067 16.687 28.0325 16.664 27.9946 16.6483C27.9567 16.6326 27.916 16.6245 27.875 16.6245Z" fill="white"/>
<path d="M27.875 15.9995C27.5625 15.9995 27.5625 15.687 27.5625 15.687V14.437C27.5625 14.2286 27.7187 14.1245 27.875 14.1245C28.0313 14.1245 28.1875 14.2286 28.1875 14.437V15.687C28.1875 15.687 28.1875 15.9995 27.875 15.9995Z" fill="white"/>
<path d="M12.875 12.8745C12.916 12.8745 12.9567 12.8664 12.9946 12.8507C13.0325 12.835 13.067 12.812 13.096 12.783C13.125 12.7539 13.148 12.7195 13.1637 12.6816C13.1794 12.6437 13.1875 12.6031 13.1875 12.562C13.1875 12.4791 13.1546 12.3996 13.096 12.341C13.0374 12.2824 12.9579 12.2495 12.875 12.2495C12.834 12.2495 12.7933 12.2576 12.7554 12.2733C12.7175 12.289 12.6831 12.312 12.654 12.341C12.625 12.37 12.602 12.4045 12.5863 12.4424C12.5706 12.4803 12.5625 12.521 12.5625 12.562C12.5625 12.6031 12.5706 12.6437 12.5863 12.6816C12.602 12.7195 12.625 12.7539 12.654 12.783C12.683 12.812 12.7175 12.835 12.7554 12.8507C12.7933 12.8664 12.834 12.8745 12.875 12.8745Z" fill="white"/>
<path d="M12.875 13.4995C13.1875 13.4995 13.1875 13.812 13.1875 13.812V16.937C13.1875 17.1454 13.0313 17.2495 12.875 17.2495C12.7187 17.2495 12.5625 17.1454 12.5625 16.937V13.812C12.5625 13.812 12.5625 13.4995 12.875 13.4995Z" fill="white"/>
<path d="M14.125 16.6245C14.166 16.6245 14.2067 16.6326 14.2446 16.6483C14.2825 16.664 14.317 16.687 14.346 16.716C14.375 16.745 14.398 16.7795 14.4137 16.8174C14.4294 16.8553 14.4375 16.896 14.4375 16.937C14.4375 17.0199 14.4046 17.0994 14.346 17.158C14.2874 17.2166 14.2079 17.2495 14.125 17.2495C14.084 17.2495 14.0433 17.2414 14.0054 17.2257C13.9675 17.21 13.9331 17.187 13.904 17.158C13.875 17.129 13.852 17.0945 13.8363 17.0566C13.8206 17.0187 13.8125 16.9781 13.8125 16.937C13.8125 16.896 13.8206 16.8553 13.8363 16.8174C13.852 16.7795 13.875 16.745 13.904 16.716C13.933 16.687 13.9675 16.664 14.0054 16.6483C14.0433 16.6326 14.084 16.6245 14.125 16.6245Z" fill="white"/>
<path d="M14.125 15.9995C14.4375 15.9995 14.4375 15.687 14.4375 15.687V14.437C14.4375 14.2286 14.2813 14.1245 14.125 14.1245C13.9687 14.1245 13.8125 14.2286 13.8125 14.437V15.687C13.8125 15.687 13.8125 15.9995 14.125 15.9995Z" fill="white"/>
</svg>
