<svg width="42" height="42" viewBox="0 0 42 42" fill="none" xmlns="http://www.w3.org/2000/svg">
<circle cx="21" cy="21" r="21" fill="#45C7FF"/>
<path d="M10.5 27.0005C10.5 27.2946 10.6718 27.5616 10.9398 27.6831L19.0844 31.5005L19.124 21.2401L10.5 17.2598V27.0005Z" fill="white"/>
<path d="M24.0277 19.3223L19.8738 21.2395L19.834 31.4991L28.0599 27.6817C28.3279 27.5601 28.4997 27.2931 28.4997 26.9991V20.028C28.0239 20.1701 27.5211 20.2491 26.9997 20.2491C25.8968 20.2491 24.8735 19.9055 24.0277 19.3223Z" fill="white"/>
<path d="M21.7504 15.0002C21.7504 14.5753 21.8066 14.1643 21.9023 13.7684L19.8105 12.8176C19.6135 12.7275 19.3872 12.7275 19.1902 12.8176C19.1902 12.8176 10.8994 16.595 10.8779 16.6075L19.5004 20.5871L23.3827 18.7952C22.3794 17.8385 21.7504 16.4927 21.7504 15.0002Z" fill="white"/>
<path d="M27 10.5C24.5147 10.5 22.5 12.5147 22.5 15C22.5 17.4853 24.5147 19.5 27 19.5C29.4853 19.5 31.5 17.4853 31.5 15C31.5 12.5147 29.4853 10.5 27 10.5ZM27 14.625C27.8269 14.625 28.5 15.2977 28.5 16.125C28.5 16.822 28.02 17.404 27.375 17.5717V17.625C27.375 17.8323 27.2073 18 27 18C26.7927 18 26.625 17.8323 26.625 17.625V17.5717C25.98 17.404 25.5 16.822 25.5 16.125C25.5 15.9177 25.6677 15.75 25.875 15.75C26.0823 15.75 26.25 15.9177 26.25 16.125C26.25 16.5385 26.5862 16.875 27 16.875C27.4138 16.875 27.75 16.5385 27.75 16.125C27.75 15.7115 27.4138 15.375 27 15.375C26.1731 15.375 25.5 14.7023 25.5 13.875C25.5 13.178 25.98 12.596 26.625 12.4283V12.375C26.625 12.1677 26.7927 12 27 12C27.2073 12 27.375 12.1677 27.375 12.375V12.4283C28.02 12.596 28.5 13.178 28.5 13.875C28.5 14.0823 28.3323 14.25 28.125 14.25C27.9177 14.25 27.75 14.0823 27.75 13.875C27.75 13.4615 27.4138 13.125 27 13.125C26.5862 13.125 26.25 13.4615 26.25 13.875C26.25 14.2885 26.5862 14.625 27 14.625Z" fill="white"/>
<circle cx="27" cy="15" r="4" fill="white"/>
<path d="M25.2817 15.0309C24.8919 15.0309 24.5794 14.9391 24.3445 14.7553C24.1148 14.5677 24 14.3202 24 14.0127C24 13.7126 24.1175 13.4688 24.3525 13.2813C24.5874 13.0938 24.8972 13 25.2817 13C25.6609 13 25.968 13.0938 26.2029 13.2813C26.4379 13.4688 26.5554 13.7126 26.5554 14.0127C26.5554 14.3202 26.4379 14.5677 26.2029 14.7553C25.9733 14.9391 25.6662 15.0309 25.2817 15.0309ZM25.2817 14.6203C25.474 14.6203 25.6235 14.5677 25.7303 14.4627C25.8425 14.354 25.8985 14.2039 25.8985 14.0127C25.8985 13.8289 25.8425 13.6826 25.7303 13.5738C25.6182 13.4651 25.4686 13.4107 25.2817 13.4107C25.0895 13.4107 24.9372 13.4651 24.8251 13.5738C24.7183 13.6826 24.6622 13.8289 24.6569 14.0127C24.6622 14.2039 24.7183 14.354 24.8251 14.4627C24.9319 14.5677 25.0841 14.6203 25.2817 14.6203ZM24.9693 16.9719L28.1415 13.0338H28.9586L25.7864 16.9719H24.9693ZM28.7263 17C28.3364 17 28.024 16.9081 27.7891 16.7243C27.5594 16.5368 27.4446 16.2893 27.4446 15.9817C27.4446 15.6817 27.5621 15.4379 27.7971 15.2504C28.032 15.0628 28.3418 14.9691 28.7263 14.9691C29.1055 14.9691 29.4126 15.0628 29.6475 15.2504C29.8825 15.4379 30 15.6817 30 15.9817C30 16.2893 29.8825 16.5368 29.6475 16.7243C29.4179 16.9081 29.1108 17 28.7263 17ZM28.7263 16.5893C28.9186 16.5893 29.0681 16.5368 29.1749 16.4318C29.287 16.323 29.3431 16.173 29.3431 15.9817C29.3431 15.7979 29.287 15.6517 29.1749 15.5429C29.0628 15.4341 28.9132 15.3797 28.7263 15.3797C28.534 15.3797 28.3818 15.4341 28.2697 15.5429C28.1629 15.6517 28.1068 15.7979 28.1015 15.9817C28.1068 16.173 28.1629 16.323 28.2697 16.4318C28.3765 16.5368 28.5287 16.5893 28.7263 16.5893Z" fill="#45C7FF"/>
</svg>
