<svg width="42" height="42" viewBox="0 0 42 42" fill="none" xmlns="http://www.w3.org/2000/svg">
<circle cx="21" cy="21" r="21" fill="#FFC362"/>
<path d="M30 14.002H28.0275L28.3387 14.752C28.4343 14.9668 28.486 15.1986 28.4908 15.4337C28.4957 15.6688 28.4535 15.9025 28.3669 16.1211C28.2803 16.3397 28.151 16.5388 27.9864 16.7068C27.8219 16.8748 27.6255 17.0083 27.4088 17.0995L27.24 17.1707C27.24 17.2757 27.24 17.377 27.2362 17.482L27.4088 17.5495C27.8403 17.7299 28.1832 18.0733 28.363 18.5052C28.5428 18.937 28.5448 19.4223 28.3688 19.8557L28.0012 20.7407C27.821 21.1724 27.4776 21.5155 27.0457 21.6953C26.6138 21.8751 26.1283 21.877 25.695 21.7007L25.5262 21.6295C25.455 21.7045 25.3838 21.7757 25.3088 21.847L25.38 22.0195C25.5585 22.4517 25.5585 22.937 25.38 23.3693C25.2014 23.8015 24.859 24.1454 24.4275 24.3257L23.5425 24.6932C23.1107 24.8718 22.6258 24.8722 22.1937 24.6944C21.7616 24.5167 21.4174 24.1752 21.2362 23.7445L21.165 23.5757C21.0637 23.5757 20.9588 23.5757 20.8575 23.572C20.7838 23.808 20.6621 24.0262 20.5001 24.213C20.3381 24.3997 20.1393 24.551 19.916 24.6574C19.6928 24.7637 19.4501 24.8227 19.2029 24.8308C18.9558 24.8389 18.7097 24.7959 18.48 24.7044L17.595 24.3369C17.367 24.2412 17.1615 24.0991 16.9913 23.9197C16.8212 23.7403 16.6901 23.5275 16.6066 23.2948C16.523 23.0621 16.4887 22.8145 16.5059 22.5679C16.5231 22.3212 16.5913 22.0808 16.7063 21.8619C16.6312 21.7907 16.56 21.7194 16.4887 21.6444C16.2699 21.759 16.0297 21.8271 15.7833 21.8444C15.5369 21.8618 15.2896 21.828 15.0569 21.7453C14.8241 21.6625 14.611 21.5326 14.4308 21.3636C14.2507 21.1946 14.1074 20.9901 14.01 20.7632L13.6425 19.8782C13.5499 19.6496 13.5055 19.4042 13.5122 19.1576C13.5189 18.911 13.5766 18.6684 13.6815 18.4452C13.7865 18.2219 13.9365 18.0227 14.1221 17.8602C14.3077 17.6977 14.5249 17.5753 14.76 17.5007C14.76 17.3995 14.76 17.2945 14.7638 17.1932L14.5912 17.122C14.1599 16.9424 13.8169 16.5997 13.6371 16.1684C13.4573 15.7371 13.4552 15.2523 13.6313 14.8195L13.9688 14.002H12C11.6023 14.0025 11.2211 14.1607 10.9399 14.4419C10.6587 14.7231 10.5005 15.1043 10.5 15.502V25.132H31.5V15.502C31.4995 15.1043 31.3413 14.7231 31.0601 14.4419C30.7789 14.1607 30.3977 14.0025 30 14.002Z" fill="white"/>
<path d="M10.5 25.8809V26.8896C10.4999 27.0866 10.5387 27.2817 10.6141 27.4637C10.6894 27.6457 10.7999 27.8111 10.9392 27.9504C11.0785 28.0897 11.2439 28.2002 11.4259 28.2755C11.6079 28.3509 11.803 28.3897 12 28.3896H18.7692L17.8697 30.6598H16.125C16.0255 30.6598 15.9302 30.6993 15.8598 30.7696C15.7895 30.8399 15.75 30.9353 15.75 31.0348C15.75 31.1342 15.7895 31.2296 15.8598 31.2999C15.9302 31.3702 16.0255 31.4098 16.125 31.4098H18.1133C18.1209 31.4179 23.8482 31.4039 23.8628 31.4098C23.8706 31.4119 23.8789 31.4118 23.8867 31.4098H25.875C25.9732 31.4078 26.0666 31.3674 26.1354 31.2973C26.2041 31.2272 26.2426 31.1329 26.2426 31.0347C26.2426 30.9366 26.2041 30.8423 26.1353 30.7722C26.0666 30.7021 25.9731 30.6617 25.875 30.6598H24.1303L23.2308 28.3896H30C30.197 28.3897 30.3921 28.3509 30.5741 28.2755C30.7561 28.2002 30.9215 28.0897 31.0608 27.9504C31.2001 27.8111 31.3106 27.6457 31.3859 27.4637C31.4613 27.2817 31.5001 27.0866 31.5 26.8896V25.8809H10.5ZM21.0075 26.7584C21.106 26.7598 21.2001 26.7999 21.2693 26.87C21.3384 26.9402 21.3772 27.0348 21.3772 27.1334C21.3772 27.2319 21.3384 27.3265 21.2693 27.3967C21.2001 27.4668 21.106 27.507 21.0075 27.5084C20.909 27.507 20.8149 27.4668 20.7457 27.3967C20.6766 27.3265 20.6378 27.2319 20.6378 27.1334C20.6378 27.0348 20.6766 26.9402 20.7457 26.87C20.8149 26.7999 20.909 26.7598 21.0075 26.7584ZM23.3236 30.6597H18.6764L19.5759 28.3896H22.4241L23.3236 30.6597Z" fill="white"/>
<path d="M14.8767 16.4281L15.368 16.6306C15.4195 16.65 15.4633 16.6859 15.4924 16.7326C15.5215 16.7794 15.5345 16.8345 15.5292 16.8893C15.503 17.1937 15.503 17.4999 15.5292 17.8043C15.5328 17.8584 15.5192 17.9123 15.4902 17.9581C15.4612 18.0039 15.4184 18.0394 15.368 18.0593L14.8805 18.2618C14.6337 18.3675 14.4381 18.5656 14.3358 18.8138C14.2334 19.062 14.2324 19.3404 14.333 19.5893L14.7042 20.4781C14.7554 20.6007 14.8303 20.712 14.9245 20.8057C15.0188 20.8994 15.1306 20.9736 15.2535 21.0241C15.3764 21.0746 15.5081 21.1004 15.641 21.1C15.7739 21.0996 15.9054 21.073 16.028 21.0218L16.5192 20.8193C16.5716 20.7981 16.6294 20.7943 16.6841 20.8085C16.7388 20.8227 16.7875 20.8541 16.823 20.8981C17.0158 21.1246 17.2265 21.3353 17.453 21.5281C17.6873 21.7158 17.4099 22.0554 17.3293 22.3193C17.2268 22.5679 17.2274 22.8471 17.3307 23.0953C17.4341 23.3436 17.6319 23.5406 17.8805 23.6431C18.1483 23.735 18.867 24.1117 19.1517 24.0856C19.353 24.0861 19.5499 24.0268 19.7174 23.9153C19.885 23.8038 20.0157 23.6451 20.093 23.4593L20.2955 22.9681C20.3145 22.9162 20.3503 22.8722 20.3972 22.843C20.444 22.8138 20.4993 22.8011 20.5542 22.8068C20.8587 22.8331 21.1648 22.8331 21.4692 22.8068C21.7471 22.7723 21.8 23.2164 21.9267 23.4556C21.9774 23.579 22.0523 23.691 22.147 23.785C22.2417 23.8791 22.3542 23.9532 22.478 24.0031C22.9704 24.2651 23.6861 23.7926 24.1392 23.6318C24.2624 23.5812 24.3744 23.5068 24.4687 23.4127C24.5629 23.3187 24.6377 23.2069 24.6886 23.0839C24.7395 22.9608 24.7655 22.8289 24.7652 22.6958C24.7649 22.5626 24.7382 22.4308 24.6867 22.308L24.4842 21.8168C24.4624 21.7648 24.4579 21.7072 24.4714 21.6525C24.4849 21.5978 24.5157 21.5489 24.5592 21.513C24.7867 21.3212 24.9974 21.1105 25.1892 20.883C25.2252 20.8397 25.2739 20.8088 25.3284 20.7947C25.3829 20.7805 25.4405 20.7839 25.493 20.8043L25.9842 21.0068C26.2329 21.1092 26.512 21.1086 26.7603 21.0053C27.0085 20.9019 27.2055 20.7042 27.308 20.4555L27.6755 19.5668C27.7758 19.3179 27.7742 19.0396 27.6711 18.792C27.5679 18.5443 27.3715 18.3471 27.1242 18.243L26.633 18.0405C26.5816 18.0219 26.5379 17.9868 26.5088 17.9406C26.4796 17.8944 26.4665 17.8399 26.4717 17.7855C26.498 17.4798 26.498 17.1725 26.4717 16.8668C26.4686 16.8128 26.4825 16.7591 26.5114 16.7134C26.5403 16.6677 26.5828 16.6321 26.633 16.6118L27.1205 16.4093C27.3674 16.3037 27.563 16.1056 27.6654 15.8574C27.7678 15.6092 27.7687 15.3307 27.668 15.0818C27.5269 14.7137 27.3667 14.3532 27.188 14.0018C27.0552 13.8143 26.8628 13.6773 26.6421 13.6133C26.4214 13.5493 26.1855 13.562 25.973 13.6493C25.7065 13.7315 25.3617 14.0092 25.178 13.7768C24.9862 13.5494 24.7754 13.3386 24.548 13.1468C24.5049 13.1106 24.4742 13.062 24.4601 13.0075C24.446 12.9531 24.4492 12.8956 24.4692 12.8431L24.6718 12.3518C24.7738 12.1031 24.7731 11.8241 24.6697 11.576C24.5664 11.3278 24.3689 11.1308 24.1205 11.0281L23.2318 10.6643C22.9831 10.5619 22.704 10.5624 22.4557 10.6658C22.2075 10.7692 22.0105 10.9669 21.908 11.2156C21.7842 11.4475 21.7287 11.8999 21.4467 11.8681C21.1424 11.8406 20.8363 11.8393 20.5318 11.8643C20.4775 11.8689 20.4232 11.8556 20.3771 11.8265C20.3311 11.7974 20.2958 11.7541 20.2767 11.7031L20.0742 11.2156C19.969 10.9685 19.7707 10.7728 19.5222 10.671C19.2737 10.5692 18.995 10.5695 18.7467 10.6718L17.8617 11.0393C17.7384 11.0903 17.6264 11.1652 17.5322 11.2595C17.4379 11.3539 17.3631 11.466 17.3123 11.5893C17.2614 11.7127 17.2354 11.8449 17.2357 11.9783C17.2361 12.1117 17.2627 12.2437 17.3142 12.3668L17.5167 12.8543C17.5386 12.9063 17.5431 12.9639 17.5296 13.0186C17.5161 13.0733 17.4853 13.1222 17.4417 13.1581C17.2143 13.3499 17.0035 13.5606 16.8117 13.7881C16.6159 14.0215 16.2866 13.7471 16.0167 13.6643C15.7681 13.5619 15.489 13.5625 15.2407 13.6658C14.9925 13.7692 14.7954 13.9669 14.693 14.2156L14.3255 15.1043C14.2248 15.3531 14.2262 15.6316 14.3294 15.8793C14.4326 16.1271 14.6292 16.3243 14.8767 16.4281ZM21.0005 13.2968C22.0713 13.2978 23.098 13.7237 23.8552 14.4809C24.6124 15.2381 25.0382 16.2647 25.0392 17.3356C24.8182 22.6936 17.182 22.6921 16.9617 17.3355C16.9628 16.2647 17.3886 15.238 18.1458 14.4809C18.903 13.7237 19.9297 13.2978 21.0005 13.2968Z" fill="white"/>
<path d="M20.9997 20.6241C21.8716 20.623 22.7075 20.2762 23.324 19.6597C23.9405 19.0431 24.2873 18.2073 24.2884 17.3354C24.1128 12.9761 17.8859 12.9774 17.7109 17.3354C17.712 18.2073 18.0589 19.0432 18.6754 19.6597C19.2919 20.2762 20.1278 20.623 20.9997 20.6241ZM22.3572 16.6679C22.2891 16.5968 22.2516 16.5018 22.2526 16.4033C22.2537 16.3049 22.2933 16.2107 22.3629 16.1411C22.4326 16.0715 22.5267 16.0319 22.6251 16.0308C22.7236 16.0298 22.8186 16.0673 22.8897 16.1354L23.6584 16.9041C23.7719 17.019 23.8356 17.1739 23.8356 17.3354C23.8356 17.4968 23.7719 17.6518 23.6584 17.7666L22.8897 18.5354C22.8186 18.6035 22.7236 18.6411 22.6251 18.64C22.5266 18.639 22.4325 18.5994 22.3628 18.5298C22.2932 18.4601 22.2536 18.366 22.2525 18.2675C22.2515 18.169 22.289 18.074 22.3572 18.0029L23.0284 17.3354L22.3572 16.6679ZM20.2834 18.1341L21.0184 16.2666C21.0363 16.2206 21.063 16.1786 21.0971 16.143C21.1312 16.1074 21.1721 16.0788 21.2172 16.059C21.2624 16.0392 21.311 16.0285 21.3604 16.0275C21.4097 16.0266 21.4587 16.0353 21.5046 16.0534C21.5505 16.0714 21.5924 16.0983 21.6279 16.1325C21.6634 16.1668 21.6918 16.2077 21.7114 16.253C21.7311 16.2982 21.7416 16.3469 21.7423 16.3962C21.7431 16.4455 21.7341 16.4945 21.7159 16.5404L20.9809 18.4079C20.9432 18.4984 20.8716 18.5705 20.7813 18.6087C20.691 18.647 20.5894 18.6484 20.4981 18.6125C20.4069 18.5767 20.3333 18.5066 20.2932 18.4171C20.253 18.3277 20.2495 18.2261 20.2834 18.1341ZM19.1097 16.1354C19.1808 16.0672 19.2758 16.0295 19.3743 16.0306C19.4728 16.0316 19.567 16.0712 19.6367 16.1409C19.7064 16.2105 19.746 16.3047 19.747 16.4033C19.748 16.5018 19.7104 16.5968 19.6422 16.6679L18.9709 17.3354L19.6422 18.0029C19.6935 18.0559 19.7282 18.1228 19.742 18.1953C19.7558 18.2679 19.7481 18.3428 19.7197 18.411C19.6914 18.4792 19.6438 18.5376 19.5827 18.579C19.5216 18.6204 19.4497 18.6431 19.3759 18.6441C19.2764 18.6437 19.181 18.6047 19.1097 18.5354L18.3409 17.7666C18.2274 17.6518 18.1638 17.4968 18.1638 17.3354C18.1638 17.1739 18.2274 17.019 18.3409 16.9041L19.1097 16.1354Z" fill="white"/>
</svg>
