<svg width="42" height="42" viewBox="0 0 42 42" fill="none" xmlns="http://www.w3.org/2000/svg">
<circle cx="21" cy="21" r="21" fill="#45C7FF"/>
<path d="M16.2594 29.5906H29.9437C30.1156 29.5906 30.2562 29.4531 30.2562 29.2781C30.2562 29.1063 30.1156 28.9656 29.9437 28.9656H29.2531V19.5812H30.0625C30.1844 19.5812 30.2969 19.5094 30.3469 19.4C30.3969 19.2875 30.3781 19.1562 30.2969 19.0656L27.5844 15.9562C27.4656 15.8219 27.2313 15.8219 27.1125 15.9562L24.4 19.0656C24.3187 19.1562 24.3 19.2875 24.35 19.4C24.4 19.5094 24.5125 19.5812 24.6344 19.5812H25.4437V28.9656H24.9688V21.4469C24.9688 21.275 24.8281 21.1344 24.6563 21.1344H21.4688C21.2969 21.1344 21.1562 21.275 21.1562 21.4469V28.9656H20.725V23.5344C20.725 23.3625 20.5844 23.2219 20.4125 23.2219H17.225C17.05 23.2219 16.9125 23.3625 16.9125 23.5344V28.9656H16.5719V25.7125C16.5719 25.5375 16.4313 25.4 16.2594 25.4H13.0719C12.8969 25.4 12.7594 25.5375 12.7594 25.7125V28.9656H11.9375C11.7656 28.9656 11.625 29.1063 11.625 29.2781C11.625 29.4531 11.7656 29.5906 11.9375 29.5906H16.2594Z" fill="white"/>
<path d="M16.3 21.7592C18.8781 21.7592 20.975 19.6623 20.975 17.0842C20.975 14.506 18.8781 12.4092 16.3 12.4092C13.7219 12.4092 11.625 14.506 11.625 17.0842C11.625 19.6623 13.7219 21.7592 16.3 21.7592ZM16.5437 17.3967H16.0562C15.3937 17.3967 14.8563 16.8592 14.8563 16.1967C14.8563 15.556 15.3563 15.031 15.9875 14.9967V14.4998C15.9875 14.3279 16.1281 14.1873 16.3 14.1873C16.475 14.1873 16.6125 14.3279 16.6125 14.4998V14.9967C17.2437 15.031 17.7469 15.556 17.7469 16.1967C17.7469 16.3685 17.6063 16.5092 17.4344 16.5092C17.2594 16.5092 17.1219 16.3685 17.1219 16.1967C17.1219 15.8779 16.8625 15.6185 16.5437 15.6185H16.0562C15.7406 15.6185 15.4813 15.8779 15.4813 16.1967C15.4813 16.5123 15.7406 16.7717 16.0562 16.7717H16.5437C17.2062 16.7717 17.7469 17.3123 17.7469 17.9717C17.7469 18.6123 17.2437 19.1373 16.6125 19.1717V19.6685C16.6125 19.8435 16.475 19.981 16.3 19.981C16.1281 19.981 15.9875 19.8435 15.9875 19.6685V19.1717C15.3563 19.1373 14.8563 18.6123 14.8563 17.9717C14.8563 17.7998 14.9969 17.6592 15.1688 17.6592C15.3406 17.6592 15.4813 17.7998 15.4813 17.9717C15.4813 18.2904 15.7406 18.5498 16.0562 18.5498H16.5437C16.8625 18.5498 17.1219 18.2904 17.1219 17.9717C17.1219 17.656 16.8625 17.3967 16.5437 17.3967Z" fill="white"/>
</svg>
