<svg width="42" height="42" viewBox="0 0 42 42" fill="none" xmlns="http://www.w3.org/2000/svg">
<circle cx="21" cy="21" r="21" fill="#30D287"/>
<path d="M30.7451 26.2007C30.0178 26.2007 29.3996 26.8189 29.3996 27.5462C29.3996 27.8735 29.5087 28.1644 29.7269 28.4189C29.7996 28.4917 29.8724 28.5644 29.9815 28.6371L29.5815 29.1462H26.0906C28.236 27.5098 29.6178 24.8917 29.6178 21.9826C29.6178 21.7644 29.4724 21.6189 29.2542 21.6189H20.9633V13.328C20.9633 13.1098 20.7815 12.9644 20.5996 12.9644C18.6724 12.9644 16.8906 13.5826 15.3996 14.6007L11.9087 14.1644L11.5087 13.4735C11.836 13.2189 12.0542 12.8189 12.0542 12.3826C12.0542 11.6553 11.436 11.0371 10.7087 11.0371C9.98146 11.0371 9.36328 11.6553 9.36328 12.3826C9.36328 12.7098 9.47237 13.0007 9.69055 13.2553C9.9451 13.5826 10.3087 13.728 10.7087 13.728H10.7815L11.3633 14.7098C11.436 14.8189 11.5087 14.8553 11.6178 14.8917L14.5996 15.2553C12.7451 16.8917 11.5451 19.328 11.5451 21.9826C11.5451 26.9644 15.5815 31.0007 20.5633 31.0007C22.1633 31.0007 23.6542 30.6007 24.9269 29.8735H29.6542C29.7633 29.8735 29.8724 29.8371 29.9451 29.728L30.636 28.8553H30.6724C31.3996 28.8553 32.0178 28.2371 32.0178 27.5098C32.0906 26.7826 31.4724 26.2007 30.7451 26.2007ZM10.7087 13.0007C10.5269 13.0007 10.3451 12.928 10.236 12.7826C10.1269 12.6735 10.0906 12.528 10.0906 12.3826C10.0906 12.0553 10.3815 11.7644 10.7087 11.7644C11.036 11.7644 11.3269 12.0553 11.3269 12.3826C11.3269 12.7462 11.036 13.0007 10.7087 13.0007ZM30.7451 28.1644C30.5633 28.1644 30.3815 28.0917 30.2724 27.9462C30.1633 27.8371 30.1269 27.6917 30.1269 27.5462C30.1269 27.2189 30.4178 26.928 30.7451 26.928C31.0724 26.928 31.3633 27.2189 31.3633 27.5462C31.3633 27.8735 31.0724 28.1644 30.7451 28.1644Z" fill="white"/>
<path d="M31.2908 11.6545C30.6726 11.6545 30.1635 12.0909 29.9817 12.6364H27.6181C26.1635 11.6182 24.3817 11 22.4545 11C22.2726 11 22.0908 11.1455 22.0908 11.3636V20.0182C22.0908 20.2 22.2726 20.3818 22.4545 20.3818H31.109C31.3272 20.3818 31.4726 20.2 31.4726 20.0182C31.4726 17.4 30.3454 15 28.5272 13.3636H29.9817C30.0181 13.5455 30.1272 13.7273 30.2363 13.8727C30.4908 14.1636 30.8545 14.3455 31.2545 14.3455C31.9817 14.3455 32.5999 13.7273 32.5999 13C32.5999 12.2727 32.0181 11.6545 31.2908 11.6545ZM31.2908 13.6182C31.109 13.6182 30.9272 13.5455 30.8181 13.4C30.709 13.2909 30.6726 13.1455 30.6726 13C30.6726 12.6727 30.9635 12.3818 31.2908 12.3818C31.6181 12.3818 31.909 12.6364 31.909 13C31.909 13.3273 31.6181 13.6182 31.2908 13.6182Z" fill="white"/>
</svg>
