<svg width="42" height="42" viewBox="0 0 42 42" fill="none" xmlns="http://www.w3.org/2000/svg">
<circle cx="21" cy="21" r="21" fill="#30D287"/>
<path d="M30.0271 18.7712C29.9448 18.7472 29.8694 18.6992 29.8111 18.6341C29.7185 18.5312 29.6705 18.401 29.6774 18.2638C29.6843 18.1267 29.7425 17.9998 29.8454 17.9072C29.8934 17.8661 29.938 17.8215 29.9825 17.777C29.9928 17.7667 30.0031 17.7564 30.01 17.7461C30.0168 17.801 30.0203 17.8524 30.0203 17.9072L30.0271 18.7712Z" fill="white"/>
<path d="M30.1986 18.4657C30.1506 18.4657 30.106 18.4452 30.0717 18.4109C30.0066 18.3423 30.0134 18.2326 30.082 18.1675C30.1334 18.1229 30.1814 18.0749 30.2329 18.0269C31.4637 16.796 31.7071 15.0337 30.7746 14.1012C29.842 13.1686 28.0797 13.412 26.8489 14.6429C26.2591 15.2326 25.9197 15.8703 25.81 16.5972C25.7963 16.6897 25.7106 16.7549 25.6146 16.7412C25.522 16.7275 25.4569 16.6383 25.4706 16.5457C25.5906 15.7435 25.9643 15.044 26.6054 14.3995C27.97 13.0349 29.9483 12.7915 31.018 13.8577C32.0843 14.924 31.8409 16.9023 30.4763 18.2703C30.4249 18.3217 30.37 18.3732 30.3151 18.4246C30.2809 18.452 30.2397 18.4657 30.1986 18.4657Z" fill="white"/>
<path d="M19.3751 28.6502C19.7214 28.6502 20.0437 28.5165 20.2871 28.2731L26.0231 22.5371C26.5237 22.0365 26.5237 21.2171 26.0231 20.7165L21.4357 16.1291C21.1854 15.8788 20.8562 15.752 20.5237 15.752C20.1945 15.752 19.8654 15.8788 19.6117 16.1291L13.8791 21.8651C13.6357 22.1085 13.502 22.4342 13.502 22.7771C13.502 23.1234 13.6357 23.4457 13.8791 23.6891L18.4631 28.2765C18.7065 28.52 19.0288 28.6502 19.3751 28.6502ZM19.8277 18.4434C19.8928 18.3748 20.0025 18.3714 20.0711 18.44L23.6197 21.8411C23.6882 21.9062 23.6917 22.016 23.6231 22.0845C23.5888 22.1188 23.5442 22.136 23.4997 22.136C23.4585 22.136 23.414 22.1188 23.3797 22.088L19.8311 18.6868C19.7625 18.6182 19.7625 18.512 19.8277 18.4434ZM18.0517 20.144C18.1168 20.0754 18.2265 20.072 18.2951 20.1405L21.8437 23.5417C21.9122 23.6068 21.9157 23.7165 21.8471 23.7851C21.8128 23.8194 21.7682 23.8365 21.7237 23.8365C21.6825 23.8365 21.638 23.8194 21.6037 23.7885L18.0551 20.3874C17.99 20.3222 17.9865 20.2125 18.0517 20.144ZM16.2825 22.088C16.214 22.0228 16.2105 21.9131 16.2791 21.8445C16.3442 21.776 16.454 21.7725 16.5225 21.8377L20.0711 25.2422C20.1397 25.3074 20.1431 25.4171 20.0745 25.4857C20.0402 25.52 19.9957 25.5371 19.9511 25.5371C19.91 25.5371 19.8654 25.52 19.8311 25.4891L16.2825 22.088Z" fill="white"/>
<path d="M25.392 14.4029L25.8 14.8109C25.5429 15.1743 25.3577 15.5583 25.2411 15.9663L24.5349 15.26C24.2983 15.0235 24.2983 14.6395 24.5349 14.4029C24.648 14.2898 24.8023 14.2246 24.9634 14.2246C25.1246 14.2246 25.2789 14.2898 25.392 14.4029Z" fill="white"/>
<path d="M27.7341 17.6035C27.5044 17.8332 27.1032 17.8332 26.877 17.6035L26.085 16.8115C26.1124 16.7601 26.1295 16.7052 26.1398 16.6435C26.1981 16.2561 26.3318 15.8961 26.5444 15.5566L27.7341 16.7464C27.9707 16.9829 27.9707 17.3669 27.7341 17.6035Z" fill="white"/>
<path d="M30.0309 19.4309V19.3966L30.0275 18.7726L30.0206 17.9086C30.0206 17.8537 30.0172 17.8023 30.0104 17.7475C29.9726 17.144 29.7052 16.5612 29.2766 16.1292L27.5966 14.4492C27.4149 14.5726 27.2435 14.7166 27.0824 14.8777C26.9555 15.0046 26.8424 15.1349 26.7395 15.2686L27.9738 16.5029C28.3441 16.8732 28.3441 17.4766 27.9738 17.8469C27.7955 18.0252 27.5589 18.1246 27.3052 18.1246C27.0515 18.1246 26.8115 18.0252 26.6332 17.8469L24.2915 15.5052C23.9212 15.1349 23.9212 14.5315 24.2915 14.1612C24.6515 13.8046 25.2755 13.8046 25.6355 14.1612L26.0092 14.5349C26.1155 14.4046 26.2286 14.2778 26.3555 14.1509C26.5166 13.9898 26.6846 13.8457 26.8595 13.712L26.0092 12.8617C25.5395 12.3955 24.8915 12.1212 24.2298 12.1177L21.0789 12.0938H21.0549C20.3864 12.0938 19.7349 12.3646 19.2618 12.8377L11.0641 21.0355C10.0698 22.0297 10.0698 23.6412 11.0641 24.6355L17.5029 31.0743C17.9829 31.5543 18.6241 31.8217 19.3029 31.8217C19.9818 31.8217 20.6229 31.5543 21.1029 31.0743L29.3006 22.8766C29.7806 22.3966 30.0515 21.7349 30.0446 21.0595L30.0309 19.4309ZM26.2595 22.7737L20.5235 28.5098C20.2149 28.8183 19.8035 28.9863 19.3681 28.9863C18.9326 28.9863 18.5212 28.8183 18.2161 28.5098L13.6286 23.9223C13.3201 23.6172 13.1486 23.2058 13.1521 22.7703C13.1521 22.3349 13.3201 21.9235 13.6286 21.6149L19.3646 15.8789C19.9989 15.2446 21.0344 15.2446 21.6721 15.8789L26.2595 20.4663C26.8938 21.104 26.8938 22.1395 26.2595 22.7737Z" fill="white"/>
<path d="M28.114 13.046C27.7815 13.1557 27.4557 13.3134 27.1472 13.5123L26.2592 12.6277C25.7277 12.0963 24.9906 11.7877 24.2397 11.7808L21.0889 11.7568C20.3312 11.7465 19.57 12.0585 19.0249 12.6037L10.8272 20.8014C10.6455 20.9831 10.498 21.182 10.3746 21.3945C10.2203 20.5785 10.4706 19.7214 11.0706 19.1214L19.2649 10.9237C19.7415 10.4505 20.3929 10.1797 21.0649 10.1797H21.0889L24.2363 10.2037C24.9083 10.2105 25.5392 10.4745 26.0157 10.9477L28.114 13.046Z" fill="white"/>
<path d="M30.0305 16.584C29.8968 16.3303 29.7288 16.0971 29.5265 15.8914L27.8945 14.2629C28.2408 14.0709 28.6042 13.9406 28.9608 13.8926L29.2831 14.2149C29.7597 14.6949 30.0237 15.3257 30.0271 15.9943L30.0305 16.584Z" fill="white"/>
</svg>
