<svg width="20" height="20" viewBox="0 0 20 20" fill="none" xmlns="http://www.w3.org/2000/svg">
<g clip-path="url(#clip0_22001_4020)">
<path d="M15.5479 4.49186L14.8224 0L13.5154 1.71779C10.2772 0.352094 6.40415 0.938917 3.7261 3.50493C0.391878 6.70045 0.0984664 12.0512 2.93122 15.6042L4.3556 14.1851C2.30172 11.4431 2.52045 7.53268 5.01711 5.04134C6.96963 3.09416 9.78105 2.56602 12.2297 3.3929L11.008 4.99867L15.5479 4.49186Z" fill="white"/>
<path d="M17.031 4.37451L15.596 5.80423C17.8633 8.82903 17.3725 13.2782 14.0916 15.6682C12.2564 17.0072 9.86647 17.3273 7.75925 16.6284L8.99691 15.0013L4.45703 15.5081L5.18256 20L6.49491 18.2769C9.77045 19.6426 13.6915 19.0077 16.3589 16.351C19.6451 13.0862 19.8638 7.90612 17.031 4.37451Z" fill="white"/>
<path d="M10.0051 11.0054C10.0745 11.0054 10.1385 11.032 10.2025 11.048C10.1385 11.016 10.0745 11.0054 10.0051 11.0054Z" fill="white"/>
<path d="M10.0051 6.00146L5.99341 9.00493H6.99634V13.006H9.00221V12.0137C9.00221 11.4589 9.43966 11.0055 9.99448 11.0055C9.99448 11.0055 9.99448 11.0055 9.99981 11.0055C9.99981 11.0055 9.99981 11.0055 10.0051 11.0055C10.0745 11.0055 10.1438 11.0215 10.2025 11.0481C10.6613 11.1442 11.0081 11.5336 11.0081 12.0137V13.006H13.0139V9.00493H14.0169L10.0051 6.00146Z" fill="white"/>
</g>
<defs>
<clipPath id="clip0_22001_4020">
<rect width="20" height="20" fill="white"/>
</clipPath>
</defs>
</svg>
